/* XPM */
static char *attack[] = {
/* columns rows colors chars-per-pixel */
"288 48 8 1 ",
"  c #25131A",
". c #3D253B",
"X c #523B40",
"o c #56587B",
"O c #895A45",
"+ c #5880CC",
"@ c #62ABD4",
"# c None",
/* pixels */
"#########################################################################################################################################################   ####################################################################################################################################",
"################################################################################################################  ####################################### @@ ###################################################################################################################################",
"############################################################################################################### @ ####################################### @@@ ############################################  #################################################  #################################",
"############   #############################################  #############################################   # @@ ###################################### @@@ ############################################ O ############################################### O #################################",
"########### OO ############################################ OO ########################################### OOO @@@ #####################################  @@@ ############################################ OO  ############################################# O #################################",
"########## OO ############################################ OO  ########################################### OO  @@@ #####################################  @@@ ############################################ OOOO ############################################ OO ################################",
"########## OO  ########################################### OO  ########################################## OOO  @@@ #####################################  @@@ ############################################# OOOO  ########################################## OO  ###############################",
"########## OOOX ########################################## OOOX ######################################### OOOX @@@ #################################### X @@@  ############################################# OOOOO ##########@############################# XOOOX ##############################",
"######### XOOOOX ######################################## XOOOOX ####################################### XOOO @@@ ##################################### X @@@ X ############################################ XOOOOO ##########@############################ XOOOOX #############################",
"######### XOOOOOX ####################################### XOOOOOX ###################################### XOOO @@@ ##################################### OX @@ XO ##########################################   XOOOOO #########@@########################### XOOOOOX ############################",
"######### OXOOOOXO ###################################### OXOOOOXO #################################### O XOO @@@ ##################################### O  @@ XO ########################################## OO XOOOX ##########@@########################## OXOOOOX ############################",
"######### O XOOOXO ###################################### O XOOOXO #################################### O Oo+ @@ ###################################### OO @@ +X ########################################### OOOo+++ ##########@@@######################### OOXOOOXO ###########################",
"######### OOOo+++X ###################################### OOOo+++X #################################### OOO+ @@@ ####################################### OOOO +X ############################################ OO++++ ##########@@@########################## OOo+++O ###########################",
"########## OO++++X ####################################### OO++++X #####################################  X+ OO ######################################### X++ + ############################################## X++++ ##########@@@@########################## O++++X ###########################",
"########### X++++ ######################################### X++++ ######################################## + ++ ########################################## ++ + ############################################### ++++ ###########@@@ ########################## ++++ ############################",
"############ ++++ ########################################## ++++ #####################################     +++   #####################################    ++ +   ###########################################   ++++  ##########@@@ ########################## ++++ ############################",
"##########   ++++  #######################################   ++++  ###  ############################## OOOO ++ XXX ################################### OOXOO+++XXX ######################################### OOO++++XX #########@@@@ ########################  ++++ ############################",
"######### OOO++++XX ##################################### OOO++++XX # @ ############################## OOOOOO+oXXXX ################################# OOOOOO++oXXXX ##       ############################## OOOOo++oXXX ########@@@@ ####################### OO++++X ###########################",
"######## OOOOo++oXXX ################################### OOOOo++oXXX @@ ############################## OOOXOOXOOOXX ################################# OOOOOOXOOOOXX   XXXXXX. ############################# OOOOXOOOOOX ########@@@@ ###################### OOOO++oXX ##########################",
"######## OOOOXOOOOOX ################################### OOOOXOOOOO @@@ ############################### +++OOOOOOXX ################################## +++++OOOOOXXooX...XXX. ############################## ++OOOOOOOX ####### @@@@ ###################### OOOOXOOOO ##########################",
"####### ++OOOOOOOOOX    ################################ +OOOOOOOO @@@@ ############################### ++++XOOOOX ###    ############################ ++++OOOOOOXoXXXooooXX. ############################## +++OOOOOOX ###### @@@@@ ###################### OOOOOOOOO ##########################",
"####### ++oOOOOOOOOX XXX ############################### ++OOOOOO @@@@   ############################### +++OOOOOoo   XXXX    ######################### +++OOOOOO  XXXooooXX. ############################### +++XOOO .X #### @@@@@@ ###################### ++OXOOOOOX #########################",
"###### OO+  XOOOOOO X...X ############################## ++ XOOO @@@@ XXX  ############################## XOOOOOXooXX X...XXX ##########################  XOOOOOX #  X...XXX. ############################### X+OOOXX ..X #  @@@@@@@ ###################### +++OOOOOO.X ########################",
"###### OO # XOOOOOXX.....X ############################# OO XOO @@@@ X.....  ############################ XXOOOXXooXXXo...XXX ########################### XXOOOXX ## X...XXX. ############################### XXOOO++ ...X @@@@@@@@@ ####################### +++OOOOXXXX #######################",
"##### +OO # XXOOOXX.....XXX ############################ OO X  @@@   X....XXX ########################### XXOOOOOo  XXooooXXX ########################### XXOOOOO ## X...XXX. ############################## XXOXX+++++OO@@@@@@@@@@ ########################  OOXOOXXXXX #######################",
"##### ++ # XXOOOOOoo...XXXX ############################ OO+ OO@@ oXXoo...XXX ########################### XXooooooo  XooooXX. ########################### XXoooooo # X...XXX. ############################## XXooooo+++OO@@@@@@@   ######################## XXOOOOOOXXX. #######################",
"###  +++            o.XXXX. ############################# ++++O  ooXXooooXXX. ########################### oooooooooo X...XXX. ########################### ooooooooo  X...XXX. ############################# ooooooooo           ########################### XXXOO+oo      ######################",
"### O++O@@@@@@@@@@@ oXXXX. ############################### O++ ooooo.ooooXXX ############################ ooo++++oooX....XXX ############################ ooo++++oo # ...XXX ############################## ooo++++ooXX. ################################## ooo +++O@@@@@@      ################",
"### O++O@@@@@@@@@@@ oXXX. ################################ OO ++++oo....XXX. ############################ oo++++++ooX....XXX ############################ oo++++++oo # ..XX ############################### oo++++++oX. ################################### ooo O++O@@@@@@@@@@@ ################",
"####       @@@@@@@ oXXX. #################################   ++++++o....XXX ############################## o+++++++oX...XXX. ############################# o+++++++o ## .X ################################# o+++++++o ####################################  o++       @@@@@@@@ ################",
"###########       ++oX. ################################### o+++++++o..XXX. ############################### o+++++++ ...XXX. ############################## o+++++++o ##  ################################### o+++++++ ##################################### o+++++++o    @@@@ #################",
"############ o+++++++  ##################################### o+++++++..XXX ################################# o++++++o ..XXX ################################  ++++++o ######################################## o+++++o ###################################### +++++++o ###    ##################",
"#############  ++++++o ######################################  ++++++o XX. ################################## ++++++o  .XX ################################### +++++o ######################################### o++++o ####################################### ++++++o #########################",
"############### +++++o ######################################## +++++o XX #################################### +++++o #   ##################################### +++oo ########################################## +++oo ######################################## o+++oo #########################",
"################ +++oo ######################################### +++oo   ###################################### o++oo ########################################## oo++ ########################################## oo++o ################################  ####### oo++o #########################",
"################ oo++o ######################################### oo++o ######################################## oo++o ########################################## o+++ ########################################## o+++o ################################ + ###### o+++o #########################",
"################ o+++o ######################################### o+++o ######################################## o+++o ########################################## o+++ ########################################## o+++ ################################# ++  #### o+++ ##########################",
"################ o+++ ########################################## o+++ ######################################### o++o ########################################### o++o ################################  ######## o++o ###############################   o++o  ## o++o ##########################",
"######  ######## o++o ########################################## o++o ######################################### o++o ########################################## OOoo ################################# +     ## OOoo ################################ +++++++o  OOOo ###########################",
"###### +     ## OOoo #################################  ####### OOoo ########################################## OOo ######################################     OOOO ################################## +++++o  OOOO ##################################  +++++++OOOO ############################",
"###### +++++o  OOOO ################################## +       OOOO ########################################## OOOo ####################################  o++++OOO ##################################   o++++++OOO #####################################  +++++OO  #############################",
"#####   o++++++OOO ##################################  ++++++++OOO ########################################   +OOO ##################################   o++++++o  ################################### +++++++++o  ########################################       ###############################",
"##### +++++++++o  ################################### + o++++++o  ####################################     +++++O ################################### +++++++   ######################################    ++++  ################################################################################",
"######    ++++  ###################################### ++++++++ ###################################### +++++++++ #####################################  +++  #############################################    ##################################################################################",
"##########    #########################################  +++o  ########################################  o++++o ###################################### +++ #####################################################################################################################################",
"#########################################################    ########################################## +++++  ####################################### +  ######################################################################################################################################",
"#######################################################################################################      #########################################  ########################################################################################################################################",
"################################################################################################################################################################################################################################################################################################"
};
