/* XPM */
static char *death[] = {
/* columns rows colors chars-per-pixel */
"288 48 8 1 ",
"  c #25131A",
". c #3D253B",
"X c #523B40",
"o c #56587B",
"O c #895A45",
"+ c #5880CC",
"@ c #62ABD4",
"# c None",
/* pixels */
"################################################################################################################################################################################################################################################################################################",
"#########################################################  ########################################################################################## ##########################################################################################################################################",
"##########   ##########################################################################################  #######################################################################################################################################################################################",
"########## OO ######################################################################################### O ######################################################################################################################################################################################",
"###########   ###########################################   ############################################  ######################################################################################################################################################################################",
"######################################################### OO ###################################################################################################################################################################################################################################",
"##########    ########################################### OO ###################################################################################################################################################################################################################################",
"########   OOO #######################################  ##   ######### ############################# ##################################################   ###########################################  #########################################################################################",
"######## O OOO ###  ################################## O ################################################   ########################################### ++ ########################################## + ########################################################################################",
"######## OOOO ### O ###################################  #     ######################################### +++ ########################################## ++ ###########################################  ########################################################################################",
"######### OOOO  #  ###################################### O+++X ######################################## ++++ ##########################################   #####################################################################################################################################",
"########## X+++X ######################################## O++++ ######################################### +++ ##################################################################################################################################################################################",
"########## O++++ ######################################### ++++ ##########################################   ###################################################################################################################################################################################",
"########## O++++ ######################################### ++++ ################################################################################################################################################################################################################################",
"########### ++++ ########################################## ++ #################################################################################################################################################################################################################################",
"#########   ++++ #  ##################################   ###  ##################################################################################################################################################################################################################################",
"######## OO  +++ # X ################################ OO #######################################################################################################################################################################################################################################",
"####### OOO #      XX ############################### OO #######################################################################################################################################################################################################################################",
"####### OO ##   OOO X ###############################   #######   ####  ########################################################################################################################################################################################################################",
"#######   ## OOOOOO   #######################################  OOX ### X ###########################  ##########################################################################################################################################################################################",
"########### OOOOOOO ######################################## OOOOO ####  ########################## O ##########################################################################################################################################################################################",
"#####   ### OOOOOOO ######################################## OOOOO ################################  ##########   ##############################################################################################################################################################################",
"#### OO ##  OOOOOOO ######################################## XOO  ############################################ XOO ####### ####################### #############################################################################################################################################",
"#### OO ## ooOOOOX ################################  ########   ############################################# OOOO #############################################################################################################################################################################",
"####   ### oooXX  ###   ########################## O #####  ################################################# OO  #############################################   ##############################################################################################################################",
"### ++ #### ooOOO ## XXX #########################  ##### o #################################################   ############################################## OO ##############################################################################################################################",
"### ++ ##### OOO ## X...X #########################  ####  ##    ################################# ###########################################################   ###############################################################################################################################",
"### ++ ######   ## ++o...X ####################### + ####### OOO ####   #################################################################################################################################### ###################################################################################",
"###   ####    ### ++++..XXX ###################### + #######    #### +++ ############################### #######################################################################################################################################################################################",
"######### ooo ## o++++oXXXX ######################  ################ ++++ ####################### #########  ###################################################################################################################################################################################",
"######### ooo ## o+++++XXX. ####################################### o++++ ####################### ######## O ############   ####################################################################################################################################################################",
"###       ooo    oo++++XX. ##############################   ####### ++++o ################################  ############ +++ ###################################################################################################################################################################",
"### OOOO@@@@@@@@@@@++++X. ############################## oo ####### ++++X ############################################# o+++ ###################################################################################################################################################################",
"### OOOO@@@@@@@@@@@o++X. ############################### oo ###### X.+++.X ############################################ +++o ##############################################    #################################################################################################################",
"####       @@@@@@@XXXX. ################################   ###### X.....XXX ########################################### +++ ############################################## +++ #################################################################################################################",
"###########     oo    oo ####################################### X.....XXXX ###########################################    ############################################### +++ ###############################################   ###############################################################",
"############### oo # o++o #########################              X....XXXX. ############################ ############   ##################################################    ############################################### ++ ###############################################################",
"############### oo # o+++ ######################### OOOO@@@@@@@@@@@..XXXX. ######################################### XXX ####################################################################################################   ################################################################",
"###############   # o++++ ######################### OOOO@@@@@@@@@@@.XXXX.++ ####################################### X...X ######################################################################################################################################################################",
"################### o+++ ###########################       @@@@@@@.XXXX.o++ ###################################### X.....X #####################################################################################################################################################################",
"#######  ########### o++ ##################################      XXXXX. ++o ##################################  # X.....XXX  ###################################################################################################################################################################",
"#####   + ######    #   #############################  ##########       ++ ################################## o  X.....XXX++ ##########################################    #####################################################################################################################",
"##### + ++ #### OOO ################################# + ################  #########################              X....XXXX++ ########################################  XXXX ####################################################################################################################",
"##### +++++  ## OOO ################################  ++ ########################################## OOOO@@@@@@@@@@@..XXXX.  ################################# #####  XX....X  #######################################        ###################################################################",
"###### ++++++ #    ################################# ++++  ######################################## OOOO@@@@@@@@@@@.XXXX. #######################################  XX......XX+ ##################################    XX.....X ###################################            ###################",
"####### o++++ ####################################### +++++ ####   ################################ +++o   @@@@@@@.XXXX. ##########################              X........XXX  ####################              X..........X #####################              X......X.XXX ##################",
"########      ######################################## o+++ ### OO ################################ ++++++       XXXXX. ########################### OOOO@@@@@@@@@@@....XXX    ##################### OOOO@@@@@@@@@@@........XX # ################### OOOO@@@@@@@@@@@.........X ##################",
"#######################################################     ###   #################################        ####        ############################ OOOO@@@@@@@@@@@XXXX   ######################### OOOO@@@@@@@@@@@XXXXXXXXXX ##################### OOOO@@@@@@@@@@@XXXXXXXXXX ##################"
};
