/* XPM */
static char *player[] = {
/* columns rows colors chars-per-pixel */
"80 80 12 1 ",
"  c None",
". c black",
"X c #060608",
"o c #141013",
"O c #3B1725",
"+ c #E64539",
"@ c #AD2F45",
"# c #A08662",
"$ c #E4D2AA",
"% c #A3A7C2",
"& c #F5FFE8",
"* c #E3E6FF",
/* pixels */
"                                                                                ",
"                                                                                ",
"                                                                                ",
"                                                                                ",
"                                                                                ",
"                                                                                ",
"                                                                                ",
"                                    XX...                                       ",
"                                  XXoooooXX..                                   ",
"                               XXXooooooooooo.                                  ",
"                             XXooooooooooooooX.X                                ",
"                           XXooooooooooooooooo.oX                               ",
"                          Xooooooooooooooooooo.ooX                              ",
"                          Xooooooooooooo......oooX                              ",
"                         XooooXXooooooo.******.oooX                             ",
"                         XoXXXoooooooo.********.ooX                             ",
"                        XXXooooooooooo.*********.oX                             ",
"                      XXoooooooooooooo.**..**..*.oX                             ",
"                     Xooooooooooooooo.*..@%**%@..oX                             ",
"                     XooXXooooooooooo.*%%+&**&+%.oX                             ",
"                    XooXooooXoooooooo.**&.****.&.oX                             ",
"                    XooXoooXooooooooo.**.******..oX                             ",
"                    XoXoooXoooooooooo.**********.o.                             ",
"                    XoXoooXoooooo.....****...**.o.                              ",
"                     XoooXoooooo.     .**O***O*..                               ",
"                      Xoo.oooooX       .*O***O.                                 ",
"                      .oooXoooX        ...***.                                  ",
"                       .XXXoooX       ..**...                                   ",
"                           XXXX    X..$.***.$..X                                ",
"                                 XX$$$$$.**.$$$$X                               ",
"                                X$$$$$$$.**.$$$$X                               ",
"                                X$#$$$$$$.*.$$$$$X                              ",
"                                X$#$$$$$$$.$$$$$$X                              ",
"                                X$#X$$$$$$$$$$$$$X                              ",
"                               X$$#X$$$$$$$$$$$$$X                              ",
"                               X$$#X#$$$$$$$$$$$$X                              ",
"                               X$$#X#$$$$$$$$$$$$X                              ",
"                              X$$##X##$$$$$$$$$$$X                              ",
"                              X$$##X##$$$$$$$$$$X$X                             ",
"                             X$$$##XX##$$$$$$$$$X$X                             ",
"                            X$$$$##X#XX###$$$$XXX$X                             ",
"                           X$$$$##X X##XXXXXXX$$X#$X                            ",
"                          X$$$$$#X  X###$$$$$$$$X#$X                            ",
"                         X$$$$$#X   X######$$$$$X#$X                            ",
"                        X$$$$$$X    XX########$XX##$X                           ",
"                       X$$$$$$#X    X$XX#####XX##X#$X                           ",
"                      X$$$$$$$X    X$$$$XXXXX$$##X#$X                           ",
"                     X$$$$$$$#X    X$$$$$$$$$$$###X#X                           ",
"                     X$$$$$$$X    X$$$$$$$$$$$$###X#$X                          ",
"                    X$$$$$$$#X   X$$$$$$$$$$$$####X#$X                          ",
"                    X$$$$$$$#X  X$$$$$$$$$$$$$####X#$X                          ",
"                    X$$$$$$#X   X$$$$$$$$$$$$$####X#$X                          ",
"                    X$$$$$$#X  X$$$$$$$$$$$$$$####X##X                          ",
"                     X$$$$#X   X$$$$$$$$$$$$$$####X##X                          ",
"                     X$$$$#X  X$$$$$$$$$$$$$$$####X##X                          ",
"                      X$$#X   X$$$$$$$$$$X$$$#####X#X                           ",
"                       X$#X  X$$$$$$$$$$X$$$$#####X#X                           ",
"                        XX   X$$$$$$$$$$X$$$$#####X#X                           ",
"                            X$$$$$$$$$$X$$$$$#####XX                            ",
"                            X$$$$$$$$$$X$$$$$#####X                             ",
"                            X$$$$$$$$$$X$$$$$#####X                             ",
"                            X$$$$$$$$$X$$$$$######X                             ",
"                           X$$$$$$$$$$X$$$$$######X                             ",
"                           X$$$$$$$$$$X$$$$$######X                             ",
"                           X$$$$$$$$$$$$$$$$#####X                              ",
"                           X$$$$$$$$$$$$$$$######X                              ",
"                           X$$$$$$$$$$$$$$$######X                              ",
"                           X$$$$$$$$$$$$$$#######X                              ",
"                            X$$$$$$$$$$$$$#######X                              ",
"                            X$$$$$$$$$$$$########X                              ",
"                            X$$$$$$$$$$$$########X                              ",
"                            X$$$$$$$$$$$########X                               ",
"                            X$$$$$$$$$$#########X                               ",
"                             X$$$$$$$$##########X                               ",
"                             XX$$$$$###########X                                ",
"                              XX############XXX                                 ",
"                                XXXXXXXXXXXX                                    ",
"                                                                                ",
"                                                                                ",
"                                                                                "
};
