/* XPM */
static char *player_idle[] = {
/* columns rows colors chars-per-pixel */
"192 48 8 1 ",
"  c #25131A",
". c #3D253B",
"X c #523B40",
"o c #56587B",
"O c #895A45",
"+ c #5880CC",
"@ c #62ABD4",
"# c None",
/* pixels */
"################################################################################################################################################################################################",
"################################################################################################################################################################################################",
"############################################################################################################   ##############################################  #################################",
"############   ############################################    ############################################ OO ############################################# O #################################",
"########### OO ########################################### OOO ########################################### OO ############################################# O ##################################",
"########## OO ############################################ OO  ########################################### OO  ########################################### OO ##################################",
"########## OO  ########################################### OOOX ########################################## OOOX ########################################## OO  #################################",
"########## OOOX ########################################## OOOOX ######################################## XOOOOX ######################################## XOOOX ################################",
"######### XOOOOX ######################################## XOOOOOX ####################################### XOOOOOX ####################################### XOOOOX  ##############################",
"######### XOOOOOX ####################################### XXOOOOXO ###################################### OXOOOOXO ###################################### XOOOOOXO #############################",
"######### OXOOOOXO ###################################### O XOOOXO ###################################### O XOOOXO ###################################### OXOOOOXO #############################",
"######### O XOOOXO ###################################### O Oo+++X ###################################### OOOo+++X ###################################### OOXOOOXO #############################",
"######### OOOo+++X ###################################### OOO++++X ####################################### OO++++X ####################################### OOo+++X #############################",
"########## OO++++X #######################################  X++++ ######################################### X++++ ######################################### O++++X #############################",
"########### X++++ ########################################## ++++ ########################################## ++++ ########################################## ++++ ##############################",
"############ ++++ ########################################   ++++  #######################################   ++++  ######################################### ++++ ##############################",
"##########   ++++  ###################################### OOO++++XX ##################################### OOO++++XX ######################################   ++++  #############################",
"######### OOO++++XX ##################################### OOOo++oXXX ################################### OOOOo++oXXX #################################### OOO++++XX ############################",
"######## OOOOo++oXXX ################################### OOOOXOOOOOX ################################### OOOOXOOOOOX ################################### OOOOo++oXXX ###########################",
"######## OOOOXOOOOOX ################################### +OOOOOOOOOX ################################## ++OOOOOOOOOX    ################################ OOOOXOOOOOX    ########################",
"####### ++OOOOOOOOOX    ############################### ++oOOOOOOOOX    ############################### ++oOOOOOOOOX XXX ############################## ++OOOOOOOOOX XXX #######################",
"####### ++oOOOOOOOOX XXX ############################## OO  XOOOOOO  XXX ############################# OO+  XOOOOOO X...X ############################ +++oOOOOOOOOXX...X ######################",
"###### OO+  XOOOOOO X...X ############################ OOO  XOOOOOX X...X ############################ OO # XOOOOOXX.....X ########################### OO+  XOOOOOOX.....X #####################",
"###### OO # XOOOOOXX.....X ########################### OO # XXOOOXXX.....X ########################## +OO # XXOOOXX.....XXX ######################### OOO # XOOOOOX.....XXX ####################",
"##### +OO # XXOOOXX.....XXX ######################### +++  XXOOOOOo.....XXX ######################### ++ # XXOOOOOoo...XXXX ######################### OO ## XXOOOXXo...XXXX ####################",
"##### ++ # XXOOOOOoo...XXXX #######################   ++     +++oooo...XXXX #######################  +++            o.XXXX. ######################## +++ # o        o.XXXX. ####################",
"###  +++            o.XXXX. ####################### O+++@@@@@       o.XXXX. ####################### O++O@@@@@@@@@@@ oXXXX. ########################  ++     @@@@@@@ oXXXX. #####################",
"### O++O@@@@@@@@@@@ oXXXX. ######################## O++O@@@@@@@@@@@ oXXXX. ######################## O++O@@@@@@@@@@@ oXXX. ######################### O++O@@@@@@@@@@@ oXXX. ######################",
"### O++O@@@@@@@@@@@ oXXX. ##########################      @@@@@@@@@ oXXX. ##########################       @@@@@@@ oXXX. ########################## O++O@@@@@@@@@@ XXXX. #######################",
"####       @@@@@@@ oXXX. #################################   @@@@@ +oXX. ##################################       ++oX. ############################              +oXX. ########################",
"###########       ++oX. ####################################      +++.. #################################### o+++++++  #################################### o+++++++o. #########################",
"############ o+++++++  ###################################### o++++++o ######################################  ++++++o ##################################### o+++++++o #########################",
"#############  ++++++o ####################################### ++++++o ######################################## +++++o ######################################  ++++++o #########################",
"############### +++++o ######################################## +++++o ######################################### +++oo ######################################## o+++oo #########################",
"################ +++oo ######################################### o++oo ######################################### oo++o ################################  ####### oo++o #########################",
"################ oo++o ######################################### oo++o ######################################### o+++o ################################ + ###### o+++o #########################",
"################ o+++o ######################################### o+++o ######################################### o+++ ################################# ++  #### o+++ ##########################",
"################ o+++ ########################################## o++o ################################  ######## o++o ###############################   o++o  ## o++o ##########################",
"######  ######## o++o ########################################## o++o ################################ +     ## OOoo ################################ +++++++o  OOOo ###########################",
"###### +     ## OOoo ########################################### OOo ################################# +++++o  OOOO ##################################  +++++++OOOO ############################",
"###### +++++o  OOOO ########################################### OOOo ################################   o++++++OOO #####################################  +++++OO  #############################",
"#####   o++++++OOO #########################################   +OOO ################################# +++++++++o  ########################################       ###############################",
"##### +++++++++o  #####################################     +++++O ###################################    ++++  ################################################################################",
"######    ++++  ####################################### +++++++++ ########################################    ##################################################################################",
"##########    ##########################################  o++++o ###############################################################################################################################",
"######################################################## +++++  ################################################################################################################################",
"########################################################      ##################################################################################################################################",
"################################################################################################################################################################################################"
};
