/* XPM */
static char *player_move_hori[] = {
/* columns rows colors chars-per-pixel */
"288 48 8 1 ",
"  c #25131A",
". c #3D253B",
"X c #523B40",
"o c #56587B",
"O c #895A45",
"+ c #5880CC",
"@ c #62ABD4",
"# c None",
/* pixels */
"################################################################################################################################################################################################################################################################################################",
"################################################################################################################################################################################################################################################################################################",
"################################################################################################################################################################################################################################################################################################",
"################################################################################################################################################################################################################################################################################################",
"################################################################################################################################################################################################################################################################################################",
"################################################################################################################################################################################################################################################################################################",
"################################################################################################################################################################################################################################################################################################",
"################################################################################################################################################################################################################################################################################################",
"################################################################################################################################################################################################################################################################################################",
"################################################################################################################################################################################################################################################################################################",
"################################################################################################################################################################################################################################################################################################",
"################################################################################################################################################################################################################################################################################################",
"################################################################################################################################################################################################################################################################################################",
"################################################################################################################################################################################################################################################################################################",
"################################################################################################################################################################################################################################################################################################",
"################################################################################################################################################################################################################################################################################################",
"################################################################################################################################################################################################################################################################################################",
"################################################################################################################################################################################################################################################################################################",
"################################################################################################################################################################################################################################################################################################",
"################################################################################################################################################################################################################################################################################################",
"################################################################################################################################################################################################################################    ###########################################      ###########",
"#########################            #########################################       ##########################################      #####################################            ###################################       OOOX  ###################################      OOOOOX ##########",
"######################### OOOOOOOOOOX ###################################     OOOOOOX ###################################      OOOOOX ################################### OOOOOOOOOOOX ################################## OOOOOOOOOOOX ################################## OOOOOOOOOOOX #########",
"##########################  OOOOOOOOOX ################################## OOOOOOOOOOOX ################################## OOOOOOOOOOOX ##################################   OOOOOOOOOOX ##################################  OOOOOOOOOOX ##################################  OOOOOOOOOOX ########",
"#####################   ####   OOOOOOOX ##################################  OOOOOOOOOOX ##################################  OOOOOOOOOOX ####################################    XXOo+++ #############################   ####    XXOo+++ #############################   ####    XXOo+++ ########",
"##################   OO  #### OOXXOo+++ #############################   ####  O XXOo+++ #############################   ####    XXOo+++ #############################   ######  OOO++++ ##########################   OO        OOOO++++ ##########################   OO       OOOOO++++ ########",
"#########         OO++O+O       OOO++++ #################    #####   OO        OOOO++++ ##########################   OO       OOOOO++++ ##########################   OO       OO  X++++ #######################   OO++O+OOO+++O   X++++ #################         OO++O+OOO++++   X++++ ########",
"######## @@@@@@@@@@O++++OOO++++   X++++ ################ @@@@     OO++O+OOO++++   X++++ ###########  ####         OO++O+OOO++++   X++++ #################         OO++O+OOO++++OOXX++++ #################      @@@@O++++OOO+++OOOXX++++ ################ @@@@@@@@@@O++++OOO++++OOXX++++ ########",
"####### @@@@@@@@@@@      OO++++OOXX++++ ############    @@@@@@@@@@@O++++OOO++++OOXX++++ ########### + ## @@@@@@@@@@O++++OOO++++OOXX++++ ###########   ## @@@@@@@@@@O++++OOO++++OOOo+++ ################# @@@@@@@@@@ ++XXOOOOOOOOOOo+++ ################ @@@@@@@@@@@ ooooOOOOOOOOOOo+++ #########",
"##      @@@@@      ##  XXXOOOOOOOOo+++ ###########  ++o @@@@@@@@@@@ ooXXOOOOOOOOOOo+++ ##########   + # @@@@@@@@@@@ ++XOOOOOOOOOOOo+++ ############ + # @@@@@@@@@@@ ++OOOOOOOOOOOOX+++ ################ @@@@@@@    +++OOOOOOOOOOOOX+++ ################ @@@@@      ++++XOOOOOOOOOOX+++ #########",
"## +++o      ####### ooOOOOOOOOOOOX+++ ########## ++++++           +++XOOOOOOOOOOOX+++ ########## + + # @@@@@      +++XOOOOOOOOOOOX+++ ##########   + # @@@@@      +++OOOOOOOOOOOOXX  ################# @@@    +++++++OOOOOOOOOOOOXX  #################      +++++++++OOOOOOOOOOOOXX  ##########",
"### ++++o ######### +++OOOOOOOOOOOXX  ###########  ++++++o ##### o++++XOOOOOOOOOOOXX  ########### +o+ #      o+++++++++OOOOOOOOOOOXX  ########### + + #      +++++++++OOOOOOOXOOOOX ###################    +++++++++++XXOOOOOXOOOOX ################## O++++++++++++++OOOOOOOXOOOOX ############",
"#    +++++  #####  ++++XOOOOOXOOOOX ############# +  oo++OO ### o++++++OOOOOOXOOOOX ############# o++o ###  +++++++++++XOOOOOXOOOOX ############# +++ ###  ++o++++++++XXXXXXXXOOOX ###############  #### Oo++o    .+++oXXXXXXXOOOX #################  OOO+   +++++++++XXXXXXXXOOOX #############",
"# ++++++++OO     o++++++XXXXXXOOOX ##############  ##   OOOO   o+++++++XXXXXXXOOOX ############### +++o   oo++o++++....XXXXXXXOOOX ############## o+++   oo+++o   ...oo.....      ################ +    OOOo  ####     .....      ################# ooOO  ###    +++++oX....      ##############",
"##       OOOO++o++++++++X         ###################### OOo++o+++++++o.....      ################# ++OOOooo+++o    XXXX....      ################ o++OOOooo++ ### XXX.....X ##################### o++++OOO ###########      ##################### o++o #########            ###################",
"######### OOO++++++++++o ################################ oo+++++++++o       ####################### oOOOoooo++ ####    XXXX ######################  oOOOooo  #####    XXXXX #####################  o+++O  ###################################### o+++ #########################################",
"########## oo+++++++++o ################################## o+++o+++o  ###############################  OOoooo  #########     ########################       ###########      #################### +++++  ######################################## +++ ##########################################",
"###########  o++o+++o  #################################### o++oo   ###################################      ####################################################################################      ########################################## + + ##########################################",
"#############        #######################################     #################################################################################################################################################################################  + ##########################################",
"###################################################################################################################################################################################################################################################   ##########################################",
"################################################################################################################################################################################################################################################################################################",
"################################################################################################################################################################################################################################################################################################",
"################################################################################################################################################################################################################################################################################################",
"################################################################################################################################################################################################################################################################################################",
"################################################################################################################################################################################################################################################################################################",
"################################################################################################################################################################################################################################################################################################",
"################################################################################################################################################################################################################################################################################################",
"################################################################################################################################################################################################################################################################################################"
};
