/* XPM */
static char *player_move_vert[] = {
/* columns rows colors chars-per-pixel */
"288 48 8 1 ",
"  c #25131A",
". c #3D253B",
"X c #523B40",
"o c #56587B",
"O c #895A45",
"+ c #5880CC",
"@ c #62ABD4",
"# c None",
/* pixels */
"################################################################################################################################################################################################################################################################################################",
"################################################################################################################################################################################################################################################################################################",
"################################################################################################################################################################################################################################################################################################",
"################################################################################################################################################################################################################################################################################################",
"################################################################################################################################################################################################################################################################################################",
"################################################################################################################################################################################################################################################################################################",
"################################################################################################################################################################################################################################################################################################",
"################################################################################################################################################################################################################################################################################################",
"################################################################################################################################################################################################################################################################################################",
"################################################################################################################################################################################################################################################################################################",
"#######################    ############################################    ############################################    ###########################################    ###########################################     ###########################################     ######################",
"###################### XXOX ########################################## XXOX ########################################## XXOX ######################################### XOOX ######################################### XOOOX ######################################### XOOOX #####################",
"##################### OOOO++ ######################################## OOOO++ ######################################## OOOO++ ####################################### OOOO++ ####################################### OOOOO++ ####################################### OOOOO++ ####################",
"#################### OOOO++++ ###################################### OOOO++++ ###################################### OOOO++++ ##################################### OOOO++++ ##################################### OOOOO++++ ##################################### OOOOO++++ ###################",
"################### OOOOo++++ ##################################### OOOOo++++ ##################################### OOOOo++++ #################################### OOXOO++++ #################################### OOOXOO++++ #################################### OOOXOO++++ ###################",
"################## OOOOXO+++++ ################################### OOOOXO+++++ #################################### OOOXO+++++ ################################## OO XOX+++++ ################################### OO XOX+++++ ################################### OO XOX+++++ ##################",
"################# OO OXOOXX+++ ################################### OOOXOOXX+++ ################################### OOOXOOXX+++ ################################# OO  O XXo+++ ################################## OO  O XXo+++ ################################## OO  O XXo+++ ##################",
"################ OO  O O XX++o ################################## OOOOOO XX++o ################################## OOO OO XX++o ################################ OO # O XOo++o ################################# OO #   XOo++o ################################# OO  O  XOo++o ##################",
"############### O  #    OXOXX ################################## O O  O OXOXX ################################## O O  O OXOXX ################################ O  ### OOOOOX ################################# O  ## ++OOOOX ################################# O  ## ++OOOOX ###################",
"###############  #### ++OOOOX ################################# O     ++OOOOX ################################# O     ++OOOOX ################################  ##### ++OOOO #################################  ### +++OOOOO #################################  ### +++OOOOO ###################",
"#################### +++OOOOO #################################  ### +++OOOOO #################################  ### +++OOOOO ###################################### +++OOOO ##################################### +++OOOOOO ##################################### +++OOOOOO ###################",
"##################  +++OOOOOO ##################################### +++OOOOOO ##################################### +++OOOOOO ##################################### +++OOOOO #################################### OO+OOOOOOO #################################### OO+OOOOOOO ###################",
"###############   OOO+OOOOOOO ###################################  OO+OOOOOOO ###################################  OO+OOOOOOO #################################### OO+OOXOO ###################################  OOOXOOOXOO ###################################  OOOOOOOXOO ####################",
"############## OOOOOOOOOOXXO ################################### OOOOOOOOXXO ###################################  OOOOOOOOXO ###################################  OOOOOOXX ################################### OOOOOOOOOXX ################################### OOOOOOOOOXX #####################",
"############## +OOOXXOOOOXX ################################### O+OOOOOOOXX ################################### O++OOOOOOXX ################################### O++OOOOOX  ################################### +++XOOOOOX #################################### +++oOOOOOX ######################",
"############# +++O OOOOOXX ################################### O+++OOOOOXX ################################### O+++OOOOOXX. ################################## O+++OOOOX.XX ################################# O++XXOOOOX. ################################### O++ooOOOOX. ######################",
"############ O++   OOOOXX ###################################  +++XOOOOXX. ################################### +++XOOOOXX.X ################################## +++OOOOX..XX ################################# O++XOOXOX.. ################################## OO+oo+OOOX.. ######################",
"############ OO   o+OXXX #################################### O++o+XOOXX. ################################### OO++++OXXX.X ################################## OO+++OOX...X ################################# O@ +++XXX.. ################################### O@ o++OOX.. #######################",
"########### @@@ # ++++XX ################################### @@O ++X++X. #################################### @O ++++.X.X ################################### @O ++OXo..X ################################## @@ +++Xo . ################################### @@@ +++OXo. ########################",
"########## @@@ ## +++++o ################################## @@@  +++++. #################################### @@@ +++..X  ################################### @@@ +++oo.X ################################## @@@ ++++   ################################### @@@@ +++++o #########################",
"######### @@@ ### +++++o ################################# @@@  o+++++ #################################### @@@ +++..X #################################### @@@ +++.oX  ################################### @@ ++++ ##################################### @@@@ ++++++ ##########################",
"######### @@@ ### +++++o ################################ @@@ # o+++++ ################################### @@@ ++++.  #################################### @@@ +++..X #################################### @@ +++  ###################################### @@@ ++++++ ###########################",
"######## @@@ ### o+++++ ################################ @@@@ # o++++o ################################## @@@ +++++ ##################################### @@@ +++o.X #################################### @@@ ++ ####################################### @@@ ++++++ ############################",
"####### @@@ #### o++++o ############################### @@@@ ## o++++o ################################# @@@ o++++ ##################################### @@@ +++oo  #################################### @@@ ++ ####################################### @@@@ +++++ #############################",
"###### @@@@ #### +++++ ############################### @@@@ ### o++++ ################################# @@@@ o+++ ##################################### @@@@ oooo ##################################### @@@ ++ ####################################### @@@@ +++   ##############################",
"###### @@@ #### ++o++ ################################ @@@  ## oo+++o ################################# @@@  +++o ##################################### @@@ +++o ###################################### @@@ ++ ####################################### @@@ ++  #################################",
"###### @@      ++++o ################################# @@ o   o+++oo ################################## @@ # ++++ ##################################### @@  ++++ ###################################### @@ +++ ####################################### @@ ++ ###################################",
"######   o++OOOo+++ ##################################  ++oOOOo++++ ###############################  ##   ## ++++ #####################################   # o+++ ######################################    OOo #######################################   O+ ####################################",
"###### o++++OOOooo ################################## +++++OOOoo++ ################################ +  #### oo+++ ##################################   #### ooo ########################################## OOO ######################################### OO ####################################",
"##### ++++++O     ################################## ++++ooOO     ################################## ++  ## oooo ################################### ++ ## OOoo ########################################## OO ########################################## OO ####################################",
"#### +  +++  ####################################### +++     ######################################   ++o  OOOo ##################################### ++  OOOO ########################################### +O ########################################## oO ####################################",
"####  # ++ #########################################  + ########################################### ++++++OOOO ##################################### + +++OOO ########################################### +++ ######################################### o++ ####################################",
"###### ++ ########################################### + ############################################ +++++OOO ###################################### +++++oO ########################################### +++ ########################################## +++ ####################################",
"###### + #############################################  #############################################        ######################################## +++o  ########################################### o ++ ######################################### ++++ ####################################",
"######  ##############################################################################################################################################    #############################################  ++ ##########################################  o++ ####################################",
"######################################################################################################################################################################################################## + ############################################ ++ #####################################",
"########################################################################################################################################################################################################  ##############################################  ######################################",
"################################################################################################################################################################################################################################################################################################"
};
