/* XPM */
static char *floor[] = {
/* columns rows colors chars-per-pixel */
"64 64 4 1 ",
"  c None",
". c #777665",
"X c #A29E89",
"o c #C0B08F",
/* pixels */
"                                                                ",
"                                                                ",
"                                                                ",
"                                                                ",
"                                                                ",
"                                                                ",
"                                                                ",
"                                                                ",
"                                                                ",
"                             ooo                                ",
"                          oooXXXo   o                           ",
"                         oXXXXXX. ooXo   o                      ",
"                         XXXXXXX  XXXXo oXX                     ",
"                   oo    XXXXXX. oXXXX. .X.                     ",
"                  oXXX o .XXXXX  .XXX.oo . o oo                 ",
"                  .XXX Xo XXXX. o .X. XX  oX XXo                ",
"               oo  .X. XXo..X. oXo .o XX oX. .XX                ",
"              oXXo  .  X..oo. oXXXo Xo.. XX   ..                ",
"             oXXXXX  oo.ooXX oXXXXXo..oo X. oo                  ",
"             .XXXXX  ..o.XX.o.XXXX..o XXX.ooXXo                 ",
"              ..XX.o ooXo..oXo....oo.oXXX oXXXX                 ",
"                ..o.oXXXX oXXXo oo.X XXX. XXXX.                 ",
"                oo. XXX.. .XXX.oXXo.oXXX  ..X.oooo              ",
"               oXXo XX.oooo...oXXXX XX..ooo .oXXXXo             ",
"             oXXXX. ..XXXXX.XXXXX.....oXXXXX XXXXXX             ",
"             .XXX.ooo XXXX.oXXXX.ooo.oXXXXXX XXXXXX             ",
"              ...oXXXo.XXX.XXXX.oXXXo.XXXXXX XXXXXXo            ",
"                o.XXXX XX..XX..oXXXXXo.XXXXX .XXXXXXo           ",
"               oXo....o..oo..ooXXXXXX.o.XXXXo .XXXXXX           ",
"            ooo.XX ooo.ooXXo.XXXXXXX.oXo.XX..o .XXXXX           ",
"           oXXXo.X XX.oXXXXXo.XXXX...XXXo..ooXo ..XX.           ",
"           .XXXXo.oXX XXXXXXXo....ooo.XXX oXXXXo  ..            ",
"            .XXXX XXX XXXXXXXX.oo.XXX.XX.oXXXXXXo               ",
"             ..XX ..Xo.XXXXXXX.XX.XXXo.X XXXXXXXX               ",
"           oo  .X oo..o.XXXXXX.XXo.XXXo.o.XXXXXXX               ",
"          oXXoo .oX.ooXo.XXXX.oXXXo..X.o.o...XXX.               ",
"          .XXX.  X.oXXXXo.XXX.XXXXXoo.oXo.ooo...                ",
"           ...   .oXXXXX...X.o.XXXXXX.XXX XX.oo                 ",
"              oooo.XXXX.ooo.oX.....X.o.X. ..oX. oo              ",
"             oXXXXo.XX.oXXX...ooooo.oX..oooo.. oXXo             ",
"             XXXXXX X.X.XX.  XXXXX.XX.XXXXXX XXXXX.             ",
"             XXXXX. .oXo..oooXXXXX X. XXXX..o..XX.              ",
"             XXXX.   XXX oXXXXXXXX .o XXX.oo.  ..               ",
"             .XX.    XX.oXXXXXXXX.ooXo.X.oXX  oo                ",
"              ..  oX .. XXXXXXXXX XXXXo.oXX. oXX                ",
"                 ooX  o .XXXXXXX.oXXXX. .X.  XX.                ",
"                 .X. XXo .XXXXX. .XXX.oo .o  ..                 ",
"                  .  XXXo ..XX.   .X. XX oXX                    ",
"                     .X.Xo  .. ooo .  .. XX.                    ",
"                      . ..    oXXXo      ..                     ",
"                             oXXXXX                             ",
"                             .XXXX.                             ",
"                              ....                              ",
"                                                                ",
"                                                                ",
"                                                                ",
"                                                                ",
"                                                                ",
"                                                                ",
"                                                                ",
"                                                                ",
"                                                                ",
"                                                                ",
"                                                                "
};
