/* XPM */
static char *wall[] = {
/* columns rows colors chars-per-pixel */
"78 103 15 1 ",
"  c None",
". c #090910",
"X c #0E0F15",
"o c #13161C",
"O c #1B2028",
"+ c #262925",
"@ c #2D312B",
"# c #252C35",
"$ c #393D37",
"% c #323C45",
"& c #4C4F49",
"* c #43525B",
"= c #586D76",
"- c #6F736A",
"; c #868B7C",
/* pixels */
"                                                                              ",
"                                                                              ",
"                                                                              ",
"                                                                              ",
"                                 .                                            ",
"                                .*.                .                          ",
"                                .*. .             .*.                         ",
"                                .%%.*. .         .*#.                         ",
"                                .%#.*o.%.        .%#.                         ",
"                         .     .O%O%*o.O#.      .##O.                         ",
"                        .*.    .O#O%*oXOO.  .  .O#OO.  .                      ",
"                        .*. .  .OO%%%o;;;. .#. .O%OO. .*.                     ",
"                       .#%#.%...;;#%O;---;.#Oo.OO%*.  .#*.                    ",
"                  .    .O%Oo#O.;--;#$-----$Oo;;oOO%. .o#%. ..                 ",
"                  .  . .%#OoO;;----$;----$$;---;;;#%.Oo#%..%.                 ",
"                 .*..#.%*Ooo;-----$;----&-;$------;#%OoO#o%.                  ",
"                 .#%XoO**OX;-----;&---------$------;%#oOo#O.                  ",
"                 .O#XoO*%;;$------&--------&;&-----;#;;oo#O   ...             ",
"                 .oO#X%%;;-$------;-------;---------$--;;O#. .**.             ",
"             .    .oO#OO;---&----------------------$-----;%o.%%#.             ",
"            .*.   .oX;;&$---;---------------------&------&#o%##.              ",
"            .*.  .XX;---;$&----------------------------&$$oO#OO..             ",
"            .*. .#oX-----&---------------------------&&;-&;oOO***.            ",
"            .%*. .o;----&;---------------------------------;%**%. .           ",
"            .%%. .o-----;----------------------------------;%%%. .*.          ",
"            .%#O.XoX---------------------------------------;#%. .*.           ",
"            .%#Ooo*X$&-----------------------------------&$OOXO.%#.           ",
"            .%##Oo*-&-------------------------------------;;XoO%%O.           ",
"            .%%#O**-----------------------------------------oO%#O.            ",
"            .#%#O*%--&------------------------------------&&$O#$o.            ",
"             .#Oo*%&&------------------------------------&&$$O#o.             ",
"          .. .Ooo%#&--;&--------------------------------&;-*&oO. .            ",
"          .%. .X%%$&;;&---------------------------------;--*%ooX.#.           ",
"          .#%. .%#&$$$-------------------------------------%*oXo#O.           ",
"           .#%.o%#&;--$;------------------------------------*#o#O.            ",
"           .O##O#O;----&------------------------------------*#oOo.            ",
"            .#%O#O-----&-------------------------------&----%%oOo.            ",
"            .O#o#O-------------------------------------&;---#%#oo#.           ",
"             .OoOO&-------------------------------------&;---##oO#.           ",
"            .*ooO$&;----;&----------------------------&&&&$-&#OO#%.           ",
"           .**XoO$$&;;-&&----------------------------&;;;-&$$&oO%#.           ",
"           .**Xo$$*$$$$$&&--------------------------------;&$$@#*O.           ",
"           .%*Xo@$=$&;--;;&-------------------------------;&$$@*%O.           ",
"           .%*Xo@$=&------;&------------------------------&&$@%%#.            ",
"           .%%*X@*=-------------------------------------&&&&$@%%O.            ",
"           .#%*X@%*=&----------------------------;&---&---&&@#%#O.            ",
"           .#%*X@%*=&--&----&--------------------&---&;----$@#%#O.            ",
"           .#%%Xo%*=$;-&---;&&------------------;&;-&;----&@O%#OO..           ",
"           .#%%Xo%*==&;$&;-$--&-----------------&-&$&;----&@O##Oo.%.          ",
"           .##%%X#*==$&-$&*-------&;----------------$---&&$@O#OOo%#.          ",
"           .O#%%X#*==$$&&*=;-------&&--------------;$&-&%$$@O#OoX%#.          ",
"           .OO%%X#**=*$$&*=&;---;--&---------*----;&$&&&*$@+OOOo%#O.          ",
"            .O#%##%*=*$$$*=&&-;&*;;$-----&;--=;-;;&$&&$$*@@+OOO#*#O.          ",
"           .XO#%##%***@$$*=&&&&&=&$-------&;*=&&&&&@$$$***@+oOo%%O.           ",
"          .#XOO%##%**%@@%*=$&&&$=%&*&;---;&&=*&&&&$@$$@***++oo#*#O.           ",
"          .#%OO%O#%%*%@@%**$$$&=*%$%&&&;;&&*=#&&&$$$@@@%*%++oO#*#X.           ",
"          .#%OoOO##%*#+@%**@$$#=*#O#$&&&&&$*=#$$$$@@@@@%*%#ooO%%OXO.          ",
"          .#%OoOO##=%#+@%%*@$@#=*#O#@$&*&$*=*#@$$@*@@@+#*%#oOO%#OOO.          ",
"          .#%%OOO##*%#+@#%*@@@#*%#OO*$$=$$*=%O#@@@*@@++#%%#oO#%#oOo.          ",
"          .O#%OoO##*=##+#%%+@@#*##OO*$@=*$*=%O##@%*%+O+##%#OO%#Oooo.          ",
"          .O#%OoOO#O*##O#%%%@+#*##Oo=@%=%@%*%O#%@%*#O%oO#%#OO%#Ooo.           ",
"           .##%OoO#O%##O#%%%++#%##Oo=%%*%#%*%O#*@#%#O%%O##OO#%#Ooo.           ",
"           .O#%OoO#O#%OO##%#+O#%#OO%*%#%%#%*%O#*+#%#O##O##OO##OooX.           ",
"           .O##OoO#oO#OOO#%#+O#%#OO%*%o%#O%*%O#*%#%#OO#O#OoO##OooX.           ",
"           .oO#OoOOXO#OoO#%#=O#%#OO%%#o%#O%%%O#**O##OOOO#OO##OOooX#.          ",
"          .OXOOOooOXOOOoO##o*O#%#Oo#%#o%OO%%%O#%*O#OOoOOOoO##OOooX#.          ",
"           .OoOOooOooOooO##o%O###Oo#%#o%O#%%%O#%*O#OoO*OooO#OOooX##.          ",
"           .oOo#oXOOXoo*OOo%Oo###Oo#%Oo#O#%%#O##%O#OO*%OoOo#OOoo##O.          ",
"            .oO#OXoOoX*=oOo#OoO##OoO#Oo#O#%%#OO#%OOoO*#OO#O#OooO#Oo.          ",
"            .ooO#ooOoo*=oOoOoOO##OoO#OoOO##%#OO#%#OO%*Oo#%OOOoo##Oo.          ",
"            .XoO#oXoOo%*oOoOXOO##OoO#OoOO##%#oO#%#OO%#Oo%*#OOXo#Ooo.          ",
"             .ooOoXooX%*oXooXOO#OOoOOOOoOO#%#oO###O#%#OO**oOoXOOOo.           ",
"             .ooOOooXO#%OoXOoOO#OOooO*OoOO#%#oO###O##Oo%*%oOooOOoo.           ",
"             .XooOooXO#%O*oOoOO#OoXoO=OoOO#%#oO###OO#Oo*%#oOXoOOoo.           ",
"            ..XooOOooO#%O*OOooOOOoXoo=OXOO###oOO##Oo#o#%#OooXOOoo.            ",
"           .Xo.XooOXoO##O%%oXoOOOoXo%=OXoO##OoOO#OOoOo%%#OoooOooX.            ",
"            .XOXXoOXoO##o%#oXoOOOoXo%*%XoO##OoOO#OOooo%#OoXooooX. .           ",
"            .XXXXooXoO##o%#oXoOOOoXO%%#ooOO#OooOOOOoXO##OoXoXoX...X.          ",
"             .XXXooXoO#Oo##XooOOooXO#%#ooOO#OXoOOOOooO#OOoXXXXooXX.           ",
"              .XXXoXoo#Oo#OXooOOoXXO#%#OooOOoXoOOOoXO#OOoooXooXXX.            ",
"               .XXXXooOoo#OXooOOoXXO###OXoOOoXoOOOoXO#OOoooOXXXX.             ",
"                .XXXooOoo#OXXooOoXXO###OXoOOooooOOooOOOoooOOXXX.              ",
"               .O.XXXoOooOo#XooOoXOO##OOXoOoXoooOoXooOOooXOoXX.               ",
"               .XOOXXoOooXo#XooOoXOOO#OOXoooXooooooooOooXXooX.                ",
"               .XooOXooooX#OXXoooXOOO#OoXXo.XXooooOooOooXooXX.  &             ",
"                .XooXXooo#OoXXoooXoOO#OoX..@.XoooXOooooXooXX.   &             ",
"             & &.XXooXooXOoX.XooXXoOO#Oo.@@$.XooXoOOooXooXXX.  &              ",
"              &  .XXoXXoXoX.@.XoXXooOOOo.@$$$.XoXoOoooXoXXX. &&               ",
"             &   &..XXXXXXX.@@..XX.oOOoX.$$&$$..XooooXXXXX.    &              ",
"             &     &...XXX.@$$$$..@.oOo.$&&&&$$$.XooXX....                    ",
"                    &$$...@$$&&&$$$.ooX.&&  &&&$.XoXX.@$&                     ",
"                   & &$$$$$$&&& &&&$...$&      &$.XX.@$&      &               ",
"                &&&   &&&&&&&&     &$$$&&       &$..$$&      &                ",
"                       &&           &&&  &       &$$&& &    &                 ",
"                       &             &    &&&     &&&   &&&&                  ",
"                      &&            &     &          &      &                 ",
"                     &  &         &&      &          &      &                 ",
"                         &          &    &          &                         ",
"                          &&&                                                 ",
"                                                                              ",
"                                                                              ",
"                                                                              ",
"                                                                              "
};
