/* XPM */
static char *cat_down1718510563[] = {
/* columns rows colors chars-per-pixel */
"40 40 227 2 ",
"   c #90541E",
".  c #864C1C",
"X  c #8A582D",
"o  c #935620",
"O  c #8A5C38",
"+  c #945A31",
"@  c #98602D",
"#  c #8B623B",
"$  c #93643A",
"%  c #9D6B3C",
"&  c #9A6639",
"*  c #A76C3B",
"=  c #B26E3D",
"-  c #AE7C3F",
";  c #AC753F",
":  c #B3723A",
">  c #CD782E",
",  c #D27A2D",
"<  c #C4773D",
"1  c #C47B3B",
"2  c #CD7A3A",
"3  c #C97537",
"4  c #D47731",
"5  c #D57B34",
"6  c #DB7C36",
"7  c #D47C3A",
"8  c #DB7D3A",
"9  c #D97635",
"0  c #8A684E",
"q  c #8C6446",
"w  c #916F4B",
"e  c #996C4A",
"r  c #9F7247",
"t  c #967349",
"y  c #926F53",
"u  c #957152",
"i  c #9E7353",
"p  c #9A7B5D",
"a  c #9D7858",
"s  c #AA6E42",
"d  c #A97346",
"f  c #A3734C",
"g  c #AD7B4D",
"h  c #AB784A",
"j  c #B57544",
"k  c #B37945",
"l  c #BD7A44",
"z  c #B97A4D",
"x  c #A57752",
"c  c #A47D53",
"v  c #AB7B52",
"b  c #A37C5E",
"n  c #AD7D5C",
"m  c #B27E55",
"M  c #BB7E53",
"N  c #9B7E68",
"B  c #9C7C63",
"V  c #A57E61",
"C  c #C57B41",
"Z  c #C27A49",
"A  c #CC7A40",
"S  c #C67F51",
"D  c #CB813B",
"F  c #C6813C",
"G  c #D58134",
"H  c #DB8335",
"J  c #DE8935",
"K  c #D5823C",
"L  c #DC833C",
"P  c #D68A3E",
"I  c #DC8B3B",
"U  c #E1843E",
"Y  c #E28D3C",
"T  c #E8933D",
"R  c #AD844E",
"E  c #BC834D",
"W  c #BA854B",
"Q  c #A6845C",
"!  c #AE815E",
"~  c #AC8659",
"^  c #B68254",
"/  c #BC8454",
"(  c #BC8B54",
")  c #B5855C",
"_  c #B98C5E",
"`  c #BA875D",
"'  c #BC9258",
"]  c #A28165",
"[  c #AC8366",
"{  c #AD8B63",
"}  c #AD8B6A",
"|  c #B48B64",
" . c #B98D63",
".. c #B48B6B",
"X. c #BA8F6F",
"o. c #B38561",
"O. c #B6966E",
"+. c #BB936A",
"@. c #B99364",
"#. c #AC8C73",
"$. c #B18D75",
"%. c #AB917A",
"&. c #BC9679",
"*. c #B39577",
"=. c #BFA27B",
"-. c #CC8245",
";. c #C4854C",
":. c #CC844C",
">. c #CC894C",
",. c #C68846",
"<. c #D68543",
"1. c #DC8441",
"2. c #D58C44",
"3. c #DD8B43",
"4. c #D2854C",
"5. c #D48B4C",
"6. c #DC8C4A",
"7. c #DB9443",
"8. c #D4934D",
"9. c #DA9348",
"0. c #C08553",
"q. c #C38C53",
"w. c #CB8B53",
"e. c #C08D5E",
"r. c #CB8E5B",
"t. c #C78656",
"y. c #D38B53",
"u. c #DC8F50",
"i. c #DA8E5E",
"p. c #C5925C",
"a. c #CC955B",
"s. c #CB995B",
"d. c #C99357",
"f. c #D49354",
"g. c #DA9355",
"h. c #D39A56",
"j. c #D19259",
"k. c #D99A55",
"l. c #E28640",
"z. c #E38B42",
"x. c #EA8F46",
"c. c #E59142",
"v. c #E99344",
"b. c #E69946",
"n. c #E5954A",
"m. c #EA944A",
"M. c #EC9C4A",
"N. c #E89948",
"B. c #F29D4A",
"V. c #E39451",
"C. c #E69B57",
"Z. c #F29E58",
"A. c #CB8E62",
"S. c #CB9667",
"D. c #DA9764",
"F. c #C29775",
"G. c #C49C7B",
"H. c #C09F72",
"J. c #D1A46B",
"K. c #C3A47C",
"L. c #C8A178",
"P. c #D1A67B",
"I. c #AE9581",
"U. c #B59C84",
"Y. c #BDA182",
"T. c #BCA58E",
"R. c #BCAA96",
"E. c #C49E81",
"W. c #C99F86",
"Q. c #CBAA8A",
"!. c #C5A687",
"~. c #D3A985",
"^. c #D2AA89",
"/. c #C2AB94",
"(. c #CBAD94",
"). c #CBB493",
"_. c #CBB39B",
"`. c #DBBA9C",
"'. c #D7B699",
"]. c #E1BB9C",
"[. c #E3B584",
"{. c #CAB6A2",
"}. c #D4BAA3",
"|. c #DCBDA4",
" X c #D5BBA5",
".X c #DFC6AE",
"XX c #D9C1A9",
"oX c #DCC9B3",
"OX c #DCC9B8",
"+X c #D6C6B5",
"@X c #E2C5AC",
"#X c #E9C8A9",
"$X c #E2CBB2",
"%X c #EBCFB4",
"&X c #E1CAB8",
"*X c #E7D1BA",
"=X c #ECD5BE",
"-X c #EAD9BD",
";X c #E8D2B2",
":X c #FFDFBA",
">X c #F2D3B9",
",X c #FBD6AA",
"<X c #ECD9C2",
"1X c #EFDECC",
"2X c #F3DCC3",
"3X c #F7DDCA",
"4X c #EEE1CE",
"5X c #F4E1CB",
"6X c #FBE3CD",
"7X c #FFE6CB",
"8X c #F5E7D3",
"9X c #FDEBD3",
"0X c #FDEDDB",
"qX c #FBE6D8",
"wX c #FFF4DC",
"eX c #FFF8DB",
"rX c #FEEEE1",
"tX c #FEF3E4",
"yX c #FFFAE4",
"uX c #FFF6E9",
"iX c #FFFBEC",
"pX c #EEF6F9",
"aX c #F7F7F5",
"sX c #FFFDF3",
"dX c #F6FCFC",
"fX c #FEFFFD",
"gX c #F8F6F9",
/* pixels */
"fXfXfXfXfXfXfXfXsXfXfXfXfXfXfXsXsXuX3X].&.! i i n [ W.>XtXsXfXfXfXfXfXdXfXfXfXfX",
"fXfXfXfXfXfXfXfXfXdXfXfXfXfXfXrXOXU.V 0 u ] a q [ b a u #.+XtXsXfXfXfXfXfXfXsXfX",
"fXfXfXfXfXfXsXfXfXfXfXfXfXfX0X}.[ b N I._.+X+X{.N 0 e o. .x $.6XiXfXfXfXfXfXfXgX",
"fXfXfXfXfXfXfXfXdXfXfXdXgXtX(.V x ..@XuXsXsXiXsXiX&X#.$ d z h X.2XsXfXfXfXsXfXsX",
"fXfXfXfXfXsXfXfXfXfXfXfXiX|.! ^ m ~.qXsXfXfXfXsXfXgXrXn + S i.M E.qXfXfXfXfXfXfX",
"dXfXfXfXfXfXfXfXfXfXsXuX'.) / r.s `.iXfXaXfXfXaXfXfXfX<Xf s i.z f |.sXaXfXfXfXfX",
"fXfXfXfXfXfXfXfXsXsX8X).~ W 8.>.d L.7XsXsXsXfXfXfXpXfXiXE.% S Z g E.iXfXfXfXfXfX",
"dXfXfXfXfXfXfXfXiXeX!.$ - 8.P P >.@ Q oXtXsXiXfXdXdXgXgX(.& Z i.A.$.tXfXdXfXdXfX",
"fXdXfXfXfXfXsXiX<XO.R s.8.7.M.T N.k.p.~ !.wXiXsXfXdXfXsX@XO y.:.z  .tXfXdXfXfXfX",
"fXfXfXfXfXfXsX-XQ p.h.8.7.b.M.M.T b.g.q.~ Y.<XsXfXfXfXsX|.# S S z G.yXfXdXfXfXfX",
"fXfXfXfXfXsXeX=.' h.7.P M.b.H J J Y I 5.q.v !.qXsXfXgXsX/.e 4.4.z '.uXfXfXfXfXdX",
"fXfXfXfXfXsX;XR h.P J Y I G , L G H G 3.V.w. .Q.iXfXsXsX$.d S y.v >XsXfXfXdXfXfX",
"fXfXfXdXsXwX=.W F G Y Y , , L I I I I J I 9.a.O.tXsXsXiXp g -.w._ 9XsXfXfXfXfXfX",
"fXfXfXaXsX5XQ q.2.T Y J I J L K I 3.v.v.T N.h.| 8XsXsXqXw / :.;.G.yXfXfXfXfXfXfX",
"fXfXfXgXsX;Xf r.8.v.c.c.Y P H v.I L v.M.c.9.s.~ 4XsXsX*X# a.y./ `.iXfXdXfXfXfXsX",
"fXfXfXfXsX.XR t.P L z.Y c.b.T H z.l.L 8 > F q.{ 8XsXsX|.X j.y.z >XsXsXfXfXfXfXfX",
"fXfXfXfXsXoXf k.<.L 6 L m.v.U H 6 z.U I I <.;.| tXsXiXp k >.w.` 9XsXfXfXfXfXsXfX",
"fXfXfXdXsX-XR h.<.H H U U z.U 5 8 6 L L z.V.a.K.iXsXtXb a.C.5.t.7XiXsXfXfXfXfXfX",
"fXfXfXfXsX8X{ ( 6.5 8 L H 3.c.8 4 , 5 > z.y._ `.sXsX0Xw W 2.1 ;.,XeXwXsXfXfXfXsX",
"fXfXfXfXsX0X{ % 5.K H I K L z.U 9 6 5 2 5.j +.2XsXsXtXp - ,.2.8._ =.T.tXfXfXfXfX",
"fXfXfXfXfXyX&.# k 6.v.l.H 8 8 l.U U 1.V.Z $ '.tXfXfXiX&.R ,.k.h.J.+.*.tXsXfXfXfX",
"fXfXfXfXfXsX_.#   g.Z.L L L 5 U U , 3.g.* q 3XsXfXfXsX-XO.' s.q.@.O./.tXfXfXfXfX",
"fXfXfXfXfXsX.Xu . 5.C.6 8 l.A l.U 7 <.: X B uXfXfXfXfXsX$X=.~ t { ).1XsXfXfXfXfX",
"fXfXfXfXfXsXiX`.+ 4.6.5 U l.8 8 U n.5.  O U.dXfXfXfXfXfXiXyX-X$X1XyXsXfXgXfXfXfX",
"fXfXfXfXfXfXiX@Xs :.<.4 9 L 8 8 8 <.g.+ [ OXsXfXfXfXfXfXfXfXsXsXsXsXfXfXfXfXfXfX",
"sXfXfXfXfXfXrX!.` 4.7 4 8 l.8 8 5 7 8.M XXuXfXfXfXfXfXfXfXfXfXfXfXfXfXfXfXfXfXfX",
"fXfXfXfXfXfXqX#.A.4.7 6 8 l.8 8 4 4 f.e.%XsXfXfXfXfXfXfXfXfXfXfXfXfXfXfXfXfXfXfX",
"fXfXfXfXfXfX0X&.S A 9 8 L 6 9 8 6 A y.o.@XiXiXfXfXfXfXfXfXfXfXfXfXfXfXfXfXfXsXfX",
"fXfXfXfXfXsXiX^.j 3 6 8 8 7 9 6 8 9 z F.1XsXfXfXfXfXfXfXfXfXfXfXfXfXfXfXfXfXfXfX",
"fXfXfXfXfXsXyX~.Z 7 6 8 7 7 8 9 9 3 * '.tXfXfXfXfXfXfXfXfXfXfXfXfXfXfXfXsXsXfXfX",
"fXfXfXfXfXsX5X .4.A 8 L 8 K U 8 9 Z & %XsXgXfXfXsXfXfXfXfXfXfXfXfXfXfXfXfXfXfXfX",
"dXfXfXfXsXtX@Xf y.1.U l.L 7 L l.A :.s 2XsXfXfXfXfXfXfXfXfXfXfXfXfXfXfXfXfXfXfXfX",
"fXfXfXfXfX3X..j <.z.U l.L K L L l.g.g Q.iXsXfXdXfXfXfXfXfXfXfXfXfXfXfXfXfXfXfXfX",
"fXfXfXfXsX&X) l <.1.H z.L 5 1.z.1.A / Q.yXfXfXfXfXfXfXfXfXfXfXfXfXfXfXfXfXfXfXfX",
"fXfXfXfXsX{.x E -.L 8 H U L 3.1.l.< ` E.uXfXfXfXfXfXfXfXfXfXfXfXfXfXfXfXfXfXfXfX",
"fXfXfXfXtXR.u g 0.5.<.G H L K 2 < = v $.uXfXfXfXfXfXfXfXfXfXfXfXfXfXfXfXfXfXfXfX",
"fXfXfXfXuX+XT.Q._ E ,.<.2.2 < ;.j ) b I.iXsXfXfXfXfXfXfXfXfXfXfXfXfXfXfXfXfXfXfX",
"fXfXfXfXfXsXtXyX|. .d >.g.,.; ^ ~.#X}.+XfXdXfXfXfXfXfXfXfXfXfXfXfXfXfXfXfXfXfXfX",
"fXfXfXfXfXfXsXsXyX%XP.p.a.p.X.Q.9XiXtXaXfXfXdXfXfXfXfXfXfXfXfXfXfXfXfXfXfXfXfXfX",
"fXfXfXfXfXfXfXgXsXyX:XS.( [.:XeXyXsXsXfXpXfXdXfXfXfXfXfXfXfXfXfXfXfXfXfXfXfXfXfX"
};
