/* XPM */
static char *cat_left1718510563[] = {
/* columns rows colors chars-per-pixel */
"40 40 215 2 ",
"   c #7E4E1D",
".  c #90551B",
"X  c #855526",
"o  c #8F5820",
"O  c #965D2A",
"+  c #895D3A",
"@  c #8B6037",
"#  c #936234",
"$  c #93653E",
"%  c #97683A",
"&  c #A36B39",
"*  c #B06E31",
"=  c #AD733E",
"-  c #B87A3E",
";  c #CD7B2A",
":  c #CE732D",
">  c #D77B2E",
",  c #CF7634",
"<  c #CB7C3A",
"1  c #C5793A",
"2  c #D47632",
"3  c #DA7733",
"4  c #D67A34",
"5  c #DA7C35",
"6  c #D57E3A",
"7  c #DC7D3A",
"8  c #D57739",
"9  c #895D42",
"0  c #8D6845",
"q  c #9F6D45",
"w  c #986C4C",
"e  c #956A45",
"r  c #9B734C",
"t  c #8E6855",
"y  c #976E55",
"u  c #8E7151",
"i  c #957254",
"p  c #9B795B",
"a  c #A46D40",
"s  c #A67144",
"d  c #A4734B",
"f  c #AC7747",
"g  c #B87641",
"h  c #B47B47",
"j  c #BC7B4C",
"k  c #B77848",
"l  c #A47351",
"z  c #AB7C53",
"x  c #A27D5A",
"c  c #AA7E5C",
"v  c #A17A53",
"b  c #B37D54",
"n  c #BB7C54",
"m  c #B47D5B",
"M  c #9F7D6A",
"N  c #9B7D62",
"B  c #A77F61",
"V  c #C67B40",
"C  c #CB7B41",
"Z  c #C57F4A",
"A  c #D37F44",
"S  c #C07D52",
"D  c #C98339",
"F  c #D58335",
"G  c #DB8235",
"H  c #D98837",
"J  c #D6823B",
"K  c #DC833B",
"L  c #D5893C",
"P  c #DB8A3C",
"I  c #DB913A",
"U  c #E1843D",
"Y  c #E38B3E",
"T  c #E18437",
"R  c #E4953F",
"E  c #AF804A",
"W  c #BA824C",
"Q  c #AB855C",
"!  c #B58356",
"~  c #BB8354",
"^  c #B5845C",
"/  c #BB8C5C",
"(  c #B98A5A",
")  c #BD925D",
"_  c #AB8561",
"`  c #AC8A66",
"'  c #A7836B",
"]  c #A88668",
"[  c #BA8B64",
"{  c #B68B6A",
"}  c #BB946B",
"|  c #B79065",
" . c #B28E75",
".. c #BC9272",
"X. c #BA9A7B",
"o. c #B99878",
"O. c #CD8344",
"+. c #C48549",
"@. c #CB844D",
"#. c #C58A4A",
"$. c #CB8B4E",
"%. c #CA8546",
"&. c #D48443",
"*. c #DC8541",
"=. c #D48B44",
"-. c #DB8B43",
";. c #D2844A",
":. c #D48C4C",
">. c #DA8D49",
",. c #DA9444",
"<. c #DA954C",
"1. c #DE984C",
"2. c #D7904E",
"3. c #C38551",
"4. c #CA8352",
"5. c #C48952",
"6. c #CD8C53",
"7. c #C28659",
"8. c #CA8E58",
"9. c #D28653",
"0. c #D38C54",
"q. c #D68F58",
"w. c #CC9354",
"e. c #CA9359",
"r. c #D69352",
"t. c #DA9554",
"y. c #DA935C",
"u. c #D69756",
"i. c #E28542",
"p. c #E38B41",
"a. c #E98F43",
"s. c #E29344",
"d. c #EA9244",
"f. c #E99C46",
"g. c #E4944A",
"h. c #E5994C",
"j. c #EB9D4B",
"k. c #E69649",
"l. c #E79753",
"z. c #E5A05B",
"x. c #CD8F63",
"c. c #C08D62",
"v. c #C39361",
"b. c #CF9565",
"n. c #C5977B",
"m. c #C59A77",
"M. c #DA9367",
"N. c #E29A60",
"B. c #D4A16A",
"V. c #C2A37D",
"C. c #C4A278",
"Z. c #D1A078",
"A. c #AF9981",
"S. c #B89983",
"D. c #BEA489",
"F. c #B5A28B",
"G. c #BCAA94",
"H. c #CB9E81",
"J. c #C4A384",
"K. c #C8A684",
"L. c #C0A58C",
"P. c #C7AA89",
"I. c #CAAA89",
"U. c #D2AC8B",
"Y. c #D4A78A",
"T. c #DBB189",
"R. c #C1AB95",
"E. c #C7AD9B",
"W. c #C9AB93",
"Q. c #D5AB92",
"!. c #CAB39A",
"~. c #D1B799",
"^. c #DBB49B",
"/. c #D7BD9D",
"(. c #DDBC9E",
"). c #D5B294",
"_. c #E3B695",
"`. c #CCB6A1",
"'. c #D4BAA3",
"]. c #E1BEA5",
"[. c #DBC4AC",
"{. c #DBC9B9",
"}. c #D8C6B4",
"|. c #DFD0BB",
" X c #E3C2A6",
".X c #E6C7AF",
"XX c #F1C6A4",
"oX c #FBD1A9",
"OX c #E2C7B3",
"+X c #E1CBB4",
"@X c #EDCFB7",
"#X c #E7D2BD",
"$X c #EED6BC",
"%X c #F3D4BB",
"&X c #F3D7B9",
"*X c #EAD6C2",
"=X c #ECD9C4",
"-X c #F2DFC5",
";X c #F7DAC6",
":X c #FEE4CC",
">X c #F7E2CB",
",X c #EBE2D3",
"<X c #F6E4D6",
"1X c #FAE5D6",
"2X c #FDEBD5",
"3X c #FEECDB",
"4X c #FFF4DD",
"5X c #FBEEE1",
"6X c #FEF3E4",
"7X c #FFF9E5",
"8X c #FDF5EB",
"9X c #FFFBEC",
"0X c #F7F8F5",
"qX c #FEFDF4",
"wX c #FEFFFD",
/* pixels */
"wXwXwXwXwXwXwX0XwXwXwXwXwXwXwXwXwXwXwXwXwXwXwXwXwXwXwXwXwXwXwXwXwXwXwXwXwXwXwXwX",
"wXwXwXwXwX0XqXwXwXwXwXwX0XwXwXwXwXwXwXwXwXwXwXwXwXwXwXwXwXwXwXwXwXwXwXwXwXwXwXwX",
"wXqXwXwXwXwXwXwXwXwXwXwXwXqXwXwXwXwXwXwXwXwXwXwXwXwXwXwXwXwXwXwXwXwXwXwXwXwXwXwX",
"wXwXwXwXwXwXwXwXwXwXwXwXwXwXwXwXwXwXwX0XwX0XwXwXwXqXwXqXwXwXwXwXwXwXwXwXwXwXwXwX",
"wXqXwX0X6XqXqXqXwXwXwXwXwXwXwXwX0XwXwXwXqXqXwXqXwXqXqXqXwXwXwXwXwXwXwXwXwXwXwXwX",
"wXwXqX}.F.!.#X1X6XqXqXwXqXqXwXwXwXqX0X9X6X3X=X+X+X#X>X4XqXqXwXwXwXwXwXwXwXwXwXwX",
"wXwX6XG.i v Q _ .X;X6X9X3X1X6X9X9X{.E.X.` _ z l q d Q K.}.2XwXwXwXwXwXwXwXwXwXwX",
"wXwX7XU.f ~ +.h d [ Y.Q.o. .J. X/.u + $ = 3.8.y.r.6.W E ( P.$X9XqXwXwXwXwXwXwXwX",
"wX9X/.^ +.O.L &.q.@.j g n x.7.& #   o - :.>.*.K J ,.L D e.) Q &XqXwXqXwXwXwXwXwX",
"9X$Xv.W =.K K Y i.A C C C ;.;.C $.r.t.>.F > 5 G T a.Y ,.#.w.) o.4XqXwXwXwXwXwXwX",
"&XC.= 1 K G T U K K 7 7 3 2 7 7 -.l.l.k.J G U K p.d.Y p.L <.<.E L.6XqXwXwXwXwXwX",
"C.v.#.=.G T Y p.K 7 K 7 7 3 3 3 6 J K Y U K 7 J p.d.F H L f.1.w.e !.6XqXwXwXwXwX",
"| e.y.-.J U U K K 6 4 5 7 i.7 7 5 > > T G J p.h.R ,.H F H f.I ,.h Q ^.7XqXwXwXwX",
"T.v.g < J K 6 7 6 K 7 8 7 i.i.U Y Y T 5 K T P s.s.P P F D R R I :.W ( (.6XqXwXwX",
":Xm.= 1 K Y K K U U 7 3 5 A 7 7 2 5 5 7 Y a.Y Y Y Y G G ; R j.f.K 2.+.c W.3XqX0X",
"7XI.b Z < K p.K 7 7 3 3 7 7 3 7 7 i.i.U Y 5 > G G d.5 Y F H f.f.K >.8.! B `.8XqX",
"8X2XQ.h 1 J i.k.*.8 8 7 4 2 7 4 i.i.i.*.7 3 4 G Y H Y Y G K ,.h.;.- a z x ' {.9X",
"wXqX X^ g V C :.Z V 1 ;.A , F *.g.7 4 7 4 2 5 Y P H Y Y G P f.u.O Z._.U. .i H.4X",
"wX8X!.x d ~ ~ ~ a a a j 0.0.r.0.>.&.-.i.4 4 K *.P 1.s.P F -.<.5.x :X8X2XOXM M ;X",
"wX9X}.S.X.K.K.J.%X%X)...[ [ E O . * t.l.2 : *.P F h.k.H -.=.%.( +X9XqXqX9XS.t '.",
"wXwXqX6X4X6X8XqXqXqX6X*X}.@X].` + X % %.&.p.s.H ; s.,.I <.#.( P.6XqXqXwXqXE.y n.",
"wXwXwXwXwX0XwXwXwXwXwXwX9X0X7X{.F.p @ % - 2.1.L D s.h.,.#.E D.2XqXwXwXwXqX}.' B ",
"wXwXwXqXwXwXwXwXwXwXwXqX0XwXwXwX0X9X>X~.| ( w.W %.2.u.w.) V.=XqXqXwXwXwX8X[.p w ",
"wXwXwXwXwXwXwXwXwXwXwXwXwXwXwX0XwXwXwX9X>X/.C.( ^ ^ ( ) P.2XqXwXwXwXwXwX9X`.0 d ",
"wXwXwXwXwXwXwXwXwXwXqXqXwXwXwXwXwXwXwXwX8X9X9X6X1X<X2X4X9X9XwXwXwXwXwX0X8XN m c ",
"wXwXwXwXwXwXwXwXwXwXwXwXwXwXwXwXwXwXwXwXwXwXqXwXwXwXwXqXqXwXwXwXwX0X8X0X=Xy l ^ ",
"wXwXwXwXwXwXwXwXwXwXwXwXwXwXwXwX0XwXqXqX3X3X6X9X8XqXqXqXwX0XwXwX0XwXwX5X' y l Z.",
"wXwXwXwXwXwXwXwXwXwXwXwXwXwXwXwXqXqX#XF.' i N p [.*X2X6X9XqXqXwXqX6X;X .9 ..c ].",
"wXwXwXwXwXwXwXwXwXwXwXwXwXwXwXqXqX#Xo.E f 3.b.j X @ w B o.E.'.+X~. .w 9 c ` ] 4X",
"wXwXwXwXwXwXwXwXwXwXwXwXwXqXwXqX8XD./ 8.%.:.N.6.y.8.~ k q e 0 $ q % g S b e [.9X",
"wXwXwXwXwXwXwXwXwXwXwXwXwXwXqXqX*X_ e.z.-.< ;.9.6.6.9.q.q.4.@.@.S Z M.M.d H.9X9X",
"wXwXwXwXwXwXwXwXwXwXwXwXwXwXwXqX|.r 5.u.%.%./ [ ~ n S 9.9.A A ;.A Z Z m ..;XqXwX",
"wXwXwXwXwXwXwXwXwXwXwXwXwXwXwXqX>X` ) B.( oX:X2X%X].H.[ n n n j x.z l n.;XqXwXwX",
"wXwXwXwXwXwXwXwXwXwXwXwXwXwXwXwX7X~.} } V.4X9XqXqXqX6X2X%X^.m.{ ..J.'.<X0XwXwXwX",
"wXwXwXwXwXwXwXwXwXwXwXwXwXwXwXwXwX,XG.A.G.6XwXwXwXwXwXqXqX9X6X6X4X9XwXwXwXwXwXwX",
"wXwXwXwXwXwXwXwXwXwXwXwXwXwXwXwXwXwX8X6X6X0XwXwXwXwXqX0X0XqXwXwXqXwXqX0XwXwXwXwX",
"wXwXwXwXwXwXwXwXwXwXwXwXwXwXwXwXwXwXwXqXqXwXwXwXwXwXwXwXwXwXwX0X0XwXwXwX0XwXwXwX",
"wXwXwXwXwXwXwXwXwXwXwXwXwXwXwXwXwXwX0X0X0XwXwXwXwXwX0X0XwXwXwXwXwXwXwXwXwXwXwXwX",
"wXwXwXwXwXwXwXwXwXwXwXwXwXwXwXwXwXwXwXwXwXwXwXwXwXwXwXwXwXwXwXwXwXwXwXwXwXwX0XqX",
"wXwXwXwXwXwXwXwXwXwXwXwXwXwXwXwXwXwXwXwXwXwXwXwXwXwXwXwXwXwX0XwXwXwXwXwXwXwXwXwX"
};
