/* XPM */
static char *cat_right1718510563[] = {
/* columns rows colors chars-per-pixel */
"40 40 221 2 ",
"   c #824E15",
".  c #91561C",
"X  c #8B572C",
"o  c #985F2A",
"O  c #865C32",
"+  c #935E3B",
"@  c #94612A",
"#  c #8D663F",
"$  c #976739",
"%  c #9B663C",
"&  c #A36C3C",
"*  c #A56938",
"=  c #B26F3B",
"-  c #AE753E",
";  c #B77539",
":  c #CF742D",
">  c #D1742F",
",  c #CE7635",
"<  c #CE7B35",
"1  c #C37C3B",
"2  c #CE7A3B",
"3  c #C37137",
"4  c #D47634",
"5  c #D57B34",
"6  c #D97C35",
"7  c #D37D3A",
"8  c #DB7D3A",
"9  c #D97632",
"0  c #E37E3A",
"q  c #946946",
"w  c #876F57",
"e  c #936E51",
"r  c #9E7452",
"t  c #9D7B5C",
"y  c #967359",
"u  c #87634B",
"i  c #A36A43",
"p  c #A4734C",
"a  c #A5794D",
"s  c #AA7648",
"d  c #B77444",
"f  c #B67942",
"g  c #BD7C45",
"h  c #B47D4C",
"j  c #BA7C4C",
"k  c #B0774C",
"l  c #AB7552",
"z  c #A37956",
"x  c #A97D55",
"c  c #AC7E5B",
"v  c #A17758",
"b  c #B57D53",
"n  c #BB7E54",
"m  c #B17F5C",
"M  c #9C7D68",
"N  c #A77E60",
"B  c #C37C43",
"V  c #C97941",
"C  c #C27E4B",
"Z  c #CB7E4A",
"A  c #DB7F40",
"S  c #DA862D",
"D  c #D78133",
"F  c #DA8335",
"G  c #D5833C",
"H  c #DC833B",
"J  c #D7883E",
"K  c #DC8A3C",
"L  c #DB8A31",
"P  c #DD923D",
"I  c #E2843D",
"U  c #E28C3D",
"Y  c #E38337",
"T  c #E3943C",
"R  c #EA9B3F",
"E  c #AB8049",
"W  c #BB824E",
"Q  c #A28259",
"!  c #AF875A",
"~  c #BC8452",
"^  c #B28159",
"/  c #BC8259",
"(  c #B3895E",
")  c #BC8B5A",
"_  c #B48856",
"`  c #BE905F",
"'  c #9B836D",
"]  c #AF8A65",
"[  c #A98569",
"{  c #B28565",
"}  c #B58C64",
"|  c #B98B62",
" . c #B38B6A",
".. c #B88C69",
"X. c #BB956A",
"o. c #B5946C",
"O. c #AC8872",
"+. c #BD8E73",
"@. c #AD997E",
"#. c #BD977C",
"$. c #BE9B7C",
"%. c #B99874",
"&. c #BCA27D",
"*. c #C3854D",
"=. c #CB854A",
"-. c #C6894D",
";. c #CC8A4C",
":. c #C58344",
">. c #D38344",
",. c #DC8442",
"<. c #D58B45",
"1. c #DC8B43",
"2. c #D4854C",
"3. c #D38C4B",
"4. c #D98C4B",
"5. c #C9904D",
"6. c #D9934C",
"7. c #D79248",
"8. c #CE8452",
"9. c #CC8B53",
"0. c #C68854",
"q. c #D18752",
"w. c #D38A54",
"e. c #D98D53",
"r. c #CF9153",
"t. c #C4925D",
"y. c #CB935D",
"u. c #D39254",
"i. c #DA9354",
"p. c #D49459",
"a. c #DC945B",
"s. c #D69C5B",
"d. c #E38640",
"f. c #E38B42",
"g. c #E68F4B",
"h. c #E98E45",
"j. c #E59243",
"k. c #E89543",
"l. c #E2944C",
"z. c #EB964C",
"x. c #E49C4C",
"c. c #EB9C47",
"v. c #E29451",
"b. c #E79E56",
"n. c #E5A158",
"m. c #CC8F61",
"M. c #C18C62",
"N. c #D28E61",
"B. c #C99F6D",
"V. c #C39A7B",
"C. c #C49977",
"Z. c #D5A165",
"A. c #C5A37E",
"S. c #CEA376",
"D. c #E5A065",
"F. c #BE9C82",
"G. c #B29A84",
"H. c #B9A28B",
"J. c #BAAA95",
"K. c #C5A283",
"L. c #C9A586",
"P. c #CAA68B",
"I. c #C8A989",
"U. c #D4A887",
"Y. c #D8AC89",
"T. c #C4B08F",
"R. c #DFB384",
"E. c #CEAF95",
"W. c #C1AB99",
"Q. c #D7AE90",
"!. c #CDB39B",
"~. c #CEB096",
"^. c #D2B69E",
"/. c #DAB79C",
"(. c #DDBD9D",
"). c #D2B897",
"_. c #E5B88F",
"`. c #D9BEA6",
"'. c #D8BBA6",
"]. c #CBB6A3",
"[. c #E2BFA2",
"{. c #D7C0AD",
"}. c #DEC3AE",
"|. c #DCCAB5",
" X c #D8C6B7",
".X c #ECCAAD",
"XX c #E4C6AC",
"oX c #E4C6B1",
"OX c #E4CEB5",
"+X c #EECDB5",
"@X c #E6CEBD",
"#X c #E8CDB8",
"$X c #EDD2B6",
"%X c #ECD4BD",
"&X c #EADBBE",
"*X c #E4D8BE",
"=X c #F8DABC",
"-X c #FCD3A7",
";X c #ECDAC3",
":X c #EBD7C7",
">X c #F5DAC9",
",X c #F3D9C2",
"<X c #FEE4C4",
"1X c #F5E4CE",
"2X c #FAE3CD",
"3X c #FEE9CA",
"4X c #EEE2D4",
"5X c #FBE5D3",
"6X c #FCECD5",
"7X c #FDECDB",
"8X c #F4E8D8",
"9X c #FEF5DD",
"0X c #FFEEE0",
"qX c #FEF4E4",
"wX c #FFFAE4",
"eX c #FDF5EB",
"rX c #FFFBEC",
"tX c #EFF5F1",
"yX c #FFFDF4",
"uX c #F7FDFD",
"iX c #FEFFFD",
/* pixels */
"iXiXiXyXyXyXiXiXiXiXiXiXiXuXiXiXiXiXiXiXyXiXiXiXiXiXiXiXiXiXiXiXiXiXiXiXiXiXiXiX",
"uXiXiXiXiXiXiXiXiXiXuXiXiXiXiXiXiXiXiXiXiXiXiXiXiXiXiXiXiXiXiXiXiXiXiXiXiXiXiXiX",
"iXiXiXiXuXuXiXuXiXiXiXyXiXiXiXiXiXiXiXiXiXyXiXiXiXiXiXiXiXiXiXiXiXiXiXiXiXiXiXiX",
"iXiXiXiXuXiXiXiXuXiXiXiXyXiXyXiXyXiXyXiXyXyXiXiXiXiXyXiXiXiXiXiXiXiXiXiXiXiXiXiX",
"iXiXiXiXiXiXiXiXyXiXyXiXiXiXiXiXiXiXyXeXqXeXiXiXiXiXyXiXiXiXiXiXiXiXiXiXiXiXiXiX",
"iXuXiXiXiXyXrX7XqXqXyXyXyXiXiXyXiXyXqXJ.@.J.4XyXiXiXiXiXiXiXiXiXiXiXiXiXiXiXiXiX",
"uXiXiXyX5X}.K.%.{ V./.%X5XeXrXyXeXrX9XA.o.o.).rXiXiXiXiXiXiXiXiXiXiXiXiXiXiXiXiX",
"uXiXyX>XV.p k m.n b b m ..K.[.$X7X>X-X0.Z.) ] >XiXiXiXiXiXiXiXiXiXiXiXiXiXiXiXiX",
"uXiX2X+.C C C q.2.Z 8.w.9.0.~ W ) _ W 7.<.-.p oXyXiXiXiXiXiXiXiXiXiXiXiXiXiXiXiX",
"iXeXF.l N.a.q.Z 8.Z w.w.q.8.;.;.*.5.G <.n.p.x %XyXiXiXuXiXiXiXiXiXiXiXiXiXiXiXiX",
"yX'.r m C i + % + + q i i C 9.y.-.D.;.=.5.| F.eXiXiXiXiXiXiXiXiXiXiXiXiXiXiXiXiX",
"qXO.m l + p %.E.[.'.E.F.N r q X j y.W h a &.@XyXiXiXiXiXiXiXiXiXiXiXiXiXiXiXiXiX",
".Xv +.u { ,XrXyXiXiXiXeX0X8X:X`.t r e [ H.;XyXiXiXiXiXiXiXiXiXyXiXiXiXiXiXiXiXiX",
"C.v r O.7XyXiXuXiXiXiXiXyXyXiXyXrXqX8X7XyXyXyXiXiXiXiXiXiXiXiXiXiXiXiXiXiXiXiXiX",
"..z u :XyXyXtXiXiXiXiXyXiXyXyXyXyXyXyXiXiXyXyXiXiXiXiXiXiXiXiXiXiXiXiXiXiXiXiXiX",
"z [ M eXyXiXuXuXiXyXrXeXwX8X1X7XrXqXyXyXyXyXiXiXiXiXiXiXiXiXiXiXiXiXiXiXiXiXiXiX",
"r e !.eXiXiXuXiXyXrX6XT.o.} ! _ } A.(.&XrXrXyXyXiXiXiXiXiXiXiXiXiXiXiXiXiXiXiXiX",
"e M `.yXyXiXiXiXyX*X&.} t.s.p.-.W y.` X.).3XrXyXyXiXyXyXiXiXiXiXuXiXiXyXyXiXiXiX",
"N N  XyXiXiXiXyX9XV.h ;.6.v.g.1 >.i.u.f $ # t G.|.wXrXyXyXyXuXuXyXyXyXyXyXuXiXuX",
"#.M W.yXiXuXyXeXP./ =.l.P j.l.4 K 1.1.;.; * X O ] [.OX}.4XeXyXyXyXrXqX9X0XiXuXiX",
"^.w G.eXyXyXrXOX} *.1.P L k.z.6 d.Y : 4 v.i.= . @ b M.{ C./.+X,XL.K.L.$.G.|.yXiX",
",X' '  X2XwX3XQ t.i.K S S T T H I Y 6 5 d.1.1.4.i.e.a.9.d i i i b n n l N `.eXyX",
"qXJ.y +.U._.B.@ p.6.L D U T K f.f.6 4 6 ,.4 7 l.H < 2 A V 3 V 2.e.Z V = m [.rXyX",
"rX X[ c / * ; ;.n.l.K D U K F d.H 6 > 5 d.,.H K 7 5 9 8 8 4 8 A g.1.>.V j Y.2XwX",
"yXqX!.^ b 9.2.G c.x.L H d.d.f.K 6 6 H I d.K d.H 5 6 8 8 A 4 A A ,.f.,.2 C ^ I.rX",
"yXrX6XE.^ 0.i.G R c.T 4 6 1.K j.U U h.U 6 6 6 4 H H 0 8 4 A A A I I I H 1 = X.<X",
"yXyXyXwX{...W <.T R T S 6 K K k.f.U H F 6 H U d.0 d.d.0 9 8 A d.H 6 Y H 7 B t.R.",
"iXiXyXyXrX^.^ f 7.P T P F K j.K z.U H F F 5 5 H 6 8 0 0 0 8 0 A 6 L Y 6 ,.i.y.) ",
"iXiXiXiXyXeX~.q 5.x.P P L 5 c.U F H G H 1.K G 6 4 4 9 0 0 0 H I I d.L D J 5.y.B.",
"iXiXiXiXiXyX6XI.E s.P J d.U T U F K G G l.n.x.<.>.A 4 8 8 0 H H d.K H J G - S.=X",
"uXiXiXiXiXyXyX9X&._ r.<.<.j.U K H D 4 G 6.6.3.;.:.>.Z 4 , 7 ,.G K 6 G >.E ) $XwX",
"uXiXiXiXiXiXiXrX&XQ t.u.1 4.J G H ,.4.r.; .   o & 0.m.C d g 9.e.4.2.=.*.) (.rXyX",
"iXiXiXiXiXiXiXiXrX*XA.( ~ r.r.3.a.p.W * $ O q (.OXK.[ #.Q.U. .p d C W s P.9XyXyX",
"iXiXiXiXiXiXiXiXyXyX7XOXA.x & & s a ! ] H.!. XrXrXqX7X7XrXeX2XXX{ m r y J.qXyXyX",
"iXiXiXiXiXiXiXiXiXyXyXyXqX5X&XOXOX*X6XqXwXyXyXiXiXiXiXiXyXyXyXqX2X#X].J. XyXiXyX",
"iXiXiXiXiXiXiXiXiXiXiXyXyXyXyXyXyXyXyXiXyXiXiXuXuXiXiXiXiXyXiXiXyXyXyXtXyXiXiXiX",
"iXiXiXiXiXiXiXiXiXiXiXiXiXiXiXiXiXiXiXiXuXiXiXiXiXiXiXiXiXiXiXiXiXyXiXiXiXiXiXiX",
"iXiXyXiXiXiXiXiXiXiXiXiXiXiXiXiXiXiXiXiXiXiXiXiXiXiXiXiXiXiXyXiXiXiXiXiXiXiXiXiX",
"iXiXiXiXiXiXiXiXiXiXiXiXiXiXiXiXiXiXiXiXiXiXiXyXiXiXiXiXiXiXiXiXiXiXiXiXiXiXiXiX",
"iXiXiXiXiXiXiXiXyXiXiXiXyXiXyXiXiXiXiXiXiXyXiXiXiXiXyXyXiXiXiXuXiXiXyXiXiXyXiXiX"
};
