/* XPM */
static char *cat_up1718510563[] = {
/* columns rows colors chars-per-pixel */
"40 40 219 2 ",
"   c #824E1F",
".  c #93561F",
"X  c #8C5624",
"o  c #965F2E",
"O  c #8A5A35",
"+  c #945E36",
"@  c #8F653F",
"#  c #94653B",
"$  c #9B653C",
"%  c #9D6536",
"&  c #A36C3A",
"*  c #A36739",
"=  c #B36F38",
"-  c #A2733F",
";  c #B3723E",
":  c #BC7B3E",
">  c #CD7B2E",
",  c #CE732D",
"<  c #D47E2E",
"1  c #D07A23",
"2  c #CD773C",
"3  c #CA7C3B",
"4  c #C77737",
"5  c #D47633",
"6  c #D97737",
"7  c #D47B35",
"8  c #DA7B35",
"9  c #D57639",
"0  c #D37C3B",
"q  c #DB7C3B",
"w  c #89654A",
"e  c #9B6A44",
"r  c #9A714B",
"t  c #9E7549",
"y  c #8E6C50",
"u  c #926D52",
"i  c #9C7354",
"p  c #99765B",
"a  c #A46E46",
"s  c #AD6E43",
"d  c #AA7B4C",
"f  c #A67449",
"g  c #B47744",
"h  c #B27B4C",
"j  c #BC7C4D",
"k  c #B97A44",
"l  c #A57C57",
"z  c #AD7D54",
"x  c #A47C5D",
"c  c #AC7D5C",
"v  c #A67554",
"b  c #B27F55",
"n  c #BC7E51",
"m  c #B77E59",
"M  c #9E7E62",
"N  c #957C68",
"B  c #A27D62",
"V  c #C57944",
"C  c #CC7F42",
"Z  c #CB7E4A",
"A  c #DA7F40",
"S  c #E17F41",
"D  c #D4802F",
"F  c #D9802E",
"G  c #CD8139",
"H  c #D48335",
"J  c #DA8335",
"K  c #DC8937",
"L  c #D5833C",
"P  c #DC833C",
"I  c #D78B3A",
"U  c #DC8B3B",
"Y  c #DF913F",
"T  c #E1853C",
"R  c #E28A3C",
"E  c #E6933A",
"W  c #AC8248",
"Q  c #BA814A",
"!  c #AB825E",
"~  c #A88159",
"^  c #B78155",
"/  c #BA8352",
"(  c #B2845A",
")  c #BF8759",
"_  c #B38A5D",
"`  c #BB8D5D",
"'  c #BB8E57",
"]  c #BD945B",
"[  c #A6856A",
"{  c #AE8B6C",
"}  c #AD8765",
"|  c #B58964",
" . c #BC8B63",
".. c #B28C6B",
"X. c #B68B69",
"o. c #B4916B",
"O. c #BA916B",
"+. c #B69A67",
"@. c #AE997D",
"#. c #BB9674",
"$. c #B99479",
"%. c #BD9C79",
"&. c #B49476",
"*. c #B08C74",
"=. c #BEA17B",
"-. c #C48144",
";. c #C2854D",
":. c #CB854B",
">. c #C58A4C",
",. c #CD8B4D",
"<. c #D38543",
"1. c #DB8541",
"2. c #D58B44",
"3. c #DB8A43",
"4. c #D4834A",
"5. c #D38A4A",
"6. c #C4914F",
"7. c #DC9344",
"8. c #D6944C",
"9. c #DA934C",
"0. c #D69649",
"q. c #C28454",
"w. c #CC8652",
"e. c #CC8B55",
"r. c #C38B5C",
"t. c #CB8E5C",
"y. c #D48D52",
"u. c #DA8D54",
"i. c #D58855",
"p. c #CA9455",
"a. c #CB955D",
"s. c #C39359",
"d. c #D49254",
"f. c #DC9353",
"g. c #D59B59",
"h. c #DA9B54",
"j. c #E28542",
"k. c #E48C43",
"l. c #E88C43",
"z. c #E49344",
"x. c #E99444",
"c. c #E49845",
"v. c #EB9945",
"b. c #E59448",
"n. c #E69A49",
"m. c #EB9A49",
"M. c #E59D51",
"N. c #E19353",
"B. c #EDA155",
"V. c #CE8E60",
"C. c #D78E61",
"Z. c #C79566",
"A. c #D29367",
"S. c #CC9B76",
"D. c #C29E7E",
"F. c #E39B61",
"G. c #D1A662",
"H. c #C4A07F",
"J. c #CFA37C",
"K. c #B99983",
"L. c #BBA185",
"P. c #BEAC8E",
"I. c #BCA088",
"U. c #BAA893",
"Y. c #C4A483",
"T. c #CAA986",
"R. c #CBAC8F",
"E. c #C5A78A",
"W. c #D3AA87",
"Q. c #D2AB8D",
"!. c #DFB68A",
"~. c #C9AD98",
"^. c #D0AE92",
"/. c #CCB295",
"(. c #CDB39D",
"). c #D3B697",
"_. c #D9B79A",
"`. c #DCB99D",
"'. c #E4B893",
"]. c #CFB8A8",
"[. c #D0B4A1",
"{. c #DCBDA2",
"}. c #DFC1AB",
"|. c #DBC4A5",
" X c #D4C2B4",
".X c #DDC8B4",
"XX c #DBC8B9",
"oX c #E6C5A9",
"OX c #E5C3A7",
"+X c #FDD1AA",
"@X c #E3CBB3",
"#X c #E9CEB8",
"$X c #E8CCB7",
"%X c #EAD1B4",
"&X c #EBD5BD",
"*X c #E6D1B6",
"=X c #F5D8BB",
"-X c #FACCAB",
";X c #EBD6C4",
":X c #EBDBC6",
">X c #F4DDC5",
",X c #F8DAC6",
"<X c #FDE1C3",
"1X c #F6E3CD",
"2X c #FFECCF",
"3X c #F5E5D3",
"4X c #FDE6D4",
"5X c #FDEAD4",
"6X c #FDECDB",
"7X c #FFF3DD",
"8X c #FDEEE2",
"9X c #FEF4E4",
"0X c #FFFBE5",
"qX c #FFF5EB",
"wX c #FFFBEC",
"eX c #FCF7F1",
"rX c #FFFDF4",
"tX c #F6FAFC",
"yX c #FEFFFE",
/* pixels */
"yXyXyXyXyXyXyXyXyXyXyXyXyXyXyXyXyXyXyXtXyXyXrXeX0X<X!.' Z.,XwXrXrXyXyXyXyXyXyXyX",
"yXyXyXyXyXyXyXyXyXyXyXyXyXyXyXyXyXyXyXrXeXqXqX5XR.#.Z.a.Z.S.*XwXrXrXyXyXyXyXyXyX",
"yXyXyXyXyXyXyXyXyXyXyXyXyXyXyXyXyXyXrXrX X[.oXW.~ & Q d.>.: O.OX9X0XrXrXyXyXyXrX",
"yXyXyXyXyXyXyXyXyXyXyXyXyXyXyXyXyXyXrXqXK.B m g ;.: G I G 4 Q _ T.P. XeXyXyXyXtX",
"yXyXyXyXyXyXyXyXyXyXyXyXyXyXyXyXyXrXrX0X&.z ; 3 3 L P J H P 5.;.v p U.qXyXyXyXrX",
"yXyXyXyXyXyXyXyXyXyXyXyXyXyXyXyXyXyXrX9XD.) 4 1.P P P T P J 1.5.Z v (.wXrXyXyXyX",
"yXyXyXyXyXyXyXyXyXyXyXyXyXyXyXyXyXyXrX9XE.n C P x.R H T j.P L <.j c $XrXyXyXyXyX",
"yXyXyXyXyXyXyXyXyXyXyXyXyXyXyXyXyXyXyXwXQ.h u.k.8 K J P j.P k.4.h X.4XrXtXyXyXrX",
"yXyXyXyXyXyXyXyXyXyXyXyXyXyXyXyXyXyXtXrX,Xa 4.q P P 0 P 1.1.1.f.a oXqXrXyXtXyXyX",
"yXyXyXyXyXyXyXyXyXyXyXyXyXyXyXyXyXyXyXrX$Xe V 0 P P 1.q 1.q 0 :.O.,XrXyXyXyXyXtX",
"yXyXyXyXyXyXyXyXyXyXyXyXyXyXyXyXyXyXyX0X_.* 4 9 8 8 8 q S 1.0 k Q.0XrXtXtXtXyXrX",
"yXyXyXyXyXyXyXyXyXyXyXyXyXyXyXyXyXrXeX;XD.k 0 q 6 6 6 q S q 2 ; Q.wXrXtXyXyXyXyX",
"yXyXyXyXyXyXyXyXyXyXyXyXyXyXyXyXyXrX0X|._ e.A 8 q q S S q 9 2 Z $.8XrXyXyXyXyXyX",
"yXyXyXyXyXyXyXyXyXyXyXyXyXyXyXyXyXrXwX*Xr.y.9 6 q q j.A 6 9 Z V.{ 3XrXyXyXyXyXyX",
"yXyXyXyXyXyXyXyXyXyXyXyXyXyXyXyXyXrXwXOXn f.7 7 9 q j.q 9 q 4.q.Y.7XrXrXyXyXyXyX",
"yXyXyXyXyXyXrXrXrXrXyXyXyXyXyXyXyXrX.X} o f.<.q 6 1.1.6 5 1.Z & oXrXrXtXtXyXyXyX",
"tXyXyXyXyXtX0X1X@X;XeXrXyXyXyXyXyXrXK.O X 9.b.J P 8 P P 7 2.,.+ [.wXyXyXyXyXyXyX",
"rXyXyXyXrX:X/.o.r } I.XXrXyXyXyXyXrXN X = <.7 K T 8 T J H M.y.  p  XyXyXyXyXyXrX",
"yXyXrXrX9XP.+.] 6.p.] =.;XeXyXeXrX1X@ * f.2.> T T 8 J J K B.8.X O ~.rXyXyXyXyXyX",
"yXyXtXrX9X@.+.G.0.M.>.d L.qXyXyX0X).# V N.1.q T T 8 8 K U c.2.: # E.eXyXyXyXrXyX",
"yXyXyXrX8XU.L.' 8.2.,.h M 8XyXeX>XO.g <.4 5 6 q T T T T T J H 5.& o.6XrXyXyXyXyX",
"yXyXyXyXyX8X7X+X>.3 5.Q u 6XrXrX{. .d.3., 5 5 6 T R T 8 T J 7 2.>.| 5XrXyXyXyXtX",
"yXyXyXyXyXyXrX<Xr.y.F.A.B 9XrXwXY.t.f.R T T 8 6 8 T R T T P L L g.d &XrXyXyXyXyX",
"yXyXyXyXyXyXrX4Xq.5.,.h p wXrX9XO.q.H K R R l.1.J T b.b.P J P <.h.- .XrXyXyXyXyX",
"yXyXyXrXyXrXrX&Xb y.e.# _.wXrX3X_ >.> 1 < K k.3.U 7.c.R U k.k.L ,.f *XwXrXyXyXyX",
"yXyXyXrXyXtXwX|./ e.e.# *XrXrX3X! g.E E v.x.3.L R H U v.x.x.z.2.d.t &XrXyXtXyXyX",
"yXyXyXtXyXrX9XY.q.w.m a 5XyXrX6X_ g.c.E E v.k.U U K K H K R k.0.s.t 6XrXyXyXyXyX",
"yXyXyXyXrXrX4X| e.w.h B wXrXyX8X+.p.0.U K R k.U K U D > R U G G ^ %.9XrXyXyXyXyX",
"yXyXyXyXyXrX=Xz i.w.a *.rXyXyXwXR.` >.h.I H H H K D D U E 2.2.a._ *XrXtXyXyXyXyX",
"rXyXyXyXrXwX_.b Z i.e R.rXyXrXeX6X=.h >.8.2.I I K K x.c.I 2.g.] Y.7XrXtXyXyXyXyX",
"yXyXyXyXrXqX%.n Z i.+ }.rXyXyXyXrX;XY./ -.0.7.c.v.v.n.n.0.g.s.x ;XrXyXtXyXyXyXyX",
"yXyXyXyXyX0X} j Z i.O @XeXyXyXyXyXrX6XT._ s.h.M.b.n.7.8.p.W +.>XwXrXyXyXyXyXyXrX",
"tXtXyXyXyX8X..V.u.V a ^.eXyXyXyXrXeXyXeX.X~ % >.2.3.y.h e L.7XwXrXyXyXyXyXyXyXyX",
"yXyXyXyXyX8XY.d j Z % $.wXrXyXyXyXyXyXyXrX1XS.= 5.8.Q ~ /.6XwXrXyXyXyXyXyXyXyXyX",
"yXyXtXyXyXqX@Xa n C.s f &XeXyXyXrXyXyXyXrX0X'.; e.q._ _.9XrXyXyXyXyXyXyXyXyXyXyX",
"rXyXyXyXyXyX8XK.m A.m O { 8XrXrXyXyXyXrXwX5XW.~ ^ ( `.0XrXtXyXyXyXyXyXyXyXyXyXyX",
"yXrXyXyXyXyXyX;X*.z m f w *.XXrXyXeXrXeX7X}.o.l x ^.7XwXrXyXyXyXyXyXyXyXyXyXyXyX",
"yXyXyXyXyXyXyXeX4X$.v  . .i w N ].]..X(.@.M p [ (.5XrXeXyXyXyXyXyXyXyXyXyXyXyXyX",
"yXyXyXyXyXyXyXyXrX8X{.} v v B { w p [ i y M L..X9XrXrXtXyXyXtXyXyXyXyXyXyXyXyXyX",
"yXyXyXrXyXyXyXyXeXrX9X2X-XS.c c v i x #._.,X7XwXrXeXyXyXyXyXyXrXyXyXyXyXyXyXyXyX"
};
