/* XPM */
static char *enemy1718510564[] = {
/* columns rows colors chars-per-pixel */
"40 40 240 2 ",
"   c #040201",
".  c #0B0708",
"X  c #1D0300",
"o  c #150707",
"O  c #1B171A",
"+  c #1A100E",
"@  c #2C0201",
"#  c #290A06",
"$  c #330C0B",
"%  c #340402",
"&  c #3C1607",
"*  c #2A1A1B",
"=  c #371A1A",
"-  c #2E1710",
";  c #25211D",
":  c #322718",
">  c #3A2C0D",
",  c #1E1F21",
"<  c #211F24",
"1  c #282626",
"2  c #372A27",
"3  c #393527",
"4  c #383737",
"5  c #2C2E31",
"6  c #441604",
"7  c #451718",
"8  c #561400",
"9  c #582501",
"0  c #4D2118",
"q  c #542919",
"w  c #43351D",
"e  c #563614",
"r  c #533000",
"t  c #682B03",
"y  c #693601",
"u  c #763B06",
"i  c #6F3912",
"p  c #492627",
"a  c #552B2C",
"s  c #542225",
"d  c #533722",
"f  c #493A39",
"g  c #573939",
"h  c #42302E",
"j  c #6D3238",
"k  c #5B4418",
"l  c #784307",
"z  c #694518",
"x  c #7A451A",
"c  c #494338",
"v  c #554A3B",
"b  c #574D36",
"n  c #674829",
"m  c #764A25",
"M  c #694935",
"N  c #7B5639",
"B  c #76512F",
"V  c #7B6536",
"C  c #513F44",
"Z  c #723B41",
"A  c #3D4443",
"S  c #4B4949",
"D  c #584A49",
"F  c #59514A",
"G  c #585656",
"H  c #504D51",
"J  c #664A44",
"K  c #645549",
"L  c #675A59",
"P  c #725A58",
"I  c #7C5C47",
"U  c #59625F",
"Y  c #69645D",
"T  c #736758",
"R  c #5C6866",
"E  c #696867",
"W  c #766A66",
"Q  c #757269",
"!  c #7A7571",
"~  c #7D7B7A",
"^  c #787676",
"/  c #64706E",
"(  c #854C0B",
")  c #914513",
"_  c #8D5819",
"`  c #975716",
"'  c #894F16",
"]  c #9E621C",
"[  c #845726",
"{  c #935C23",
"}  c #855C36",
"|  c #9D6625",
" . c #846233",
".. c #9E6B36",
"X. c #A76C28",
"o. c #BC7325",
"O. c #BC7629",
"+. c #A76C38",
"@. c #B96C32",
"#. c #AA7538",
"$. c #B6783A",
"%. c #AD742D",
"&. c #B15514",
"*. c #CA731B",
"=. c #C5782A",
"-. c #D57C29",
";. c #C27A32",
":. c #C97B38",
">. c #D77C38",
",. c #8D5C52",
"<. c #856743",
"1. c #9C7C46",
"2. c #987756",
"3. c #8E6A50",
"4. c #B47E47",
"5. c #A97C58",
"6. c #B47954",
"7. c #AC7545",
"8. c #826968",
"9. c #87786A",
"0. c #987B67",
"q. c #847976",
"w. c #867978",
"e. c #926A6C",
"r. c #A67A61",
"t. c #CA7E48",
"y. c #758072",
"u. c #BA833B",
"i. c #CE822F",
"p. c #CB833D",
"a. c #C68436",
"s. c #D38132",
"d. c #E48831",
"f. c #998457",
"g. c #B7844A",
"h. c #BB8757",
"j. c #AB8653",
"k. c #978B6C",
"l. c #86817D",
"z. c #918577",
"x. c #978D71",
"c. c #A5917B",
"v. c #B28D6D",
"b. c #B2A57B",
"n. c #C58242",
"m. c #CA8849",
"M. c #C89556",
"N. c #D38F4D",
"B. c #E59B54",
"V. c #DFA05D",
"C. c #C99765",
"Z. c #D89665",
"A. c #CC956C",
"S. c #CCA573",
"D. c #E0A36A",
"F. c #757F80",
"G. c #808380",
"H. c #8C8C8B",
"J. c #868986",
"K. c #95898C",
"L. c #94928D",
"P. c #9D938B",
"I. c #8B9493",
"U. c #9D9C9A",
"Y. c #959394",
"T. c #A29F9E",
"R. c #B49B96",
"E. c #AA9587",
"W. c #9AA09D",
"Q. c #ACA38C",
"!. c #B6A58D",
"~. c #A4A19E",
"^. c #ACA297",
"/. c #B8AB97",
"(. c #9CA5A4",
"). c #AAABA9",
"_. c #A6A7A4",
"`. c #B6ABA9",
"'. c #BBBBB5",
"]. c #BDBDBC",
"[. c #B3B5B3",
"{. c #AFAFB0",
"}. c #C7B499",
"|. c #CAAAA9",
" X c #C7B8A4",
".X c #C2BCBB",
"XX c #C8B8B7",
"oX c #DABDBF",
"OX c #C2C1BC",
"+X c #CDC3B9",
"@X c #D7CBB8",
"#X c #D9D3BB",
"$X c #E3CCB5",
"%X c #BFC9C8",
"&X c #CAC5C3",
"*X c #CCCACA",
"=X c #C6C7C9",
"-X c #D4CDCC",
";X c #D7C8C6",
":X c #D8D3CB",
">X c #CDD7D5",
",X c #D4D3D3",
"<X c #DAD4D3",
"1X c #DEDEDC",
"2X c #DBD8D7",
"3X c #D6CDD1",
"4X c #E4C9C5",
"5X c #EAD7C9",
"6X c #E9DBDA",
"7X c #F6D7D4",
"8X c #E2E1DE",
"9X c #ECE1D6",
"0X c #FFF2D7",
"qX c #F7EADE",
"wX c #DCDDE2",
"eX c #EBDFE1",
"rX c #E5E3E3",
"tX c #EAEAE6",
"yX c #EBEAEA",
"uX c #E7E6E8",
"iX c #F3EDEC",
"pX c #F5E9E7",
"aX c #ECF4EE",
"sX c #F4F2EE",
"dX c #FDF3ED",
"fX c #FEFDED",
"gX c #F8F7E3",
"hX c #EDEEF2",
"jX c #F6EEF2",
"kX c #EEF3F3",
"lX c #EDFDFF",
"zX c #EDF8F7",
"xX c #F4F4F4",
"cX c #FBF5F4",
"vX c #F5F9F4",
"bX c #FEFBF5",
"nX c #F4F5FB",
"mX c #FCF4FB",
"MX c #F5FDFC",
"NX c #FDFEFD",
/* pixels */
"NXNXNXMXaXMXMXMXNXNXNXmXNXmXbXgXbXpXaXMXlXMX9X!.c.!.qXMXzXMXbXbXNXNXNXNXNXNXNXNX",
"NXNXbXbXfXbXNXNXmXNXcXmXmXmXbXc.N I b v 9.z.I V  .B K tXbXvXbXNXNXNXNXNXNXNXNXNX",
"mXcXfX0Xb.x. X6XNXNXmXmXmXXXw V h.a.M.g._ X.Z.Z.Z.D.} n fXsXNXNXNXNXNXNXNXNXNXNX",
"mXcX0X<.5.j.2.3.e.3.K J J a S.M.u.u.u.O.=.-.>.;.7.+.A.m n 5XNXMXMXMXNXNXNXNXNXNX",
"NXbX}.2.v.6.6.9 y #.g.+.8 t.:.@.;.a.a.i.*.-.>.t.A.t.g...r > >XzXMXMXNXNXNXNXNXNX",
"MXbX#Xv.3.t 8 @.V.g.M.X.p.B.>.-.n.a.O.=.d.-.&.) i [ 4.$.X.r y.lXMXNXNXNXNXNXNXNX",
"MXvX#X3.} % 7.Z.$.u.h.h.$.( X.:.n.] X.a.*.i.-.) @ i m.;.s.l Q NXMXNXNXNXNXNXNXNX",
"lXzXc b q % A.m.g._ ' 7.( y h.{ t _ #.u.i.i.=.m.m 9 n.;.s.t 0.NXNXNXNXMXNXNXMXNX",
"MXkXQ Q.$Xn C.+.+.$.u 9 y g.[ z h.S.1.[ X.i.=.m.6.t %.p.p.u & 4XeX.XY.G.nXNXMXNX",
"NXNXfXfX4XM h.7.` ` N.) %.#.[ v.0.& d k 6 l o.o.4._ ( a.a.i $ 2 w.l.2 U.NXMXNXMX",
"fXgXbXfXqXM j.X.V.=.=.=.;.$.t.<.@ E.bX@Xz X.o.i.;.a.l x C.m # K.XXW w.NXMXMXMXNX",
"fXdXdXfXc.& j.l t @.m.$.{ 6.m 6 @ e.gX#X .M.=.i.o.N.u.9 [ I # 2 g g NXNXvXMXvXMX",
"bXbXbX5Xe 1.j.j.5.0 s & # # : K = M qXv._ m.O.-.=.o.p.' t 9 $ $ p = 6XNXNXMXMXMX",
"NXmXdXR.k S.j. .7XC O O <     + # <.b.n V g.#.$.N.m.u.| x m 0 & a 7 E.mXtXvXNXMX",
"NXNXmXw.V ..B n a o < C < + * c 2 = : 0.c.0.0.5.7...g.+.l [ 9 % 6 a f ;XNXMXaXNX",
"MXnXNX`.> f.$Xb.c *X5 O < . ~.bXmX{.eXmXcXbXmX7XoX}.2.e k m i % Z 7XR.q.Y l.MXlX",
"NXNXNX~ P.fXbXW sXNX).O . q.bX8XuXNXnXjXNXbXNXbXbXcXdX XT w b @ 7 e.e.P Y T.nXNX",
"NXNXY.(.vXNX~.H.tX1XsX'.~.NX+X~.mXuXmXNXq.c `.NXjXT.eXNXpXW : # 7 s $ R.cXNXNXNX",
"NXbXY rXNXNX'.Q `.tXbXNXMXbX'.l.sXzXNXOXF   2 :XbX*XQ bXbXsXL o 7 j s 4XmXmXNXNX",
"xXNXE 8XsXNXsXS H.Q y.! ! .X:X).'.#XT - b :Xc z.sXNXU.H.mXmX6X* @ Z p oXNXNXbXMX",
"NXMX~ =XxXNXtXE ^ H.OXW.1 S c L.c : w x./.#Xv F bXNXrX~ uXmXcXK.$ a 2 XXNXNXkXNX",
"bXNX_._.NXNXU.].NXbXNXbXpXNX,X2 T Q./.Q.OXx.!.b cXxXNXY.uXNXmX3Xp /.P.w.'.NXMXMX",
"NXNX,XU.bXNX[.[.NXdXsXsXNXsXyX+X3 Q./.b.!./.+XQ :XNXNXwXhXNXmX6XQ f ! / , J.MXNX",
"mXNX=XE NXNX8XL.8XNXvXtX8XNXNXfX/.w T Q.c.k.b S bXbXnXnXnXnXmXxXP.o U ].tXMXMXNX",
"MXNX(.J.NXhXxXxX^ &X=XU.~ H.2XbXbXoXK h D K T w.xXNXMXnXnXnXNXyXXXo ;XNXmXNXNXMX",
"MXmXH.].NXNXNXmXH.^ *XNXNX2XT.,XcXNXNXeXXX3XF ;XNXhXnXMXMXxXNXcX`.C jXjXcXNXbXNX",
"NXNXG ,XNXuXmXcXL.Y.NXyXNXNXcXiXmXuXmXmXpXL K.NXhXmXNXhXMXvXsXsX&XC <XNXNXNXxXNX",
"mXNXG ,XNXNXbXNX].^ yXbXiXNXsXmXNXNXuXNXK.D NXNXxXnXNXMXNXvXdXvX{.4 yXNXNXNXNXNX",
"NXNXH ].NXxXhXNXrXU 3XmXxXcXxXxXhXnXNXwX1 :XNXyXNXkXnXnXxXvXNX8XU.A MXNXnXbXNXNX",
"NXNXY.H NXxXbXmXNXY.G 2X&XcXNXNXNXnXNXE E bXbXNXxXNXzXMXNX8XtX6XU / MXMXNXNXNXNX",
"nXbXNX5 H.NXNXmXjX*XE S S L <XbXaXMX=X5 _.tXbXyXnXNXhXNXyX_.OX.X1 =XmXmXmXNXNXNX",
"NXNXMX2X, E *X,X&X&XXX4 * . * ! ~.~.l.4 ).:XsXNXzXNXNX>XE ~ ,Xc E NXmXNXNXNXNXNX",
"NXMXMXNX1XE ; F E P v h g P $ @ # $ X - XX~.'.>X=X%Xy.5 J.*XG C nXNXNXNXNXNXNXNX",
"nXNXNXhXNXNX*X{.q.W P J p % e.,.7 a g # 8.:XOX(.I.R / (._.A 4 nXNXNXNXNXNXNXNXNX",
"NXNXNXNXNXNXbXbXiXc F 6XjXJ |.|.a a = P c F Y._.{.(.I.G 1 ~ NXNXNXNXNXNXNXNXNXNX",
"NXNXNXNXMXMXNXNX{.G bXbXmX6Xq.W g 8.P J XXO ; S 5 4 A J.xXNXNXbXNXNXNXNXNXNXNXNX",
"NXNXNXNXNXNXNXMXsXMXNXNXNX8XQ G 6XbXdX;XE ^ ].NXzXzXNXMXNXcXNXNXNXNXNXNXNXNXNXNX",
"NXmXNXNXNXkXvXNXMXaXNXMXNXNX4 J.bXdXNXNXJ.2 yXNXNXzXNXNXNXNXNXvXNXNXNXNXNXNXNXNX",
"NXNXmXNXNXNXNXMXMXNXMXMXMXvX[.aXNXNXNXmXbXD NXNXNXNXNXNXbXNXNXNXNXNXNXNXNXNXNXNX",
"NXNXNXNXNXNXNXMXMXMXMXNXMXMXlXNXMXbXNXxXNXNXbXNXmXNXNXNXNXbXbXNXNXNXNXNXNXNXNXNX"
};
