/* XPM */
static char *door_open1718510564[] = {
/* columns rows colors chars-per-pixel */
"40 40 122 2 ",
"   c #7E8E2B",
".  c #82971E",
"X  c #8A9F24",
"o  c #8B9E2C",
"O  c #849433",
"+  c #879830",
"@  c #8B9D32",
"#  c #84923D",
"$  c #8C9D3B",
"%  c #8DA226",
"&  c #8DA22B",
"*  c #92A927",
"=  c #91A62B",
"-  c #94A92E",
";  c #98AE2D",
":  c #9CB327",
">  c #9DB42C",
",  c #8FA332",
"<  c #91A631",
"1  c #95AA32",
"2  c #99AE35",
"3  c #92A53B",
"4  c #97AB3A",
"5  c #99AD3A",
"6  c #9CB235",
"7  c #9EB23B",
"8  c #A1B734",
"9  c #A1B63D",
"0  c #A3B93D",
"q  c #8D9D42",
"w  c #88934E",
"e  c #8E9B49",
"r  c #909E46",
"t  c #919E4E",
"y  c #8D975B",
"u  c #929F52",
"i  c #929C5C",
"p  c #95A643",
"a  c #9CAD43",
"s  c #95A44A",
"d  c #98A64F",
"f  c #9BAB4C",
"g  c #9EB142",
"h  c #95A253",
"j  c #98A657",
"k  c #9BA952",
"l  c #97A35C",
"z  c #98A45C",
"x  c #A2B642",
"c  c #A0AE57",
"v  c #A2B15E",
"b  c #A7B85A",
"n  c #919A63",
"m  c #97A363",
"M  c #98A265",
"N  c #9EAA62",
"B  c #9BA66C",
"V  c #9DA86C",
"C  c #A3AF65",
"Z  c #A3AE6A",
"A  c #A2B061",
"S  c #ADBC67",
"D  c #AEBC6A",
"F  c #A7B270",
"G  c #ABB674",
"H  c #AEBA72",
"J  c #B2BF77",
"K  c #B3BE7B",
"L  c #B7C377",
"P  c #B5C17A",
"I  c #B8C47C",
"U  c #B5BF83",
"Y  c #B4BC8A",
"T  c #B6BE92",
"R  c #B6C281",
"E  c #B9C384",
"W  c #B6C18C",
"Q  c #BCC493",
"!  c #BFC994",
"~  c #BCC39A",
"^  c #C0CB87",
"/  c #C1CB8E",
"(  c #C6D18E",
")  c #C1CB94",
"_  c #C3CC99",
"`  c #C6D09B",
"'  c #CFDA9B",
"]  c #D0DA9D",
"[  c #D5E09E",
"{  c #C4CAA4",
"}  c #CCD4A3",
"|  c #D4DEA4",
" . c #D3DAAA",
".. c #D2D8B4",
"X. c #D3D8BA",
"o. c #D8E4A4",
"O. c #DAE5AA",
"+. c #EAF6B6",
"@. c #EBF6BC",
"#. c #E1E7C3",
"$. c #E5ECC0",
"%. c #EDF5C3",
"&. c #EDF8C0",
"*. c #EDF4CD",
"=. c #F2FBC6",
"-. c #F4FDC8",
";. c #F8FFCB",
":. c #F2F7D7",
">. c #F2F8D4",
",. c #FAFFD4",
"<. c #F2F6DB",
"1. c #F4F9D9",
"2. c #FDFFDC",
"3. c #F2F5E1",
"4. c #F6FAE4",
"5. c #FDFFE4",
"6. c #FDFFEC",
"7. c #F6F6F4",
"8. c #FDFEF4",
"9. c #F7F6FC",
"0. c #F9F7FF",
"q. c #FEFEFD",
/* pixels */
"0.q.q.0.q.q.8.q.q.q.q.q.q.q.8.8.8.q.q.q.q.8.9.q.q.q.q.q.q.q.q.q.q.q.q.q.9.q.q.q.",
"q.q.q.q.q.q.6.8.q.q.q.q.q.q.q.q.8.q.0.q.q.8.q.q.q.q.q.q.q.9.q.q.q.q.q.q.q.8.8.7.",
"q.q.q.8.8.8.6.6.8.8.0.q.q.q.9.8.8.8.q.q.8.6.8.7.q.q.q.8.8.q.q.q.q.q.q.q.q.q.q.q.",
"7.7.8.6.5.5.2.5.5.6.8.8.8.8.8.6.2.5.q.8.5.2.5.4.8.9.8.6.8.8.q.q.q.q.q.q.q.7.9.q.",
"q.q.6.1.$.=.-.%.&.&.%.%.%.%.@.@.@.&.*.*.@.+.@.*.4.8.6.8.q.8.9.q.q.q.q.q.q.q.q.q.",
"8.8.4.{ M N F Z Z Z Z Z Z Z C C A N B V v v A V 2.5.5.6.8.8.q.q.8.6.8.8.q.q.q.9.",
"q.8.6...z r l i h u h h u t t t t h m m s p p j ;.,.2.2.6.6.6.6.5.5.5.4.6.8.q.q.",
"q.8.6.} j c / o.[ [ ] [ ] | | | ' o.O.( b 3 3 f J R P R W W Y W R E Y ~ X.4.8.q.",
"q.8.6. .u k =.5.2.2.5.5.6.6.8.8.5.5.5.,.S 3 3 a s t s q f r d s t d u y _ 5.6.8.",
"q.8.6. .d k >.6.6.6.8.8.q.q.q.q.q.8.8.5.D 3 3 g f f g 4 g 4 7 7 x x c u _ 5.6.8.",
"q.q.8. .s k :.q.8.8.q.q.q.q.q.q.q.q.9.5.G 3 < 5 g g g ; 6 1 6 6 8 0 a t / 2.6.8.",
"q.q.6...s k <.q.q.8.q.q.q.q.q.q.q.q.9.4.D , - 2 g g 7 ; 2 * 6 > : > 5 r / 2.6.8.",
"q.q.8. .p d <.q.8.8.8.8.8.8.8.q.q.q.8.5.b & * ; 7 g 0 1 2 < 5 6 : > 5 s ) 5.6.q.",
"q.8.8. .3 f <.q.q.8.8.8.8.8.8.q.q.q.8.5.L & * - g g g 2 4 < 7 7 : > a t ) 5.8.q.",
"8.8.6. .3 f 3.q.q.q.q.q.q.q.q.q.q.q.q.6.S & * ; 7 g 7 2 2 1 6 > : 6 a t ) 6.8.q.",
"8.8.6. .p f <.q.q.q.q.q.q.q.q.q.q.q.9.6.L , = 6 7 6 6 - 2 - 6 6 > 6 a t _ 6.q.q.",
"q.8.5.| s f :.q.q.q.q.q.q.q.q.q.q.q.q.6.D , 1 2 7 6 7 1 2 - 2 6 6 6 5 3 Q 6.q.q.",
"q.8.6. .s f >.q.q.q.8.q.q.q.q.q.q.q.q.5.S , < 2 7 7 7 1 1 * 7 7 ; 6 7 p ! 6.8.q.",
"q.8.6. .s f >.q.q.q.q.8.q.q.q.q.q.q.9.5.S , , 2 7 7 7 1 1 * 6 7 7 6 < $ ! 6.q.q.",
"q.8.6. .s k >.q.q.q.q.q.q.q.q.q.q.q.q.6.S & , < 7 2 7 & 1 & 2 2 7 ; 1 $ ! 6.8.q.",
"q.8.6. .s f >.q.q.q.q.q.q.q.q.q.q.q.q.6.S & & < = & < & - * < & % - 7 f _ 4.8.q.",
"q.8.6. .s k >.q.q.0.8.q.q.q.q.q.q.q.q.5.S & & 1 = = 1 < 6 - 2 & * % & , ` 6.q.q.",
"q.8.6. .s f >.q.q.q.q.8.q.q.q.q.q.q.q.5.S , , 2 7 2 7 1 ; - 2 6 0 *   O ) 6.q.8.",
"q.8.6.| s k >.q.q.q.q.q.q.q.q.q.q.q.9.6.S , , 2 7 7 7 1 1 % 7 7 6 6 > p ! 5.8.q.",
"q.8.4. .s k >.q.q.q.q.8.q.q.q.q.9.q.q.5.D & & 2 7 7 x 1 * % 7 6 7 6 2 , ! 6.8.q.",
"q.8.6.| s k >.q.q.q.q.q.q.q.q.q.q.q.q.6.D & & 4 7 2 7 1 = & 7 7 6 6 2 $ ! 6.8.q.",
"q.q.6. .s k >.q.q.q.8.q.q.q.q.q.q.q.q.5.S o & 1 7 2 7 1 * & 7 6 6 6 ; $ ! 6.q.q.",
"q.8.5. .s k >.8.q.q.q.q.q.q.q.q.q.q.9.4.D & & 4 7 6 g 1 & % 7 6 6 6 1 $ ! 6.q.q.",
"q.8.6.| s k >.q.q.q.q.8.q.q.q.q.q.q.q.6.D o & 4 7 2 g - * % 7 2 6 6 - $ ) 6.q.8.",
"q.8.6. .s f >.q.q.q.q.q.q.q.q.q.9.q.q.5.D & & 1 7 6 7 < & % 7 6 6 6 1 $ ) 6.8.q.",
"q.8.6. .s k >.q.q.q.q.q.q.q.q.q.9.q.q.5.D o & 2 7 7 7 < & % 7 7 6 6 = $ ) 6.q.q.",
"q.8.5. .s k -.8.q.q.q.q.q.q.q.q.q.q.q.5.D , & 5 7 6 7 = % % 6 6 6 6 < $ ) 5.8.8.",
"q.8.2.' h t ,.5.q.q.q.q.q.q.q.q.0.q.7.5.J O @ , 5 5 5 < % * ; 6 8 ; 1 $ ( ,.5.6.",
"q.8.2.' N N ,.5.q.q.q.q.q.q.q.q.0.q.6.2.K q 3 , o o , @ + o X X X o $ # ^ ,.5.8.",
"q.7.5.} n n *.6.q.q.q.q.q.q.q.q.q.q.4.,.F # O O O O $ $ $ $ + o O $ e w Q 5.6.8.",
"q.q.6.#.Q T 4.q.q.q.q.q.q.q.q.q.q.q.6.5.} E P L K K K K I I P L K E E Y ..5.8.7.",
"q.q.8.6.5.4.8.7.q.q.q.q.q.q.q.q.q.q.q.8.5.2.2.2.5.5.5.6.5.6.5.5.2.2.5.4.6.8.q.q.",
"q.9.7.q.8.q.q.7.q.q.q.q.q.q.q.q.q.q.q.q.8.6.6.6.8.q.q.q.q.q.8.7.8.6.8.8.q.7.9.q.",
"q.q.q.q.q.0.q.q.q.q.q.q.q.q.q.q.q.q.q.q.8.8.8.8.8.q.q.q.q.q.q.q.q.q.q.q.q.q.q.q.",
"q.q.q.q.q.q.0.q.q.q.8.q.q.q.q.q.q.q.q.8.8.8.8.q.q.q.q.q.q.q.q.q.q.q.q.0.q.q.q.9."
};
