/* XPM */
static char *door_close1718510564[] = {
/* columns rows colors chars-per-pixel */
"40 40 106 2 ",
"   c #778A16",
".  c #798D1B",
"X  c #7F941F",
"o  c #7F8F2C",
"O  c #7F9223",
"+  c #7A8831",
"@  c #85991E",
"#  c #829425",
"$  c #869926",
"%  c #889C21",
"&  c #84962A",
"*  c #87992A",
"=  c #8A9C2D",
"-  c #859632",
";  c #879832",
":  c #8A9C34",
">  c #8D9E3B",
",  c #8CA225",
"<  c #8EA32B",
"1  c #90A626",
"2  c #91A62B",
"3  c #94AA2C",
"4  c #98AC2F",
"5  c #8FA132",
"6  c #92A632",
"7  c #95A934",
"8  c #99AE34",
"9  c #93A53B",
"0  c #97AB3B",
"q  c #9AAE3B",
"w  c #9CB235",
"e  c #9DB23B",
"r  c #A0B635",
"t  c #A1B63E",
"y  c #A3B83F",
"u  c #8A964C",
"i  c #909F40",
"p  c #8E9A52",
"a  c #94A442",
"s  c #9BAE43",
"d  c #95A44C",
"f  c #99A74F",
"g  c #9AAB4B",
"h  c #9EB242",
"j  c #9EB14A",
"k  c #94A253",
"l  c #99A752",
"z  c #9CAB53",
"x  c #96A45B",
"c  c #98A55D",
"v  c #9FB050",
"b  c #A0B541",
"n  c #A3B841",
"m  c #A1B34F",
"M  c #A1B154",
"N  c #A7B55D",
"B  c #939C63",
"V  c #9EAA62",
"C  c #9FA96A",
"Z  c #ADBB64",
"A  c #A5B16B",
"S  c #ABB76B",
"D  c #AEBC6A",
"F  c #B0BE67",
"G  c #A6B074",
"H  c #ABB675",
"J  c #ACB874",
"K  c #A7B278",
"L  c #ABB57A",
"P  c #ACB87A",
"I  c #B1BC77",
"U  c #B2C06B",
"Y  c #ABB581",
"T  c #ACB38A",
"R  c #B4BF83",
"E  c #D4DEA1",
"W  c #D4DBB1",
"Q  c #DAE4A6",
"!  c #DBE5AA",
"~  c #E1EBAF",
"^  c #E6F1AD",
"/  c #E4ECBE",
"(  c #E6F1B7",
")  c #E9F5B5",
"_  c #EDF8B6",
"`  c #E7F1BE",
"'  c #E9F4BB",
"]  c #DADFC1",
"[  c #E6EFC4",
"{  c #E6EEC9",
"}  c #E7F0C4",
"|  c #E9F2C6",
" . c #EBF4C9",
".. c #F2FACB",
"X. c #F7FDD7",
"o. c #FBFFD6",
"O. c #F1F7DB",
"+. c #FCFFDC",
"@. c #F0F2E4",
"#. c #F7FBE4",
"$. c #FCFFE4",
"%. c #FEFFEC",
"&. c #F6F7F5",
"*. c #F7F8F4",
"=. c #FEFEF4",
"-. c #FFFFFE",
/* pixels */
"-.-.-.=.-.-.-.-.-.&.-.-.-.-.-.-.-.-.=.=.=.=.=.=.*.=.*.*.-.-.-.-.-.-.-.-.-.-.-.-.",
"-.-.-.=.=.-.-.-.-.-.&.-.-.-.-.&.-.-.-.-.=.=.=.=.-.-.-.-.-.*.*.-.-.-.-.-.-.-.-.-.",
"-.-.=.=.-.-.-.-.&.-.=.#.*.=.-.-.-.-.-.-.-.=.-.-.-.-.-.-.-.-.-.-.-.-.-.-.-.-.-.-.",
"-.-.=.=.-.-.-.-.-.-.%.$.$.$.%.=.=.-.-.*.=.%.=.=.=.=.*.*.*.-.*.&.-.-.-.-.-.-.-.-.",
"-.-.=.=.-.-.-.-.-.&.$...+.o.+.+.#.$.$.+.+.+.X.X.X.+.#.#.O.%.$.=.-.-.-.-.-.-.-.-.",
"-.-.-.-.-.-.-.-.-.=./ G L H J A H P H P H H J J H H P R K Y Y { =.-.-.-.-.-.-.-.",
"-.-.=.=.-.-.-.-.-.=.! p k l M z g g g g g g g j j v g v d f k ( =.-.-.-.-.-.-.-.",
"-.-.-.=.-.-.-.-.&.%.~ l p # # # O O O O O O O X . $ . O - g d ) %.-.-.-.-.-.-.-.",
"-.-.-.=.-.-.-.-.-.%.Q f 9 & 7 8 6 6 0 7 6 7 7 6 2 8 5 9 5 v k ) %.-.-.-.-.-.-.-.",
"-.-.=.-.-.-.-.-.=.$.Q g 9 $ w 8 w h h s s h e e e h 7 0 5 v k ' %.-.-.-.-.-.-.-.",
"-.-.-.=.-.-.-.-.-.$.Q s 9 $ e r e b h 0 a h h b e n 7 q 9 z k ' *.-.-.-.-.-.-.-.",
"-.-.-.=.-.-.-.=.=.$.Q f 9 $ e r e e s 7 7 0 h e 8 e 2 7 : v k ( %.-.-.-.-.-.-.-.",
"-.-.=.-.-.-.-.-.-.%.Q g 9 & q r w r w 0 7 0 e w w r 1 7 5 v x } %.-.-.-.-.-.-.-.",
"-.-.-.=.-.-.-.=.-.$.Q l a & q q r w w 0 0 0 e e w w 1 7 5 z k ' %.-.-.-.-.-.-.-.",
"-.-.=.-.-.-.-.-.-.%.Q z i - s q e w w 7 9 0 e e w r 2 6 5 v k ` =.-.-.-.-.-.-.-.",
"-.-.-.=.-.-.-.-.=.%.Q l d & s q e e 0 6 6 0 e e w r 2 0 o v x } =.-.-.-.-.-.-.-.",
"-.-.=.=.-.-.-.=.-.%.~ z i & q q e e e 8 e w e e w e 3 3 o m x | =.-.-.-.-.-.-.-.",
"-.-.-.-.-.-.-.-.-.$.Q z s # q w e e e 7 X w w y e h w X 3 m x [ =.-.-.-.-.-.-.-.",
"-.-.-.=.-.-.-.-.-.%.Q z i # 6 8 e e e 7 X w e n h h 3 3 X j x [ =.-.-.-.-.-.-.-.",
"-.-.=.-.-.-.-.-.-.%.Q f > & w 8 w 0 0 7 3 3 w n s 0 X w 0 j c [ *.-.-.-.-.-.-.-.",
"-.-.-.=.-.-.-.-.&.%.Q p i 5 b 4 X w 7 X w w 3 X 7 6 3 X X j x | =.-.-.-.-.-.-.-.",
"-.-.=.-.-.-.-.-.-.%.~ f a * 7 @ 2 7 w o 3 3 w X X 0 2 1 w m x  .=.-.-.-.-.-.-.-.",
"-.-.-.=.-.-.-.-.-.%.Q f 9 # 2 @ w w e 7 3 w w w b h 2 1 X j c  .=.-.-.-.-.-.-.-.",
"-.-.-.=.-.-.-.-.-.$.E v a # 7 y e y b 7 X w w y e b 3 1 6 g x  .=.-.-.-.-.-.-.-.",
"-.-.=.-.-.-.-.-.-.%.Q l a # 7 8 e e b 8 3 3 w e h e 3 X 1 j c | =.-.-.-.-.-.-.-.",
"-.-.=.-.-.-.-.-.-.%.Q l a # 3 w r e e X 3 1 w w e h 3 1 1 b c | =.-.-.-.-.-.-.-.",
"-.-.-.=.-.-.-.-.-.%.Q f a # 7 8 e w e 6 1 1 w r h q X X X j x | =.-.-.-.-.-.-.-.",
"-.-.=.-.-.-.-.-.*.%.! f a # 7 8 w e e 1 1 1 w w e e 3 1 1 j x ` *.-.-.-.-.-.-.-.",
"-.-.-.=.-.-.-.-.-.#.! f a O 6 w w e e X 1 1 r w e e 1 1 X b c | =.-.-.-.-.-.-.-.",
"-.-.=.-.-.-.-.-.-.%.! f a X 6 3 w w y w 3 1 w r b e 1 1 3 m x | =.-.-.-.-.-.-.-.",
"-.-.=.=.-.-.-.-.-.%.Q k a O 2 w e r e 2 3 X w e e e 3 X X b x } =.-.-.-.-.-.-.-.",
"-.-.-.-.-.-.-.-.-.#.Q g a O 1 w e y n X 1 X w e e h 8 X 7 j k ` =.-.-.-.-.-.-.-.",
"-.-.-.-.-.-.-.=.%.$.E l a   3 3 8 q 7 3 3 6 7 8 q h 5 ; : M p ) %.-.-.-.-.-.-.-.",
"-.-.-.-.-.-.-.-.$.$.! V g o 7 1 6 6 6 = = = 2 = = 5 ; > i M f _ %.-.-.-.-.-.-.-.",
"-.-.-.-.-.-.-.-.=.%.W B u + > & & $ $ $ % $ $ $ * & & ; ; i i ~ %.-.-.-.-.-.-.-.",
"=.-.-.-.-.-.-.-.=.%.] T L C I S D D F F F F F N F D D S A J J [ =.-.-.-.-.-.-.-.",
"-.-.-.-.-.-.-.-.-.=.=.#.$.X.+.+.$.%.%.%.$.$.$.$.$.$.%.%.#.=.@.-.-.-.-.-.-.-.-.-.",
"-.=.=.-.-.-.-.-.-.&.=.=.=.=.%.=.-.-.-.-.-.-.-.-.-.=.-.-.-.-.&.-.-.-.-.-.-.-.-.-.",
"-.-.-.-.-.-.-.-.-.-.-.-.&.&.=.-.-.-.-.-.-.-.-.*.-.&.=.-.-.-.-.-.-.-.-.-.-.-.-.-.",
"-.-.-.-.-.-.-.-.-.-.-.-.-.-.-.-.-.-.-.-.-.-.-.-.-.&.-.-.-.-.-.-.-.-.-.-.-.-.-.-."
};
