/* XPM */
static char *col1718510563[] = {
/* columns rows colors chars-per-pixel */
"40 40 200 2 ",
"   c #000600",
".  c #371705",
"X  c #2F2A0A",
"o  c #37321F",
"O  c #470503",
"+  c #520100",
"@  c #5C0605",
"#  c #511C16",
"$  c #601E12",
"%  c #5B2A23",
"&  c #5E3D34",
"*  c #45392B",
"=  c #6E2B25",
"-  c #79393D",
";  c #6D322A",
":  c #464534",
">  c #6C4131",
",  c #704137",
"<  c #655439",
"1  c #61613F",
"2  c #52524A",
"3  c #7D4B43",
"4  c #725C47",
"5  c #65604D",
"6  c #6C6D5B",
"7  c #7A6051",
"8  c #777356",
"9  c #737464",
"0  c #8D1D29",
"q  c #88272C",
"w  c #932F2A",
"e  c #952D3C",
"r  c #932B38",
"t  c #8D313C",
"y  c #9F363B",
"u  c #913B3E",
"i  c #AA2A2A",
"p  c #A52937",
"a  c #A93639",
"s  c #8F3942",
"d  c #973647",
"f  c #A32D43",
"g  c #A53845",
"h  c #B43344",
"j  c #C63C46",
"k  c #944D4D",
"l  c #9A554C",
"z  c #9D5A4A",
"x  c #935353",
"c  c #A94444",
"v  c #A44A4B",
"b  c #AD4649",
"n  c #B84649",
"m  c #AC4E5C",
"M  c #A94952",
"N  c #B84451",
"B  c #A8575B",
"V  c #A95558",
"C  c #B85757",
"Z  c #906056",
"A  c #AA645E",
"S  c #B6645B",
"D  c #AE5D64",
"F  c #826361",
"G  c #9B7168",
"H  c #A06664",
"J  c #B36C6A",
"K  c #BE7C6E",
"L  c #AF7979",
"P  c #BE7B75",
"I  c #C54145",
"U  c #C04548",
"Y  c #D24449",
"T  c #C24650",
"R  c #DC4C56",
"E  c #C45A58",
"W  c #D55055",
"Q  c #C7615D",
"!  c #CE5962",
"~  c #C65F70",
"^  c #D76368",
"/  c #C16E78",
"(  c #C47B78",
")  c #888776",
"_  c #9F8877",
"`  c #B3927F",
"'  c #B8837B",
"]  c #CB837B",
"[  c #D17780",
"{  c #C27885",
"}  c #9C998C",
"|  c #BF9690",
" . c #BAA48F",
".. c #B8A997",
"X. c #B9B393",
"o. c #ABAA98",
"O. c #B3AAA1",
"+. c #B9BEBA",
"@. c #B8BBA8",
"#. c #C88C86",
"$. c #C3988F",
"%. c #EF949B",
"&. c #CEAF9D",
"*. c #DAA39D",
"=. c #D0A497",
"-. c #E4A39F",
";. c #F8A19A",
":. c #D995A0",
">. c #D3ADA0",
",. c #C9B5A4",
"<. c #D3B1A1",
"1. c #DEB5A1",
"2. c #C7BDB1",
"3. c #E9ABA3",
"4. c #F1A4AC",
"5. c #EFB6AB",
"6. c #F1BCAE",
"7. c #E7B8B6",
"8. c #F7B7BF",
"9. c #B5C2B0",
"0. c #DCCBAF",
"q. c #DAC6AE",
"w. c #CDC7B9",
"e. c #D5C6B9",
"r. c #CDD7BC",
"t. c #D7D0BD",
"y. c #EACFBE",
"u. c #FCCAB9",
"i. c #E4D4BA",
"p. c #FFB8C4",
"a. c #DCDBC6",
"s. c #D9D9C9",
"d. c #DFDDD0",
"f. c #E3CAC3",
"g. c #FEC4C3",
"h. c #FFCFCC",
"j. c #FFCEC3",
"k. c #ECDDCD",
"l. c #E8D8C8",
"z. c #F7DBC6",
"x. c #FCD5CB",
"c. c #F3DCCB",
"v. c #FDDCCB",
"b. c #FAD8C6",
"n. c #FFCFD1",
"m. c #E9DFD3",
"M. c #FFD5D2",
"N. c #F5DDD1",
"B. c #FFDCD2",
"V. c #FDD8D9",
"C. c #DCE6D8",
"Z. c #EEE1CC",
"A. c #E9E2C9",
"S. c #F3E4CB",
"D. c #FDE3CD",
"F. c #FBE9CD",
"G. c #F4E4C9",
"H. c #E6E4D3",
"J. c #ECE4D3",
"K. c #ECE8D6",
"L. c #E7EADB",
"P. c #ECEDDC",
"I. c #F3E5D3",
"U. c #FDE5D4",
"Y. c #F5EAD6",
"T. c #FEEBD5",
"R. c #FDE5D9",
"E. c #F2EBDC",
"W. c #FDECDB",
"Q. c #EDF6DB",
"!. c #F6F1DF",
"~. c #FFF4D9",
"^. c #EEEBE6",
"/. c #F6E7E3",
"(. c #F5EDE2",
"). c #FFEEE4",
"_. c #FFE3EB",
"`. c #FFECED",
"'. c #F2EFEA",
"]. c #EFF8E7",
"[. c #F4F2E5",
"{. c #FDF3E4",
"}. c #F3F9E4",
"|. c #F5F5EC",
" X c #FDF5EB",
".X c #F5FCED",
"XX c #FDFBED",
"oX c #FFF9E4",
"OX c #EDFDF4",
"+X c #EDFFFC",
"@X c #E6FBF8",
"#X c #F5F4F4",
"$X c #FEF4F3",
"%X c #F4FEF4",
"&X c #FEFDF4",
"*X c #FFF5FB",
"=X c #F5FFFE",
"-X c #FEFEFE",
";X c #F5F6F8",
":X c #F6ECF4",
/* pixels */
"@X+X-X*X&X&X&X%X%X-X-X&X&X*X$X*X-X-X-X-X-X-X-X-X-X-X-X-X-X-X-X-X-X-X-X-X-X-X-X-X",
"@X=X*X$X).).&X].%X=X-X-X*X-X&X-X-X-X-X-X-X-X-X-X-X-X-X-X-X-X-X-X-X-X-X-X-X-X-X-X",
"=X.X/.l.N.W.6 9.%XOX#X-X*X-X-X=X-X-X-X-X-X-X-X-X-X-X-X-X-X-X-X-X-X-X-X-X-X-X-X-X",
"XX&Xe.R.N.Y.t.s.%X=X-X-X-X-X=X=X-X-X-X-X-X-X-X-X-X-X-X-X-X-X-X-X-X-X-X-X-X-X-X-X",
"H.o.{.b.U.T.U.E.H.$X-X-X-X-X-X-X-X-X-X-X-X-X-X-X-X-X-X-X-X-X-X-X-X-X-X-X-X-X-X-X",
"r.8 T.T.b.z.c.l.R.`.*X;X=X=X=X-X-X-X-X-X-X-X-X-X-X-X-X-X-X-X-X-X-X-X-X-X-X-X-X-X",
"}.Q.T.D.G.F.G.D.g.8.*X*X=X=X*X-X-X-X-X-X-X-X-X-X-X-X-X-X-X-X-X-X-X-X-X-X-X-X-X-X",
".X}.y.D.0.X.G.b.k s 8.$X&X=X-X&X-X-X-X-X-X-X-X-X-X-X-X-X-X-X-X-X-X-X-X-X-X-X-X-X",
"&XI.x.).0.X 1 F.l q D `. X&X X&X*X-X-X-X-X-X-X-X-X-X-X-X-X-X-X-X-X-X-X-X-X-X-X-X",
"[.&Xp.x =.~.8 0.B.A = #.{.J.XX&X-X-X-X-X-X-X-X-X-X-X-X-X-X-X-X-X-X-X-X-X-X-X-X-X",
"*X*X{ s u ] u.~.U.T.H , x.U.I.!.-X-X-X-X-X-X-X-X-X-X-X-X-X-X-X-X-X-X-X-X-X-X-X-X",
"$X:Xp.r n c ' 1.< i.W.. &.U.Z.E.XX-X-X-X-X-X-X-X-X-X-X-X-X-X-X-X-X-X-X-X-X-X-X-X",
"-X*X_.M h j Q z . < T.4 _ b.I.I.'.=X-X-X-X-X-X=X-X-X-X-X-X-X-X-X-X-X-X-X-X-X-X-X",
"OX|. X%.p j U Q z ; &.S. .R.k.J.^.;X-X-X-X-X-X-X-X-X-X-X-X-X-X-X-X-X-X-X-X-X-X-X",
"%X&X Xg.c p I R ^ C #.v.XX!.{.[.'.*X-X-X=X-X-X-X-X-X-X-X-X-X-X-X-X-X-X-X-X-X-X-X",
"%X%X!.T.3.w I j R ^ V $.).Y. X&X$X-X-X-X-X-X-X-X-X-X-X-X-X-X-X-X-X-X-X-X-X-X-X-X",
"%X-XP.Y.D.S i j Y E A <.oX} 7. X*X-X*X-X-X=X=X=X-X=X-X-X-X-X%X-X-X-X-X-X-X-X-X-X",
"-X&X.Xa.D.u.a i U C 6.oXq.. # L $X$X*X=X=X=X+X-X-X-X*X-X-X*X-X&X&X-X&X-X-X&X&X-X",
"-X&X.XP.y.W.;.w c ] T.R.W.7 O , 7.*X X=X+X=X-X-X*X-X-X-X-X=X%X-X-X-X-X-X-X-X-X-X",
"-X-X.XXXk.v.).( = *.W.W.W.,.3 k M _.&X%X+X+X-X*X-X*X-X=X-X-X&X-X-X-X-X-X=X-X-X-X",
"*X-X&X[.[.R. XU.G N. XK.~.W.x.J e ( $X}.%X%X*X*X*X*X-X-X=X-X-X-X-X-X-X-X-X-X-X-X",
"-X-X-X-X XXX X&XXXt.} XXXXc.B.P g g 3. X&X&X-X*X-X-X=X=X-X-X-X=X-X-X-X-X-X-X-X-X",
"-X*X&X-X%X-X-X;X-XC.  : 2.XX,.#.V b v j.).&X&XXX-X-X=X=X=X=X-X-X-X-X-X-X-X-X-X-X",
"-X-X-X#X-X$XOX-X=X=X9.2 } I.T.> S E y v M.). X&X&X-X-X=X=X-X-X-X-X-X-X-X-X-X-X-X",
"-X=X-X-X-X-X-X-X=X=X-X*Xd.* l.` + ^ N a C h.R. X&X-X;X$X-X-X-X-X-X-X-X-X-X-X-X-X",
"=X-X-X-X-X-X-X-X-X-X:X-X&Xw.:  .$ + ^ ! t ( B.E.P.%X-X-X-X-X-X-X-X-X-X-X-X-X-X-X",
"=X=X-X-X-X-X-X-X-X*X-X*X$X&Xa.,.5.+ @ V B O | XX&X%X.X&X*X-X*X-X-X-X-X-X-X-X-X-X",
"-X-X-X-X-X-X-X=X*X*X-X-X-X&X.XY.N.' x % 3 G & e.&X&X&X&X*X&X$X-X&X-X&X-X-X-X&X-X",
"-X-X-X&X-X-X*X-X*X:X*X-X-X%XXX[.k.l.A.s.o 5 ) o.}..X$X XXX&X&X%X&X&X-X&X&X-X&X&X",
"-X-X-X-X-X&X-X-X-X-X-X:X-X].-X.Xd.L.}..XC.) @.H. XV.V._.$X$X{.&X&X&X&X&X&X&X-X-X",
"-X-X-X&X=X&X-X&X*X-X-X-X-X-X|.&X%X/.(.P.&X9 ) f.h./ d ~ p.`.$X&X XXX.XXXXX&X-X&X",
"-X*X-X&X=X%X-X-X-X-X-X=X=X-X*X&X-X X/.*XXX*XO.F - d f p g M B H N.H.H.K.P. X&X&X",
"-X-X-X-X-X-X-X-X-X-X-X-X-X-X-X-X-X-X-X-X-X-X-X*XV.:.m r p h p q 3.F.Q.G.J.H.E. X",
"-X-X-X-X-X-X-X-X-X-X-X-X-X-X-X-X-X-X-X-X=X-X-X-X$X*X_.4.m 0 p N u.G.G.A.Y.W. X&X",
"-X-X-X-X-X-X-X-X-X-X-X-X-X-X-X-X*X-X-X-X-X-X-X-X-X X*X$XM.*.-.j.F.F.Z.Y.oXXX&X&X",
"-X-X-X-X-X-X-X-X-X-X-X-X-X-X-X-X-X*X-X-X-X-X=X-X-X-X&X&X&XoXR.c.U.S.Y.oX&XXX&X&X",
"-X-X-X-X-X-X-X-X-X-X-X-X-X-X-X-X-X&X-X-X-X-X=X+X@X=X=X.X|.XXoXJ.Z.Z.K.XX&XXX&X&X",
"-X-X-X-X-X-X-X-X-X-X-X-X-X-X-X-X-X=X-X-X=X=X=X=X-X=X%X*X-X&X XXXY.J.k. X&X&X-X&X",
"-X-X-X-X-X-X-X-X-X-X-X-X-X-X-X-X=X=X=X=X=X=X-X-X#X-X-X-X&X*X&X$XoX{.m.(.&X&X-X-X",
"-X-X-X-X-X-X-X-X-X-X-X-X-X-X-X-X=X=X=X=X=X-X-X-X-X-X*X-X-X*X*X&X$XXXE.[.&X-X&X-X"
};
