/* XPM */
static char *brick1718510563[] = {
/* columns rows colors chars-per-pixel */
"40 40 100 2 ",
"   c #9E5C28",
".  c #A05925",
"X  c #A35E2A",
"o  c #9D673B",
"O  c #A5622D",
"+  c #AA632D",
"@  c #AE692E",
"#  c #B2672F",
"$  c #B1692F",
"%  c #A66736",
"&  c #AC6632",
"*  c #A76936",
"=  c #AE6934",
"-  c #A1663B",
";  c #A56A3D",
":  c #AD6C3B",
">  c #B16732",
",  c #B26B35",
"<  c #B96E35",
"1  c #B46E3A",
"2  c #B86F39",
"3  c #AE703F",
"4  c #B97137",
"5  c #B6713C",
"6  c #BA733D",
"7  c #9E6A42",
"8  c #A56D43",
"9  c #AB6E41",
"0  c #A77146",
"q  c #AB7245",
"w  c #AC744B",
"e  c #B37443",
"r  c #BC7541",
"t  c #B77846",
"y  c #BE7944",
"u  c #B2764A",
"i  c #B4794C",
"p  c #BD7B4A",
"a  c #A77550",
"s  c #A67A57",
"d  c #AB7A56",
"f  c #B47D54",
"g  c #B97E50",
"h  c #C17B45",
"j  c #B0825E",
"k  c #AD8260",
"l  c #AF8668",
"z  c #B38564",
"x  c #B98B67",
"c  c #B58C6C",
"v  c #BC9171",
"b  c #D39566",
"n  c #D6976A",
"m  c #D79A6A",
"M  c #DA9C6D",
"N  c #D19D75",
"B  c #DC9F71",
"V  c #DDA16F",
"C  c #D6A177",
"Z  c #DCA273",
"A  c #D6A179",
"S  c #DBA57C",
"D  c #DEA97E",
"F  c #E2A474",
"G  c #E4A77A",
"H  c #E1AA7C",
"J  c #C8A587",
"K  c #CDA98C",
"L  c #DEA781",
"P  c #DEA982",
"I  c #CFAD92",
"U  c #CFAF98",
"Y  c #D0AB91",
"T  c #D4B39A",
"R  c #E2AC82",
"E  c #E2AE89",
"W  c #E6B084",
"Q  c #E3B28B",
"!  c #E3B695",
"~  c #E5B896",
"^  c #EAC19E",
"/  c #EFC4A4",
"(  c #EBC6AB",
")  c #EEC9AE",
"_  c #F0C5A5",
"`  c #F1CEB2",
"'  c #EED5BF",
"]  c #E9D7C9",
"[  c #F2D9C5",
"{  c #FFDFC8",
"}  c #FFE1C7",
"|  c #FFE3CB",
" . c #EEE0D5",
".. c #F1E5D7",
"X. c #FFEAD5",
"o. c #F4E6DB",
"O. c #FFEAD9",
"+. c #EBE6E2",
"@. c #FFF2E3",
"#. c #FFF2E9",
/* pixels */
"+.#.O.) ! P P Q R W W R S D R R R D S D R S C C D S C S S D D C S P E ~ ) | @.o.",
"#.] U l a w w f i g g g u g g g p i u w q q u u q q q q q q w ; 9 w w d v T [ #.",
"X.T k 7 ; 9 : : 6 6 6 e e t r r e e 1 : 4 4 5 5 : : 1 : = ; : * 9 r 9 8 w k Y { ",
"` c 7 ; 5 6 1 5 r r r r r r 6 6 6 r 1 1 4 j y 5 r 6 y 6 4 4 6 4 , r 2 1 u 0 z _ ",
"! d - , < < < 4 2 < < 2 2 2 2 < 4 6 5 4 4 5 4 = 6 6 6 4 , , , , # < < 6 p 9 w Q ",
"E 0 : e > > > 2 2 , 1 < 6 2 h r 6 h r 4 , = = = < 1 6 1 , , 1 > < < # > 6 : q F ",
"P 0 9 , X # + + , < , 2 < 1 1 e 6 5 5 : = O O X O + & & & & , , O O + X , : 9 S ",
"E 0 1 < > h h 6 h r h h e 1 e r r 3 * 5 5 : O     X O % & : 5 = , 6 h 2 r t p S ",
"L 9 r r h r h r h r r 1 6 2 1 1 = = @ @ = * = + O & & + + 1 6 r 6 5 6 h h p t B ",
"J 8 9 > > > & > : , , 1 1 2 2 1 O O O @ O O O O O O O X X + = , : * = , = : : n ",
"R 9 9 2 1 2 e , , , > < 1 2 6 6 5 , < $ = > , : , 5 1 = & , 5 5 4 4 = 4 , : : M ",
"L 9 : 1 1 , r e e 2 2 2 2 2 r y h j h j 6 6 r r 5 5 4 = , , , , , 1 4 4 1 1 9 Z ",
"N o & & > & , , , 2 2 < 1 1 1 6 4 4 6 6 5 e r r , 5 : @ + & = + @ $ 4 4 1 3 : m ",
"L 8 9 e e , 9 , & > < 6 6 1 1 : < 4 6 6 1 5 6 6 6 6 6 5 1 5 e 4 6 4 4 4 1 5 * m ",
"R u p r 2 , 2 1 , < 2 6 r r 5 1 1 4 6 y 5 6 6 6 6 6 6 6 6 h h y 6 6 4 5 , = : m ",
"L u p h r > r 1 h 2 2 r 6 r 5 5 6 6 h 6 5 4 4 5 , 4 6 5 6 h h y 6 , 4 4 6 t t F ",
"L 8 1 & & & > 1 1 1 1 1 > > > # = 1 6 6 r r h 2 1 1 2 > > 1 1 1 , 1 , , 1 5 q m ",
"L 8 1 > & + & & > 1 > > 1 2 2 2 6 6 r 1 r r , r 2 1 e 9 1 1 1 h > < + & = = : b ",
"L w u h 2 2 > 9 r r r 2 r r r r e 2 1 1 , , , e 1 1 > > 1 1 > 1 6 6 < 1 6 t t B ",
"L 8 2 > 2 h h h h h r r 1 r r r 2 1 1 1 1 , , , 1 > > > > 1 1 > 1 r 6 h h r t B ",
"L 8 = & > 2 2 r h h r 2 r r r r h h 2 r r > > 1 1 1 > > 1 1 1 > = 6 1 6 y y t Z ",
"L 8 9 > 2 2 2 r u h h h r p p p h r r 2 1 e 2 1 2 1 9 > 1 1 1 : < 6 , 6 e r t Z ",
"N 8 9 > 1 1 1 1 r r 2 2 2 r r 2 2 2 2 1 1 r r h 2 1 1 1 1 1 > 1 = 1 = < 1 5 e M ",
"R 8 r < 2 2 1 r 1 2 r r r r r r e 2 e 2 r h e , r h h 2 1 1 1 1 < 6 1 5 r r e M ",
"L 8 9 > > 1 1 1 1 1 1 2 r r r 2 r r r 2 > & 1 1 1 > > % & & & & & > > O , 1 : m ",
"R q e & > > & & > > 1 1 1 r 2 r r r r u 1 & & > > > > > > 1 > & , , , O , 1 e M ",
"N 8 = + > & > > r r r r r r r r 2 2 1 1 & & X . % & & > 1 1 5 1 r 6 2 & , : q m ",
"L 0 e 2 2 h r h p r r r r 1 2 2 r 1 1 1 1 > & & X & & & > 1 1 r 2 < , X & & % b ",
"P 8 5 < < 2 1 r 1 1 1 1 1 2 2 2 u 2 > 2 r 1 1 > & & 1 & > 1 2 2 6 4 1 , 5 1 3 V ",
"S 8 : & > & & = > > 1 1 1 > 1 2 2 > 1 2 1 1 r 1 1 1 1 1 > 9 1 2 , = 1 , 4 : ; m ",
"E q e 1 2 2 1 r 1 1 2 2 1 1 2 r r r r r r r r 1 1 2 2 1 1 > 1 1 4 5 6 4 6 3 3 V ",
"S o : > , > > 1 1 1 2 2 2 u r r r r p r r 1 1 1 1 2 e 1 1 1 > 1 1 , < , 6 : 3 Z ",
"L 8 % , $ < > 4 > 5 6 6 6 y 6 4 , 4 5 1 = & & = & = 1 r 6 1 t r r r h r 6 5 q Z ",
"L q , 6 $ $ + O = 4 4 6 6 6 4 < : 1 5 e 5 6 r r 5 5 r 5 6 6 6 r r 6 6 1 6 4 e Z ",
"! f t h 4 4 4 6 4 5 6 6 6 5 > = < 4 r y r r y y r 6 5 6 6 6 h h 6 6 < # < 4 e D ",
"~ f 8 t : @ > 4 6 y 6 6 4 4 , = : 5 5 4 2 1 1 < 4 , , = 1 6 r r < # # < j = j Q ",
"( z 7 9 * O * * = = 1 > = 5 = : e e r 6 t 6 r r , : % & % , = = > 4 1 5 p 0 j ^ ",
"X.U s 8 ; * * : = 3 5 3 e e 6 3 5 1 1 : 3 3 5 5 e 1 1 : 9 1 e 1 = 3 1 q q s J } ",
"@.[ K z f i t t t t t e e t i e e e 3 : : : * 3 : : % % : 1 9 e u u i f x K [ @.",
" .@.} ^ Q H H H G G V V C Z Z Z M M m M M M V m M n b b n m B Z Z D H Q / | @. ."
};
