/* XPM */
static char *D_Attack[] = {
/* columns rows colors chars-per-pixel */
"128 128 14 1 ",
"  c gray8",
". c #10313F",
"X c #323131",
"o c #561C14",
"O c #256E58",
"+ c #7F6843",
"@ c #872E20",
"# c #C93620",
"$ c #806843",
"% c #359E7E",
"& c #D2AA7B",
"* c #48D5AA",
"= c #ECE2E2",
"- c None",
/* pixels */
"--------------------------------------------------------------------------------------------------------------------------------",
"--------------------------------------------------------------------------------------------------------------------------------",
"--------------------------------------------------------------------------------------------------------------------------------",
"--------------------------------------------------------------------------------------------------------------------------------",
"--------------------------------------------------------------------------------------------------------------------------------",
"--------------------------------------------------------------------------------------------------------------------------------",
"--------------------------------------------------------------------------------------------------------------------------------",
"--------------------------------------------------------------------------------------------------------------------------------",
"--------------------------------------------------------------------------------------------------------------------------------",
"--------------------------------------------------------------------------------------------------------------------------------",
"--------------------------------------------------------------------------------------------------------------------------------",
"--------------------------------------------------------------------------------------------------------------------------------",
"--------------------------------------------------------------------------------------------------------------------------------",
"--------------------------------------------------------------------------------------------------------------------------------",
"--------------------------------------------------------------------------------------------------------------------------------",
"--------------------------------------------------------------------------------------------------------------------------------",
"--------------------------------------------------------------------------------------------------------------------------------",
"--------------------------------------------------------------------------------------------------------------------------------",
"--------------------------------------------------------------------------------------------------------------------------------",
"-------------------------------------------------------------------------------------------------=--=---------------------------",
"-------------------------------------------------------------------------------------------------===----------------------------",
"------------------------%----------------------------------------------------------------------= =====--------------------------",
"-----------------------%---------=--=---------------------------------------------------------=== ====--------------------------",
"----------------------*%---------===-------------------------------------------------%------====== ==---------------------------",
"---------------------*%--------=  ====----------------------------------------------%--------====== ----------------------------",
"--------------------**%-------==== =------------------------------------------------%-------==&==== ----------------------------",
"--------------------**%-----======= ==---------------------------------------------%--------==&=====----------------------------",
"--------------------*%-------====== =----------------------------------------------%--------= &$&&==----------------------------",
"-------------------**%-----===&==== ----------------------------------------------%---------  &$&&=XX---------------------------",
"-------------------**%------==&=&===----------------------------------------------%--------@o &&&=+  X--------------------------",
"------------------***%------= &$&&==----------------------------------------------%-------@@oo +++o@  --------------------------",
"------------------***%-----@  &$&&=XX---------%-----------------------------------%-------@@ooooooo@@  -------------------------",
"-----------------***%-----@@o &&&=+  X-------%*----------------------------------%%-------#oooooooo@@  -------------------------",
"-----------------***%-----@ooo +++@o  -------%*----------------------------------%%-------&oooooooo##  -----%-------------------",
"-----------------***%-----#ooooooo@@o  ------%*----------------------------------%%-------&oooooooo&&  -----%-------------------",
"-----------------***%%----&ooooooo@@o  ------%*----------------------------------%%-------&&ooooooo&& ------%-------------------",
"-----------------***%%----&ooooooo##o  ------%*----------------------------------%%-------&&oooooo&&  ------%%------------------",
"-----------------***%%----&ooooooo&&   -----%**----------------------------------%%-------&&oooooo&& -------%%------------------",
"----------------****%%----&&ooooo&&&  ------%***---------------------------------%%--------& oooo&&&--------%%------------------",
"----------------****%%%---&&oo&&&&&.  -----%%***---------------------------------%%%---------    &&.-------%%%------------------",
"----------------****%%%----&oo&&&&o. -----%%****---------------------------------%%%---------.......-------%%%------------------",
"----------------****%%%%---- ooooo .----%%%%****---------------------------------%%%---------...-...-------%%%------------------",
"----------------*****%%%%----     ..---%%%%%****----------------------------------%%%--------...-...-------%%%------------------",
"----------------*****%%%%%---...- . --%%%%%****-----------------------------------%%%--------...- . ------%%%-------------------",
"----------------*****%%%%%%--...-   %%%%%%%****-----------------------------------%%%%-------...-   ------%%%-------------------",
"-----------------*****%%%%%%%%%%%%%%%%%%%%*****-----------------------------------%%%%------- . --  -----%%%%-------------------",
"-----------------*****%%%%%%%%%%%%%%%%%%%******------------------------------------%%%%------   ---------%%%%-------------------",
"-----------------******%%%%%%%%%%%%%%%%%%******------------------------------------%%%%------  ---------%%%%--------------------",
"------------------******%%%%%%%%%%%%%%%%*******-------------------------------------%%%%---------------%%%%%--------------------",
"------------------*******%%%%%%%%%%%%%%*******--------------------------------------%%%%%-------------%%%%%%--------------------",
"------------------*********%%%%%%%%%%*********---------------------------------------%%%%%-----------%%%%%%---------------------",
"-------------------***********%%%%%**********-----------------------------------------%%%%%%-------%%%%%%%----------------------",
"--------------------************************-------------------------------------------%%%%%%%%%%%%%%%%%%%----------------------",
"--------------------************************--------------------------------------------%%%%%%%%%%%%%%%%%-----------------------",
"---------------------**********************----------------------------------------------%%%%%%%%%%%%%%-------------------------",
"----------------------********************------------------------------------------------%%%%%%%%%%%%--------------------------",
"-----------------------******************----------------------------------------------------%%%%%%-----------------------------",
"------------------------****************----------------------------------------------------------------------------------------",
"-------------------------**************-----------------------------------------------------------------------------------------",
"-----------------------------******---------------------------------------------------------------------------------------------",
"--------------------------------------------------------------------------------------------------------------------------------",
"--------------------------------------------------------------------------------------------------------------------------------",
"--------------------------------------------------------------------------------------------------------------------------------",
"--------------------------------------------------------------------------------------------------------------------------------",
"--------------------------------------------------------------------------------------------------------------------------------",
"--------------------------------------------------------------------------------------------------------------------------------",
"--------------------------------------------------------------------------------------------------------------------------------",
"--------------------------------------------------------------------------------------------------------------------------------",
"--------------------------------------------------------------------------------------------------------------------------------",
"--------------------------------------------------------------------------------------------------------------------------------",
"--------------------------------------------------------------------------------------------------------------------------------",
"--------------------------------------------------------------------------------------------------------------------------------",
"--------------------------------------------------------------------------------------------------------------------------------",
"--------------------------------------------------------------------------------------------------------------------------------",
"--------------------------------------------------------------------------------------------------------------------------------",
"--------------------------------------------------------------------------------------------------------------------------------",
"--------------------------------------------------------------------------------------------------------------------------------",
"--------------------------------------------------------------------------------------------------------------------------------",
"--------------------------------------------------------------------------------------------------------------------------------",
"--------------------------------------------------------------------------------------------------------------------------------",
"--------------------------------------------------------------------------------------------------------------------------------",
"--------------------------------------------------------------------------------------------------------------------------------",
"--------------------------------=--=--------------------------------------------------------------------------------------------",
"-------------------------------=====--------------------------------------------------------------------------------------------",
"------------------------------=======-------------------------------------------------------------------------------------------",
"------------------------------==  ==--------------------------------------------------------------------------------------------",
"-----------------------------   == =--------------------------------------------------------------------------------------------",
"-----------------------------====== --------------------------------------------------------------------------------------------",
"----------------------------======&==-------------------------------------------------------------------------------------------",
"-----------------------------===&=&==-------------------------------------------------------------------------------------------",
"-----------------------------=&=$&&=--------------------------------------------------------------------------------------------",
"-------------------O--------- &&$&&XX-------------------------------------------------------------------------------------------",
"------------------O---------  &&&&+  -------------------------------------------------------------------------------------------",
"------------------O---------@o +++ o  ------------------------------------------------------------------------------------------",
"---------------------------@@oo   oo@ ------------------------------------------------------------------------------------------",
"---------------------------@@ooooooo@@------------------------------------------------------------------------------------------",
"---------------------------##ooooooo@@------------------------------------------------------------------------------------------",
"---------------------------&&ooooooo##------------------------------------------------------------------------------------------",
"---------------------------&&ooooooo&&------------------------------------------------------------------------------------------",
"---------------------------&&ooooooo&&------------------------------------------------------------------------------------------",
"---------------------------&&ooooooo&&------------------------------------------------------------------------------------------",
"---------------------------&&&oooooo&&------------------------------------------------------------------------------------------",
"----------------------------&&ooooo &&------------------------------------------------------------------------------------------",
"------------------O----------.     .&-------------------------------------------------------------------------------------------",
"------------------O----------.......--------------------------------------------------------------------------------------------",
"-----------------------------.......--------------------------------------------------------------------------------------------",
"-------------------O---------.......--------------------------------------------------------------------------------------------",
"-------------------O---------...-...-------O------------------------------------------------------------------------------------",
"-----------------------------...-...-------O------------------------------------------------------------------------------------",
"----------------------------- . - . ------O-------------------------------------------------------------------------------------",
"-----------------------------   -   ------O-------------------------------------------------------------------------------------",
"-----------------------------   -   -----O--------------------------------------------------------------------------------------",
"-----------------------------------------O--------------------------------------------------------------------------------------",
"----------------------------------------O---------------------------------------------------------------------------------------",
"-----------------------O---------------O----------------------------------------------------------------------------------------",
"------------------------O-------------O-----------------------------------------------------------------------------------------",
"-------------------------OO----------O------------------------------------------------------------------------------------------",
"--------------------------------------------------------------------------------------------------------------------------------",
"--------------------------------------------------------------------------------------------------------------------------------",
"--------------------------------------------------------------------------------------------------------------------------------",
"--------------------------------------------------------------------------------------------------------------------------------",
"--------------------------------------------------------------------------------------------------------------------------------",
"--------------------------------------------------------------------------------------------------------------------------------",
"--------------------------------------------------------------------------------------------------------------------------------",
"--------------------------------------------------------------------------------------------------------------------------------",
"--------------------------------------------------------------------------------------------------------------------------------",
"--------------------------------------------------------------------------------------------------------------------------------",
"--------------------------------------------------------------------------------------------------------------------------------"
};
