/* XPM */
static char *S_Attack[] = {
/* columns rows colors chars-per-pixel */
"128 128 12 1 ",
"  c gray8",
". c #10313F",
"X c #561C14",
"o c #7C281B",
"O c #7F6843",
"+ c #C93620",
"@ c #806843",
"# c #359E7E",
"$ c #D2AA7B",
"% c #48D5AA",
"& c #ECE2E2",
"* c None",
/* pixels */
"********************************************************************************************************************************",
"********************************************************************************************************************************",
"********************************************************************************************************************************",
"********************************************************************************************************************************",
"********************************************************************************************************************************",
"********************************************************************************************************************************",
"********************************************************************************************************************************",
"********************************************************************************************************************************",
"********************************************************************************************************************************",
"********************************************************************************************************************************",
"********************************************************************************************************************************",
"********************************************************************************************************************************",
"********************************************************************************************************************************",
"********************************************************************************************************************************",
"********************************************************************************************************************************",
"********************************************************************************************************************************",
"*************************%%%%%%%************************************************************#######*****************************",
"******************%%%%%%%%%%%%%%%%%%%%##*********************************************####################***********************",
"****************%%%%%%%%%%%%%%%%%#####*******************************************################*******************************",
"**************%%%%%%%%%%%%%%#&&#####*******************************************############**&&*********************************",
"***********%%%%%%%%%%%%%%#&#&&&&&#*******************************************###########***&&&&&&*******************************",
"**********%%%%%%%%%%%%%##&&&&&&&&& &****************************************#########*****&&&&&&&&& ****************************",
"*********%%%%%%%%%%%######&&&&&&& &&&**************************************########*******&&&&&&&& &****************************",
"********%%%%%%%%%%#######&&&&&&&& &&&&************************************######*********&&&&&&&& &&&***************************",
"*******%%%%%%%%%###########&$&&&& &&&&***********************************######************&$&&&& &&&&**************************",
"******%%%%%%%%%###########*&$$$&& &&&***********************************######*************&$$$&& &&&***************************",
"******%%%%%%%%##########***$$$&& &&*&&*********************************######**************$$$&& &&&&&**************************",
"*****%%%%%%%%##########*****$&&$ &************************************######****************$&&$ &&&****************************",
"*****%%%%%%%###########*****OOO XXX **********************************######****************OOO  X&X ***************************",
"*****%%%%%%%##########******   XXXXX  ********************************######*****************   XXXXX  *************************",
"****%%%%%%%%##########******XXXXXXXX   ******************************######******************XXXXXXXX   ************************",
"****%%%%%%%##########$$****XXXXXXXX    ******************************######*****************XXXXXXXXX   ************************",
"****%%%%%%%##########$$$$$*XXooXXXX     *****************************######**********$$$****XXooXXXXX    ***********************",
"****%%%%%%%%#########$$$$$$$+oooXXX     *****************************######**********$$$$$$$$+oooXXXX    ***********************",
"*****%%%%%%%#########****$$$+ooXXXX     *****************************######***********$$$$$$$+ooXXXX     ***********************",
"*****%%%%%%%##########*****XXXXXXX      ******************************######****************XXXXXXXX     ***********************",
"*****%%%%%%%%#########*****XXXXXXX      ******************************######****************XXXXXXXX     ***********************",
"******%%%%%%%%#########***** XXXX       *******************************######**************** XXXXX      ***********************",
"******%%%%%%%%%#########*****          *********************************######***************.          ************************",
"*******%%%%%%%%%##########***......  ***********************************#######**************......   **************************",
"********%%%%%%%%%###########*......***********##*************************#######*************......*****************************",
"*********%%%%%%%%%%%##########......*******###%***************************########***********.......****************************",
"**********%%%%%%%%%%%%%#########....**#####%%%******************************########*********.......****************************",
"***********%%%%%%%%%%%%%%%%%##########%%%%%%%********************************###########*****  .*...****************************",
"**************%%%%%%%%%%%%%%%%%%%%%%%%%%%%**************************************##############  *...****************************",
"****************%%%%%%%%%%%%%%%%%%%%%%%%********************************************#######    **   ****************************",
"******************%%%%%%%%%%%%%%%%%%%%***********************************************************   ****************************",
"************************%%%%%%%%**  **************************************************************  ****************************",
"********************************************************************************************************************************",
"********************************************************************************************************************************",
"********************************************************************************************************************************",
"********************************************************************************************************************************",
"********************************************************************************************************************************",
"********************************************************************************************************************************",
"********************************************************************************************************************************",
"********************************************************************************************************************************",
"********************************************************************************************************************************",
"********************************************************************************************************************************",
"********************************************************************************************************************************",
"********************************************************************************************************************************",
"********************************************************************************************************************************",
"********************************************************************************************************************************",
"********************************************************************************************************************************",
"********************************************************************************************************************************",
"********************************************************************************************************************************",
"********************************************************************************************************************************",
"********************************************************************************************************************************",
"********************************************************************************************************************************",
"********************************************************************************************************************************",
"********************************************************************************************************************************",
"********************************************************************************************************************************",
"********************************************************************************************************************************",
"********************************************************************************************************************************",
"********************************************************************************************************************************",
"********************************************************************************************************************************",
"********************************************************************************************************************************",
"********************************************************************************************************************************",
"********************************************************************************************************************************",
"********************************************************************************************************************************",
"********************************************************************************************************************************",
"********************************************************************************************************************************",
"************************###**###************************************************************************************************",
"*********************##*********************************************************************************************************",
"*****************###*********&*&& &*&&******************************************************************************************",
"****************************&&&&&& &&&******************************************************************************************",
"***************************&&&&&&& &&&&*****************************************************************************************",
"***************************&&&&&&&& &&&*****************************************************************************************",
"*********#*****************&&$&&&&& &&******************************************************************************************",
"********#*******************&@$&$&& *&******************************************************************************************",
"*****************************@$$&&&*********************************************************************************************",
"*****************************$$&$  *********************************************************************************************",
"*****************************OOO XXX********************************************************************************************",
"****************************o   XXXXX ******************************************************************************************",
"***************************ooXXXXXoXX  *****************************************************************************************",
"***************************+XXXXXoooX   ****************************************************************************************",
"***************************$XXXXXoooX   ****************************************************************************************",
"**************************$$XXXXXX++X    ***************************************************************************************",
"**************************$$XXXXXX$$X    ***************************************************************************************",
"***************************$XXXXX$$$X    ***************************************************************************************",
"***************************$XXXX$$$X     ***************************************************************************************",
"********#*******************$ $$$$XX     ***************************************************************************************",
"*********#*******************$$$$  .    ****************************************************************************************",
"*********##******************.$$....   *****************************************************************************************",
"**********##*****************....... *******************************************************************************************",
"***********##****************.......********************************************************************************************",
"************###**************.......********************************************************************************************",
"**************##*************.......********************************************************************************************",
"****************##***********...*...********************************************************************************************",
"******************##*********  .*...********************************************************************************************",
"****************************    **  ********************************************************************************************",
"***************************    **   ********************************************************************************************",
"********************************    ********************************************************************************************",
"********************************************************************************************************************************",
"********************************************************************************************************************************",
"********************************************************************************************************************************",
"********************************************************************************************************************************",
"********************************************************************************************************************************",
"********************************************************************************************************************************",
"********************************************************************************************************************************",
"********************************************************************************************************************************",
"********************************************************************************************************************************",
"********************************************************************************************************************************",
"********************************************************************************************************************************",
"********************************************************************************************************************************",
"********************************************************************************************************************************",
"********************************************************************************************************************************",
"********************************************************************************************************************************",
"********************************************************************************************************************************"
};
