/* XPM */
static char *U_Attack[] = {
/* columns rows colors chars-per-pixel */
"128 128 12 1 ",
"  c gray8",
". c #10313F",
"X c #323131",
"o c #561C14",
"O c #256E58",
"+ c #872E20",
"@ c #C93620",
"# c #359E7E",
"$ c #D2AA7B",
"% c #48D5AA",
"& c #ECE2E2",
"* c None",
/* pixels */
"********************************************************************************************************************************",
"********************************************************************************************************************************",
"********************************************************************************************************************************",
"********************************************************************************************************************************",
"********************************************************************************************************************************",
"******************************%%%%**********************************************************************************************",
"***************************%%%%%%%%%%********************************************************#####******************************",
"*************************%%%%%%%%%%%%%%****************************************************##########***************************",
"************************%%%%%%%%%%%%%%%%**************************************************############**************************",
"***********************%%%%%%%%%%%%%%%%%%***********************************************###############*************************",
"**********************%%%%%%%%%%%%%%%%%%%%*********************************************#################************************",
"*********************%%%%%%%%%%%%%%%%%%%%%%*******************************************###################***********************",
"********************%%%%%%%%%%%%%%%%%%%%%%%%******************************************#######*****########**********************",
"********************%%%%%%%%%%%%%%%%%%%%%%%%*****************************************######**********######*********************",
"*******************%%%%%%%%%%%#####%%%%%%%%%%***************************************######************######********************",
"******************%%%%%%%%%##########%%%%%%%%%**************************************#####**************#####********************",
"******************%%%%%%%##############%%%%%%%**************************************####****************#####*******************",
"******************%%%%%%################%%%%%%%************************************####******************####*******************",
"*****************%%%%%%#########&&&&&####%%%%%%************************************####*********&&&******#####******************",
"*****************%%%%%##########&&&&&&###%%%%%%************************************###********&&&&&&&****#####******************",
"*****************%%%%%#########&&&&&&&####%%%%%************************************###*********&&&&&&*****####******************",
"****************%%%%%##########&&&&&&&#####%%%%***********************************###*********&&&&&&&&****####******************",
"****************%%%%%#########& &&&&&&&####%%%%***********************************###*********&&&&&&&******####*****************",
"****************%%%%%######**$&&  &&&&######%%%%**********************************###********&   &&&&&*****####*****************",
"****************%%%%#####***&&&&&&  &&######%%%%**********************************###*******$$&&&   &******####*****************",
"****************%%%%####****$&&&&&&& **#####%%%%**********************************##*******$&&&&&&&& *******###*****************",
"****************%%%%###*****$$&&&&&&*****####%%%**********************************##*******$$&&&&&&&********###*****************",
"****************%%%%###*****$$ && & ******###%%%**********************************##*******$$ &&& & ++******###*****************",
"*****************%%%##******@@ &    ++*****##%%************************************#*******$$  &&   +++******##*****************",
"*****************%%%##******++     o+++****###%************************************#*******@o  X&X  +++******###****************",
"*****************%%%##*****o  XXX  o+++*****##%************************************#*******o  XXXXX o@@******###****************",
"*****************%%%#******  XXXXX oo@@*****##%********************************************o XXX   X $$******###****************",
"*****************%%%#****** XX      o$$******#%********************************************  XX    X $$******###****************",
"*****************%%%#*****  X       o$$******#%********************************************  X     X $$******###****************",
"******************%%%#****  X       *$$*******#********************************************  X       $$*******##****************",
"******************%%%#****  X       *$$*******#*********************************************         *$*******##****************",
"*******************%%#*****         $$$*****************************************************        **********#*****************",
"*******************%%#*****         $$*******************************************************       **********#*****************",
"********************%#*******      .*********************************************************.     .**********#*****************",
"********************%%#******.......*********************************************************.......**********#*****************",
"********************%%#*****........********************************************************........**********#*****************",
"*********************%#*****........********************************************************........**********#*****************",
"**********************%#****...**...********************************************************...**...****************************",
"***********************#**** . **...******************************************************** . **...****************************",
"************************#***   ** . ********************************************************   ** . ****************************",
"****************************  ***   ********************************************************  ***   ****************************",
"**********************************  **************************************************************  ****************************",
"********************************************************************************************************************************",
"********************************************************************************************************************************",
"********************************************************************************************************************************",
"********************************************************************************************************************************",
"********************************************************************************************************************************",
"********************************************************************************************************************************",
"********************************************************************************************************************************",
"********************************************************************************************************************************",
"********************************************************************************************************************************",
"********************************************************************************************************************************",
"********************************************************************************************************************************",
"********************************************************************************************************************************",
"********************************************************************************************************************************",
"********************************************************************************************************************************",
"********************************************************************************************************************************",
"********************************************************************************************************************************",
"********************************************************************************************************************************",
"********************************************************************************************************************************",
"********************************************************************************************************************************",
"********************************************************************************************************************************",
"********************************************************************************************************************************",
"********************************************************************************************************************************",
"********************************************************************************************************************************",
"********************************************************************************************************************************",
"********************************************************************************************************************************",
"********************************************************************************************************************************",
"********************************************************************************************************************************",
"********************************************************************************************************************************",
"***************************O***********O****************************************************************************************",
"*************************OO*************O***************************************************************************************",
"************************OO******************************************************************************************************",
"***********************OO*******************************************************************************************************",
"**********************OO********************************************************************************************************",
"**********************O*********************************************************************************************************",
"*********************OO*******&&&&&*********************************************************************************************",
"*********************O********&&&&&&********************************************************************************************",
"********************O********&&&&&&&********************************************************************************************",
"********************O********&&&&&&&********O***********************************************************************************",
"*******************O********&&&&&&&&&*******O***********************************************************************************",
"*******************O*********&     &********O***********************************************************************************",
"***************************** &&&&& ********************************************************************************************",
"*****************************&&&&&&**********O**********************************************************************************",
"*****************************&&&&&&**********O**********************************************************************************",
"***************************** && && ********************************************************************************************",
"***************************** &  &  +*********O*********************************************************************************",
"***************************+oo     oo+********O*********************************************************************************",
"**************************+oo  XXX  oo********O*********************************************************************************",
"**************************+o  XXXXX oo******************************************************************************************",
"**************************@o XXX   X o******************************************************************************************",
"**************************$$ X       $********O*********************************************************************************",
"**************************$$ X       $********O*********************************************************************************",
"**************************$$         $********O*********************************************************************************",
"**************************$$         $******************************************************************************************",
"**************************$$        $*******************************************************************************************",
"***************************$*       ********************************************************************************************",
"*****************************..    .********************************************************************************************",
"*****************************.......********************************************************************************************",
"*****************************.......********************************************************************************************",
"*****************************.......********************************************************************************************",
"*****************************...*...********************************************************************************************",
"*****************************...*...********************************************************************************************",
"***************************** . * . ********************************************************************************************",
"*****************************   *   ********************************************************************************************",
"*****************************   *   ********************************************************************************************",
"********************************************************************************************************************************",
"********************************************************************************************************************************",
"********************************************************************************************************************************",
"********************************************************************************************************************************",
"********************************************************************************************************************************",
"********************************************************************************************************************************",
"********************************************************************************************************************************",
"********************************************************************************************************************************",
"********************************************************************************************************************************",
"********************************************************************************************************************************",
"********************************************************************************************************************************",
"********************************************************************************************************************************",
"********************************************************************************************************************************",
"********************************************************************************************************************************",
"********************************************************************************************************************************",
"********************************************************************************************************************************",
"********************************************************************************************************************************"
};
