/* XPM */
static char *background[] = {
/* columns rows colors chars-per-pixel */
"256 64 36 1 ",
"  c #24161A",
". c #231F1B",
"X c #381C24",
"o c #1A2731",
"O c #393229",
"+ c #243D34",
"@ c #452A2F",
"# c #473E33",
"$ c #663F39",
"% c #2F5538",
"& c #584D3F",
"* c #40713C",
"= c #273644",
"- c #2A4E4F",
"; c #366365",
": c #675A4A",
"> c #786956",
", c #53786F",
"< c #D96B0B",
"1 c #952257",
"2 c #8B7F5C",
"3 c #55864A",
"4 c #669344",
"5 c #5E8F79",
"6 c #A5AB37",
"7 c #FF8D04",
"8 c #FFBC04",
"9 c #C6D638",
"0 c #809D49",
"q c #90A440",
"w c #ABB846",
"e c #C9955A",
"r c #EABE6E",
"t c #B6CC45",
"y c #E5B181",
"u c #FFBD87",
/* pixels */
"404400004444400440440000444440044044000044444000444000440444440440033*.OOO&ee4044044**OOOOOee44440033*.OOO&ee40444433*..OOOee004404y22>O&&444004404y22>O&&444004004yy&&OO&440044404ee>OO&&4440044044000444444444404400004444400440440000444440044044000044444004",
"4040040040444004404004004044400440400000404440004000000000440004400333OOOO&eyy044003**..OOOee404400333OOOO&eyy0444433*..O.Oyy00440yyy>>O&&44400440yyy>>O&&444004404yy>&O&&444004404yy&&O>>4440044444444444444444404004004044400440400400404440044040040040444004",
"0000040440440000000004044044000000000004004400000000040000000000000333OOO&&yyee00003**.OOOOyy000000333OOO&&yyee000433*.OO.2yy000yeeyy>>&>&440000yeeyy>>&>&440000000yy&&OO&440000000yy2&O>>4400004eyyyy44eyyyyyy4yyyy444000044404000440000444yyyy0000040440440000",
"0000004440000000000000000000000000000000000000000000000000000000000333OO&&&eeyyy0003**..OOOyy000000333OO&&&eeyyy00433*.OOOyyy000yyyee2>&>&000000yyyee2>&>&000000000yy>&OO&000000000yyy&O&&400000eeyyyyyeeyyyeyyeyyyyeeyy0000440000040000yyeeyyyy0000004440000000",
"0000044400004000000000000000000000000000000000000000000444400000000333O&&&&>2ee20003**..OOOyy000000333O&&&&>2ee204433*.OOOyy20002ee2222>>&0040002ee2222>>&004000000yy>OOOO0040000002yy&&O&&04000&&>22>2&&&:>22>>22222eyyy00004400000000yyye222220000044400004000",
"4004040000040000000000000000000000000000000000000440004444400004044333&&&>&22eee0003**.OOOOey004044333&&&>&22eee40043*OOO2ee2000>>2eee2>>&444440>>2eee2>>&444440400ye>OOO&0400004002ee2>&O&40000>>ee2:::::&:>22>&22&22yyye000440400000eyyy22yy2&4004040000040000",
"0040000000440004000000000000000000000000000000004400000440000444444333&&&>>22eee4003**.O.OOey400444333&&&>>22eee44443*O..eee0004>>eee222&>444444>>eee222&>444444004ye2OOO&4400040040eee>>O&344042>e::::2>>>::>2222>>:22eeee0044000400eeee22yyy220040000000440004",
"0000000000000044000000040000000000000000000000004000444400000044444433&6&>2>2e2>4003**.O.OO2y000444433&&&>2>2e2>0003**OOOyy2004422e22ee22>44444422e22e222>444444000ye2OO&&00004400002yyO>>&&3443::>>2ee222>>>>>2222>::2eeyy4404000044yyee2::>2220000000000000044",
"000000000000000000000444444340000000400000040000444444444000040004443336&>>e>2>>0003**...OO220000444333&&&>e>2>>0033**OO2yy200002222eee2644444402222eee2>4434440000ee>OO&&00000000002yy2O>>&3333::::>:&&&&&:>:&:>>>22&&22yy4404400044yy22&&22>>>0000000000000000",
"0000000400000000004004444434444444344444004400044444444444444440044444366>>e6e>>0003**...OOey0004434443&&>>e2e>>3333*OOOyyy00000>>2e6ee264444440>>2e2ee>>4344444000ye>OO&&00000000000yyyOOO&&333:::&:>:2ee2>222>>2ee22&&2ee4400400044ee2&&22ee2>0000000400000000",
"0040000400004400000044444433333333444444440000443333333333444433044444336>>e6e>>0003**...OOyy40033444433&>>2ee>>333*OO22yye04400>2226e2264444440>2222e2>>4333333004yy>OO&O00440000400eyy22OO&&33::::&::>>>>>>::>>>>:&O2&O22>44400044>22O&2O&:>>>0040000400004400",
"0400000000404000040444433333333333333344440000003333333333333333004444000&>662>>0003**O..OOyy040333334444&>>22>>OOOOeyyy224040002222662000444400222222>>33333333040yy&OOOO40400004000422yyyeOOOO>&#&:>:>>>>26::>::::&&O&&&2e40400404e2&&&O&&::::0400000000404000",
"400000000040004444444333*%+OOOOOOO&&&33334400000OOOOOOOOOOOOOOOO4400040000066>>>4403**O.OOOyy004OO&&&33334>>2>>>ee22eyyy004000442>>26600004000442>>2>>>3*%+OOOOO400yy&&OOO40004440000400yyye22ee>&##6::>q>>662>>OOOOO&&O&&224040400422&&O&&&::::4000000000400044",
"0000000440040044044443*%+OOOeeyyyyy&&&&O33404400eeeeeyyyyyeeeeyy4400400440066>>>4403**O.OOOyy000yyy&&&&O334>>>>>eee2ey0440040044>>>>600440040044>>>>>3*%+OOOeeyy000yy>&OO&0400440000000440ye2eee>&4466&>q66666403**OOOOO&&22>040000>22&&O&&&O3440000000440040044",
"4400404400444400444433+OOOOeeyyyyyyy&&&&O3404000yyyyyyyyyyyyyyyy004444004404004400433*.OOOO2e044yyyy&&&&O344004444444044004444004400404400444400444433+OOOOeeyyy440ee>&OO&444400440040440044440000000664qq64440043***OOO&Oee>000440>eeO&&&O344444400404400444400",
"404400440444440040443*OOOOOeyy4444yyy&&OO&4000444444444444444444004444404404440400433*..O.O2y40444yyy&&OO&4444044044004404444400404400440444440040443*OOOOOeyy44404ye2&O&&444400404400440444440000040044044444004433**OOOOO>>404404>>OOO&O4444444044004404444400",
",,,,,,,,,,,,,,,,,,,,,,,,,,,,,,,,,,,,,,,,,,,,,,,,,,,,,,,,,,,,,,,,,,,,,,,;--;-OOO0,,,,,,,;--;-&>>4,,,,,,,;--;-OOO0,,,,,,,;;;;-&&&44&&&;;;;,,,,,,,,4&&&;;;;,,,,,,,,422>;,;;,,,,,,,,402>,;;;,,,,,,,,4qqqq044444qq004222400044422400440440002444440044044000044444004",
",,,,,,,,,,,,,,,,,,,,,,,,,,,,,,,,,,,,,,,,,,,,,,,,,,,,,,,,,,,,,,,,,,,,,,;;--;&O&&&,,,,,,,;;--&&&00,,,,,,;;--;&O&&&,,,,,,,,;-,&&&O42>&&;;,;,,,,,,,,2>&&;;,;,,,,,,,,422>&,,;,,,,,,,,4022>;;;,,,,,,,,22qq&&&&q4>qq22222222222>44420444qq222022qqOO00&4040040040444004",
",,,,,,,,,,,,,,,,,,,,,,,,,,,,,,,,,,,,,,,,,,,,,,,,,,,,,,,,,,,,,,,,,,,,,,;;--,&&&>>,,,,,,;;;-&&&>00,,,,,,;;--,&&&>>,,,,,,,,;-,&&&&0222>&;;;,,,,,,,,222>&;;;,,,,,,,,0>>>&&;;,,,,,,,,00222;-;,,,,,,,,22>>>&&&>>q>>&&>22222222>>222024022qq>>>>q&OO&&>0000040440440000",
",,,,,,,,,,,,,,,,,,,,,,,,,,,,,,,,,,,,,,,,,,,,,,,,,,,,,,,,,,,,,,,,,,,,,,;;;--,&>>2,,,,,,;;;-;&&>00,,,,,,;;;--,&>>2,,,,,,,,;-;;&&&0>222>;,;;,,,,,,,>222>;,;;,,,,,,,04>&&&-;,,,,,,,,22422,-;,,,,,,,,22>>>>&O>>>>>&&>>222>>>>>>&&O22202&qq>2>>>&&O&&>0000004440000000",
",,,,,,,,,,,,,,,,,,,,,,,,,,,,,,,,,,,,,,,,,,,,,,,,,,,,,,,,,,,,,,,,,,,,,,,;;---,>22,,,,,,;;;--;O>>4,,,,,,,;;---,>22,,,,,,,,;-;;=&O0>222>;,;;,,,,,,,>222>;,;;,,,,,,,4>>O;--;,,,,,,,,220>,,-;,,,,,,,,222>>>&O>>>>&&&>>>>>>>&&&&&&OO220&&&>>22>>>&O&&>0000044400004000",
",,,,,,,,,,,,,,,,,,,,,,,,,,,,,,,,,,,,,,,,,,,,,,,,,,,,,,,,,,,,,,,,,,,,,,,,;;--5>22,,,,,,;;;--,OO&4,,,,,,,,;;--5>22,,,,,,,;;--;--00>2>&;,;;,,,,,,,,>2>&;,;;,,,,,,,,4&&&,--,,,,,,,,,220&&5;;,,,,,,,,222>>>&->>>&&&&>>>>>>&&>>&&OO&>240&&&&22>>,=-&&>4004040000040000",
",,,,,,,,,,,,,,,,,,,,,,,,,,,,,,,,,,,,,,,,,,,,,,,,,,,,,,,,,,,,,,,,,,,,,,,,,;---,>2,,,,,,,;--;,;&>4,,,,,,,,,;---,>2,,,,,,,;--==-&04>>&;,;;;,,,,,,,,>>&;,;;;,,,,,,,,4>&;,;;,,,,,,,,,244&&5;;;,,,,,,,222>,,,,55,,;;&>>>&&&&&>>&OO&&&400>>4&>2>5-==-&>0040000000440004",
",,,,,,,,,,,,,,,,,,,,,,,,,,,,,,,,,,,,,,,,,,,,,,,,,,,,,,,,,,,,,,,,,,,,,,,,,,;---,,,,,,,,,;--,,&&44,,,,,,,,,,;---,,,,,,,,;;-===&&44;,,,;;;,,,,,,,,,;,,,;;;,,,,,,,,,44>&,,;,,,,,,,,,442&>2,,;,,,,,,,,,55,;==----===;>555,=>>&OO&&&&400>44&&,5---==-;0000000000000044",
",,,,,,,,,,,,,,,,,,,,,,,,,,,,,,,,,,,,,,,,,,,,,,,,,,,,,,,,,,,,,,,,,,,,,,,,,;,;--;;,,,,,,,;--,&&&40,,,,,,,,,;,;--;;,,,,,;;;-==-&>40---;;;;,,,,,,,,,---;;;;,,,,,,,,,042>&,;,,,,,,,,,2220>2,,;,,,,,,,-------------=--5,;===;;;;O&&&&&000>>&=-----;===0000000000000000",
",,,,,,,,,,,,,,,,,,,,,,,,,,,,,,,,,,,,,,,,,,,,,,,,,,,,,,,,,,,,,,,,,,,,,,,,,,;;;---,,,,,,,;-;5&&>>4,,,,,,,,,,;;;---,,,,;;;-==-&>440---;;;;,,,,,,,,,---;;;;,,,,,,,,,4>22>5;,,,,,,,,,020q>>5,,;,,,,,,-----;--;;;---------======;&&&>&00&>2==--;;;;-==0000000400000000",
",,,,,,,,,,,,,,,,,,,,,,,,,,,,,;;;;;;,,,,,,,,,,,,,;;;;;;;;;;;;;;;;,,,,,,,,,,,,;;;-,,,,,,;;-;,&&>00;;;,,,,,,,,,;;;-;;;;;--==&&&2240--;;;;,,,,,,,,,,--;;;;,,,,,,,;;;4>22>,;,,,,,,,,,002qOOO-,;;;;;;;;;;;,,,,,,;;;;-----;;---===,&>>>0>>>2-=-;;;;;;-=0040000400004400",
",,,,,,,,,,,,,,,,,,,,,,,,,;,;;;----;;,,,,,,,,,,,,----------------,,,,,,,,,,,,,;;;,,,,,,;;--,&&O00--;;,,,,,,,,,;;;-------&&&&>2240;;;;,,,,,,,,,,,,;;;;,,,,,;,;;;--4&&>>,-,,,,,,,,,04222q&&;-------;,,,,,,,,,,,,;;-;;;;;;;-===5&>>>0>>&25-;;;,,,;;;0400000000404000",
",,,,,,,,,,,,,,,,,,,,,,,,;;;;;--OO--;;,,,,,,,,,,,O&&4&&OOOO&&0OOO,,,,,,,,,,,,;,,;,,,,,,;;--;,OO00O--;;,,,,,,,;,,;&4&&OO&&>4422444;;;,,,,,,,,,,,,,;;;,,,,,;;;;;--O444&,;-,,,,,,,,,4qq22qq&O&&&&&&O,,,,,,,,,;;;;;;;;,,;;;;--==5>>>40>&>-5;;;,,,;;;,4000000000400044",
",,,,,,,,,,,,,,,,,,,,,,,;;;;;-OOOOOO-;,,,,,,,,,,,0>>00>>>>4>044>>,,,,,,,,,,,,,,;;,,,,,,,;;--5&&40OOO-;,,,,,,,,,;;>>44>&4444444224;,,,,,,,,,,,,,,,;,,,,,,;;;;;-OOO04&&5--,,,,,,,,,000>>>qqO&&&>>>>;;,,,,,,,,,;;;;;;;,,,,;---=,>>>400>2>5;;,,,,,,;;0000000440040044",
",,,,,,,,,,,,,,,,,,,,,,,;;---&&&OO&>&-;,,,,,,,,,,0440044444004440,,,,,,,,,,,,,,,,,,,,,,,;;--5&>>4O&>&-;,,,,,,,,,,>>44404442242240,,,,,,,,,,,,,,,,,,,,,,,;;---&&&O4>&&5;;,,,,,,,,,4400>44q0044>>>>,,,,,,,,,,,,,,,,,,,,,,,;--=;&&OO4&22>;;,,,,,,,,,4400404400444400",
",,,,,,,,,,,,,,,,,,,,,,,;----&&&44>>>-;;,,,,,,,,,4444404444444444,,,,,,,,,,,,,,,,,,,,,,,;--;-&>>44>>>-;;,,,,,,,,,4044004444444400,,,,,,,,,,,,,,,,,,,,,,,;----&&&44>>&,;;;,,,,,,,,4044004404444400,,,,,,,,,,,,,,,,,,,,,,,;---;OOOO4&>2;;;,,,,,,,,,4044004404444400",
"4044000044444004404400004444400440440000444440044044000044444004404444***%%%+*3340444444**%333*3404444***%%%+*3340440043%4%*  *344444*333*%4400444444*333*%44004%%***443*%444004444444333*%4400444444*%*444*34*344444**3444*  *344443*%3444*  X434443*%3444*++*3",
"40400400404440044040040040444004404004004044400440400400404440044044443**%%%%+**404004433%%*333*4044443**%%%%+**4040043%444%*%+%44443%****%4400444443%****%44004%++%%%%%%*4440043443*33333%440044444*%*3444334%34443*+*34444%++*3443*%*34444%%443343*%*34444%+%*",
"00000404404400000000040440440000000004044044000000000404404400000000444333*%%%++00000443*%+%%%%%0000444333*%%%++000003%34444%%%%%%*%%%@@*3440000%%*%%%@@*3440000%%%%*33333*40000%%%%*%333*%40000%%%%+%344444**%+%%%%%*344444*%%%%%%%%*344444**%%%%%%%*334444*%+%",
"0000004440000000000000444000004*000000444000000000000044400000000000044433**%**30000004*%4*%%**%0000044433**%**300000%344444*+**333333+ *0000000333333+ *000004*%%***33333%40000*33333%%%%*400*0333**%3444443***333**%344444*%***33**%344444**33*%***%344444*%++",
"000004440000400000000444000044*30000044400004000%0000444000040*000000444443*%**30000044%*44**33*00000444443*%**30000%%+3333%+*4*333333%*30004000333333%*300044*3%%****333*%04000*33333%*333*0%3*3333* %3443*%%**3333*o+*33*%+*4**33**o+*33*%%333%****++%***%+%%%",
"40040400000400004004040000044*4400040400000400003%040*0000040*3*400404444433%%*34004043%3443*344400404444433%%*3*004%%%******34433343***4004000033343***40044*44%+%%++$%**340000**333*%333*%%*433333%%*%*%%**%**3333%*******%344**3*%%*******333%%**%%*%*33*%%**",
"0040000000440004004000000044%344*44000000044000434%0*3*40044%3430040000044333%%%004003%*4444**44*440000044333%%%*340%*%%**%%*444****%+3000440004****%+300044%344%++%  X +*440004**%*%%%33*%%**44***%+**333333**%%**%%**333***4444%*%+**33333*****%+%+*3*%33**%**",
"000000000000004400000000003%34443*00000000000044434*344*440%33440000000044433+  000003%*44443%%%3*00000044433+  4*3%*34*%%%*3444X$$%**0000000044X$$%**00003%3444+++%%%*+*0000044++++%34%%%%**444X$$@%*3333333%  X$@@**3333**344443%+%**33333*%%%%%++%34**%%%%+++",
"00000000000000000000000000*3344444*4*4000000000043433444*44*3444000000004443**o 000004+*343*%@$ 44*4*4004443**o 44*%*444**%*3444 X  *00000000000 X  *00000*33444+++%%*4%*0000000++++*444%%**3444 X  %**3333*%+o     %***33*3444444%%+%**33**%%%%++++*444**++%*++",
"000000040000000000000004003*34443*%*4*40000000003%3*34444**%3333000000040443****00000*%+%**%%+  3*%*4*440443****44%*34444%X%3444%%%*300400000000%%%*3004003*3444%+%%*444%0000000+%+*34444%**3444%%%*o%++%%%  %******o%o@$%X*44444*%%%%o@$%@**%*%+++*34444%+%33%+",
"004000040000440000400004003%%*****%*44*000004400+%*3344443*%+%%%00400004044*****00400+*33333**%+**%*44*4044*****43%*344443+%%%%%****400400004400****4004003%%***%%%*34443%004400%%%*344443*++%%%****%   @@X  %*******%  @@+%%%%%%%%%%+% @@X**%**++%*344443%333*%",
"04000000004040000400000000**333**%*3443*00404000***334444*%****3040000000043****04000%*334433*++*%*3443*0043****3%*334444*%*******34000000404000**34000000**333*%%**344443%04000***334444*%****3******+    +**********%o o%*333****%%*3%  +%%****%*334444*33333*",
"40000000004000444000000003%*333%***4444*00400044*44%%*%%%%%*3333400000000040044340000%**344**+%%***4444*00400443%43%*****+%***3*40000000004000444000000003%*333%*%%%34443*%00044*43%**3**+%***3344**********443340*******%**333**%%%*344%****444%43%*333*%*33***",
"0000000440040044000000044*%**+%*3%*44443400400443443%*%%**%%*33*000000044004004400004*%o@@@o+%%*3%*44443400400443443%%%***%*****0000000440040044000000044*%**+%***%%%%**%%4400443443%%%***%**33%003*******330044003******%**333**%%**444%**34444*443%%%%**%+%%+%",
"4400404400444400440040444%%%+%**3+*343*%*044440044443%%%*4%%%%%*440040440044440044003*%  X %%%*33+*343*%*044440034443****3%*%%%*4400404400444400440040444%%%+%**333****33*%4440034443****3%%%*%34404****334444004404*3*33%%%****3%**34444%4444443444*****3+%**%*",
"40440044044444004044004404%+*3%33+%****%3*44440044443*%*443+%%*34044004404444400404433*%++%%%**43+%****%3*44440044443***44*  @*340440044044444004044004404%+*3%33443**34443%440034443***44*+++344044004404444400404400440%o  @*33%**34444%44444434443***44+%**%*",
"404400004444400440440000444440044046t060444460644046t06044446064404400004444400440640000444440044044000044444004404400004444400440440000444440044046t060444460644046t0604444606440440000444440044064000044444004404400004444400440440000444440044044000044444004",
"4040040040444004404004004044400440436400404436644043640040443664404004004044400440060400404440044040040040444004464004t046444604404004004044w00440436400404436644043640040443664404004004044400440060400404440044040040040444004464004t046444604404004004044w004",
"0000040440440000000004044044000000000404404406000000040440440600000004044044000000066464464400000000040440440000060004tt60440060000004044w94w00000000404404406000000040440440600000004044044000000066464464400000000040440440000060004tt60440060000004044w94w000",
"0000004440000000060060444000000000000044400000000000004440000000060600664006000000006464406t0006000000444000000060000046400000600ww0w04440ww300000000044400000000000004440000000060600664006000000006464406t0006000000444000000060000046400000600ww0w04440ww3000",
"000004440000400006t06444000040000000044tt0004000060004440000400006600646t00t400000443634000tt06000000444000040600060044440004000009ww444000440000000044tt0004000060004440000400006600646t00t400000443634000tt06000000444000040600060044440004000009ww44400044000",
"400404000004000040t4640000040000400404tt00040000466464060004000040640404tt0t0060400444400604t0604064t4000004t0604t0406000000000040093<<700040000400404tt00040000466464060004000040640404tt0t0060400444400604t0604064t4000004t0604t0406000000000040093<<700040000",
"004000000044000400460006004400040ttt00660044000400606000t0440004004000004t6t06040060000066446604004t60000044t6040t4tt0060806000400400<u700440w040ttt00660044000400606000t0440004004000004t6t06040060000066446604004t60000044t6040t4tt0060806000400400<u700440w04",
"000000000000004400000006t060004400ttt06000t0004400060000tt006044000600004wt60644000t0006t00436440006000r006046340636440t87860004000088870090w04400ttt06000t0004400060000tt006044000600004wt60644000t0006t00436440006000r006046340636440t87860004000088870090w044",
"000000000000000000000000t0600000000tt6000t00000000000000060600000006600063606000000tt46t60000000000000r1r60000000463400t6863400000000880w0w94400000tt6000t00000000000000060600000006600063606000000tt46t60000000000000r1r60000000463400t6863400000000880w0w94400",
"00000004000000000000000406000000000066066t00000000000004006000000004t006043660000006t4tt0060000000000t0r660000000040000466000000000ww0qt000w3400000066066t00000000000004006000000004t006043660000006t4tt0060000000000t0r660000000040000466000000000ww0qt000w3400",
"0040000400004400004000040000440000443666t000440000400004000044000044tt06043646060044646440t04460004004t66000440000800t0040000400004099qt0000440000443666t000440000400004000044000044tt06043646060044646440t04460004004t66000440000800t0040000400004099qt00004400",
"040000000040400004000600004040000004336634404000040000000040400004044t660443460606t4363400tt4660040004363040tt0008780t6040404060040000ww334040000004336634404000040000000040400004044t660443460606t4363400tt4660040004363040tt0008780t6040404060040000ww33404000",
"400000000040004440006000004000444000000000400044400000000040004440443t644044066440t60000604t3644400t06400040464446860463404t0t4440000000004000444000000000400044400000000040004440443t644044066440t60000604t3644400t06400040464446860463404t0t444000000000400044",
"000000044004004400066006406600440660000640660044000000044004004400043364400436640046000660036344000t6004400403440tt644444006t34400000004400400440660000640660044000000044004004400043364400436640046000660036344000t6004400403440tt644444006t3440000000440040044",
"4400404400444400440t6046004tt40044tt4046004tt400440040440044440044004044004443604443604600444400444363440044440044t0404400446300440040440044440044tt4046004tt400440040440044440044004044004443604443604600444400444363440044440044t04044004463004400404400444400",
"4044004404444400404tt0640446t406404tt0640446t406404400440444440040440044044444004044004404444400404400440444440040440044044444004044004404444400404tt0640446t406404400440444440040440044044444004044004404444400404400440444440040440044044444004044004404444400"
};
