/* XPM */
static char *_7e623042df34d8589e21110fbcb9b81QAtYz44Oe2lXTR5H[] = {
/* columns rows colors chars-per-pixel */
"128 128 14 1 ",
"  c None",
". c #32261C",
"X c #461517",
"o c #4F1918",
"O c #403429",
"+ c #4B3830",
"@ c #57493B",
"# c #5D483D",
"$ c #6E6456",
"% c #A79E8D",
"& c #B9B29F",
"* c #DBD8C6",
"= c #EDEBDB",
"- c #FFFFF3",
/* pixels */
"                                                                                                                                ",
"                                                                                                                                ",
"                                                                                                                                ",
"                                                                                                                                ",
"                                                                                                                                ",
"                                                                                                                                ",
"                                                                                                                                ",
"                                                                                                                                ",
"                                                                                                                                ",
"                                                                                                                                ",
"                                                                                                                                ",
"                                                                                                                                ",
"                                                                                                                                ",
"                                                                                                                                ",
"                                                                                                                                ",
"                                                                                                                                ",
"                                                                                                                                ",
"                                                                                                                                ",
"                                                                                                                                ",
"                                                                                                                                ",
"                                                                                                                                ",
"                                                                                                                                ",
"                                                                                                                                ",
"                                                                                                                                ",
"                                                                                                                                ",
"                                                                                                                                ",
"                                                                                                                                ",
"                                                                                                                                ",
"                                                                                                                                ",
"                                                               ##                                                               ",
"                                                           #########                                                            ",
"                                                         ###ooooo####  ##                                                       ",
"                                                 #### ###oooXXXoooo###########                                                  ",
"                                                #######+ooXXXXXXXXoooooooooo####                                                ",
"                                            # ####++oXXXXX++++##++XXXXXXXXXXo+###                                               ",
"                                      ......####ooXXXX++++++#####+#++++###+XXXoo###......                                       ",
"                                     .&*=---.+ooXX+++###++#####  ###+######+++XXXX.---=*&.                                      ",
"                                    .&**==-==.XX##########         ####   ##+++++.==-==**&.                                     ",
"                                    .&***===*&.###   ####                   ####.&*===***&.                                     ",
"                                   .&&&**&&**..+#                             ##..**&&**&&&.                                    ",
"                                   .%&&&&OO&*@.+###                           #+.@*&OO&&&&%.                                    ",
"                                   .%&&&&O$O=*.++#######                     ##+.*=O$O&&&&%.##                                  ",
"                                   .%%&&&&@**@*.ooo+++###                   ##+.*@**@&&&&%%.###                                 ",
"                                  ##.%%%&&&&***.XXXoo++##                   ##+.***&&&&%%%.X+###                                ",
"                                  #+o.%%%%.%&&.####XXXo+#          ###   ####oXX.&&%.%%%%.Xooo###                               ",
"                                 ##ooX....+...     ##+Xo+#  ##    ########oooX+##...+....X+XXoo###                              ",
"                                ##ooXX++Xo+##       #++Xo######  ##++#++oXXX+### ####+++XX#++XoX##                              ",
"                              ###+oo+###+Xo+##      ##++Xoo#++####+++ooXXX++###     ##++X###++oX+#                              ",
"                             ##+Xoo### ##Xo+##       ###+XXXoo+##+++ooX##++##      ###+oX# ##+oX+##                             ",
"                            ###Xoo+#    ##Xo#         ######XXo++oooXX######       ###oX+# ##++oX+##                            ",
"                             #XXo+##   ##+Xo#          ##  ##+XooooX+##  ##         #oX++## ##+oX+##                            ",
"                            ##Xo++##   #++Xo##            ##++oXXXo++###          ##ooX+### ###+oX+##                           ",
"                           ##Xoo+##   ###+Xoo##       #####+oXXXX#Xo++###        ##+oX+###   ###oX++#                           ",
"                          ###Xo##      ###+Xo###     ###ooXXX#####+Xoo+###       ##oXX###      #+oX+##                          ",
"                          #+Xo##        ###XXo###  ###oXXX++##   ##+Xoo########  ##oX##         ++X++#                          ",
"                         ##+X##            #Xo+#####XXX++++###    ###XXXo##+++### #oX#          #+oX+##                         ",
"                         #+XX+##           ##Xo+##oXX###++###      ####+XXXXooo####X#           #+oX+##                         ",
"                        ##+Xo+###           ##Xo+oXX########        # ##++++XXXooo+X+#           #oX##                          ",
"                        ###Xo++##           ##XooX####  ###            ##++###+XXooX+##          #+oX#                          ",
"                         ###X++##     ###  ##+Xoo###                    ########+Xoo+##          ##oX##                         ",
"                          ##X+###    #######XXXXo+###                    ##   ###+XXXo##         ##ooX+#                        ",
"                          #+X###    ###++#oXX+++Xo+###                         ##oX#XXo##         ##oX+#                        ",
"                         ##XX##     ##+ooXX###++Xo++##                         ##X###XXo##         #oX##                        ",
"                         ##Xoo#    ##oXXX######++Xo+##                       ###oX# #++Xo#####     #oX##                        ",
"                        ###....# ###oX#####  ###+Xo###                      ###+X#  ##++XXo++## ....oX#                         ",
"                         ..*==*..#ooX####      #+Xo###                      ##+oX##  ###++Xo++..*==*..#                         ",
"                        .&*==-==..oX###        ##Xoo#                       #+ooX##   #####XX..==-==*&.                         ",
"                       .&**=---=@.X###         ###Xo#        ##      ####  ##ooX+##    #   ##.@=---=**&.                        ",
"                       .&**==-==**.#  ##  ###   ##Xoo####   ####    #########oXX#####    #  .**==-==**&.                        ",
"                       .&***===O@**.##########   #Xoo+#### ###########+++###ooX++#####  ###.**@O===***&.                        ",
"                       .&&*****O.*&.XXoo++++######+Xoo++######++####++ooooo#oX+ooooo+#####o.&*.O*****&&.                        ",
"                       .&&&****&&&&.+XXXXXoooooooooXXoo+++##ooooooooooooXXXXXXXXXXXXXXXoooo.&&&&****&&&.                        ",
"                       .%&&&&&&&&%.##++##XXXXXXXXXX+XXoXXXXXXXXXXooooXXX#+++X++##+++###XXXXX.%&&&&&&&&%.                        ",
"                        .%&&&&%...# #########++++++++XX+++####+++XXXX######+X+####+## ###++++...%&&&&%.                         ",
"                         .%%%%.++#   ####  ###+++##+++X+###  ##+++++###  ##oX##  ###    ###++##+.%%%%.                          ",
"                          ....++##           #########XX##     #+++### ####oX#           ##### #+....                           ",
"                            ##X##              ####   #X#       ##### ####oX+#                 #+oX+#                           ",
"                            ##X# #                    #Xo#            ###oX+##                ##oX###                           ",
"                           ###Xo##                     #X##          ###oX+###               ##ooX##                            ",
"                           ####Xo#####                 #Xo#          ##oXX###               ##+oX+#                             ",
"                           ###+XXo#####               ##+X+##         #oX+#                ##+oX++#                             ",
"                            ###+XXo++##               ##+X++##        #oX##              ###ooXX+##                             ",
"                              ##+XXo++#               ##+Xo++##      ##X++##            ###ooXX++##                             ",
"                               ###XXo+###              ##XXo+#      ##oX++##       ###  ##ooXX++##                              ",
"                                  ##Xo####              ##XXo#      #oX+++##      ########oX#####                               ",
"                                    #Xo+######           ##Xo#    ###X+++##      ###+####oX###                                  ",
"                                    ##XXo+#####           ##X## ###+oX####       ##+++#+oX+#                                    ",
"                                    ###+Xo+###            ##X.....#+X##         ##+ooo+oX++#                                    ",
"                                     ####XXXo## ###      ##+.*****.X##         ###ooXXXX#+##                                    ",
"                                         ###Xoo#++###    ##...*=*...###   ######oooX+######                                     ",
"                                          ###XXXoo++######.*.*=-=*.*.+## ######ooXX+## ##                                       ",
"                                           #####XXoo####++.**==-==**.++#####+oooXX+##                                           ",
"                                             ####XXooo+++.***=---=***.+###++ooXXX###                                            ",
"                                                ##XXXoooo.&**==-==**&.oo++ooXX++###                                             ",
"                                                 ##++XXXX.&&**===**&&.XXXXXXX++##                                               ",
"                                                  ##++####.&&*****&&.++++########                                               ",
"                                                   ####  #.%&&&&&&&%.+++### ####                                                ",
"                                                           .%&&&&&%.#####                                                       ",
"                                                            ....... ####                                                        ",
"                                                                                                                                ",
"                                                                                                                                ",
"                                                                                                                                ",
"                                                                                                                                ",
"                                                                                                                                ",
"                                                                                                                                ",
"                                                                                                                                ",
"                                                                                                                                ",
"                                                                                                                                ",
"                                                                                                                                ",
"                                                                                                                                ",
"                                                                                                                                ",
"                                                                                                                                ",
"                                                                                                                                ",
"                                                                                                                                ",
"                                                                                                                                ",
"                                                                                                                                ",
"                                                                                                                                ",
"                                                                                                                                ",
"                                                                                                                                ",
"                                                                                                                                ",
"                                                                                                                                ",
"                                                                                                                                ",
"                                                                                                                                ",
"                                                                                                                                ",
"                                                                                                                                ",
"                                                                                                                                ",
"                                                                                                                                ",
"                                                                                                                                "
};
