/* XPM */
static char *u_idle[] = {
/* columns rows colors chars-per-pixel */
"128 32 251 2 ",
"   c #0E1C2B",
".  c #0E1D2B",
"X  c #0D1F30",
"o  c #0F202F",
"O  c #0D2132",
"+  c #0D2133",
"@  c #0C2233",
"#  c #0C2234",
"$  c #0B253A",
"%  c #0B263A",
"&  c #0B263B",
"*  c #0B283E",
"=  c #0A283F",
"-  c #0B293F",
";  c #112435",
":  c #11293D",
">  c #0A2A42",
",  c #0A2C44",
"<  c #0A2E48",
"1  c #0A2F49",
"2  c #0B2F49",
"3  c #122D43",
"4  c #0A304B",
"5  c #0B314C",
"6  c #0B324D",
"7  c #15364F",
"8  c #0C3552",
"9  c #0C3653",
"0  c #0B3857",
"q  c #0C3857",
"w  c #0C3A59",
"e  c #0C3A5A",
"r  c #0C3C5C",
"t  c #123652",
"y  c #103956",
"u  c #173A56",
"i  c #183953",
"p  c #113B5A",
"a  c #123C5B",
"s  c #0C3E60",
"d  c #0C3F60",
"f  c #0F3F60",
"g  c #0C4164",
"h  c #0D4164",
"j  c #0C4265",
"k  c #0D4266",
"l  c #0C466C",
"z  c #0C476D",
"x  c #0C486F",
"c  c #0D486F",
"v  c #124365",
"b  c #154364",
"n  c #144365",
"m  c #15496D",
"M  c #16496D",
"N  c #164A6F",
"B  c #0D4A71",
"V  c #0E4A71",
"C  c #104D75",
"Z  c #104D76",
"A  c #104E76",
"S  c #184C71",
"D  c #184E74",
"F  c #194F74",
"G  c #114F78",
"H  c #114F79",
"J  c #13527B",
"K  c #13527C",
"L  c #13527D",
"P  c #1B547B",
"I  c #165682",
"U  c #1D5780",
"Y  c #175885",
"T  c #185986",
"R  c #175B88",
"E  c #175C89",
"W  c #1A5D8A",
"Q  c #1A5D8B",
"!  c #1B5E8B",
"~  c #1A608E",
"^  c #1C608E",
"/  c #1D608E",
"(  c #1C608F",
")  c #1D6494",
"_  c #1F6798",
"`  c #1F689A",
"'  c #1F699B",
"]  c #20628E",
"[  c #21628F",
"{  c #216491",
"}  c #236491",
"|  c #236592",
" . c #226694",
".. c #266894",
"X. c #276995",
"o. c #286A96",
"O. c #21699B",
"+. c #216B9D",
"@. c #2A6C98",
"#. c #2B6D99",
"$. c #2C6E9A",
"%. c #2E709C",
"&. c #31739E",
"*. c #30739F",
"=. c #226DA1",
"-. c #226EA1",
";. c #236EA2",
":. c #2471A5",
">. c #2571A5",
",. c #2471A6",
"<. c #2872A5",
"1. c #2873A6",
"2. c #2874A7",
"3. c #2A74A7",
"4. c #2674AA",
"5. c #2675AA",
"6. c #2676AB",
"7. c #2976AB",
"8. c #2877AD",
"9. c #2A77AC",
"0. c #2778AE",
"q. c #2778AF",
"w. c #2878AF",
"e. c #2879AF",
"r. c #3275A1",
"t. c #3375A1",
"y. c #3477A3",
"u. c #3678A3",
"i. c #3678A4",
"p. c #377AA5",
"a. c #367AA6",
"s. c #3A7DA8",
"d. c #3B7EA9",
"f. c #3B7EAA",
"g. c #3C7FAA",
"h. c #2A7BB3",
"j. c #2A7CB3",
"k. c #2C7DB5",
"l. c #2B7FB8",
"z. c #2C7FB9",
"x. c #3D80AB",
"c. c #3F82AC",
"v. c #3F82AD",
"b. c #2D82BB",
"n. c #2D82BC",
"m. c #3381B6",
"M. c #3482B7",
"N. c #3483B7",
"B. c #3383B8",
"V. c #3283BA",
"C. c #3584B9",
"Z. c #3587BF",
"A. c #3885B8",
"S. c #3A89BD",
"D. c #3B8ABE",
"F. c #4184AE",
"G. c #4185B0",
"H. c #4187B4",
"J. c #4388B5",
"K. c #438AB7",
"L. c #458AB6",
"P. c #488CB6",
"I. c #498CB6",
"U. c #478DB9",
"Y. c #448CBA",
"T. c #468DBB",
"R. c #4A8EB8",
"E. c #4B8FB9",
"W. c #4690BF",
"Q. c #4D91BB",
"!. c #4E92BB",
"~. c #4D91BC",
"^. c #4E94BF",
"/. c #2E85C0",
"(. c #2F85C0",
"). c #2F87C2",
"_. c #3086C1",
"`. c #3087C2",
"'. c #3188C4",
"]. c #3189C4",
"[. c #3289C5",
"{. c #3C8DC2",
"}. c #3B8DC4",
"|. c #398DC6",
" X c #338ECC",
".X c #338ECD",
"XX c #348ECC",
"oX c #3690CD",
"OX c #3590CE",
"+X c #3690CE",
"@X c #3691CE",
"#X c #3A92CE",
"$X c #3B93CE",
"%X c #3C93CE",
"&X c #3692D1",
"*X c #3D95D0",
"=X c #408FC3",
"-X c #4592C4",
";X c #4493C5",
":X c #4795C7",
">X c #4993C2",
",X c #4D94C0",
"<X c #4A95C5",
"1X c #4E98C7",
"2X c #4296CD",
"3X c #4296CE",
"4X c #4496CD",
"5X c #4896C8",
"6X c #4897CB",
"7X c #4798CC",
"8X c #4699CE",
"9X c #4699CF",
"0X c #4799CF",
"qX c #4B9ACD",
"wX c #4C9ACD",
"eX c #4C9BCE",
"rX c #4D9CCE",
"tX c #5197C3",
"yX c #5498C2",
"uX c #5499C3",
"iX c #559AC3",
"pX c #569BC4",
"aX c #589CC5",
"sX c #5A9EC7",
"dX c #529ECE",
"fX c #529FCE",
"gX c #529FCF",
"hX c #589DC8",
"jX c #5A9FC9",
"kX c #589FCB",
"lX c #539FD0",
"zX c #56A0CF",
"xX c #56A1CF",
"cX c #5AA2CF",
"vX c #5BA3CF",
"bX c #5DA3CE",
"nX c #5CA3CF",
"mX c #54A0D0",
"MX c #56A1D0",
"NX c #57A1D0",
"BX c #57A2D0",
"VX c #5AA3D0",
"CX c #5CA4D0",
"ZX c #5DA4D0",
"AX c #61A6CF",
"SX c #62A6CF",
"DX c #60A6D0",
"FX c #60A6D1",
"GX c #61A7D1",
"HX c #62A7D0",
"JX c None",
/* pixels */
"JXJXJXJXJXJXJXJXJXJXJXJXJXJXJXJXJXJXJXJXJXJXJXJXJXJXJXJXJXJXJXJXJXJXJXJXJXJXJXJXJXJXJXJXJXJXJXJXJXJXJXJXJXJXJXJXJXJXJXJXJXJXJXJXJXJXJXJXJXJXJXJXJXJXJXJXNXNXNXNXNXNXNXvXNXJXJXJXJXJXJXJXJXJXJXJXJXJXJXJXJXJXJXJXJXJXJXJXJXJXJXJXJXJXJXJXJXJXJXJXJXJXJXJXJXJXJXJX",
"JXJXJXJXJXJXJXJXJXJXJXJXJXJXJXJXJXJXJXJXJXJXJXJXJXJXJXJXJXJXJXJXJXJXJXJXJXJXJXJXJXJXJXmXmXmXfXfXfXfXfXfXfXJXJXJXJXJXJXJXJXJXJXJXJXJXJXJXJXJXJXJXJXJXZXvXC.k.k.k.m.k.k. X$XdXNXJXJXJXJXJXJXJXJXJXJXJXJXJXJXJXJXJXJXJXJXBXlXlXgXgXlXgXgXgXlXJXJXJXJXJXJXJXJXJXJXJX",
"JXJXJXJXJXJXJXJXJXJXGXdXeXeXeXeXeXeXeXeXdXSXJXJXJXJXJXJXJXJXJXJXJXJXJXJXJXJXJXJXJXrXHXT.6.6.6.6.6.6.h. X%XrXmXJXJXJXJXJXJXJXJXJXJXJXJXJXJXJXJXJX3XqXK.g./ T T T T T E ;.8.4.m.qXxXJXJXJXJXJXJXJXJXJXJXJXJXJXJXJX.XBXAXL.5.5.5.5.5.5.k..X$XwXlXDXJXJXJXJXJXJXJXJX",
"JXJXJXJXJXJXJXJXXXeXSXJ.+.=.=.=.=.=.:.[.@X2XeXCXJXJXJXJXJXJXJXJXJXJXJXJXJXJX X%XfXW.i...Y Y Y Y Y Y Q ;.;.;.A.8XzXHXJXJXJXJXJXJXJXJXJXJXJXJXJX+X1XAX$.Y T Y Z G G Z G Y Y I +. XqXFXJXJXJXJXJXJXJXJXJXJXJXJX.X2XwXL.t.] Y Y I I Y I W +.-.-.M.9XzXAXJXJXJXJXJXJX",
"JXJXJXJXJXJXXX2XSXI.@.[ Y Y I I I I Y ) _ ) 7.2XdXSXJXJXJXJXJXJXJXJXJXJXJXJXoX4XbXF.I I I K A V A A H I Y Y ,.].fXVXJXJXJXJXJXJXJXJXJXJXJX X3XNXH.$.! Y G V V x V Z Z Z G Y ! ' m.7XNXFXJXJXJXJXJXJXJXJXJXJX$X6XnXu.I I I K V V V C G I Y I -.[.wXDXJXJXJXJXJXJX",
"JXJXJXJXJXJX#X2X~.N.T I I B B Y R B B I I Y +.n.;XcXcXJXJXJXJXJXJXJXJXJX X%XVX,X..^ T K V V V c z z V V H Y Q ) B.4XzXAXJXJXJXJXJXJXJXJXJX$X7XiXy.I T Y V x x G I 4.C.! I Y Y I ;.`.qXZXJXJXJXJXJXJXJXJX.X2XZXL.{ W Y K V V V V z V V V G Y W W l.$XzXAXJXJXJXJX",
"JXJXJXJXXX#XGX~.W W Y L B Y ) =.:.G B B B Y R R 5.@XdXSXJXJXJXJXJXJXJXJX%X4X^.c.Q Y T K V c V Y Y V c c V Y Y Y ,.n.rXfXJXJXJXJXJXJXJX+X$XZXR./ ! T I J V G E ) ;.8.l.'.).' ) Y E ! m.$XvXAXJXJXJXJXJXJX2X6XE.u.Y T Y G V c V R W V V V G Y W Y +.l.6XgXJXJXJXJX",
"JXJXJX#XeX5XG.r.T Y Y G B ) =.c e B B B G Y R Y _ 5.{.eXcXJXJXJXJXJX XoXVXaX| T Y Y K V c Q ` ).].;._ ) ) K I T T T n.%XbXAXJXJXJXJXJX X$XZXR.T T T Z V x J ) F 2 q j +.e. Xk.I E E l.$XvXAXJXJXJXJX.X$XnXQ.W R Y I K V V ) -.[.`.-.' ' ) G I Y T W l.$XnXAXJXJX",
"JXJXXX#XGXuXW T R +.j.~ c c l 8 8 _ :.:.' I I Y T T 5.@XMXGXJXJXJXJX X%XzXaX] T T K V Q ,.n.]...T T |  X0.V K Y T Q n.%XbXAXJXJXJXJXJX X3XvXR.T T T G x V j , , , , 2 j I '.).e. .E l.$XNXFXJXJXJXJX.X$XZXQ.W Y T K C ) 0.`.`.W D P ) .X0.V I Y T T l.&XnXAXJXJX",
"JXJXXX#XCXuX[ ) n._.[.+.c 0 8 W +.S m Y ) 5.' R T T j.@XMXGXJXJXJXJX X%XkXpX] I T _ e.n. X^ M 5 * > 8 Q ` h.` Y T T l.oXzXHXJXJXJXJXJXNX1Xy.o.Y ;.k.Y x V j , , , , , j G ! >. X4.T  .;.=XqXFXJXJXJX$X2XjXP.W Y T -.l.`.`.P b 1 > > 9 I ' l.+.Y T T k.[.gXnXJXJX",
"JXJX#X2XuXI.W +.XXq.L B c 8 > 0 p > < l B I I R T T 5._.eXcXJXJXJXJXmXkXr...T T I ;.&X6.I w > > > > 5 z ) ).,.Y T T ) O.|.8XAXAXJXJX+XZXiX! E ! 8.`.E x V j , , , * 2 j V x )  X4.Y Y ! ).3XFXFXJXJXnXtXX.{ Y Y I 5.&X+.G 9 > > > > 6 c R /.-.I T T W X.[.2XnXAX",
"JXJXcXhXX.W I +.XX5.B B c 8 > > > > < l c c B I I T T W N.#XcXSX X XfXbX..Y T T Y ` n.) z 8 > * * > 8 V V H V V I T I Q ].%XbXAXJX X$XNXiX! +.'.+.G Z x j r , #   & 2 r j x E l.+.Y Y ! '.3XFXFX.X$XnXyXW Y Y W W +.k.R z 1 > = = > 6 c V G C V K T T W n.$XAXAX",
"XX@XzXsX} W =.j.@X5.c B B 8 > $ $ > 8 _ ' ' W B L T T R z.@XCXSXoXoXzXAX] T T O. X,.V z w 8 > . X > 5 w g V c V K T T Q ].%XHXHXJX X+XvXiX! +.$X+.x V l 2 , & #   # & , 4 x I ) / Y Y ! ).3XZXFX.X$XnXyXW T Y :.&X' V d w 1 = . . > 1 w d c c V I Y Y W `.$XZXAX",
"XX#XcXsX} ) [.XXXX5.B f 0 < >   ; U } L Y ) =.:.} T T R z.@XcXSX XoXfXkX..T T Q ;.) c q > % @ . . @ * > 8 V V c K T T ) ).%XbXAXJX X+XvXiX! +. X' x x l 2 &           * 4 l I ;.) Y Y / ).3XFXFX.X$XnXyX] T W W _ I z 9 > & + . . + & > 9 c V V K Y Y W /.$XnXAX",
"XX@XcXsX} R _ 5.@X5.B 0 > O O   o i u 3 6 l ) [.5.W R R n.@XcXSX XoXmXbX..Q 9.;.V c V w > @ . . . . X > 8 V Q 6._ T T Q ].%XHXHXJX+X+XZXiX/ +.+X' V V l 2 &           * 2 l x x I Y Y / ).3XFXAX.X$XZXyXW ) n.+.V z V 9 = X . . . . X > 9 c ( 0.' W R W `.$XnXAX",
"XX@XcXsX} Y Y _ (.=.I f > O           - 6 c G I =.[.+.Y z.#XzXSXoXoXzXbX..Q ].h.V c c w > @ . . . . X > 8 V K Q 6.l.) Q ].%XbXAXJX X+XNXiX/ +.+X;.Z V l 2 &           * 2 l V V G Y T ! '.3XAXAX.X$XZXtXW X./.-.z V V 9 > . . . . . X > 9 c G Y 5./.X.W `.$XnXAX",
"XXXXcXsX} T T I Z +.XX+.m >           - 6 c B c ' @X=.R n.@XcXSX|.oXzXaX..T ^ ^ I K c q > @ . . . . . * 8 V c c 0. X_ Q ].%XHXAXJX X$XdXiX/ ;.+X Xb.Y l 2 &           * 4 x x x G E Y / ).$XFXFXOX$XnXyXW T W W ( K c 9 > X . . . . . = 9 c c c 0..X' W /.$XnXDX",
"XXXXcXsX} T T L c T :.+.[ 7           - 6 c B c =.@X:.Y z.@XcXSXoXoXzXbX..Y Y _ ].,.V q > X . . . . X * 8 c V V 0. X` Q ).%XbXAXJX X$XAXiX! ) l.'.+XE l 2 & #       # * 2 l G E E Y E ! ).$XFXFX.X$XnXyX( T Y <.OX' c 9 = X . . . . . > 9 V V c 0..X' W /.&XnXAX",
"XX#XcXsX[ T R I c c B 0 > o         O > 6 c B c =.@X=.R z.#XcXSXoXoXzXbX..Y I O.oX,.A q * % @ . . @ @ > 8 c c V 0. X_ Q ].%XHXHXJX X+XdXiX/ T E ' >.+.) T N , #   & , 4 r l )  X>.Y Y ! '.3XFXFXOX$XDXyXW T Y :.OX' V 9 > & + . . + = > 9 V V c :..X' W `.$XAXAX",
"XX#XcXsX} T T L c c B e > - $   ; X.} 6 6 c B c ' XX=.R z.@XcXSX XoXzXbX..Y T O.oXn.1.K w 5 * X . > 5 w g c V c 0. X_ Q ].%XbXAXJX X$XvXiX/ Y T G V / ;. X2.2 & # * 2 j x x )  X4.Y Y / '.3XFXFX.X$XDXQ.] T Y -..Xn.k.Y b 6 = . + 6 9 d h c c c 0..X' R n.$XnXAX",
"XX@XCXsX} T T L B c c l k 8 > O : 3.j.L Z B B B R =.) R z.@XcXGX XoXmXbX..I T T ^ ,. Xn.h.M 5 > t | ) V c c V K 0.]._ Q ].%XVXAXJXJXJXZXiX .E Y I J V V E J 2 , , , 2 j x V )  X>.Y T  .'.7XAXAX.X$XnXyX( Y Y T I :././.n.D y a b #.{ V V V G I 5./.X.W /.$XZXDX",
"XX@XCXsX[ T T I Z Z c B B 8 > > > 7 n (.j.Z B B ) z.} R z.@XcXSXJXJXzXkX%.^ T T I I I ,.].n.h.1...M v V c c ` n.;.) ^ _ |.4XAXAXJXJXJX3X-XiXH.Y Y Y Z V x j , , , , 2 V E l.e.) ! T 8.'.dXdXJXJXJXJXBXtX*.X.T Y I K G -.l.`.`.<.{ a w c c z ' .X-.W ) +.}.9XnXAX",
"JXJXeXeXf.&.R T T L c B c 8 > > > > p [.z.B L Y R R _ =.{.eXcXSXJXJX%X%XfX^.) Y Y H z V K O.6.M 8 > 5 z K Y ,.n.` T h.|.zXbXJXJXJXJXJX X$XFXR.E E Y Z V V j 4 , , 2 9 ' e.l.>.Y E E l.$XAXFXJXJXJXJX.X$XZXQ.R Y R G c V C ( { y > > 9 z I _ -.w._ R k.OXnXAXJXJX",
"JXJXXX#XcXhXW T T L B B B 0 > > 6 U } +.~ c Z T T T q.@XzXSXJXJXJXJX XoXbXaX^ Y Y Q ) I c s w > > 8 w z I 6.` T T Q n.*XbXAXJXJXJXJXJX X$XFXR.T Y Y J Z V Z ) F * r l V G I I Y Y Y l.$XvXAXJXJXJXJXOX$XZXQ.R Y Y ) :.Y V d w > 1 w d z I _ ) Y Y W l.OXnXAXJXJX",
"JXJXXX#XCXuXW Y T ) 5.W B c l 8 p n.n.Z c B G T Y T w.#XdXGXJXJXJXJX X%XVXpX] T Y _ 6.,.O.I c 5 5 _ ) V V K I T T T B.*XVXHXJXJXJXJXJXJX$X7X<Xx.o.T T Y Z J +. .! ) +.G Z Y Y Y  .4.=XqXZXJXJXJXJXJX.X$XZXQ.] W T ) +.:.5.Y V 9 a :.+.C C K I T W W V.$XnXAXJXJX",
"JXJXXX#XcXuXX.[ T W _ Y B =.(.7.:.R L B Z I I T W ~ z.#XsXGXJXJXJXJXJXJX4X4XT.s.T Y Y Q ) ;.,.O.O._ Q V H T T T ;.l.:XfXJXJXJXJXJXJXJXJXJX X7XFXg.E T Y Z x x J ) ) ) G Z Y T E 8.$XNXFXJXJXJXJXJXJXJXJX$X6XyXd.Y T Y I Y :.0.5.:.Y K z C T T T :./.wXZXJXJXJXJX",
"JXJXJXJX#X2XcXI.T Y T G B =.z.W G B c c Z T T I =.[.eXCXJXJXJXJXJXJXJXJX X%XbX^.| Q T H V I Q Q T V z V H T T Q l.%XzXAXJXJXJXJXJXJXJXJXJXJX$X$X-X!.o.I J G Z Z Z x x J J Y ' l.=XNXZXJXJXJXJXJXJXJXJXJX.X2XBXY.#.] T K V K K K K c V C K T ) ) V.2XBXDXJXJXJXJX",
"JXJXJXJXXX#XeX>Xp.@.T I G B B B c B B Z L I ) =.N.0XzXGXJXJXJXJXJXJXJXJXJXJX%X4XpXc.Y Y I A V V A V A I I Y ;.).rXzXJXJXJXJXJXJXJXJXJXJXJXJXJX+XqXvXa. .! Y J Y J I I / ) / 2.$XdXFXJXJXJXJXJXJXJXJXJXJXJXJXOXwXAXd.I T T K V K G G K Y Y Y :..XwXDXJXJXJXJXJXJX",
"JXJXJXJXJXJXXX2XGXJ.R T T I L L L L L T T T +.XXeXGXJXJXJXJXJXJXJXJXJXJXJXJX X%XmXT.%.| Y Y Y Y I I Q O._ _ l.8XzXAXJXJXJXJXJXJXJXJXJXJXJXJXJXJXJX$XqX<X;.' ' '  .+.;.b. X-X7XZXJXJXJXJXJXJXJXJXJXJXJXJXJXJXJX2XwXY.v.X.T T T T T Y ( 5.0.5.S.wXzXJXJXJXJXJXJXJX",
"JXJXJXJXJXJXJX#X0X;XU.r.R W R R R W ~ j.z.z.D.dXCXJXJXJXJXJXJXJXJXJXJXJXJXJXJXJX X4XfXA.;.;.;.;.;.;.6.].%X8XfXAXJXJXJXJXJXJXJXJXJXJXJXJXJXJXJXJXJXJXJX$X7X7X7X7X7X7X7X7XqXZXJXJXJXJXJXJXJXJXJXJXJXJXJXJXJXJXJXJXJX2X9X[.l.M.k.l.l.l.V.$X2XgXBXJXJXJXJXJXJXJXJXJX",
"JXJXJXJXJXJXJXJXJXJX2X{.Z.Z.Z.Z.Z.Z.[.#X2XMXCXJXJXJXJXJXJXJXJXJXJXJXJXJXJXJXJXJXJXJXJX8XrXrXfXrXrXfXfXrXfXJXJXJXJXJXJXJXJXJXJXJXJXJXJXJXJXJXJXJXJXJXJXJXJXJXJXJXJXJXJXJXJXJXJXJXJXJXJXJXJXJXJXJXJXJXJXJXJXJXJXJXJXJXJXgXnXzXBXBXBXBXzXzXnXJXJXJXJXJXJXJXJXJXJXJX",
"JXJXJXJXJXJXJXJXJXJXJXzXCXCXCXCXcXSXcXcXCXJXJXJXJXJXJXJXJXJXJXJXJXJXJXJXJXJXJXJXJXJXJXJXJXJXJXJXJXJXJXJXJXJXJXJXJXJXJXJXJXJXJXJXJXJXJXJXJXJXJXJXJXJXJXJXJXJXJXJXJXJXJXJXJXJXJXJXJXJXJXJXJXJXJXJXJXJXJXJXJXJXJXJXJXJXJXJXJXJXJXJXJXJXJXJXJXJXJXJXJXJXJXJXJXJXJXJX"
};
