/* XPM */
static char *D_Attack[] = {
/* columns rows colors chars-per-pixel */
"288 48 7 1 ",
"  c #0C0F2A",
". c #303843",
"X c #405273",
"o c #B55945",
"O c #6C81A1",
"+ c #FEE1B8",
"@ c None",
/* pixels */
"@@@@@@@@@@@@@@@@@@@@@@@@@@@@@@@@@@@@@@@@@@@@@@@@@@@@@@@@@@@@@@@@@@@@@@@@@@@@@@@@@@@@@@@@@@@@@@@@@@@@@@@@@@@@@@@@@@@@@@@@@@@@@@@@@@@@@@@@@@@@@@@@@@@@@@@@@@@@@@@@@@@@@@@@@@@@@@@@@@@@@@@@@@@@@@@@@@@@@@@@@@@@@@@@@@@@@@@@@@@@@@@@@@@@@@@@@@@@@@@@@@@@@@@@@@@@@@@@@@@@@@@@@@@@@@@@@@@@@@@@@@@@@@@@",
"@@@@@@@@@@@@@@@@@@@@@@@@@@@@@@@@@@@@@@@@@@@@@@@@@@@@@@@@@@@@@@@@@@@@@@@@@@@@@@@@@@@@@@@@@@@@@@@@@@@@@@@@@@@@@@@@@@@@@@@@@@@@@@@@@@@@@@@@@@@@@@@@@@@@@@@@@@@@@@@@@@@@@@@@@@@@@@@@@@@@@@@@@@@@@@@@@@@@@@@@@@@@@@@@@@@@@@@@@@@@@@@@@@@@@@@@@@@@@@@@@@@@@@@@@@@@@@@@@@@@@@@@@@@@@@@@@@@@@@@@@@@@@@@@",
"@@@@@@@@@@@@@@@@@@@@@@@@@@@@@@@@@@@@@@@@@@@@@@@@@@@@@@@@@@@@@@@@@@@@@@@@@@@@@@@@@@@@@@@@@@@@@@@@@@@@@@@@@@@@@@@@@@@@@@@@@@@@@@@@@@@@@@@@@@@@@@@@@@@@@@@@@@@@@@@@@@@@@@@@@@@@@@@@@@@@@@@@@@@@@@@@@@@@@@@@@@@@@@@@@@@@@@@@@@@@@@@@@@@@@@@@@@@@@@@@@@@@@@@@@@@@@@@@@@@@@@@@@@@@@@@@@@@@@@@@@@@@@@@@",
"@@@@@@@@@@@@@@@@@@@@@@@@@@@@@@@@@@@@@@@@@@@@@@@@@@@@@@@@@@@@@@@@@@@@@@@@@@@@@@@@@@@@@@@@@@@@@@@@@@@@@@@@@@@@@@@@@@@@@@@@@@@@@@@@@@@@@@@@@@@@@@@@@@@@@@@@@@@@@@@@@@@@@@@@@@@@@@@@@@@@@@@@@@@@@@@@@@@@@@@@@@@@@@@@@@@@@@@@@@@@@@@@@@@@@@@@@@@@@@@@@@@@@@@@@@@@@@@@@@@@@@@@@@@@@@@@@@@@@@@@@@@@@@@@",
"@@@@@@@@@@@@@@@@@@@@@@@@@@@@@@@@@@@@@@@@@@@@@@@@@@@@@@@@@@@@@@@@@@@@@@@@@@@@@@@@@@@@@@@@@@@@@@@@@@@@@@@@@@@@@@@@@@@@@@@@@@@@@@@@@@@@@@@@@@@@@@@@@@@@@@@@@@@@@@@@@@@@@@@@@@@@@@@@@@@@@@@@@@@@@@@@@@@@@@@@@@@@@@@@@@@@@@@@@@@@@@@@@@@@@@@@@@@@@@@@@@@@@@@@@@@@@@@@@@@@@@@@@@@@@@@@@@@@@@@@@@@@@@@@",
"@@@@@@@@@@@@@@@@@@@@@@@@@@@@@@@@@@@@@@@@@@@@@@@@@@@@@@@@@@@@@@@@@@@@@@@@@@@@@@@@@@@@@@@@@@@@@@@@@@@@@@@@@@@@@@@@@@@@@@@@@@@@@@@@@@@@@@@@@@@@@@@@@@@@@@@@@@@@@@@@@@@@@@@@@@@@@@@@@@@@@@@@@@@@@@@@@@@@@@@@@@@@@@@@@@@@@@@@@@@@@@@@@@@@@@@@@@@@@@@@@@@@@@@@@@@@@@@@@@@@@@@@@@@@@@@@@@@@@@@@@@@@@@@@",
"@@@@@@@@@@@@@@@@@@@@@@@@@@@@@@@@@@@@@@@@@@@@@@@@@@@@@@@@@@@@@@@@@@@@@@@@@@@@@@@@@@@@@@@@@@@@@@@@@@@@@@@@@@@@@@@@@@@@@@@@@@@@@@@@@@@@@@@@@@@@@@@@@@@@@@@@@@@@@@@@@@@@@@@@@@@@@@@@@@@@@@@@@@@@@@@@@@@@@@@@@@@@@@@@@@@@@@@@@@@@@@@@@@@@@@@@@@@@@@@@@@@@@@@@@@@@@@@@@@@@@@@@@@@@@@@@@@@@@@@@@@@@@@@@",
"@@@@@@@@@@@@@@@@@@@@@@@@@@@@@@@@@@@@@@@@@@@@@@@@@@@@@@@@@@@@@@@@@@@@@@@@@@@@@@@@@@@@@@@@@@@@@@@@@@@@@@@@@@@@@@@@@@@@@@@@@@@@@@@@@@@@@@@@@@@@@@@@@@@@@@@@@@@@@@@@@@@@@@@@@@@@@@@@@@@@@@@@@@@@@@@@@@@@@@@@@@@@@@@@@@@@@@@@@@@@@@@@@@@@@@@@@@@@@@@@@@@@@@@@@@@@@@@@@@@@@@@@@@@@@@@@@@@@@@@@@@@@@@@@",
"@@@@@@@@@@@@@@@@@@@@@@@@@@@@@@@@@@@@@@@@@@@@@@@@@@@@@@@@@@@@@@@@@@@@@@@@@@@@@@@@@@@@@@@@@@@@@@@@@@@@@@@@@@@@@@@@@@@@@@@@@@@@@@@@@@@@@@@@@@@@@@@@@@@@@@@@@@@@@@@@@@@@@@@@@@@@@@@@@@@@@@@@@@@@@@@@@@@@@@@@@@@@@@@@@@@@@@@@@@@@@@@@@@@@@@@@@@@@@@@@@@@@@@@@@@@@@@@@@@@@@@@@@@@@@@@@@@@@@@@@@@@@@@@@",
"@@@@@@@@@@@@@@@@@@@@@@@@@@@@@@@@@@@@@@@@@@@@@@@@@@@@@@@@@@@@@@@@@@@@@@@@@@@@@@@@@@@@@@@@@@@@@@@@@@@@@@@@@@@@@@@@@@@@@@@@@@@@@@@@@@@@@@@@@@@@@@@@@@@@@@@@@@@@@@@@@@@@@@@@@@@@@@@@@@@@@@@@@@@@@@@@@@@@@@@@@@@@@@@@@@@@@@@@@@@@@@@@@@@@@@@@@@@@@@@@@@@@@@@@@@@@@@@@@@@@@@@@@@@@@@@@@@@@@@@@@@@@@@@@",
"@@@@@@@@@@@@@@@@@@@@@@@@@@@@@@@@@@@@@@@@@@@@@@@@@@@@@@@@@@@@@@@@@@@@@@@@@@@@@@@@@@@@@@@@@@@@@@@@@@@@@@@@@@@@@@@@@@@@@@@@@@@@@@@@@@@@@@@@@@@@@@@@@@@@@@@@@@@@@@@@@@@@@@@@@@@@@@@@@@@@@@@@@@@@@@@@@@@@@@@@@@@@@@@@@@@@@@@@@@@@@@@@@@@@@@@@@@@@@@@@@@@@@@@@@@@@@@@@@@@@@@@@@@@@@@@@@@@@@@@@@@@@@@@@",
"@@@@@@@@@@@@@@@@@@@@@@@@@@@@@@@@@@@@@@@@@@@@@@@@@@@@@@@@@@@@@@@@@@@@@@@@@@@@@@@@@@@@@@@@@@@@@@@@@@@@@@@@@@@@@@@@@@@@@@@@@@@@@@@@@@@@@@@@@@@@@@@@@@@@@@@@@@@@@@@@@@@@@@@@@@@@@@@@@@@@@@@@@@@@@@@@@@@@@@@@@@@@@@@@@@@@@@@@@@@@@@@@@@@@@@@@@@@@@@@@@@@@@@@@@@@@@@@@@@@@@@@@@@@@@@@@@@@@@@@@@@@@@@@@",
"@@@@@@@@@@@@@@@@@@@@@@@@@@@@@@@@@@@@@@@@@@@@@@@@@@@@@@@@@@@@@@@@@@@@@@@@@@@@@@@@@@@@@@@@@@@@@@@@@@@@@@@@@@@@@@@@@@@@@@@@@@@@@@@@@@@@@@@@@@@@@@@@@@@@@@@@@@@@@@@@@@@@@@@@@@@@@@@@@@@@@@@@@@@@@@@@@@@@@@@@@@@@@@@@@@@@@@@@@@@@@@@@@@@@@@@@@@@@@@@@@@@@@@@@@@@@@@@@@@@@@@@@@@@@@@@@@@@@@@@@@@@@@@@@",
"@@@@@@@@@@@@@@@@@@@@@@@@@@@@@@@@@@@@@@@@@@@@@@@@@@@@@@@@@@@@@@@@@@@@@@@@@@@@@@@@@@@@@@@@@@@@@@@@@@@@@@@@@@@@@@@@@@@@@@@@@@@@@@@@@@@@@@@@@@@@@@@@@@@@@@@@@@@@@@@@@@@@@@@@@@@@@@@@@@@@@@@@@@@@@@@@@@@@@@@@@@@@@@@@@@@@@@@@@@@@@@@@@@@@@@@@@@@@@@@@@@@@@@@@@@@@@@@@@@@@@@@@@@@@@@@@@@@@@@@@@@@@@@@@",
"@@@@@@@@@@@@@@@@@@@@@@@@@@@@@@@@@@@@@@@@@@@@@@@@@@@@@@@@@@@@@@@@@@@@@@@   @@@@@@@@@@@@@@@@@@@@@@@@@@@@@@@@@@@@@@@@@@@@@@@@@@@@@@@@@@@@@@@@@@@@@@@@@@@@@@@@@@@@@@@@@@@@@@@@@@@@@@@@@@@@@@@@@@@@@@@@@@@@@@@@@@@@@@@@@@@@@@@@@@@@@@@@@@@@@@@@@@@@@@@@@@@@@@@@@@@@@@@@@@@@@@@@@@@@@@@@@@@@@@@@@@@@@@",
"@@@@@@@@@@@@@@@@@@@@@@@   @@@@@@@@@@@@@@@@@@@@@@@@@@@@@@@@@@@@@@@@@@@@ OOO @@@@@@@@@@@@@@@@@@@@@@@@@@@@@@@@@@@@@@@@@@@@   @@@@@@@@@@@@@@@@@@@@@@@@@@@@@@@@@@@@@@@@@@@@@   @@@@@@@@@@@@@@@@@@@@@@@@@@@@@@@@@@@@@@@@@@@@@@@@@@@@@@@@@@@@@@@@@@@@@@@@@@@@@@@@@@@@@@@@@@@@@@@@@@@@@@@@@@@@@@@@@@@@@@",
"@@@@@@@@@@@@@@@@@@@@@@ OOO @@@@@@@@@@@@@@@@@@@@@@@@@@@@@@@@@@@@@@@@@@ OOOOO @@@@@@@@@@@@@@@@@@@@@@@@@@@@@@@@@@@@@@@@@@ OOO @@@@@@@@@@@@@@@@@@@@@@@@@@@@@@@@@@@@@@@@@@@ OOO @@@@@@@@@@@@@@@@@@@@@@@@@@@@@@@@@@@@@@@@@@    @@@@@@@@@@@@@@@@@@@@@@@@@@@@@@@@@@@@@@@@@@@@@@   @@@@@@@@@@@@@@@@@@@@@@",
"@@@@@@@@@@@@@@@@@@@@@ OOOOO @@@@@@@@@@@@@@@@@@@@@@@@@@@@@@@@@@@@@@@@@    OO @@@@@@@@@@@@@@@@@@@@@@@@@@@@@@@@@@@@@@@@@ OOOOO @@@@@@@@@@@@@@@@@@@@@@@@@@@@@@@@@@@@@@@@@ OOOOO @@@@@@@@@@@@@@@@@@@@@@@@@@@@@@@@@@@@@@@@@ OOO @@@@@@@@@@@@@@@@@@@@@@@@@@@@@@@@@@@@@@@@@@@  OOO @@@@@@@@@@@@@@@@@@@@@",
"@@@@@@@@@@@@@@@@@@@@@    OO @@@@@@@@@@@@@@@@@@@@@@@@@@@@@@@@@@@@@@@@@@@ OOO @@@@@@@@@@@@@@@@@@@@@@@@@@@@@@@@@@@@@@@@@    OO @@@@@@@@@@@@@@@@@@@@@@@@@@@@@@@@@@@@@@@@@    OO @@@@@@@@@@@@@@@@@@@@@@@@@@@@@@@@@@@@@@@@@@ OOO @@@@@@@@@@@@@@@@@@@@@@@@@@@@@@@@@@@@@@@@@@ OOOOO @@@@@@@@@@@@@@@@@@@@",
"@@@@@@@@@@@@@@@@@@@@@@@ OOO @@@@@@@@@@@@@@@@@@@@@@@@@@@@@@@@@@@@@@@@@@ OOOX @@@@@@@@@@@@@@@@@@@@@@@@@@@@@@@@@@@@@@@@@@@ OOO @@@@@@@@@@@@@@@@@@@@@@@@@@@@@@@@@@@@@@@@@@@ OOO @@@@@@@@@@@@@@@@@@@@@@@@@@@@@@@@@@@@@@@@@@@ OOO @@@@@@@@@@@@@@@@@@@@@@@@@@@@@@@@@@@@@@@@@@   OO @@@@@@@@@@@@@@@@@@@@",
"@@@@@@@@@@@@@@@@@@@@@@ OOOX @@@@@@@@@@@@@@@@@@@@@@@@@@@@@@@@@@@@@@@@@ OOOO @@@@@@@@@@@@@@@@@@@@@@@@@@@@@@@@@@@@@@@@@@@ OOOX @@@@@@@@@@@@@@@@@@@@@@@@@@@@@@@@@@@@@@@@@@ OOOX @@@@@@@@@@@@@@@@@@@@@@@@@@@@@@@@@@@@@@@@@@@ XOO @@@@@@@@@@@@@@@@@@@@@@@@@@@@@@@@@@@@@@@@@@@ OOO @@@@@@@@@@@@@@@@@@@@",
"@@@@@@@@@@@@@@@@@@@@@ OOOO @@@@@@@@@@@@@@@@@@@@@@@@@@@@@@@@@@@@@@@@@ OOOOOO @@@@@@@@@@@@@@@@@@@@@@@@@@@@@@@@@@@@@@@@@ OOOO @@@@@@@@@@@@@@@@@@@@@@@@@@@@@@@@@@@@@@@@@@ OOOO @@@@@@@@@@@@@@@@@@@@@@@@@@@@@@@@@@@@@@@@@@@@ OOO @@@@@@@@@@@@@@@@@@@@@@@@@@@@@@@@@@@@@@@@@@ OOOX @@@@@@@@@@@@@@@@@@@@",
"@@@@@@@@@@@@@@@@@@@@ OOOOOO @@@@@@@@@@@@@@@@@@@@@@@@@@@@@@@@@@@@@@@ XOOOOOOX @@@@@@@@@@@@@@@@@@@@@@@@@@@@@@@@@@@@@@@ OOOOOO @@@@@@@@@@@@@@@@@@@@@@@@@@@@@@@@@@@@@@@@ OOOOOO @@@@@@@@@@@@@@@@@@@@@@@@@@@@@@@@@@@@@@@@@@ OOOX @@@@@@@@@@@@@@@@@@@@@@@@@@@@@@@@@@@@@@@@@ OOOO @@@@@@@@@@@@@@@@@@@@@",
"@@@@@@@@@@@@@@@@@@@ XOOOOOOX @@@@@@@@@@@@@@@@@@@@@@@@@@@@@@@@@@@@@@ XOOOOOOX @@@@@@@@@@@@@@@@@@@@@@@@@@@@@@@@@@@@@@ XOOOOOOX @@@@@@@@@@@@@@@@@@@@@@@@@@@@@@@@@@@@@@ O.OOOO.O @@@@@@@@@@@@@@@@@@@@@@@@@@@@@@@@@@@@@@@@ OOOO @@@@@@@@@@@@@@@@@@@@@@@@@@@@@@@@@@@@@@@@@ OOOOOO @@@@@@@@@@@@@@@@@@@@",
"@@@@@@@@@@@@@@@@@@@ XOOOOOOX @@@@@@@@@@@@@@@@@@@@@@@@@@@@@@@@@@@@@ X.OOOOOO.X @@@@@@@@@@@@@@@@@@@@@@@@@@@@@@@@@@@@ XO.OOOO.OX @@@@@@@@@@@@@@@@@@@@@@@@@@@@@@@@@@@@ XOO....OOX @@@@@@@@@@@@@@@@@@@@@@@@@@@@@@@@@@@@@@ OOOOOO @@@@@@@@@@@@@@@@@@@@@@@@@@@@@@@@@@@@@@@ XOOOOOOX @@@@@@@@@@@@@@@@@@@",
"@@@@@@@@@@@@@@@@@@ X.OOOOOO.X @@@@@@@@@@@@@@@@@@@@@@@@@@@@@@@@@@@@ XO.OOOO.OX @@@@@@@@@@@@@@@@@@@@@@@@@@@@@@@@@@@@ XOO....OOX @@@@@@@@@@@@@@@@@@@@@@@@@@@@@@@@@@@@ XOXOOOOXOX @@@@@@@@@@@@@@@@@@@@@@@@@@@@@@@@@@@@@ XOOOOOOX @@@@@@@@@@@@@@@@@@@@@@@@@@@@@@@@@@@@@@ XOOOOOOX @@@@@@@@@@@@@@@@@@@",
"@@@@@@@@@@@@@@@@@@ XO.OOOO.OX @@@@@@@@@@@@@@@@@@@@@@@@@@@@@@@@@@@@ XOO....OOX @@@@@@@@@@@@@@@@@@@@@@@@@@@@@@@@@@@@ XOXOOOOXOX @@@@@@@@@@@@@@@@@@@@@@@@@@@@@@@@@@@@ XXOOOOOOXX @@@@@@@@@@@@@@@@@@@@@@@@@@@@@@@@@@@@@ XOOOOOOX @@@@@@@@@@@@@@@@@@@@@@@@@@@@@@@@@@@@@ X.OOOOOO.X @@@@@@@@@@@@@@@@@@",
"@@@@@@@@@@@@@@@@@@ XOO....OOX @@@@@@@@@@@@@@@@@@@@@@@@@@@@@@@@@@@@ XOXOOOOXOX @@@@@@@@@@@@@@@@@@@@@@@@@@@@@@@@@@@@ XXOOOOOOXX @@@@@@@@@@@@@@@@@@@@@@@@@@@@@@@@@@@@ XXOOOOOOXX @@@@@@@@@@@@@@@@@@@@@@@@@@@@@@@@@@@@ X.OOOOOO.X @@@@@@@@@@@@@@@@@@@@@@@@@@@@@@@@@@@@ XO.OOOO.OX @@@@@@@@@@@@@@@@@@",
"@@@@@@@@@@@@@@@@@@ XOXOOOOXOX @@@@@@@@@@@@@@@@@@@@@@@@@@@@@@@@@@@@ XXOOOOOOXX @@@@@@@@@@@@@@@@@@@@@@@@@@@@@@@@@@@@ XXOOOOOOXX @@@@@@@@@@@@@@@@@@@@@@@@@@@@@@@@@@@@ XXOO..OOXX @@@@@@@@@@@@@@@@@@@@@@@@@@@@@@@@@@@@ XO.OOOO.OX @@@@@@@@@@@@@@@@@@@@@@@@@@@@@@@@@@@@ XOO....OOX @@@@@@@@@@@@@@@@@@",
"@@@@@@@@@@@@@@@@@@ XXOOOOOOXX @@@@@@@@@@@@@@@@@@@@@@@@@@@@@@@@@@@@ XXOOOOOOXX @@@@@@@@@@@@@@@@@@@@@@@@@@@@@@@@@@@@ XXOOOOOOXX @@@@@@@@@@@@@@@@@@@@@@@@@@@@@@@@@@@@ XXX+oo+XXX @@@@@@@@@@@@@@@@@@@@@@@@@@@@@@@@@@@@ XOO....OOX @@@@@@@@@@@@@@@@@@@@@@@@@@@@@@@@@@@@ XOXOOOOXOX @@@@@@@@@@@@@@@@@@",
"@@@@@@@@@@@@@@@@@@ XXOOOOOOXX @@@@@@@@@@@@@@@@@@@@@@@@@@@@@@@@@@@@ XXOOOOOOXX @@@@@@@@@@@@@@@@@@@@@@@@@@@@@@@@@@@@ XXXO..OXXX @@@@@@@@@@@@@@@@@@@@@@@@@@@@@@@@@@@@ XXXooooXXX @@@@@@@@@@@@@@@@@@@@@@@@@@@@@@@@@@@@ XOXOOOOXOX @@@@@@@@@@@@@@@@@@@@@@@@@@@@@@@@@@@@ XXOOOOOOXX @@@@@@@@@@@@@@@@@@",
"@@@@@@@@@@@@@@@@@@ XXOOOOOOXX @@@@@@@@@@@@@@@@@@@@@@@@@@@@@@@@@@@@ XXXO..OXXX @@@@@@@@@@@@@@@@@@@@@@@@@@@@@@@@@@@@ XXX+OO+XXX @@@@@@@@@@@@@@@@@@@@@@@@@@@@@@@@@@@@ XXXooooXXX @@@@@@@@@@@@@@@@@@@@@@@@@@@@@@@@@@@@ XXOOOOOOXX @@@@@@@@@@@@@@@@@@@@@@@@@@@@@@@@@@@@ XXOOOOOOXX @@@@@@@@@@@@@@@@@@",
"@@@@@@@@@@@@@@@@@@ XXXO..OXXX @@@@@@@@@@@@@@@@@@@@@@@@@@@@@@@@@@@@ XXX+OO+XXX @@@@@@@@@@@@@@@@@@@@@@@@@@@@@@@@@@@@ XXX+oo+XXX @@@@@@@@@@@@@@@@@@@@@@@@@@@@@@@@@@@@ XXX+oo+XXX @@@@@@@@@@@@@@@@@@@@@@@@@@@@@@@@@@@@ XXOO..OOXX @@@@@@@@@@@@@@@@@@@@@@@@@@@@@@@@@@@@ XXOOOOOOXX @@@@@@@@@@@@@@@@@@",
"@@@@@@@@@@@@@@@@@@ XXX+OO+XXX @@@@@@@@@@@@@@@@@@@@@@@@@@@@@@@@@@@@ XXX+oo+XXX @@@@@@@@@@@@@@@@@@@@@@@@@@@@@@@@@@@@ XXXXXXXXXX @@@@@@@@@@@@@@@@@@@@@@@@@@@@@@@@@@@@ XXXXXXXXXX @@@@@@@@@@@@@@@@@@@@@@@@@@@@@@@@@@@@ XXX+oo+XXX @@@@@@@@@@@@@@@@@@@@@@@@@@@@@@@@@@@@ XXXO..OXXX @@@@@@@@@@@@@@@@@@",
"@@@@@@@@@@@@@@@@@@ XXX+oo+XXX @@@@@@@@@@@@@@@@@@@@@@@@@@@@@@@@@@@@ XXX    XXX @@@@@@@@@@@@@@@@@@@@@@@@@@@@@@@@@@@@ XXX    XXX @@@@@@@@@@@@@@@@@@@@@@@@@@@@@@@@@@@@ XXX    XXX @@@@@@@@@@@@@@@@@@@@@@@@@@@@@@@@@@@@ .XXooooXX. @@@@@@@@@@@@@@@@@@@@@@@@@@@@@@@@@@@@ XXXOOOOXXX @@@@@@@@@@@@@@@@@@",
"@@@@@@@@@@@@@@@@@@ XXX    XXX @@@@@@@@@@@@@@@@@@@@@@@@@@@@@@@@@@@@ XXX @@ XXX @@@@@@@@@@@@@@@@@@@@@@@@@@@@@@@@@@@@ XXX @@ XXX @@@@@@@@@@@@@@@@@@@@@@@@@@@@@@@@@@@@ XXX @@ XXX @@@@@@@@@@@@@@@@@@@@@@@@@@@@@@@@@@@@ ...oooo... @@@@@@@@@@@@@@@@@@@@@@@@@@@@@@@@@@@@ XXX+OO+XXX @@@@@@@@@@@@@@@@@@",
"@@@@@@@@@@@@@@@@@@ XXX @@ XXX @@@@@@@@@@@@@@@@@@@@@@@@@@@@@@@@@@@@ XXX @@ XXX @@@@@@@@@@@@@@@@@@@@@@@@@@@@@@@@@@@@ XXX @@ XXX @@@@@@@@@@@@@@@@@@@@@@@@@@@@@@@@@@@@ XXX @@ XXX @@@@@@@@@@@@@@@@@@@@@@@@@@@@@@@@@@@@ ...oooo... @@@@@@@@@@@@@@@@@@@@@@@@@@@@@@@@@@@@ XX.    .XX @@@@@@@@@@@@@@@@@@",
"@@@@@@@@@@@@@@@@@@ XXX @@ XXX @@@@@@@@@@@@@@@@@@@@@@@@@@@@@@@@@@@@ XXX @@ XXX @@@@@@@@@@@@@@@@@@@@@@@@@@@@@@@@@@@@ XXX @@ XXX @@@@@@@@@@@@@@@@@@@@@@@@@@@@@@@@@@@@ XXX @@ XXX @@@@@@@@@@@@@@@@@@@@@@@@@@@@@@@@@@@@ ...+oo+... @@@@@@@@@@@@@@@@@@@@@@@@@@@@@@@@@@@@ ... @@ ... @@@@@@@@@@@@@@@@@@",
"@@@@@@@@@@@@@@@@@@@XX@@@@@@XX@@@@@@@@@@@@@@@@@@@@@@@@@@@@@@@@@@@@@@XX@@@@@@XX@@@@@@@@@@@@@@@@@@@@@@@@@@@@@@@@@@@@@@XX@@@@@@XX@@@@@@@@@@@@@@@@@@@@@@@@@@@@@@@@@@@@@@XX@@@@@@XX@@@@@@@@@@@@@@@@@@@@@@@@@@@@@@@@@@@@@ ..      .. @@@@@@@@@@@@@@@@@@@@@@@@@@@@@@@@@@@@ ... @@ ... @@@@@@@@@@@@@@@@@@",
"@@@@@@@@@@@@@@@@@@@@@@@@@@@@@@@@@@@@@@@@@@@@@@@@@@@@@@@@@@@@@@@@@@@@@@@@@@@@@@@@@@@@@@@@@@@@@@@@@@@@@@@@@@@@@@@@@@@@@@@@@@@@@@@@@@@@@@@@@@@@@@@@@@@@@@@@@@@@@@@@@@@@@@@@@@@@@@@@@@@@@@@@@@@@@@@@@@@@@@@@@@@@@@@@@@@  @@@@@@  @@@@@@@@@@@@@@@@@@@@@@@@@@@@@@@@@@@@@@..@@@@@@..@@@@@@@@@@@@@@@@@@@",
"@@@@@@@@@@@@@@@@@@@@@@@@@@@@@@@@@@@@@@@@@@@@@@@@@@@@@@@@@@@@@@@@@@@@@@@@@@@@@@@@@@@@@@@@@@@@@@@@@@@@@@@@@@@@@@@@@@@@@@@@@@@@@@@@@@@@@@@@@@@@@@@@@@@@@@@@@@@@@@@@@@@@@@@@@@@@@@@@@@@@@@@@@@@@@@@@@@@@@@@@@@@@@@@@@@@@@@@@@@@@@@@@@@@@@@@@@@@@@@@@@@@@@@@@@@@@@@@@@@@@@@@@@@@@@@@@@@@@@@@@@@@@@@@@",
"@@@@@@@@@@@@@@@@@@@@@@@@@@@@@@@@@@@@@@@@@@@@@@@@@@@@@@@@@@@@@@@@@@@@@@@@@@@@@@@@@@@@@@@@@@@@@@@@@@@@@@@@@@@@@@@@@@@@@@@@@@@@@@@@@@@@@@@@@@@@@@@@@@@@@@@@@@@@@@@@@@@@@@@@@@@@@@@@@@@@@@@@@@@@@@@@@@@@@@@@@@@@@@@@@@@@@@@@@@@@@@@@@@@@@@@@@@@@@@@@@@@@@@@@@@@@@@@@@@@@@@@@@@@@@@@@@@@@@@@@@@@@@@@@",
"@@@@@@@@@@@@@@@@@@@@@@@@@@@@@@@@@@@@@@@@@@@@@@@@@@@@@@@@@@@@@@@@@@@@@@@@@@@@@@@@@@@@@@@@@@@@@@@@@@@@@@@@@@@@@@@@@@@@@@@@@@@@@@@@@@@@@@@@@@@@@@@@@@@@@@@@@@@@@@@@@@@@@@@@@@@@@@@@@@@@@@@@@@@@@@@@@@@@@@@@@@@@@@@@@@@@@@@@@@@@@@@@@@@@@@@@@@@@@@@@@@@@@@@@@@@@@@@@@@@@@@@@@@@@@@@@@@@@@@@@@@@@@@@@",
"@@@@@@@@@@@@@@@@@@@@@@@@@@@@@@@@@@@@@@@@@@@@@@@@@@@@@@@@@@@@@@@@@@@@@@@@@@@@@@@@@@@@@@@@@@@@@@@@@@@@@@@@@@@@@@@@@@@@@@@@@@@@@@@@@@@@@@@@@@@@@@@@@@@@@@@@@@@@@@@@@@@@@@@@@@@@@@@@@@@@@@@@@@@@@@@@@@@@@@@@@@@@@@@@@@@@@@@@@@@@@@@@@@@@@@@@@@@@@@@@@@@@@@@@@@@@@@@@@@@@@@@@@@@@@@@@@@@@@@@@@@@@@@@@",
"@@@@@@@@@@@@@@@@@@@@@@@@@@@@@@@@@@@@@@@@@@@@@@@@@@@@@@@@@@@@@@@@@@@@@@@@@@@@@@@@@@@@@@@@@@@@@@@@@@@@@@@@@@@@@@@@@@@@@@@@@@@@@@@@@@@@@@@@@@@@@@@@@@@@@@@@@@@@@@@@@@@@@@@@@@@@@@@@@@@@@@@@@@@@@@@@@@@@@@@@@@@@@@@@@@@@@@@@@@@@@@@@@@@@@@@@@@@@@@@@@@@@@@@@@@@@@@@@@@@@@@@@@@@@@@@@@@@@@@@@@@@@@@@@",
"@@@@@@@@@@@@@@@@@@@@@@@@@@@@@@@@@@@@@@@@@@@@@@@@@@@@@@@@@@@@@@@@@@@@@@@@@@@@@@@@@@@@@@@@@@@@@@@@@@@@@@@@@@@@@@@@@@@@@@@@@@@@@@@@@@@@@@@@@@@@@@@@@@@@@@@@@@@@@@@@@@@@@@@@@@@@@@@@@@@@@@@@@@@@@@@@@@@@@@@@@@@@@@@@@@@@@@@@@@@@@@@@@@@@@@@@@@@@@@@@@@@@@@@@@@@@@@@@@@@@@@@@@@@@@@@@@@@@@@@@@@@@@@@@",
"@@@@@@@@@@@@@@@@@@@@@@@@@@@@@@@@@@@@@@@@@@@@@@@@@@@@@@@@@@@@@@@@@@@@@@@@@@@@@@@@@@@@@@@@@@@@@@@@@@@@@@@@@@@@@@@@@@@@@@@@@@@@@@@@@@@@@@@@@@@@@@@@@@@@@@@@@@@@@@@@@@@@@@@@@@@@@@@@@@@@@@@@@@@@@@@@@@@@@@@@@@@@@@@@@@@@@@@@@@@@@@@@@@@@@@@@@@@@@@@@@@@@@@@@@@@@@@@@@@@@@@@@@@@@@@@@@@@@@@@@@@@@@@@@",
"@@@@@@@@@@@@@@@@@@@@@@@@@@@@@@@@@@@@@@@@@@@@@@@@@@@@@@@@@@@@@@@@@@@@@@@@@@@@@@@@@@@@@@@@@@@@@@@@@@@@@@@@@@@@@@@@@@@@@@@@@@@@@@@@@@@@@@@@@@@@@@@@@@@@@@@@@@@@@@@@@@@@@@@@@@@@@@@@@@@@@@@@@@@@@@@@@@@@@@@@@@@@@@@@@@@@@@@@@@@@@@@@@@@@@@@@@@@@@@@@@@@@@@@@@@@@@@@@@@@@@@@@@@@@@@@@@@@@@@@@@@@@@@@@"
};
