/* XPM */
static char *D_Walk[] = {
/* columns rows colors chars-per-pixel */
"288 48 7 1 ",
"  c #0C0F2A",
". c #303843",
"X c #405273",
"o c #B55945",
"O c #6C81A1",
"+ c #FEE1B8",
"@ c None",
/* pixels */
"@@@@@@@@@@@@@@@@@@@@@@@@@@@@@@@@@@@@@@@@@@@@@@@@@@@@@@@@@@@@@@@@@@@@@@@@@@@@@@@@@@@@@@@@@@@@@@@@@@@@@@@@@@@@@@@@@@@@@@@@@@@@@@@@@@@@@@@@@@@@@@@@@@@@@@@@@@@@@@@@@@@@@@@@@@@@@@@@@@@@@@@@@@@@@@@@@@@@@@@@@@@@@@@@@@@@@@@@@@@@@@@@@@@@@@@@@@@@@@@@@@@@@@@@@@@@@@@@@@@@@@@@@@@@@@@@@@@@@@@@@@@@@@@@",
"@@@@@@@@@@@@@@@@@@@@@@@@@@@@@@@@@@@@@@@@@@@@@@@@@@@@@@@@@@@@@@@@@@@@@@@@@@@@@@@@@@@@@@@@@@@@@@@@@@@@@@@@@@@@@@@@@@@@@@@@@@@@@@@@@@@@@@@@@@@@@@@@@@@@@@@@@@@@@@@@@@@@@@@@@@@@@@@@@@@@@@@@@@@@@@@@@@@@@@@@@@@@@@@@@@@@@@@@@@@@@@@@@@@@@@@@@@@@@@@@@@@@@@@@@@@@@@@@@@@@@@@@@@@@@@@@@@@@@@@@@@@@@@@@",
"@@@@@@@@@@@@@@@@@@@@@@@@@@@@@@@@@@@@@@@@@@@@@@@@@@@@@@@@@@@@@@@@@@@@@@@@@@@@@@@@@@@@@@@@@@@@@@@@@@@@@@@@@@@@@@@@@@@@@@@@@@@@@@@@@@@@@@@@@@@@@@@@@@@@@@@@@@@@@@@@@@@@@@@@@@@@@@@@@@@@@@@@@@@@@@@@@@@@@@@@@@@@@@@@@@@@@@@@@@@@@@@@@@@@@@@@@@@@@@@@@@@@@@@@@@@@@@@@@@@@@@@@@@@@@@@@@@@@@@@@@@@@@@@@",
"@@@@@@@@@@@@@@@@@@@@@@@@@@@@@@@@@@@@@@@@@@@@@@@@@@@@@@@@@@@@@@@@@@@@@@@@@@@@@@@@@@@@@@@@@@@@@@@@@@@@@@@@@@@@@@@@@@@@@@@@@@@@@@@@@@@@@@@@@@@@@@@@@@@@@@@@@@@@@@@@@@@@@@@@@@@@@@@@@@@@@@@@@@@@@@@@@@@@@@@@@@@@@@@@@@@@@@@@@@@@@@@@@@@@@@@@@@@@@@@@@@@@@@@@@@@@@@@@@@@@@@@@@@@@@@@@@@@@@@@@@@@@@@@@",
"@@@@@@@@@@@@@@@@@@@@@@@@@@@@@@@@@@@@@@@@@@@@@@@@@@@@@@@@@@@@@@@@@@@@@@@@@@@@@@@@@@@@@@@@@@@@@@@@@@@@@@@@@@@@@@@@@@@@@@@@@@@@@@@@@@@@@@@@@@@@@@@@@@@@@@@@@@@@@@@@@@@@@@@@@@@@@@@@@@@@@@@@@@@@@@@@@@@@@@@@@@@@@@@@@@@@@@@@@@@@@@@@@@@@@@@@@@@@@@@@@@@@@@@@@@@@@@@@@@@@@@@@@@@@@@@@@@@@@@@@@@@@@@@@",
"@@@@@@@@@@@@@@@@@@@@@@@@@@@@@@@@@@@@@@@@@@@@@@@@@@@@@@@@@@@@@@@@@@@@@@@@@@@@@@@@@@@@@@@@@@@@@@@@@@@@@@@@@@@@@@@@@@@@@@@@@@@@@@@@@@@@@@@@@@@@@@@@@@@@@@@@@@@@@@@@@@@@@@@@@@@@@@@@@@@@@@@@@@@@@@@@@@@@@@@@@@@@@@@@@@@@@@@@@@@@@@@@@@@@@@@@@@@@@@@@@@@@@@@@@@@@@@@@@@@@@@@@@@@@@@@@@@@@@@@@@@@@@@@@",
"@@@@@@@@@@@@@@@@@@@@@@@@@@@@@@@@@@@@@@@@@@@@@@@@@@@@@@@@@@@@@@@@@@@@@@@@@@@@@@@@@@@@@@@@@@@@@@@@@@@@@@@@@@@@@@@@@@@@@@@@@@@@@@@@@@@@@@@@@@@@@@@@@@@@@@@@@@@@@@@@@@@@@@@@@@@@@@@@@@@@@@@@@@@@@@@@@@@@@@@@@@@@@@@@@@@@@@@@@@@@@@@@@@@@@@@@@@@@@@@@@@@@@@@@@@@@@@@@@@@@@@@@@@@@@@@@@@@@@@@@@@@@@@@@",
"@@@@@@@@@@@@@@@@@@@@@@@@@@@@@@@@@@@@@@@@@@@@@@@@@@@@@@@@@@@@@@@@@@@@@@@@@@@@@@@@@@@@@@@@@@@@@@@@@@@@@@@@@@@@@@@@@@@@@@@@@@@@@@@@@@@@@@@@@@@@@@@@@@@@@@@@@@@@@@@@@@@@@@@@@@@@@@@@@@@@@@@@@@@@@@@@@@@@@@@@@@@@@@@@@@@@@@@@@@@@@@@@@@@@@@@@@@@@@@@@@@@@@@@@@@@@@@@@@@@@@@@@@@@@@@@@@@@@@@@@@@@@@@@@",
"@@@@@@@@@@@@@@@@@@@@@@@@@@@@@@@@@@@@@@@@@@@@@@@@@@@@@@@@@@@@@@@@@@@@@@@@@@@@@@@@@@@@@@@@@@@@@@@@@@@@@@@@@@@@@@@@@@@@@@@@@@@@@@@@@@@@@@@@@@@@@@@@@@@@@@@@@@@@@@@@@@@@@@@@@@@@@@@@@@@@@@@@@@@@@@@@@@@@@@@@@@@@@@@@@@@@@@@@@@@@@@@@@@@@@@@@@@@@@@@@@@@@@@@@@@@@@@@@@@@@@@@@@@@@@@@@@@@@@@@@@@@@@@@@",
"@@@@@@@@@@@@@@@@@@@@@@@@@@@@@@@@@@@@@@@@@@@@@@@@@@@@@@@@@@@@@@@@@@@@@@@@@@@@@@@@@@@@@@@@@@@@@@@@@@@@@@@@@@@@@@@@@@@@@@@@@@@@@@@@@@@@@@@@@@@@@@@@@@@@@@@@@@@@@@@@@@@@@@@@@@@@@@@@@@@@@@@@@@@@@@@@@@@@@@@@@@@@@@@@@@@@@@@@@@@@@@@@@@@@@@@@@@@@@@@@@@@@@@@@@@@@@@@@@@@@@@@@@@@@@@@@@@@@@@@@@@@@@@@@",
"@@@@@@@@@@@@@@@@@@@@@@@@@@@@@@@@@@@@@@@@@@@@@@@@@@@@@@@@@@@@@@@@@@@@@@@@@@@@@@@@@@@@@@@@@@@@@@@@@@@@@@@@@@@@@@@@@@@@@@@@@@@@@@@@@@@@@@@@@@@@@@@@@@@@@@@@@@@@@@@@@@@@@@@@@@@@@@@@@@@@@@@@@@@@@@@@@@@@@@@@@@@@@@@@@@@@@@@@@@@@@@@@@@@@@@@@@@@@@@@@@@@@@@@@@@@@@@@@@@@@@@@@@@@@@@@@@@@@@@@@@@@@@@@@",
"@@@@@@@@@@@@@@@@@@@@@@@@@@@@@@@@@@@@@@@@@@@@@@@@@@@@@@@@@@@@@@@@@@@@@@@@@@@@@@@@@@@@@@@@@@@@@@@@@@@@@@@@@@@@@@@@@@@@@@@@@@@@@@@@@@@@@@@@@@@@@@@@@@@@@@@@@@@@@@@@@@@@@@@@@@@@@@@@@@@@@@@@@@@@@@@@@@@@@@@@@@@@@@@@@@@@@@@@@@@@@@@@@@@@@@@@@@@@@@@@@@@@@@@@@@@@@@@@@@@@@@@@@@@@@@@@@@@@@@@@@@@@@@@@",
"@@@@@@@@@@@@@@@@@@@@@@@@@@@@@@@@@@@@@@@@@@@@@@@@@@@@@@@@@@@@@@@@@@@@@@@@@@@@@@@@@@@@@@@@@@@@@@@@@@@@@@@@@@@@@@@@@@@@@@@@@@@@@@@@@@@@@@@@@@@@@@@@@@@@@@@@@@@@@@@@@@@@@@@@@@@@@@@@@@@@@@@@@@@@@@@@@@@@@@@@@@@@@@@@@@@@@@@@@@@@@@@@@@@@@@@@@@@@@@@@@@@@@@@@@@@@@@@@@@@@@@@@@@@@@@@@@@@@@@@@@@@@@@@@",
"@@@@@@@@@@@@@@@@@@@@@@@@@@@@@@@@@@@@@@@@@@@@@@@@@@@@@@@@@@@@@@@@@@@@@@@@@@@@@@@@@@@@@@@@@@@@@@@@@@@@@@@@@@@@@@@@@@@@@@@@@@@@@@@@@@@@@@@@@@@@@@@@@@@@@@@@@@@@@@@@@@@@@@@@@@@@@@@@@@@@@@@@@@@@@@@@@@@@@@@@@@@@@@@@@@@@@@@@@@@@@@@@@@@@@@@@@@@@@@@@@@@@@@@@@@@@@@@@@@@@@@@@@@@@@@@@@@@@@@@@@@@@@@@@",
"@@@@@@@@@@@@@@@@@@@@@@@   @@@@@@@@@@@@@@@@@@@@@@@@@@@@@@@@@@@@@@@@@@@@@@@@@@@@@@@@@@@@@@@@@@@@@@@@@@@@@@@@@@@@@@@@@@@@@@@@@@@@@@@@@@@@@@@@@@@@@@@@@@@@@@@@@@@@@@@@@@@@@@@@@@@@@@@@@@@@@@@@@@@@@@@@@@@@@@@@@@@@@@@@@@@@@@@@@@@@@@@@@@@@@@@@@@@@@@@@@@@@@@@@@@@@@@@@@@@@@@@@@@@@@@@@@@@@@@@@@@@@@@",
"@@@@@@@@@@@@@@@@@@@@@@ OOO @@@@@@@@@@@@@@@@@@@@@@@@@@@@@@@@@@@@@@@@@@     @@@@@@@@@@@@@@@@@@@@@@@@@@@@@@@@@@@@@@@@@@@@@   @@@@@@@@@@@@@@@@@@@@@@@@@@@@@@@@@@@@@@@@@@@@@   @@@@@@@@@@@@@@@@@@@@@@@@@@@@@@@@@@@@@@@@@@@@@   @@@@@@@@@@@@@@@@@@@@@@@@@@@@@@@@@@@@@@@@@@@@@   @@@@@@@@@@@@@@@@@@@@@@",
"@@@@@@@@@@@@@@@@@@@@@ OOOOO @@@@@@@@@@@@@@@@@@@@@@@@@@@@@@@@@@@@@@@@@ OOOO @@@@@@@@@@@@@@@@@@@@@@@@@@@@@@@@@@@@@@@@@@  OOO @@@@@@@@@@@@@@@@@@@@@@@@@@@@@@@@@@@@@@@@@@@ OOO @@@@@@@@@@@@@@@@@@@@@@@@@@@@@@@@@@@@@@@@@@@ OOO @@@@@@@@@@@@@@@@@@@@@@@@@@@@@@@@@@@@@@@@@@@ OOO @@@@@@@@@@@@@@@@@@@@@",
"@@@@@@@@@@@@@@@@@@@@@    OO @@@@@@@@@@@@@@@@@@@@@@@@@@@@@@@@@@@@@@@@@@ OOOO @@@@@@@@@@@@@@@@@@@@@@@@@@@@@@@@@@@@@@@@@ OOOOO @@@@@@@@@@@@@@@@@@@@@@@@@@@@@@@@@@@@@@@@@ OOOOO @@@@@@@@@@@@@@@@@@@@@@@@@@@@@@@@@@@@@@@@@ OOOOO @@@@@@@@@@@@@@@@@@@@@@@@@@@@@@@@@@@@@@@@@ OOOOO @@@@@@@@@@@@@@@@@@@@",
"@@@@@@@@@@@@@@@@@@@@@@@ OOO @@@@@@@@@@@@@@@@@@@@@@@@@@@@@@@@@@@@@@@@@@@  OO @@@@@@@@@@@@@@@@@@@@@@@@@@@@@@@@@@@@@@@@@@   OO @@@@@@@@@@@@@@@@@@@@@@@@@@@@@@@@@@@@@@@@@    OO @@@@@@@@@@@@@@@@@@@@@@@@@@@@@@@@@@@@@@@@@    OO @@@@@@@@@@@@@@@@@@@@@@@@@@@@@@@@@@@@@@@@@    OO @@@@@@@@@@@@@@@@@@@@",
"@@@@@@@@@@@@@@@@@@@@@@ OOOX @@@@@@@@@@@@@@@@@@@@@@@@@@@@@@@@@@@@@@@@@@@ OOO @@@@@@@@@@@@@@@@@@@@@@@@@@@@@@@@@@@@@@@@@@@ OOO @@@@@@@@@@@@@@@@@@@@@@@@@@@@@@@@@@@@@@@@@@@ OOO @@@@@@@@@@@@@@@@@@@@@@@@@@@@@@@@@@@@@@@@@@@ OOO @@@@@@@@@@@@@@@@@@@@@@@@@@@@@@@@@@@@@@@@@@@ OOO @@@@@@@@@@@@@@@@@@@@",
"@@@@@@@@@@@@@@@@@@@@@ OOOO @@@@@@@@@@@@@@@@@@@@@@@@@@@@@@@@@@@@@@@@@@@ OOOX @@@@@@@@@@@@@@@@@@@@@@@@@@@@@@@@@@@@@@@@@@ OOOX @@@@@@@@@@@@@@@@@@@@@@@@@@@@@@@@@@@@@@@@@@ OOOX @@@@@@@@@@@@@@@@@@@@@@@@@@@@@@@@@@@@@@@@@@ OOOX @@@@@@@@@@@@@@@@@@@@@@@@@@@@@@@@@@@@@@@@@@ OOOX @@@@@@@@@@@@@@@@@@@@",
"@@@@@@@@@@@@@@@@@@@@ OOOOOO @@@@@@@@@@@@@@@@@@@@@@@@@@@@@@@@@@@@@@@@@ OOOO @@@@@@@@@@@@@@@@@@@@@@@@@@@@@@@@@@@@@@@@@@ OOOO @@@@@@@@@@@@@@@@@@@@@@@@@@@@@@@@@@@@@@@@@@ OOOO @@@@@@@@@@@@@@@@@@@@@@@@@@@@@@@@@@@@@@@@@@ OOOO @@@@@@@@@@@@@@@@@@@@@@@@@@@@@@@@@@@@@@@@@@ OOOO @@@@@@@@@@@@@@@@@@@@@",
"@@@@@@@@@@@@@@@@@@@ XOOOOOOX @@@@@@@@@@@@@@@@@@@@@@@@@@@@@@@@@@@@@@@ OOOOOO @@@@@@@@@@@@@@@@@@@@@@@@@@@@@@@@@@@@@@@@ OOOOOO @@@@@@@@@@@@@@@@@@@@@@@@@@@@@@@@@@@@@@@  OOOOOO  @@@@@@@@@@@@@@@@@@@@@@@@@@@@@@@@@@@@@@@ OOOOOO @@@@@@@@@@@@@@@@@@@@@@@@@@@@@@@@@@@@@@@@ OOOOOO @@@@@@@@@@@@@@@@@@@@",
"@@@@@@@@@@@@@@@@@@@ XOOOOOOX @@@@@@@@@@@@@@@@@@@@@@@@@@@@@@@@@@@@@@ XOOOOOOX @@@@@@@@@@@@@@@@@@@@@@@@@@@@@@@@@@@@@@ XOOOOOOX @@@@@@@@@@@@@@@@@@@@@@@@@@@@@@@@@@@@@ X.OOOOOO.X @@@@@@@@@@@@@@@@@@@@@@@@@@@@@@@@@@@@@ XOOOOOOX @@@@@@@@@@@@@@@@@@@@@@@@@@@@@@@@@@@@@@ XOOOOOOX @@@@@@@@@@@@@@@@@@@",
"@@@@@@@@@@@@@@@@@@ XXOOOOOOXX @@@@@@@@@@@@@@@@@@@@@@@@@@@@@@@@@@@@@ XOOOOOOX @@@@@@@@@@@@@@@@@@@@@@@@@@@@@@@@@@@@@ X.OOOOOO.X @@@@@@@@@@@@@@@@@@@@@@@@@@@@@@@@@@@@ XO.OOOO.OX @@@@@@@@@@@@@@@@@@@@@@@@@@@@@@@@@@@@ X.OOOOOO.X @@@@@@@@@@@@@@@@@@@@@@@@@@@@@@@@@@@@@ XOOOOOOX @@@@@@@@@@@@@@@@@@@",
"@@@@@@@@@@@@@@@@@@ X.OOOOOO.X @@@@@@@@@@@@@@@@@@@@@@@@@@@@@@@@@@@@ X.OOOOOO.X @@@@@@@@@@@@@@@@@@@@@@@@@@@@@@@@@@@@ XO.OOOO.OX @@@@@@@@@@@@@@@@@@@@@@@@@@@@@@@@@@@@ XOO....OOX @@@@@@@@@@@@@@@@@@@@@@@@@@@@@@@@@@@@ XO.OOOO.OX @@@@@@@@@@@@@@@@@@@@@@@@@@@@@@@@@@@@ X.OOOOOO.X @@@@@@@@@@@@@@@@@@",
"@@@@@@@@@@@@@@@@@@ XO.OOOO.OX @@@@@@@@@@@@@@@@@@@@@@@@@@@@@@@@@@@@ XO.OOOO.OX @@@@@@@@@@@@@@@@@@@@@@@@@@@@@@@@@@@@ XOO....OOX @@@@@@@@@@@@@@@@@@@@@@@@@@@@@@@@@@@@ XOXOOOOXOX @@@@@@@@@@@@@@@@@@@@@@@@@@@@@@@@@@@@ XOO....OOX @@@@@@@@@@@@@@@@@@@@@@@@@@@@@@@@@@@@ XO.OOOO.OX @@@@@@@@@@@@@@@@@@",
"@@@@@@@@@@@@@@@@@@ XOO....OOX @@@@@@@@@@@@@@@@@@@@@@@@@@@@@@@@@@@ .XOO....OOX. @@@@@@@@@@@@@@@@@@@@@@@@@@@@@@@@@@@ XOXOOOOXOX @@@@@@@@@@@@@@@@@@@@@@@@@@@@@@@@@@@@ XXOOOOOOXX @@@@@@@@@@@@@@@@@@@@@@@@@@@@@@@@@@@@ XOXOOOOXOX @@@@@@@@@@@@@@@@@@@@@@@@@@@@@@@@@@@ .XOO....OOX. @@@@@@@@@@@@@@@@@",
"@@@@@@@@@@@@@@@@@ .XOXOOOOXOX. @@@@@@@@@@@@@@@@@@@@@@@@@@@@@@@@@@ .XOXOOOOXOX. @@@@@@@@@@@@@@@@@@@@@@@@@@@@@@@@@@@ XXOOOOOOXX @@@@@@@@@@@@@@@@@@@@@@@@@@@@@@@@@@@@ XXOOOOOOXX @@@@@@@@@@@@@@@@@@@@@@@@@@@@@@@@@@@@ XXOOOOOOXX @@@@@@@@@@@@@@@@@@@@@@@@@@@@@@@@@@@ .XOXOOOOXOX. @@@@@@@@@@@@@@@@@",
"@@@@@@@@@@@@@@@@@ .XXOOOOOOXX. @@@@@@@@@@@@@@@@@@@@@@@@@@@@@@@@@@ .XXOOOOOOXX. @@@@@@@@@@@@@@@@@@@@@@@@@@@@@@@@@@@ XXOOOOOOXX @@@@@@@@@@@@@@@@@@@@@@@@@@@@@@@@@@@@ XXOOOOOOXX @@@@@@@@@@@@@@@@@@@@@@@@@@@@@@@@@@@@ XXOOOOOOXX @@@@@@@@@@@@@@@@@@@@@@@@@@@@@@@@@@@ .XXOOOOOOXX. @@@@@@@@@@@@@@@@@",
"@@@@@@@@@@@@@@@@@ .XXOOOOOOXX. @@@@@@@@@@@@@@@@@@@@@@@@@@@@@@@@@@@ XXOOOOOOXX @@@@@@@@@@@@@@@@@@@@@@@@@@@@@@@@@@@@ XXOOOOOOXX @@@@@@@@@@@@@@@@@@@@@@@@@@@@@@@@@@@@ XXXO..OXXX @@@@@@@@@@@@@@@@@@@@@@@@@@@@@@@@@@@@ XXOOOOOOXX @@@@@@@@@@@@@@@@@@@@@@@@@@@@@@@@@@@  XXOOOOOOXX  @@@@@@@@@@@@@@@@@",
"@@@@@@@@@@@@@@@@@ .XXOOOOOOXX. @@@@@@@@@@@@@@@@@@@@@@@@@@@@@@@@@@@ XXOOOOOOXX @@@@@@@@@@@@@@@@@@@@@@@@@@@@@@@@@@@@ ..XO..OX.. @@@@@@@@@@@@@@@@@@@@@@@@@@@@@@@@@@@@ OOO+OO+OOO @@@@@@@@@@@@@@@@@@@@@@@@@@@@@@@@@@@@ XXXO..OXXX @@@@@@@@@@@@@@@@@@@@@@@@@@@@@@@@@@@@ XXOOOOOOXX @@@@@@@@@@@@@@@@@@",
"@@@@@@@@@@@@@@@@@@ XXXO..OXXX @@@@@@@@@@@@@@@@@@@@@@@@@@@@@@@@@@@@ XXXO..OXXX @@@@@@@@@@@@@@@@@@@@@@@@@@@@@@@@@@@@ ...+OO+... @@@@@@@@@@@@@@@@@@@@@@@@@@@@@@@@@@@@ OOO+oo+OOO @@@@@@@@@@@@@@@@@@@@@@@@@@@@@@@@@@@@ XXX+OO+XXX @@@@@@@@@@@@@@@@@@@@@@@@@@@@@@@@@@@@ XXXO..OXXX @@@@@@@@@@@@@@@@@@",
"@@@@@@@@@@@@@@@@@@ XXX+OO+XXX @@@@@@@@@@@@@@@@@@@@@@@@@@@@@@@@@@@@ .XX+OO+XX. @@@@@@@@@@@@@@@@@@@@@@@@@@@@@@@@@@@@@ ..+oo+.. @@@@@@@@@@@@@@@@@@@@@@@@@@@@@@@@@@@@@@ XXX  XXX @@@@@@@@@@@@@@@@@@@@@@@@@@@@@@@@@@@@@ OOX+oo+XOO @@@@@@@@@@@@@@@@@@@@@@@@@@@@@@@@@@@@ XXX+OO+XXX @@@@@@@@@@@@@@@@@@",
"@@@@@@@@@@@@@@@@@@ XXX+oo+XXX @@@@@@@@@@@@@@@@@@@@@@@@@@@@@@@@@@@@ ...+oo+... @@@@@@@@@@@@@@@@@@@@@@@@@@@@@@@@@@@@@ ...  ... @@@@@@@@@@@@@@@@@@@@@@@@@@@@@@@@@@@@@@@   @@   @@@@@@@@@@@@@@@@@@@@@@@@@@@@@@@@@@@@@@ OOO    OOO @@@@@@@@@@@@@@@@@@@@@@@@@@@@@@@@@@@ XXXX+oo+XXXX @@@@@@@@@@@@@@@@@",
"@@@@@@@@@@@@@@@@@@ XXX    XXX @@@@@@@@@@@@@@@@@@@@@@@@@@@@@@@@@@@@ ...    ... @@@@@@@@@@@@@@@@@@@@@@@@@@@@@@@@@@@@@ .. @@ .. @@@@@@@@@@@@@@@@@@@@@@@@@@@@@@@@@@@@@@@@@@@@@@@@@@@@@@@@@@@@@@@@@@@@@@@@@@@@@@@@@@@@@ OOO @@ OOO @@@@@@@@@@@@@@@@@@@@@@@@@@@@@@@@@@@ XXX      XXX @@@@@@@@@@@@@@@@@",
"@@@@@@@@@@@@@@@@@@ ... @@ ... @@@@@@@@@@@@@@@@@@@@@@@@@@@@@@@@@@@@ ... @@ ... @@@@@@@@@@@@@@@@@@@@@@@@@@@@@@@@@@@@@@  @@@@  @@@@@@@@@@@@@@@@@@@@@@@@@@@@@@@@@@@@@@@@@@@@@@@@@@@@@@@@@@@@@@@@@@@@@@@@@@@@@@@@@@@@@@ OOO @@ OOO @@@@@@@@@@@@@@@@@@@@@@@@@@@@@@@@@@@ XXX @@@@ XXX @@@@@@@@@@@@@@@@@",
"@@@@@@@@@@@@@@@@@@ ... @@ ... @@@@@@@@@@@@@@@@@@@@@@@@@@@@@@@@@@@@@..@@@@@@..@@@@@@@@@@@@@@@@@@@@@@@@@@@@@@@@@@@@@@@@@@@@@@@@@@@@@@@@@@@@@@@@@@@@@@@@@@@@@@@@@@@@@@@@@@@@@@@@@@@@@@@@@@@@@@@@@@@@@@@@@@@@@@@@@@@@@@OO@@@@@@OO@@@@@@@@@@@@@@@@@@@@@@@@@@@@@@@@@@@@ XXX @@@@ XXX @@@@@@@@@@@@@@@@@",
"@@@@@@@@@@@@@@@@@@@..@@@@@@..@@@@@@@@@@@@@@@@@@@@@@@@@@@@@@@@@@@@@@@@@@@@@@@@@@@@@@@@@@@@@@@@@@@@@@@@@@@@@@@@@@@@@@@@@@@@@@@@@@@@@@@@@@@@@@@@@@@@@@@@@@@@@@@@@@@@@@@@@@@@@@@@@@@@@@@@@@@@@@@@@@@@@@@@@@@@@@@@@@@@@@@@@@@@@@@@@@@@@@@@@@@@@@@@@@@@@@@@@@@@@@@@@@@@@XX@@@@@@@@XX@@@@@@@@@@@@@@@@@@",
"@@@@@@@@@@@@@@@@@@@@@@@@@@@@@@@@@@@@@@@@@@@@@@@@@@@@@@@@@@@@@@@@@@@@@@@@@@@@@@@@@@@@@@@@@@@@@@@@@@@@@@@@@@@@@@@@@@@@@@@@@@@@@@@@@@@@@@@@@@@@@@@@@@@@@@@@@@@@@@@@@@@@@@@@@@@@@@@@@@@@@@@@@@@@@@@@@@@@@@@@@@@@@@@@@@@@@@@@@@@@@@@@@@@@@@@@@@@@@@@@@@@@@@@@@@@@@@@@@@@@@@@@@@@@@@@@@@@@@@@@@@@@@@@@",
"@@@@@@@@@@@@@@@@@@@@@@@@@@@@@@@@@@@@@@@@@@@@@@@@@@@@@@@@@@@@@@@@@@@@@@@@@@@@@@@@@@@@@@@@@@@@@@@@@@@@@@@@@@@@@@@@@@@@@@@@@@@@@@@@@@@@@@@@@@@@@@@@@@@@@@@@@@@@@@@@@@@@@@@@@@@@@@@@@@@@@@@@@@@@@@@@@@@@@@@@@@@@@@@@@@@@@@@@@@@@@@@@@@@@@@@@@@@@@@@@@@@@@@@@@@@@@@@@@@@@@@@@@@@@@@@@@@@@@@@@@@@@@@@@",
"@@@@@@@@@@@@@@@@@@@@@@@@@@@@@@@@@@@@@@@@@@@@@@@@@@@@@@@@@@@@@@@@@@@@@@@@@@@@@@@@@@@@@@@@@@@@@@@@@@@@@@@@@@@@@@@@@@@@@@@@@@@@@@@@@@@@@@@@@@@@@@@@@@@@@@@@@@@@@@@@@@@@@@@@@@@@@@@@@@@@@@@@@@@@@@@@@@@@@@@@@@@@@@@@@@@@@@@@@@@@@@@@@@@@@@@@@@@@@@@@@@@@@@@@@@@@@@@@@@@@@@@@@@@@@@@@@@@@@@@@@@@@@@@@",
"@@@@@@@@@@@@@@@@@@@@@@@@@@@@@@@@@@@@@@@@@@@@@@@@@@@@@@@@@@@@@@@@@@@@@@@@@@@@@@@@@@@@@@@@@@@@@@@@@@@@@@@@@@@@@@@@@@@@@@@@@@@@@@@@@@@@@@@@@@@@@@@@@@@@@@@@@@@@@@@@@@@@@@@@@@@@@@@@@@@@@@@@@@@@@@@@@@@@@@@@@@@@@@@@@@@@@@@@@@@@@@@@@@@@@@@@@@@@@@@@@@@@@@@@@@@@@@@@@@@@@@@@@@@@@@@@@@@@@@@@@@@@@@@@",
"@@@@@@@@@@@@@@@@@@@@@@@@@@@@@@@@@@@@@@@@@@@@@@@@@@@@@@@@@@@@@@@@@@@@@@@@@@@@@@@@@@@@@@@@@@@@@@@@@@@@@@@@@@@@@@@@@@@@@@@@@@@@@@@@@@@@@@@@@@@@@@@@@@@@@@@@@@@@@@@@@@@@@@@@@@@@@@@@@@@@@@@@@@@@@@@@@@@@@@@@@@@@@@@@@@@@@@@@@@@@@@@@@@@@@@@@@@@@@@@@@@@@@@@@@@@@@@@@@@@@@@@@@@@@@@@@@@@@@@@@@@@@@@@@",
"@@@@@@@@@@@@@@@@@@@@@@@@@@@@@@@@@@@@@@@@@@@@@@@@@@@@@@@@@@@@@@@@@@@@@@@@@@@@@@@@@@@@@@@@@@@@@@@@@@@@@@@@@@@@@@@@@@@@@@@@@@@@@@@@@@@@@@@@@@@@@@@@@@@@@@@@@@@@@@@@@@@@@@@@@@@@@@@@@@@@@@@@@@@@@@@@@@@@@@@@@@@@@@@@@@@@@@@@@@@@@@@@@@@@@@@@@@@@@@@@@@@@@@@@@@@@@@@@@@@@@@@@@@@@@@@@@@@@@@@@@@@@@@@@",
"@@@@@@@@@@@@@@@@@@@@@@@@@@@@@@@@@@@@@@@@@@@@@@@@@@@@@@@@@@@@@@@@@@@@@@@@@@@@@@@@@@@@@@@@@@@@@@@@@@@@@@@@@@@@@@@@@@@@@@@@@@@@@@@@@@@@@@@@@@@@@@@@@@@@@@@@@@@@@@@@@@@@@@@@@@@@@@@@@@@@@@@@@@@@@@@@@@@@@@@@@@@@@@@@@@@@@@@@@@@@@@@@@@@@@@@@@@@@@@@@@@@@@@@@@@@@@@@@@@@@@@@@@@@@@@@@@@@@@@@@@@@@@@@@",
"@@@@@@@@@@@@@@@@@@@@@@@@@@@@@@@@@@@@@@@@@@@@@@@@@@@@@@@@@@@@@@@@@@@@@@@@@@@@@@@@@@@@@@@@@@@@@@@@@@@@@@@@@@@@@@@@@@@@@@@@@@@@@@@@@@@@@@@@@@@@@@@@@@@@@@@@@@@@@@@@@@@@@@@@@@@@@@@@@@@@@@@@@@@@@@@@@@@@@@@@@@@@@@@@@@@@@@@@@@@@@@@@@@@@@@@@@@@@@@@@@@@@@@@@@@@@@@@@@@@@@@@@@@@@@@@@@@@@@@@@@@@@@@@@",
"@@@@@@@@@@@@@@@@@@@@@@@@@@@@@@@@@@@@@@@@@@@@@@@@@@@@@@@@@@@@@@@@@@@@@@@@@@@@@@@@@@@@@@@@@@@@@@@@@@@@@@@@@@@@@@@@@@@@@@@@@@@@@@@@@@@@@@@@@@@@@@@@@@@@@@@@@@@@@@@@@@@@@@@@@@@@@@@@@@@@@@@@@@@@@@@@@@@@@@@@@@@@@@@@@@@@@@@@@@@@@@@@@@@@@@@@@@@@@@@@@@@@@@@@@@@@@@@@@@@@@@@@@@@@@@@@@@@@@@@@@@@@@@@@"
};
