/* XPM */
static char *S_Walk[] = {
/* columns rows colors chars-per-pixel */
"288 48 7 1 ",
"  c #0C0F2A",
". c #303843",
"X c #405273",
"o c #B55945",
"O c #6C81A1",
"+ c #FEE1B8",
"@ c None",
/* pixels */
"@@@@@@@@@@@@@@@@@@@@@@@@@@@@@@@@@@@@@@@@@@@@@@@@@@@@@@@@@@@@@@@@@@@@@@@@@@@@@@@@@@@@@@@@@@@@@@@@@@@@@@@@@@@@@@@@@@@@@@@@@@@@@@@@@@@@@@@@@@@@@@@@@@@@@@@@@@@@@@@@@@@@@@@@@@@@@@@@@@@@@@@@@@@@@@@@@@@@@@@@@@@@@@@@@@@@@@@@@@@@@@@@@@@@@@@@@@@@@@@@@@@@@@@@@@@@@@@@@@@@@@@@@@@@@@@@@@@@@@@@@@@@@@@@",
"@@@@@@@@@@@@@@@@@@@@@@@@@@@@@@@@@@@@@@@@@@@@@@@@@@@@@@@@@@@@@@@@@@@@@@@@@@@@@@@@@@@@@@@@@@@@@@@@@@@@@@@@@@@@@@@@@@@@@@@@@@@@@@@@@@@@@@@@@@@@@@@@@@@@@@@@@@@@@@@@@@@@@@@@@@@@@@@@@@@@@@@@@@@@@@@@@@@@@@@@@@@@@@@@@@@@@@@@@@@@@@@@@@@@@@@@@@@@@@@@@@@@@@@@@@@@@@@@@@@@@@@@@@@@@@@@@@@@@@@@@@@@@@@@",
"@@@@@@@@@@@@@@@@@@@@@@@@@@@@@@@@@@@@@@@@@@@@@@@@@@@@@@@@@@@@@@@@@@@@@@@@@@@@@@@@@@@@@@@@@@@@@@@@@@@@@@@@@@@@@@@@@@@@@@@@@@@@@@@@@@@@@@@@@@@@@@@@@@@@@@@@@@@@@@@@@@@@@@@@@@@@@@@@@@@@@@@@@@@@@@@@@@@@@@@@@@@@@@@@@@@@@@@@@@@@@@@@@@@@@@@@@@@@@@@@@@@@@@@@@@@@@@@@@@@@@@@@@@@@@@@@@@@@@@@@@@@@@@@@",
"@@@@@@@@@@@@@@@@@@@@@@@@@@@@@@@@@@@@@@@@@@@@@@@@@@@@@@@@@@@@@@@@@@@@@@@@@@@@@@@@@@@@@@@@@@@@@@@@@@@@@@@@@@@@@@@@@@@@@@@@@@@@@@@@@@@@@@@@@@@@@@@@@@@@@@@@@@@@@@@@@@@@@@@@@@@@@@@@@@@@@@@@@@@@@@@@@@@@@@@@@@@@@@@@@@@@@@@@@@@@@@@@@@@@@@@@@@@@@@@@@@@@@@@@@@@@@@@@@@@@@@@@@@@@@@@@@@@@@@@@@@@@@@@@",
"@@@@@@@@@@@@@@@@@@@@@@@@@@@@@@@@@@@@@@@@@@@@@@@@@@@@@@@@@@@@@@@@@@@@@@@@@@@@@@@@@@@@@@@@@@@@@@@@@@@@@@@@@@@@@@@@@@@@@@@@@@@@@@@@@@@@@@@@@@@@@@@@@@@@@@@@@@@@@@@@@@@@@@@@@@@@@@@@@@@@@@@@@@@@@@@@@@@@@@@@@@@@@@@@@@@@@@@@@@@@@@@@@@@@@@@@@@@@@@@@@@@@@@@@@@@@@@@@@@@@@@@@@@@@@@@@@@@@@@@@@@@@@@@@",
"@@@@@@@@@@@@@@@@@@@@@@@@@@@@@@@@@@@@@@@@@@@@@@@@@@@@@@@@@@@@@@@@@@@@@@@@@@@@@@@@@@@@@@@@@@@@@@@@@@@@@@@@@@@@@@@@@@@@@@@@@@@@@@@@@@@@@@@@@@@@@@@@@@@@@@@@@@@@@@@@@@@@@@@@@@@@@@@@@@@@@@@@@@@@@@@@@@@@@@@@@@@@@@@@@@@@@@@@@@@@@@@@@@@@@@@@@@@@@@@@@@@@@@@@@@@@@@@@@@@@@@@@@@@@@@@@@@@@@@@@@@@@@@@@",
"@@@@@@@@@@@@@@@@@@@@@@@@@@@@@@@@@@@@@@@@@@@@@@@@@@@@@@@@@@@@@@@@@@@@@@@@@@@@@@@@@@@@@@@@@@@@@@@@@@@@@@@@@@@@@@@@@@@@@@@@@@@@@@@@@@@@@@@@@@@@@@@@@@@@@@@@@@@@@@@@@@@@@@@@@@@@@@@@@@@@@@@@@@@@@@@@@@@@@@@@@@@@@@@@@@@@@@@@@@@@@@@@@@@@@@@@@@@@@@@@@@@@@@@@@@@@@@@@@@@@@@@@@@@@@@@@@@@@@@@@@@@@@@@@",
"@@@@@@@@@@@@@@@@@@@@@@@@@@@@@@@@@@@@@@@@@@@@@@@@@@@@@@@@@@@@@@@@@@@@@@@@@@@@@@@@@@@@@@@@@@@@@@@@@@@@@@@@@@@@@@@@@@@@@@@@@@@@@@@@@@@@@@@@@@@@@@@@@@@@@@@@@@@@@@@@@@@@@@@@@@@@@@@@@@@@@@@@@@@@@@@@@@@@@@@@@@@@@@@@@@@@@@@@@@@@@@@@@@@@@@@@@@@@@@@@@@@@@@@@@@@@@@@@@@@@@@@@@@@@@@@@@@@@@@@@@@@@@@@@",
"@@@@@@@@@@@@@@@@@@@@@@@@@@@@@@@@@@@@@@@@@@@@@@@@@@@@@@@@@@@@@@@@@@@@@@@@@@@@@@@@@@@@@@@@@@@@@@@@@@@@@@@@@@@@@@@@@@@@@@@@@@@@@@@@@@@@@@@@@@@@@@@@@@@@@@@@@@@@@@@@@@@@@@@@@@@@@@@@@@@@@@@@@@@@@@@@@@@@@@@@@@@@@@@@@@@@@@@@@@@@@@@@@@@@@@@@@@@@@@@@@@@@@@@@@@@@@@@@@@@@@@@@@@@@@@@@@@@@@@@@@@@@@@@@",
"@@@@@@@@@@@@@@@@@@@@@@@@@@@@@@@@@@@@@@@@@@@@@@@@@@@@@@@@@@@@@@@@@@@@@@@@@@@@@@@@@@@@@@@@@@@@@@@@@@@@@@@@@@@@@@@@@@@@@@@@@@@@@@@@@@@@@@@@@@@@@@@@@@@@@@@@@@@@@@@@@@@@@@@@@@@@@@@@@@@@@@@@@@@@@@@@@@@@@@@@@@@@@@@@@@@@@@@@@@@@@@@@@@@@@@@@@@@@@@@@@@@@@@@@@@@@@@@@@@@@@@@@@@@@@@@@@@@@@@@@@@@@@@@@",
"@@@@@@@@@@@@@@@@@@@@@@@@@@@@@@@@@@@@@@@@@@@@@@@@@@@@@@@@@@@@@@@@@@@@@@@@@@@@@@@@@@@@@@@@@@@@@@@@@@@@@@@@@@@@@@@@@@@@@@@@@@@@@@@@@@@@@@@@@@@@@@@@@@@@@@@@@@@@@@@@@@@@@@@@@@@@@@@@@@@@@@@@@@@@@@@@@@@@@@@@@@@@@@@@@@@@@@@@@@@@@@@@@@@@@@@@@@@@@@@@@@@@@@@@@@@@@@@@@@@@@@@@@@@@@@@@@@@@@@@@@@@@@@@@",
"@@@@@@@@@@@@@@@@@@@@@@@@@@@@@@@@@@@@@@@@@@@@@@@@@@@@@@@@@@@@@@@@@@@@@@@@@@@@@@@@@@@@@@@@@@@@@@@@@@@@@@@@@@@@@@@@@@@@@@@@@@@@@@@@@@@@@@@@@@@@@@@@@@@@@@@@@@@@@@@@@@@@@@@@@@@@@@@@@@@@@@@@@@@@@@@@@@@@@@@@@@@@@@@@@@@@@@@@@@@@@@@@@@@@@@@@@@@@@@@@@@@@@@@@@@@@@@@@@@@@@@@@@@@@@@@@@@@@@@@@@@@@@@@@",
"@@@@@@@@@@@@@@@@@@@@@@@@@@@@@@@@@@@@@@@@@@@@@@@@@@@@@@@@@@@@@@@@@@@@@@@@@@@@@@@@@@@@@@@@@@@@@@@@@@@@@@@@@@@@@@@@@@@@@@@@@@@@@@@@@@@@@@@@@@@@@@@@@@@@@@@@@@@@@@@@@@@@@@@@@@@@@@@@@@@@@@@@@@@@@@@@@@@@@@@@@@@@@@@@@@@@@@@@@@@@@@@@@@@@@@@@@@@@@@@@@@@@@@@@@@@@@@@@@@@@@@@@@@@@@@@@@@@@@@@@@@@@@@@@",
"@@@@@@@@@@@@@@@@@@@@@@@@@@@@@@@@@@@@@@@@@@@@@@@@@@@@@@@@@@@@@@@@@@@@@@@@@@@@@@@@@@@@@@@@@@@@@@@@@@@@@@@@@@@@@@@@@@@@@@@@@@@@@@@@@@@@@@@@@@@@@@@@@@@@@@@@@@@@@@@@@@@@@@@@@@@@@@@@@@@@@@@@@@@@@@@@@@@@@@@@@@@@@@@@@@@@@@@@@@@@@@@@@@@@@@@@@@@@@@@@@@@@@@@@@@@@@@@@@@@@@@@@@@@@@@@@@@@@@@@@@@@@@@@@",
"@@@@@@@@@@@@@@@@@@@@@@@@@@@@@@@@@@@@@@@@@@@@@@@@@@@@@@@@@@@@@@@@@@@@@@@@@@@@@@@@@@@@@@@@@@@@@@@@@@@@@@@@@@@@@@@@@@@@@@@@@@@@@@@@@@@@@@@@@@@@@@@@@@@@@@@@@@@@@@@@@@@@@@@@@@@@@@@@@@@@@@@@@@@@@@@@@@@@@@@@@@@@@@@@@@@@@@@@@@@@@@@@@@@@@@@@@@@@@@@@@@@@@@@@@@@@@@@@@@@@@@@@@@@@@@@@@@@@@@@@@@@@@@@@",
"@@@@@@@@@@@@@@@@@@@@@@@@@@@@@@@@@@@@@@@@@@@@@@@@@@@@@@@@@@@@@@@@@@@@@@@@@@@@@@@@@@@@@@@@@@@@@@@@@@@@@@@@@@@@@@@@@@@@@@@@@@@@@@@@@@@@@@@@@@@@@@@@@@@@@@@@@@@@@@@@@@@@@@@@@@@@@@@@@@@@@@@@@@@@@@@@@@@@@@@@@@@@@@@@@@@@@@@@@@@@@@@@@@@@@@@@@@@@@@@@@@@@@@@@@@@@@@@@@@@@@@@@@@@@@@@@@@@@@@@@@@@@@@@@",
"@@@@@@@@@@@@@@@@@@@@@@@@@@@@@@@@@@@@@@@@@@@@@@@@@@@@@@@@@@@@@@@@@@@@@@@@@@@@@@@@@@@@@@@@@@@@@@@@@@@@@@@@@@@@@@@@@@@@@@@@@@@@@@@@@@@@@@@@@@@@@@@@@@@@@@@@@@@@@@@@@@@@@@@@@@@@@@@@@@@@@@@@@@@@@@@@@@@@@@@@@@@@@@@@@@@@@@@@@@@@@@@@@@@@@@@@@@@@@@@@@@@@@@@@@@@@@@@@@@@@@@@@@@@@@@@@@@@@@@@@@@@@@@@@",
"@@@@@@@@@@@@@@@@@@@@@@@@@@@@@@   @@@@@@@@@@@@@@@@@@@@@@@@@@@@@@@@@@@@@@@@@@@@@@@@@@@@@@@@@@@@@@@@@@@@@@@@@@@@@@@@@@@@@@@@@@@@@@@@@@@@@@@@@@@@@@@@@@@@@@@@@@@@@@@@@@@@@@@@@@@@@@@@@@@@@@@@@@@@@@@@@@@@@@@@@@@@@@@@@@@@@@@@@@@@@@@@@@@@@@@@@@@@@@@@@@@@@@@@@@@@@@@@@@@@@@@@@@@@@@@@@@@@@@@@@@@@@@@",
"@@@@@@@@@@@@@@@@@@@@@@@@@@@@@ OOO @@@@@@@@@@@@@@@@@@@@@@@@@@@@@@@@@@@@@@@@@@     @@@@@@@@@@@@@@@@@@@@@@@@@@@@@@@@@@@@@@@@@@@@@   @@@@@@@@@@@@@@@@@@@@@@@@@@@@@@@@@@@@@@@@@@@@@   @@@@@@@@@@@@@@@@@@@@@@@@@@@@@@@@@@@@@@@@@@@@@   @@@@@@@@@@@@@@@@@@@@@@@@@@@@@@@@@@@@@@@@@@@@@   @@@@@@@@@@@@@@@",
"@@@@@@@@@@@@@@@@@@@@@@@@@@@@ OOOOO @@@@@@@@@@@@@@@@@@@@@@@@@@@@@@@@@@@@@@@@@ OOOO @@@@@@@@@@@@@@@@@@@@@@@@@@@@@@@@@@@@@@@@@@  OOO @@@@@@@@@@@@@@@@@@@@@@@@@@@@@@@@@@@@@@@@@@@ OOO @@@@@@@@@@@@@@@@@@@@@@@@@@@@@@@@@@@@@@@@@@@ OOO @@@@@@@@@@@@@@@@@@@@@@@@@@@@@@@@@@@@@@@@@@@ OOO @@@@@@@@@@@@@@",
"@@@@@@@@@@@@@@@@@@@@@@@@@@@@    OO @@@@@@@@@@@@@@@@@@@@@@@@@@@@@@@@@@@@@@@@@@ OOOO @@@@@@@@@@@@@@@@@@@@@@@@@@@@@@@@@@@@@@@@@ OOOOO @@@@@@@@@@@@@@@@@@@@@@@@@@@  @@@@   @@@@@ OOOOO @@@@@@@@@@@@@@@@@@@@@@@@@@@@@@@@@@@@@@@@@ OOOOO @@@@@@@@@@@@@@@@@@@@@@@@@@@@@@@@@@@@@@@@@ OOOOO @@@@@@@@@@@@@",
"@@@@@@@@@@@@@@@@@@@@@@@@@@@@@@ XOO @@@@@@@@@@@@@@@@@@@@@@@@@@@@@@@@@@@@@@@@@@@  OO @@@@@@@@@@@@@@@@@@@@@@@@@@@  @@@@   @@@@@@   OO @@@@@@@@@@@@@@@@@@@@@@@@@@@ X @@ OO @@@@@    OO @@@@@@@@@@@@@@@@@@@@@@@@@@@  @@@@   @@@@@    OO @@@@@@@@@@@@@@@@@@@@@@@@@@@@@@@@@@@@@@@@@    OO @@@@@@@@@@@@@",
"@@@@@@@@@@@@@@  @@@@   @@@@@  XOOO @@@@@@@@@@@@@@@@@@@@@@@@@@@  @@@@   @@@@@@@ XOO @@@@@@@@@@@@@@@@@@@@@@@@@@@ X @@ OO @@@@@@@ XOO @@@@@@@@@@@@@@@@@@@@@@@@@@@ XX  XXOX    @@@ XOO @@@@@@@@@@@@@@@@@@@@@@@@@@@ X @@ OO @@@@@@@ XOO @@@@@@@@@@@@@@@@@@@@@@@@@@@  @@@@   @@@@@@@ XOO @@@@@@@@@@@@@",
"@@@@@@@@@@@@@@ X @@ OO @@   OOOOO @@@@@@@@@@@@@@@@@@@@@@@@@@@@ X @@ OO @@@@   XOOO @@@@@@@@@@@@@@@@@@@@@@@@@@@ XX  XXOX       XOOO @@@@@@@@@@@@@@@@@@@@@@@@@@@ XXOOOOXXOOOO   XOOO @@@@@@@@@@@@@@@@@@@@@@@@@@@ XX  XXOX       XOOO @@@@@@@@@@@@@@@@@@@@@@@@@@@ X @@ OO @@@@   XOOO @@@@@@@@@@@@@",
"@@@@@@@@@@@@@@ XX  XXOX  OOOOOOO @@@@@@@@@@@@@@@@@@@@@@@@@@@@@ XX  XXOX    OOOOOO @@@@@@@@@@@@@@@@@@@@@@@@@@@@ XXOOOOXXOOOOOOOOOO @@@@@@@@@@@@@@@@@@@@@@@@@@@@ XOOOOOXXOOOOOOOOOO @@@@@@@@@@@@@@@@@@@@@@@@@@@@ XXOOOOXXOOOOOOOOOO @@@@@@@@@@@@@@@@@@@@@@@@@@@@ XX  XXOX    OOOOOO @@@@@@@@@@@@@@",
"@@@@@@@@@@@@@@ XXOOOOXXOOOOOOOOO @@@@@@@@@@@@@@@@@@@@@@@@@@@@@ XXOOOOXXOOOOOOOOO @@@@@@@@@@@@@@@@@@@@@@@@@@@@@ XOOOOOXXOOOOOOOOO @@@@@@@@@@@@@@@@@@@@@@@@@@@@@ OOOOOOXXXOOOOOOOO @@@@@@@@@@@@@@@@@@@@@@@@@@@@@ XOOOOOXXOOOOOOOOO @@@@@@@@@@@@@@@@@@@@@@@@@@@@@ XXOOOOXXOOOOOOOOO @@@@@@@@@@@@@@@",
"@@@@@@@@@@@@@@ XOOOOOXXOOOOOOOXX @@@@@@@@@@@@@@@@@@@@@@@@@@@@@ XOOOOOXXOOOOOOOOOX @@@@@@@@@@@@@@@@@@@@@@@@@@@@ OOOOOOXXXOOOOOOOOX @@@@@@@@@@@@@@@@@@@@@@@@@@@ ..OOOXXXXXXXXXOOOOX @@@@@@@@@@@@@@@@@@@@@@@@@@@@ OOOOOOXXXOOOOOOOOX @@@@@@@@@@@@@@@@@@@@@@@@@@@@ XOOOOOXXOOOOOOOOO @@@@@@@@@@@@@@@",
"@@@@@@@@@@@@@@ OOOOOOXXXOOOXXXXX @@@@@@@@@@@@@@@@@@@@@@@@@@@@@ OOOOOOXXXOOOOXXXXX @@@@@@@@@@@@@@@@@@@@@@@@@@@ ..OOOXXXXXXXXXXXXXX @@@@@@@@@@@@@@@@@@@@@@@@@@ +OO+XXXXXXXXXXXXXXXXX @@@@@@@@@@@@@@@@@@@@@@@@@@ ..OOOXXXXXXXXXXXXXX @@@@@@@@@@@@@@@@@@@@@@@@@@@@ OOOOOOXXXOOOOXXXX @@@@@@@@@@@@@@@",
"@@@@@@@@@@@@@ ..OOOXXXXXXXXXXXXX @@@@@@@@@@@@@@@@@@@@@@@@@@@@ ..OOOXXXXXXXXXXXXXX @@@@@@@@@@@@@@@@@@@@@@@@@@ +OO+XXXXXXXXXXXXXXXX @@@@@@@@@@@@@@@@@@@@@@@@@@ +oo+XXXXXXXXXXXXXXXXX @@@@@@@@@@@@@@@@@@@@@@@@@ +OO+XXXXXXXXXXXXXXXXX @@@@@@@@@@@@@@@@@@@@@@@@@@ ..OOOXXXXXXXXXXXXX @@@@@@@@@@@@@@@",
"@@@@@@@@@@@@ +OO+XXXXXXXXXXXXXX @@@@@@@@@@@@@@@@@@@@@@@@@@@@ +OO+XXXXXXXXXXXXXXXX @@@@@@@@@@@@@@@@@@@@@@@@@@ +oo+XXXXXXXXXXXXXXXXX @@@@@@@@@@@@@@@@@@@@@@@@@   ....XXXXXXX .XXXXXXX @@@@@@@@@@@@@@@@@@@@@@@@ +oo+XXXXXXXXXXXXXXXXX  @@@@@@@@@@@@@@@@@@@@@@@@ +OO+XXXXXXXXXXXXXXX @@@@@@@@@@@@@@@",
"@@@@@@@@@@@@ +oo+XXXXXXXXX.XXXX @@@@@@@@@@@@@@@@@@@@@@@@@@@@ +oo+XXXXXXXXXXX XXXX @@@@@@@@@@@@@@@@@@@@@@@@@@     ..XXXXXXXX.  XXXX @@@@@@@@@@@@@@@@@@@@@@@@@@@ ...   XXXX  ...  XXX @@@@@@@@@@@@@@@@@@@@@@@@   ....XXXXXXX...  XXXXX @@@@@@@@@@@@@@@@@@@@@@@ +oo+XXXXXXXXX..XXX @@@@@@@@@@@@@@@@",
"@@@@@@@@@@@@    ...XXXXXXX XXX @@@@@@@@@@@@@@@@@@@@@@@@@@@@@      .XXXXXXXX. XXX @@@@@@@@@@@@@@@@@@@@@@@@@@@@@@@ .... XXXXX..  XXX @@@@@@@@@@@@@@@@@@@@@@@@@@@ ... @ XXX @ ...  XXXX @@@@@@@@@@@@@@@@@@@@@@@@@ ...    XXXX   @ XXXXX @@@@@@@@@@@@@@@@@@@@@@@    ...XXXXXXX  XXX @@@@@@@@@@@@@@@@",
"@@@@@@@@@@@@@@@ ....   XXX XXX @@@@@@@@@@@@@@@@@@@@@@@@@@@@@@@@@@ ... XXXXXX XXX @@@@@@@@@@@@@@@@@@@@@@@@@@@@@@@@ .... XXX...  XXXX @@@@@@@@@@@@@@@@@@@@@@@@@@ ....  XXX @@@..@@ XXX @@@@@@@@@@@@@@@@@@@@@@@@@ ... @@ XXX @@@@@ XXX @@@@@@@@@@@@@@@@@@@@@@@@@@@ ...    XXX  XXXX @@@@@@@@@@@@@@@",
"@@@@@@@@@@@@@@@@ ... @ XXX XXX @@@@@@@@@@@@@@@@@@@@@@@@@@@@@@@@@@ ....   XXX XXXX @@@@@@@@@@@@@@@@@@@@@@@@@@@@@@@@ ... XXX..@@@ XXX @@@@@@@@@@@@@@@@@@@@@@@@@@@ ...  XXXX @@@@@@ XXX @@@@@@@@@@@@@@@@@@@@@@@@ ... @@@ XXX @@@@@@   @@@@@@@@@@@@@@@@@@@@@@@@@@@@ ... @@ XXX @ XXX @@@@@@@@@@@@@@@",
"@@@@@@@@@@@@@@@@ ... @ XXXX   @@@@@@@@@@@@@@@@@@@@@@@@@@@@@@@@@@@@ ... @ XXX XXXX @@@@@@@@@@@@@@@@@@@@@@@@@@@@@@@@@    XXXX @@@ XXX @@@@@@@@@@@@@@@@@@@@@@@@@@@@    @ XXX @@@@@@@@XX@@@@@@@@@@@@@@@@@@@@@@@@@ ... @@ XXXX @@@@@@@@@@@@@@@@@@@@@@@@@@@@@@@@@@@@@ ... @@ XXX @@    @@@@@@@@@@@@@@@",
"@@@@@@@@@@@@@@@@ ... @@ XXX @@@@@@@@@@@@@@@@@@@@@@@@@@@@@@@@@@@@@@ ...@@ XXXX XXX@@@@@@@@@@@@@@@@@@@@@@@@@@@@@@@@@@@@@@ XXX @@@@XX@@@@@@@@@@@@@@@@@@@@@@@@@@@@@@@@@@@@    @@@@@@@@@@@@@@@@@@@@@@@@@@@@@@@@@@@ ... @@ XXX @@@@@@@@@@@@@@@@@@@@@@@@@@@@@@@@@@@@@@ ... @@ XXX @@@@@@@@@@@@@@@@@@@@@",
"@@@@@@@@@@@@@@@@@..@@@@ XXX @@@@@@@@@@@@@@@@@@@@@@@@@@@@@@@@@@@@@@@..@@@@ XXX XX@@@@@@@@@@@@@@@@@@@@@@@@@@@@@@@@@@@@@@@@    @@@@@@@@@@@@@@@@@@@@@@@@@@@@@@@@@@@@@@@@@@@@@@@@@@@@@@@@@@@@@@@@@@@@@@@@@@@@@@@@@@..@@@@ XXX @@@@@@@@@@@@@@@@@@@@@@@@@@@@@@@@@@@@@@@..@@@@ XXX @@@@@@@@@@@@@@@@@@@@@",
"@@@@@@@@@@@@@@@@@@@@@@@ XXX @@@@@@@@@@@@@@@@@@@@@@@@@@@@@@@@@@@@@@@@@@@@@ XXX@@@@@@@@@@@@@@@@@@@@@@@@@@@@@@@@@@@@@@@@@@@@@@@@@@@@@@@@@@@@@@@@@@@@@@@@@@@@@@@@@@@@@@@@@@@@@@@@@@@@@@@@@@@@@@@@@@@@@@@@@@@@@@@@@@@@@@@ XXX @@@@@@@@@@@@@@@@@@@@@@@@@@@@@@@@@@@@@@@@@@@@@ XXX @@@@@@@@@@@@@@@@@@@@@",
"@@@@@@@@@@@@@@@@@@@@@@@@XX@@@@@@@@@@@@@@@@@@@@@@@@@@@@@@@@@@@@@@@@@@@@@@@@XX@@@@@@@@@@@@@@@@@@@@@@@@@@@@@@@@@@@@@@@@@@@@@@@@@@@@@@@@@@@@@@@@@@@@@@@@@@@@@@@@@@@@@@@@@@@@@@@@@@@@@@@@@@@@@@@@@@@@@@@@@@@@@@@@@@@@@@@@@XX@@@@@@@@@@@@@@@@@@@@@@@@@@@@@@@@@@@@@@@@@@@@@@@@XX@@@@@@@@@@@@@@@@@@@@@@@",
"@@@@@@@@@@@@@@@@@@@@@@@@@@@@@@@@@@@@@@@@@@@@@@@@@@@@@@@@@@@@@@@@@@@@@@@@@@@@@@@@@@@@@@@@@@@@@@@@@@@@@@@@@@@@@@@@@@@@@@@@@@@@@@@@@@@@@@@@@@@@@@@@@@@@@@@@@@@@@@@@@@@@@@@@@@@@@@@@@@@@@@@@@@@@@@@@@@@@@@@@@@@@@@@@@@@@@@@@@@@@@@@@@@@@@@@@@@@@@@@@@@@@@@@@@@@@@@@@@@@@@@@@@@@@@@@@@@@@@@@@@@@@@@@@",
"@@@@@@@@@@@@@@@@@@@@@@@@@@@@@@@@@@@@@@@@@@@@@@@@@@@@@@@@@@@@@@@@@@@@@@@@@@@@@@@@@@@@@@@@@@@@@@@@@@@@@@@@@@@@@@@@@@@@@@@@@@@@@@@@@@@@@@@@@@@@@@@@@@@@@@@@@@@@@@@@@@@@@@@@@@@@@@@@@@@@@@@@@@@@@@@@@@@@@@@@@@@@@@@@@@@@@@@@@@@@@@@@@@@@@@@@@@@@@@@@@@@@@@@@@@@@@@@@@@@@@@@@@@@@@@@@@@@@@@@@@@@@@@@@",
"@@@@@@@@@@@@@@@@@@@@@@@@@@@@@@@@@@@@@@@@@@@@@@@@@@@@@@@@@@@@@@@@@@@@@@@@@@@@@@@@@@@@@@@@@@@@@@@@@@@@@@@@@@@@@@@@@@@@@@@@@@@@@@@@@@@@@@@@@@@@@@@@@@@@@@@@@@@@@@@@@@@@@@@@@@@@@@@@@@@@@@@@@@@@@@@@@@@@@@@@@@@@@@@@@@@@@@@@@@@@@@@@@@@@@@@@@@@@@@@@@@@@@@@@@@@@@@@@@@@@@@@@@@@@@@@@@@@@@@@@@@@@@@@@",
"@@@@@@@@@@@@@@@@@@@@@@@@@@@@@@@@@@@@@@@@@@@@@@@@@@@@@@@@@@@@@@@@@@@@@@@@@@@@@@@@@@@@@@@@@@@@@@@@@@@@@@@@@@@@@@@@@@@@@@@@@@@@@@@@@@@@@@@@@@@@@@@@@@@@@@@@@@@@@@@@@@@@@@@@@@@@@@@@@@@@@@@@@@@@@@@@@@@@@@@@@@@@@@@@@@@@@@@@@@@@@@@@@@@@@@@@@@@@@@@@@@@@@@@@@@@@@@@@@@@@@@@@@@@@@@@@@@@@@@@@@@@@@@@@",
"@@@@@@@@@@@@@@@@@@@@@@@@@@@@@@@@@@@@@@@@@@@@@@@@@@@@@@@@@@@@@@@@@@@@@@@@@@@@@@@@@@@@@@@@@@@@@@@@@@@@@@@@@@@@@@@@@@@@@@@@@@@@@@@@@@@@@@@@@@@@@@@@@@@@@@@@@@@@@@@@@@@@@@@@@@@@@@@@@@@@@@@@@@@@@@@@@@@@@@@@@@@@@@@@@@@@@@@@@@@@@@@@@@@@@@@@@@@@@@@@@@@@@@@@@@@@@@@@@@@@@@@@@@@@@@@@@@@@@@@@@@@@@@@@",
"@@@@@@@@@@@@@@@@@@@@@@@@@@@@@@@@@@@@@@@@@@@@@@@@@@@@@@@@@@@@@@@@@@@@@@@@@@@@@@@@@@@@@@@@@@@@@@@@@@@@@@@@@@@@@@@@@@@@@@@@@@@@@@@@@@@@@@@@@@@@@@@@@@@@@@@@@@@@@@@@@@@@@@@@@@@@@@@@@@@@@@@@@@@@@@@@@@@@@@@@@@@@@@@@@@@@@@@@@@@@@@@@@@@@@@@@@@@@@@@@@@@@@@@@@@@@@@@@@@@@@@@@@@@@@@@@@@@@@@@@@@@@@@@@",
"@@@@@@@@@@@@@@@@@@@@@@@@@@@@@@@@@@@@@@@@@@@@@@@@@@@@@@@@@@@@@@@@@@@@@@@@@@@@@@@@@@@@@@@@@@@@@@@@@@@@@@@@@@@@@@@@@@@@@@@@@@@@@@@@@@@@@@@@@@@@@@@@@@@@@@@@@@@@@@@@@@@@@@@@@@@@@@@@@@@@@@@@@@@@@@@@@@@@@@@@@@@@@@@@@@@@@@@@@@@@@@@@@@@@@@@@@@@@@@@@@@@@@@@@@@@@@@@@@@@@@@@@@@@@@@@@@@@@@@@@@@@@@@@@",
"@@@@@@@@@@@@@@@@@@@@@@@@@@@@@@@@@@@@@@@@@@@@@@@@@@@@@@@@@@@@@@@@@@@@@@@@@@@@@@@@@@@@@@@@@@@@@@@@@@@@@@@@@@@@@@@@@@@@@@@@@@@@@@@@@@@@@@@@@@@@@@@@@@@@@@@@@@@@@@@@@@@@@@@@@@@@@@@@@@@@@@@@@@@@@@@@@@@@@@@@@@@@@@@@@@@@@@@@@@@@@@@@@@@@@@@@@@@@@@@@@@@@@@@@@@@@@@@@@@@@@@@@@@@@@@@@@@@@@@@@@@@@@@@@",
"@@@@@@@@@@@@@@@@@@@@@@@@@@@@@@@@@@@@@@@@@@@@@@@@@@@@@@@@@@@@@@@@@@@@@@@@@@@@@@@@@@@@@@@@@@@@@@@@@@@@@@@@@@@@@@@@@@@@@@@@@@@@@@@@@@@@@@@@@@@@@@@@@@@@@@@@@@@@@@@@@@@@@@@@@@@@@@@@@@@@@@@@@@@@@@@@@@@@@@@@@@@@@@@@@@@@@@@@@@@@@@@@@@@@@@@@@@@@@@@@@@@@@@@@@@@@@@@@@@@@@@@@@@@@@@@@@@@@@@@@@@@@@@@@"
};
