/* XPM */
static char *U_Attack[] = {
/* columns rows colors chars-per-pixel */
"288 48 5 1 ",
"  c #0C0F2A",
". c #303843",
"X c #405273",
"o c #6C81A1",
"O c None",
/* pixels */
"OOOOOOOOOOOOOOOOOOOOOOOOOOOOOOOOOOOOOOOOOOOOOOOOOOOOOOOOOOOOOOOOOOOOOOOOOOOOOOOOOOOOOOOOOOOOOOOOOOOOOOOOOOOOOOOOOOOOOOOOOOOOOOOOOOOOOOOOOOOOOOOOOOOOOOOOOOOOOOOOOOOOOOOOOOOOOOOOOOOOOOOOOOOOOOOOOOOOOOOOOOOOOOOOOOOOOOOOOOOOOOOOOOOOOOOOOOOOOOOOOOOOOOOOOOOOOOOOOOOOOOOOOOOOOOOOOOOOOOOOOOOOOOOO",
"OOOOOOOOOOOOOOOOOOOOOOOOOOOOOOOOOOOOOOOOOOOOOOOOOOOOOOOOOOOOOOOOOOOOOOOOOOOOOOOOOOOOOOOOOOOOOOOOOOOOOOOOOOOOOOOOOOOOOOOOOOOOOOOOOOOOOOOOOOOOOOOOOOOOOOOOOOOOOOOOOOOOOOOOOOOOOOOOOOOOOOOOOOOOOOOOOOOOOOOOOOOOOOOOOOOOOOOOOOOOOOOOOOOOOOOOOOOOOOOOOOOOOOOOOOOOOOOOOOOOOOOOOOOOOOOOOOOOOOOOOOOOOOOO",
"OOOOOOOOOOOOOOOOOOOOOOOOOOOOOOOOOOOOOOOOOOOOOOOOOOOOOOOOOOOOOOOOOOOOOOOOOOOOOOOOOOOOOOOOOOOOOOOOOOOOOOOOOOOOOOOOOOOOOOOOOOOOOOOOOOOOOOOOOOOOOOOOOOOOOOOOOOOOOOOOOOOOOOOOOOOOOOOOOOOOOOOOOOOOOOOOOOOOOOOOOOOOOOOOOOOOOOOOOOOOOOOOOOOOOOOOOOOOOOOOOOOOOOOOOOOOOOOOOOOOOOOOOOOOOOOOOOOOOOOOOOOOOOOO",
"OOOOOOOOOOOOOOOOOOOOOOOOOOOOOOOOOOOOOOOOOOOOOOOOOOOOOOOOOOOOOOOOOOOOOOOOOOOOOOOOOOOOOOOOOOOOOOOOOOOOOOOOOOOOOOOOOOOOOOOOOOOOOOOOOOOOOOOOOOOOOOOOOOOOOOOOOOOOOOOOOOOOOOOOOOOOOOOOOOOOOOOOOOOOOOOOOOOOOOOOOOOOOOOOOOOOOOOOOOOOOOOOOOOOOOOOOOOOOOOOOOOOOOOOOOOOOOOOOOOOOOOOOOOOOOOOOOOOOOOOOOOOOOOO",
"OOOOOOOOOOOOOOOOOOOOOOOOOOOOOOOOOOOOOOOOOOOOOOOOOOOOOOOOOOOOOOOOOOOOOOOOOOOOOOOOOOOOOOOOOOOOOOOOOOOOOOOOOOOOOOOOOOOOOOOOOOOOOOOOOOOOOOOOOOOOOOOOOOOOOOOOOOOOOOOOOOOOOOOOOOOOOOOOOOOOOOOOOOOOOOOOOOOOOOOOOOOOOOOOOOOOOOOOOOOOOOOOOOOOOOOOOOOOOOOOOOOOOOOOOOOOOOOOOOOOOOOOOOOOOOOOOOOOOOOOOOOOOOOO",
"OOOOOOOOOOOOOOOOOOOOOOOOOOOOOOOOOOOOOOOOOOOOOOOOOOOOOOOOOOOOOOOOOOOOOOOOOOOOOOOOOOOOOOOOOOOOOOOOOOOOOOOOOOOOOOOOOOOOOOOOOOOOOOOOOOOOOOOOOOOOOOOOOOOOOOOOOOOOOOOOOOOOOOOOOOOOOOOOOOOOOOOOOOOOOOOOOOOOOOOOOOOOOOOOOOOOOOOOOOOOOOOOOOOOOOOOOOOOOOOOOOOOOOOOOOOOOOOOOOOOOOOOOOOOOOOOOOOOOOOOOOOOOOOO",
"OOOOOOOOOOOOOOOOOOOOOOOOOOOOOOOOOOOOOOOOOOOOOOOOOOOOOOOOOOOOOOOOOOOOOOOOOOOOOOOOOOOOOOOOOOOOOOOOOOOOOOOOOOOOOOOOOOOOOOOOOOOOOOOOOOOOOOOOOOOOOOOOOOOOOOOOOOOOOOOOOOOOOOOOOOOOOOOOOOOOOOOOOOOOOOOOOOOOOOOOOOOOOOOOOOOOOOOOOOOOOOOOOOOOOOOOOOOOOOOOOOOOOOOOOOOOOOOOOOOOOOOOOOOOOOOOOOOOOOOOOOOOOOOO",
"OOOOOOOOOOOOOOOOOOOOOOOOOOOOOOOOOOOOOOOOOOOOOOOOOOOOOOOOOOOOOOOOOOOOOOOOOOOOOOOOOOOOOOOOOOOOOOOOOOOOOOOOOOOOOOOOOOOOOOOOOOOOOOOOOOOOOOOOOOOOOOOOOOOOOOOOOOOOOOOOOOOOOOOOOOOOOOOOOOOOOOOOOOOOOOOOOOOOOOOOOOOOOOOOOOOOOOOOOOOOOOOOOOOOOOOOOOOOOOOOOOOOOOOOOOOOOOOOOOOOOOOOOOOOOOOOOOOOOOOOOOOOOOOO",
"OOOOOOOOOOOOOOOOOOOOOOOOOOOOOOOOOOOOOOOOOOOOOOOOOOOOOOOOOOOOOOOOOOOOOOOOOOOOOOOOOOOOOOOOOOOOOOOOOOOOOOOOOOOOOOOOOOOOOOOOOOOOOOOOOOOOOOOOOOOOOOOOOOOOOOOOOOOOOOOOOOOOOOOOOOOOOOOOOOOOOOOOOOOOOOOOOOOOOOOOOOOOOOOOOOOOOOOOOOOOOOOOOOOOOOOOOOOOOOOOOOOOOOOOOOOOOOOOOOOOOOOOOOOOOOOOOOOOOOOOOOOOOOOO",
"OOOOOOOOOOOOOOOOOOOOOOOOOOOOOOOOOOOOOOOOOOOOOOOOOOOOOOOOOOOOOOOOOOOOOOOOOOOOOOOOOOOOOOOOOOOOOOOOOOOOOOOOOOOOOOOOOOOOOOOOOOOOOOOOOOOOOOOOOOOOOOOOOOOOOOOOOOOOOOOOOOOOOOOOOOOOOOOOOOOOOOOOOOOOOOOOOOOOOOOOOOOOOOOOOOOOOOOOOOOOOOOOOOOOOOOOOOOOOOOOOOOOOOOOOOOOOOOOOOOOOOOOOOOOOOOOOOOOOOOOOOOOOOOO",
"OOOOOOOOOOOOOOOOOOOOOOOOOOOOOOOOOOOOOOOOOOOOOOOOOOOOOOOOOOOOOOOOOOOOOOOOOOOOOOOOOOOOOOOOOOOOOOOOOOOOOOOOOOOOOOOOOOOOOOOOOOOOOOOOOOOOOOOOOOOOOOOOOOOOOOOOOOOOOOOOOOOOOOOOOOOOOOOOOOOOOOOOOOOOOOOOOOOOOOOOOOOOOOOOOOOOOOOOOOOOOOOOOOOOOOOOOOOOOOOOOOOOOOOOOOOOOOOOOOOOOOOOOOOOOOOOOOOOOOOOOOOOOOOO",
"OOOOOOOOOOOOOOOOOOOOOOOOOOOOOOOOOOOOOOOOOOOOOOOOOOOOOOOOOOOOOOOOOOOOOOOOOOOOOOOOOOOOOOOOOOOOOOOOOOOOOOOOOOOOOOOOOOOOOOOOOOOOOOOOOOOOOOOOOOOOOOOOOOOOOOOOOOOOOOOOOOOOOOOOOOOOOOOOOOOOOOOOOOOOOOOOOOOOOOOOOOOOOOOOOOOOOOOOOOOOOOOOOOOOOOOOOOOOOOOOOOOOOOOOOOOOOOOOOOOOOOOOOOOOOOOOOOOOOOOOOOOOOOOO",
"OOOOOOOOOOOOOOOOOOOOOOOOOOOOOOOOOOOOOOOOOOOOOOOOOOOOOOOOOOOOOOOOOOOOOOOOOOOOOOOOOOOOOOOOOOOOOOOOOOOOOOOOOOOOOOOOOOOOOOOOOOOOOOOOOOOOOOOOOOOOOOOOOOOOOOOOOOOOOOOOOOOOOOOOOOOOOOOOOOOOOOOOOOOOOOOOOOOOOOOOOOOOOOOOOOOOOOOOOOOOOOOOOOOOOOOOOOOOOOOOOOOOOOOOOOOOOOOOOOOOOOOOOOOOOOOOOOOOOOOOOOOOOOOO",
"OOOOOOOOOOOOOOOOOOOOOOOOOOOOOOOOOOOOOOOOOOOOOOOOOOOOOOOOOOOOOOOOOOOOOOOOOOOOOOOOOOOOOOOOOOOOOOOOOOOOOOOOOOOOOOOOOOOOOOOOOOOOOOOOOOOOOOOOOOOOOOOOOOOOOOOOOOOOOOOOOOOOOOOOOOOOOOOOOOOOOOOOOOOOOOOOOOOOOOOOOOOOOOOOOOOOOOOOOOOOOOOOOOOOOOOOOOOOOOOOOOOOOOOOOOOOOOOOOOOOOOOOOOOOOOOOOOOOOOOOOOOOOOOO",
"OOOOOOOOOOOOOOOOOOOOOOOOOOOOOOOOOOOOOOOOOOOOOOOOOOOOOOOOOOOOOOOOOOOOOOOOOOOOOOOOOOOOOOOOOOOOOOOOOOOOOOOOOOOOOOOOOOOOOOOOOOOOOOOOOOOOOOOOOOOOOOOOOOOOOOOOOOOOOOOOOOOOOOOOOOOOOOOOOOOOOOOOOOOOOOOOOOOOOOOOOOOOOOOOOOO  OOOOOO  OOOOOOOOOOOOOOOOOOOOOOOOOOOOOOOOOOOOOOOOOOOOOOOOOOOOOOOOOOOOOOOOOOO",
"OOOOOOOOOOOOOOOOOOO  OOOOOO  OOOOOOOOOOOOOOOOOOOOOOOOOOOOOOOOOOOOOOOOOOOOOOOOOOOOOOOOOOOOOOOOOOOOOOOOOOOOOOOOOOOOOOOOOOOOOOOOOOOOOOOOOOOOOOOOOOOOOOOOOOOOOOOOOOOOOOOOOOOOOOOOOOOOOOOOOOOOOOOOOOOOOOOOOOOOOOOOOOOOOO o OOOO o OOOOOOOOOOOOOOOOOOOOOOOOOOOOOOOOOOOOOO  OOOOOO  OOOOOOOOOOOOOOOOOOO",
"OOOOOOOOOOOOOOOOOOO o OOOO o OOOOOOOOOOOOOOOOOOOOOOOOOOOOOOOOOOOOOO  OOOOOO  OOOOOOOOOOOOOOOOOOOOOOOOOOOOOOOOOOOOOOOOOOOOOOOOOOOOOOOOOOOOOOOOOOOOOOOOOOOOOOOOOOOOOOOOOOOOOOOOOOOOOOOOOOOOOOOOOOOOOOOOOOOOOOOOOOOOOO oo    oo OOOOOOOOOOOOOOOOOOOOOOOOOOOOOOOOOOOOOO o OOOO o OOOOOOOOOOOOOOOOOOO",
"OOOOOOOOOOOOOOOOOOO oo    oo OOOOOOOOOOOOOOOOOOOOOOOOOOOOOOOOOOOOOO o OOOO o OOOOOOOOOOOOOOOOOOOOOOOOOOOOOOOOOOOOOOOOOOOOOOOOOOOOOOOOOOOOOOOOOOOOOOOOOOOOOOOOOOOOOO  OOOOOO  OOOOOOOOOOOOOOOOOOOOOOOOOOOOOOOOOOOOOO oXooooXo OOOOOOOOOOOOOOOOOOOOOOOOOOOOOOOOOOOOOO oo    oo OOOOOOOOOOOOOOOOOOO",
"OOOOOOOOOOOOOOOOOOO oXooooXo OOOOOOOOOOOOOOOOOOOOOOOOOOOOOOOOOOOOOO oo    oo OOOOOOOOOOOOOOOOOOOOOOOOOOOOOOOOOOOOOO  OOOOOO  OOOOOOOOOOOOOOOOOOOOOOOOOOOOOOOOOOOOOO o OOOO o OOOOOOOOOOOOOOOOOOOOOOOOOOOOOOOOOOOOOO XooooooX OOOOOOOOOOOOOOOOOOOOOOOOOOOOOOOOOOOOOO oXooooXo OOOOOOOOOOOOOOOOOOO",
"OOOOOOOOOOOOOOOOOOO XooooooX OOOOOOOOOOOOOOOOOOOOOOOOOOOOOOOOOOOOOO oXooooXo OOOOOOOOOOOOOOOOOOOOOOOOOOOOOOOOOOOOOO o OOOO o OOOOOOOOOOOOOOOOOOOOOOOOOOOOOOOOOOOOOO oo    oo OOOOOOOOOOOOOOOOOOOOOOOOOOOOOOOOOOOOOO XooooooX OOOOOOOOOOOOOOOOOOOOOOOOOOOOOOOOOOOOOO XooooooX OOOOOOOOOOOOOOOOOOO",
"OOOOOOOOOOOOOOOOOOO XooooooX OOOOOOOOOOOOOOOOOOOOOOOOOOOOOOOOOOOOOO XooooooX OOOOOOOOOOOOOOOOOOOOOOOOOOOOOOOOOOOOOO oo    oo OOOOOOOOOOOOOOOOOOOOOOOOOOOOOOOOOOOOOO oXooooXo OOOOOOOOOOOOOOOOOOOOOOOOOOOOOOOOOOOOOO XooooooX OOOOOOOOOOOOOOOOOOOOOOOOOOOOOOOOOOOOOO XooooooX OOOOOOOOOOOOOOOOOOO",
"OOOOOOOOOOOOOOOOOOO XXooooXX OOOOOOOOOOOOOOOOOOOOOOOOOOOOOOOOOOOOOO XooooooX OOOOOOOOOOOOOOOOOOOOOOOOOOOOOOOOOOOOOO oXooooXo OOOOOOOOOOOOOOOOOOOOOOOOOOOOOOOOOOOOOO XooooooX OOOOOOOOOOOOOOOOOOOOOOOOOOOOOOOOOOOOOO XXooooXX OOOOOOOOOOOOOOOOOOOOOOOOOOOOOOOOOOOOOO XXooooXX OOOOOOOOOOOOOOOOOOO",
"OOOOOOOOOOOOOOOOOOOO oooooo OOOOOOOOOOOOOOOOOOOOOOOOOOOOOOOOOOOOOOO XXooooXX OOOOOOOOOOOOOOOOOOOOOOOOOOOOOOOOOOOOOO XooooooX OOOOOOOOOOOOOOOOOOOOOOOOOOOOOOOOOOOOOO XooooooX OOOOOOOOOOOOOOOOOOOOOOOOOOOOOOOOOOOOOO XooooooX OOOOOOOOOOOOOOOOOOOOOOOOOOOOOOOOOOOOOOO oooooo OOOOOOOOOOOOOOOOOOOO",
"OOOOOOOOOOOOOOOOOOO XooooooX OOOOOOOOOOOOOOOOOOOOOOOOOOOOOOOOOOOOOOO oooooo OOOOOOOOOOOOOOOOOOOOOOOOOOOOOOOOOOOOOOO XooooooX OOOOOOOOOOOOOOOOOOOOOOOOOOOOOOOOOOOOOO XXooooXX OOOOOOOOOOOOOOOOOOOOOOOOOOOOOOOOOOOOOO XooooooX OOOOOOOOOOOOOOOOOOOOOOOOOOOOOOOOOOOOOO XooooooX OOOOOOOOOOOOOOOOOOO",
"OOOOOOOOOOOOOOOOOOO XoXXXooX OOOOOOOOOOOOOOOOOOOOOOOOOOOOOOOOOOOOOO XooooooX OOOOOOOOOOOOOOOOOOOOOOOOOOOOOOOOOOOOOO XXooooXX OOOOOOOOOOOOOOOOOOOOOOOOOOOOOOOOOOOOOOO oooooo OOOOOOOOOOOOOOOOOOOOOOOOOOOOOOOOOOOOOO Xo..XXoooX OOOOOOOOOOOOOOOOOOOOOOOOOOOOOOOOOOOOO XoXXXooX OOOOOOOOOOOOOOOOOOO",
"OOOOOOOOOOOOOOOOOO Xo.oooXooX OOOOOOOOOOOOOOOOOOOOOOOOOOOOOOOOOOOOO XoXXXooX OOOOOOOOOOOOOOOOOOOOOOOOOOOOOOOOOOOOOOO oooooo OOOOOOOOOOOOOOOOOOOOOOOOOOOOOOOOOOOOOOO XooooooX OOOOOOOOOOOOOOOOOOOOOOOOOOOOOOOOOOOOO X.XoooXooX OOOOOOOOOOOOOOOOOOOOOOOOOOOOOOOOOOOO Xo.oooXooX OOOOOOOOOOOOOOOOOO",
"OOOOOOOOOOOOOOOOOO X.oooooXoX OOOOOOOOOOOOOOOOOOOOOOOOOOOOOOOOOOOO Xo.oooXooX OOOOOOOOOOOOOOOOOOOOOOOOOOOOOOOOOOOOO XooooooX OOOOOOOOOOOOOOOOOOOOOOOOOOOOOOOOOOOOOO XooooooX OOOOOOOOOOOOOOOOOOOOOOOOOOOOOOOOOOOOO X.oooooXoX OOOOOOOOOOOOOOOOOOOOOOOOOOOOOOOOOOOO X.oooooXoX OOOOOOOOOOOOOOOOOO",
"OOOOOOOOOOOOOOOOOO X.ooXXXXoX OOOOOOOOOOOOOOOOOOOOOOOOOOOOOOOOOOOO X.oooooXoX OOOOOOOOOOOOOOOOOOOOOOOOOOOOOOOOOOOOO XoXXXooX OOOOOOOOOOOOOOOOOOOOOOOOOOOOOOOOOOOOO XooXXXoooX OOOOOOOOOOOOOOOOOOOOOOOOOOOOOOOOOOOO X.ooo.XXoX OOOOOOOOOOOOOOOOOOOOOOOOOOOOOOOOOOOO X.oooXXXoX OOOOOOOOOOOOOOOOOO",
"OOOOOOOOOOOOOOOOOO X.ooo.oooX OOOOOOOOOOOOOOOOOOOOOOOOOOOOOOOOOOOO X.ooXXXXoX OOOOOOOOOOOOOOOOOOOOOOOOOOOOOOOOOOOO Xo.oooXooX OOOOOOOOOOOOOOOOOOOOOOOOOOOOOOOOOOOO Xo.oooXooX OOOOOOOOOOOOOOOOOOOOOOOOOOOOOOOOOOOO X.oooo.oXX OOOOOOOOOOOOOOOOOOOOOOOOOOOOOOOOOOOO X.ooo.oooX OOOOOOOOOOOOOOOOOO",
"OOOOOOOOOOOOOOOOOO X.Xooo.oXX OOOOOOOOOOOOOOOOOOOOOOOOOOOOOOOOOOOO X.ooo.oooX OOOOOOOOOOOOOOOOOOOOOOOOOOOOOOOOOOOO X.oooooXoX OOOOOOOOOOOOOOOOOOOOOOOOOOOOOOOOOOOO X.oooooXoX OOOOOOOOOOOOOOOOOOOOOOOOOOOOOOOOOOOO XX.oooXXXX OOOOOOOOOOOOOOOOOOOOOOOOOOOOOOOOOOOO X.Xooo.oXX OOOOOOOOOOOOOOOOOO",
"OOOOOOOOOOOOOOOOOO XX.XooXXXX OOOOOOOOOOOOOOOOOOOOOOOOOOOOOOOOOOOO X.Xooo.oXX OOOOOOOOOOOOOOOOOOOOOOOOOOOOOOOOOOOO X.ooXXXXoX OOOOOOOOOOOOOOOOOOOOOOOOOOOOOOOOOOOO X.ooXXXXoX OOOOOOOOOOOOOOOOOOOOOOOOOOOOOOOOOOOO XXXXXXXXXX OOOOOOOOOOOOOOOOOOOOOOOOOOOOOOOOOOOO XX.XooXXXX OOOOOOOOOOOOOOOOOO",
"OOOOOOOOOOOOOOOOOO XXXXXXXXXX OOOOOOOOOOOOOOOOOOOOOOOOOOOOOOOOOOOO XX.XooXXXX OOOOOOOOOOOOOOOOOOOOOOOOOOOOOOOOOOOO X.ooo.oooX OOOOOOOOOOOOOOOOOOOOOOOOOOOOOOOOOOOO X.ooo.oooX OOOOOOOOOOOOOOOOOOOOOOOOOOOOOOOOOOOO XXXXXXXXXX OOOOOOOOOOOOOOOOOOOOOOOOOOOOOOOOOOOO XXXXXXXXXX OOOOOOOOOOOOOOOOOO",
"OOOOOOOOOOOOOOOOOO XXXXXXXXXX OOOOOOOOOOOOOOOOOOOOOOOOOOOOOOOOOOOO XXXXXXXXXX OOOOOOOOOOOOOOOOOOOOOOOOOOOOOOOOOOOO X.Xooo.oXX OOOOOOOOOOOOOOOOOOOOOOOOOOOOOOOOOOOO X.Xooo.oXX OOOOOOOOOOOOOOOOOOOOOOOOOOOOOOOOOOOO XXXX  XXXX OOOOOOOOOOOOOOOOOOOOOOOOOOOOOOOOOOOO XXXXXXXXXX OOOOOOOOOOOOOOOOOO",
"OOOOOOOOOOOOOOOOOO XXXX  XXXX OOOOOOOOOOOOOOOOOOOOOOOOOOOOOOOOOOOO XXXXXXXXXX OOOOOOOOOOOOOOOOOOOOOOOOOOOOOOOOOOOO .X.XooXXX. OOOOOOOOOOOOOOOOOOOOOOOOOOOOOOOOOOOO .X.XooXXX. OOOOOOOOOOOOOOOOOOOOOOOOOOOOOOOOOOOO XXX OO XXX OOOOOOOOOOOOOOOOOOOOOOOOOOOOOOOOOOOO XXXX  XXXX OOOOOOOOOOOOOOOOOO",
"OOOOOOOOOOOOOOOOOO XXX OO XXX OOOOOOOOOOOOOOOOOOOOOOOOOOOOOOOOOOOO XXXX  XXXX OOOOOOOOOOOOOOOOOOOOOOOOOOOOOOOOOOOO ..XXXXXX.. OOOOOOOOOOOOOOOOOOOOOOOOOOOOOOOOOOOO ..XXXXXX.. OOOOOOOOOOOOOOOOOOOOOOOOOOOOOOOOOOOO Xoo OO ooX OOOOOOOOOOOOOOOOOOOOOOOOOOOOOOOOOOOO XXX OO XXX OOOOOOOOOOOOOOOOOO",
"OOOOOOOOOOOOOOOOOO XXX OO XXX OOOOOOOOOOOOOOOOOOOOOOOOOOOOOOOOOOOO XXX OO XXX OOOOOOOOOOOOOOOOOOOOOOOOOOOOOOOOOOOO ....  .... OOOOOOOOOOOOOOOOOOOOOOOOOOOOOOOOOOOO ....  .... OOOOOOOOOOOOOOOOOOOOOOOOOOOOOOOOOOOO ooo OO ooo OOOOOOOOOOOOOOOOOOOOOOOOOOOOOOOOOOOO XXX OO XXX OOOOOOOOOOOOOOOOOO",
"OOOOOOOOOOOOOOOOOO XXX OO XXX OOOOOOOOOOOOOOOOOOOOOOOOOOOOOOOOOOOO XXX OO XXX OOOOOOOOOOOOOOOOOOOOOOOOOOOOOOOOOOOO .XX OO XX. OOOOOOOOOOOOOOOOOOOOOOOOOOOOOOOOOOOO .XX OO XX. OOOOOOOOOOOOOOOOOOOOOOOOOOOOOOOOOOOO ooo OO ooo OOOOOOOOOOOOOOOOOOOOOOOOOOOOOOOOOOOO Xoo OO ooX OOOOOOOOOOOOOOOOOO",
"OOOOOOOOOOOOOOOOOO XXX OO XXX OOOOOOOOOOOOOOOOOOOOOOOOOOOOOOOOOOOO XXX OO XXX OOOOOOOOOOOOOOOOOOOOOOOOOOOOOOOOOOOO XXX OO XXX OOOOOOOOOOOOOOOOOOOOOOOOOOOOOOOOOOOO XXX OO XXX OOOOOOOOOOOOOOOOOOOOOOOOOOOOOOOOOOOO ooo OO ooo OOOOOOOOOOOOOOOOOOOOOOOOOOOOOOOOOOOO ooo OO ooo OOOOOOOOOOOOOOOOOO",
"OOOOOOOOOOOOOOOOOOOXXOOOOOOXXOOOOOOOOOOOOOOOOOOOOOOOOOOOOOOOOOOOOOOXXOOOOOOXXOOOOOOOOOOOOOOOOOOOOOOOOOOOOOOOOOOOOOOXXOOOOOOXXOOOOOOOOOOOOOOOOOOOOOOOOOOOOOOOOOOOOOOXXOOOOOOXXOOOOOOOOOOOOOOOOOOOOOOOOOOOOOOOOOOOOOOooOOOOOOooOOOOOOOOOOOOOOOOOOOOOOOOOOOOOOOOOOOOOOooOOOOOOooOOOOOOOOOOOOOOOOOOO",
"OOOOOOOOOOOOOOOOOOOOOOOOOOOOOOOOOOOOOOOOOOOOOOOOOOOOOOOOOOOOOOOOOOOOOOOOOOOOOOOOOOOOOOOOOOOOOOOOOOOOOOOOOOOOOOOOOOOOOOOOOOOOOOOOOOOOOOOOOOOOOOOOOOOOOOOOOOOOOOOOOOOOOOOOOOOOOOOOOOOOOOOOOOOOOOOOOOOOOOOOOOOOOOOOOOOOOOOOOOOOOOOOOOOOOOOOOOOOOOOOOOOOOOOOOOOOOOOOOOOOOOOOOOOOOOOOOOOOOOOOOOOOOOOO",
"OOOOOOOOOOOOOOOOOOOOOOOOOOOOOOOOOOOOOOOOOOOOOOOOOOOOOOOOOOOOOOOOOOOOOOOOOOOOOOOOOOOOOOOOOOOOOOOOOOOOOOOOOOOOOOOOOOOOOOOOOOOOOOOOOOOOOOOOOOOOOOOOOOOOOOOOOOOOOOOOOOOOOOOOOOOOOOOOOOOOOOOOOOOOOOOOOOOOOOOOOOOOOOOOOOOOOOOOOOOOOOOOOOOOOOOOOOOOOOOOOOOOOOOOOOOOOOOOOOOOOOOOOOOOOOOOOOOOOOOOOOOOOOOO",
"OOOOOOOOOOOOOOOOOOOOOOOOOOOOOOOOOOOOOOOOOOOOOOOOOOOOOOOOOOOOOOOOOOOOOOOOOOOOOOOOOOOOOOOOOOOOOOOOOOOOOOOOOOOOOOOOOOOOOOOOOOOOOOOOOOOOOOOOOOOOOOOOOOOOOOOOOOOOOOOOOOOOOOOOOOOOOOOOOOOOOOOOOOOOOOOOOOOOOOOOOOOOOOOOOOOOOOOOOOOOOOOOOOOOOOOOOOOOOOOOOOOOOOOOOOOOOOOOOOOOOOOOOOOOOOOOOOOOOOOOOOOOOOOO",
"OOOOOOOOOOOOOOOOOOOOOOOOOOOOOOOOOOOOOOOOOOOOOOOOOOOOOOOOOOOOOOOOOOOOOOOOOOOOOOOOOOOOOOOOOOOOOOOOOOOOOOOOOOOOOOOOOOOOOOOOOOOOOOOOOOOOOOOOOOOOOOOOOOOOOOOOOOOOOOOOOOOOOOOOOOOOOOOOOOOOOOOOOOOOOOOOOOOOOOOOOOOOOOOOOOOOOOOOOOOOOOOOOOOOOOOOOOOOOOOOOOOOOOOOOOOOOOOOOOOOOOOOOOOOOOOOOOOOOOOOOOOOOOOO",
"OOOOOOOOOOOOOOOOOOOOOOOOOOOOOOOOOOOOOOOOOOOOOOOOOOOOOOOOOOOOOOOOOOOOOOOOOOOOOOOOOOOOOOOOOOOOOOOOOOOOOOOOOOOOOOOOOOOOOOOOOOOOOOOOOOOOOOOOOOOOOOOOOOOOOOOOOOOOOOOOOOOOOOOOOOOOOOOOOOOOOOOOOOOOOOOOOOOOOOOOOOOOOOOOOOOOOOOOOOOOOOOOOOOOOOOOOOOOOOOOOOOOOOOOOOOOOOOOOOOOOOOOOOOOOOOOOOOOOOOOOOOOOOOO",
"OOOOOOOOOOOOOOOOOOOOOOOOOOOOOOOOOOOOOOOOOOOOOOOOOOOOOOOOOOOOOOOOOOOOOOOOOOOOOOOOOOOOOOOOOOOOOOOOOOOOOOOOOOOOOOOOOOOOOOOOOOOOOOOOOOOOOOOOOOOOOOOOOOOOOOOOOOOOOOOOOOOOOOOOOOOOOOOOOOOOOOOOOOOOOOOOOOOOOOOOOOOOOOOOOOOOOOOOOOOOOOOOOOOOOOOOOOOOOOOOOOOOOOOOOOOOOOOOOOOOOOOOOOOOOOOOOOOOOOOOOOOOOOOO",
"OOOOOOOOOOOOOOOOOOOOOOOOOOOOOOOOOOOOOOOOOOOOOOOOOOOOOOOOOOOOOOOOOOOOOOOOOOOOOOOOOOOOOOOOOOOOOOOOOOOOOOOOOOOOOOOOOOOOOOOOOOOOOOOOOOOOOOOOOOOOOOOOOOOOOOOOOOOOOOOOOOOOOOOOOOOOOOOOOOOOOOOOOOOOOOOOOOOOOOOOOOOOOOOOOOOOOOOOOOOOOOOOOOOOOOOOOOOOOOOOOOOOOOOOOOOOOOOOOOOOOOOOOOOOOOOOOOOOOOOOOOOOOOOO",
"OOOOOOOOOOOOOOOOOOOOOOOOOOOOOOOOOOOOOOOOOOOOOOOOOOOOOOOOOOOOOOOOOOOOOOOOOOOOOOOOOOOOOOOOOOOOOOOOOOOOOOOOOOOOOOOOOOOOOOOOOOOOOOOOOOOOOOOOOOOOOOOOOOOOOOOOOOOOOOOOOOOOOOOOOOOOOOOOOOOOOOOOOOOOOOOOOOOOOOOOOOOOOOOOOOOOOOOOOOOOOOOOOOOOOOOOOOOOOOOOOOOOOOOOOOOOOOOOOOOOOOOOOOOOOOOOOOOOOOOOOOOOOOOO",
"OOOOOOOOOOOOOOOOOOOOOOOOOOOOOOOOOOOOOOOOOOOOOOOOOOOOOOOOOOOOOOOOOOOOOOOOOOOOOOOOOOOOOOOOOOOOOOOOOOOOOOOOOOOOOOOOOOOOOOOOOOOOOOOOOOOOOOOOOOOOOOOOOOOOOOOOOOOOOOOOOOOOOOOOOOOOOOOOOOOOOOOOOOOOOOOOOOOOOOOOOOOOOOOOOOOOOOOOOOOOOOOOOOOOOOOOOOOOOOOOOOOOOOOOOOOOOOOOOOOOOOOOOOOOOOOOOOOOOOOOOOOOOOOO"
};
