/* XPM */
static char *U_Walk[] = {
/* columns rows colors chars-per-pixel */
"288 48 5 1 ",
"  c #0C0F2A",
". c #303843",
"X c #405273",
"o c #6C81A1",
"O c None",
/* pixels */
"OOOOOOOOOOOOOOOOOOOOOOOOOOOOOOOOOOOOOOOOOOOOOOOOOOOOOOOOOOOOOOOOOOOOOOOOOOOOOOOOOOOOOOOOOOOOOOOOOOOOOOOOOOOOOOOOOOOOOOOOOOOOOOOOOOOOOOOOOOOOOOOOOOOOOOOOOOOOOOOOOOOOOOOOOOOOOOOOOOOOOOOOOOOOOOOOOOOOOOOOOOOOOOOOOOOOOOOOOOOOOOOOOOOOOOOOOOOOOOOOOOOOOOOOOOOOOOOOOOOOOOOOOOOOOOOOOOOOOOOOOOOOOOOO",
"OOOOOOOOOOOOOOOOOOOOOOOOOOOOOOOOOOOOOOOOOOOOOOOOOOOOOOOOOOOOOOOOOOOOOOOOOOOOOOOOOOOOOOOOOOOOOOOOOOOOOOOOOOOOOOOOOOOOOOOOOOOOOOOOOOOOOOOOOOOOOOOOOOOOOOOOOOOOOOOOOOOOOOOOOOOOOOOOOOOOOOOOOOOOOOOOOOOOOOOOOOOOOOOOOOOOOOOOOOOOOOOOOOOOOOOOOOOOOOOOOOOOOOOOOOOOOOOOOOOOOOOOOOOOOOOOOOOOOOOOOOOOOOOO",
"OOOOOOOOOOOOOOOOOOOOOOOOOOOOOOOOOOOOOOOOOOOOOOOOOOOOOOOOOOOOOOOOOOOOOOOOOOOOOOOOOOOOOOOOOOOOOOOOOOOOOOOOOOOOOOOOOOOOOOOOOOOOOOOOOOOOOOOOOOOOOOOOOOOOOOOOOOOOOOOOOOOOOOOOOOOOOOOOOOOOOOOOOOOOOOOOOOOOOOOOOOOOOOOOOOOOOOOOOOOOOOOOOOOOOOOOOOOOOOOOOOOOOOOOOOOOOOOOOOOOOOOOOOOOOOOOOOOOOOOOOOOOOOOO",
"OOOOOOOOOOOOOOOOOOOOOOOOOOOOOOOOOOOOOOOOOOOOOOOOOOOOOOOOOOOOOOOOOOOOOOOOOOOOOOOOOOOOOOOOOOOOOOOOOOOOOOOOOOOOOOOOOOOOOOOOOOOOOOOOOOOOOOOOOOOOOOOOOOOOOOOOOOOOOOOOOOOOOOOOOOOOOOOOOOOOOOOOOOOOOOOOOOOOOOOOOOOOOOOOOOOOOOOOOOOOOOOOOOOOOOOOOOOOOOOOOOOOOOOOOOOOOOOOOOOOOOOOOOOOOOOOOOOOOOOOOOOOOOOO",
"OOOOOOOOOOOOOOOOOOOOOOOOOOOOOOOOOOOOOOOOOOOOOOOOOOOOOOOOOOOOOOOOOOOOOOOOOOOOOOOOOOOOOOOOOOOOOOOOOOOOOOOOOOOOOOOOOOOOOOOOOOOOOOOOOOOOOOOOOOOOOOOOOOOOOOOOOOOOOOOOOOOOOOOOOOOOOOOOOOOOOOOOOOOOOOOOOOOOOOOOOOOOOOOOOOOOOOOOOOOOOOOOOOOOOOOOOOOOOOOOOOOOOOOOOOOOOOOOOOOOOOOOOOOOOOOOOOOOOOOOOOOOOOOO",
"OOOOOOOOOOOOOOOOOOOOOOOOOOOOOOOOOOOOOOOOOOOOOOOOOOOOOOOOOOOOOOOOOOOOOOOOOOOOOOOOOOOOOOOOOOOOOOOOOOOOOOOOOOOOOOOOOOOOOOOOOOOOOOOOOOOOOOOOOOOOOOOOOOOOOOOOOOOOOOOOOOOOOOOOOOOOOOOOOOOOOOOOOOOOOOOOOOOOOOOOOOOOOOOOOOOOOOOOOOOOOOOOOOOOOOOOOOOOOOOOOOOOOOOOOOOOOOOOOOOOOOOOOOOOOOOOOOOOOOOOOOOOOOOO",
"OOOOOOOOOOOOOOOOOOOOOOOOOOOOOOOOOOOOOOOOOOOOOOOOOOOOOOOOOOOOOOOOOOOOOOOOOOOOOOOOOOOOOOOOOOOOOOOOOOOOOOOOOOOOOOOOOOOOOOOOOOOOOOOOOOOOOOOOOOOOOOOOOOOOOOOOOOOOOOOOOOOOOOOOOOOOOOOOOOOOOOOOOOOOOOOOOOOOOOOOOOOOOOOOOOOOOOOOOOOOOOOOOOOOOOOOOOOOOOOOOOOOOOOOOOOOOOOOOOOOOOOOOOOOOOOOOOOOOOOOOOOOOOOO",
"OOOOOOOOOOOOOOOOOOOOOOOOOOOOOOOOOOOOOOOOOOOOOOOOOOOOOOOOOOOOOOOOOOOOOOOOOOOOOOOOOOOOOOOOOOOOOOOOOOOOOOOOOOOOOOOOOOOOOOOOOOOOOOOOOOOOOOOOOOOOOOOOOOOOOOOOOOOOOOOOOOOOOOOOOOOOOOOOOOOOOOOOOOOOOOOOOOOOOOOOOOOOOOOOOOOOOOOOOOOOOOOOOOOOOOOOOOOOOOOOOOOOOOOOOOOOOOOOOOOOOOOOOOOOOOOOOOOOOOOOOOOOOOOO",
"OOOOOOOOOOOOOOOOOOOOOOOOOOOOOOOOOOOOOOOOOOOOOOOOOOOOOOOOOOOOOOOOOOOOOOOOOOOOOOOOOOOOOOOOOOOOOOOOOOOOOOOOOOOOOOOOOOOOOOOOOOOOOOOOOOOOOOOOOOOOOOOOOOOOOOOOOOOOOOOOOOOOOOOOOOOOOOOOOOOOOOOOOOOOOOOOOOOOOOOOOOOOOOOOOOOOOOOOOOOOOOOOOOOOOOOOOOOOOOOOOOOOOOOOOOOOOOOOOOOOOOOOOOOOOOOOOOOOOOOOOOOOOOOO",
"OOOOOOOOOOOOOOOOOOOOOOOOOOOOOOOOOOOOOOOOOOOOOOOOOOOOOOOOOOOOOOOOOOOOOOOOOOOOOOOOOOOOOOOOOOOOOOOOOOOOOOOOOOOOOOOOOOOOOOOOOOOOOOOOOOOOOOOOOOOOOOOOOOOOOOOOOOOOOOOOOOOOOOOOOOOOOOOOOOOOOOOOOOOOOOOOOOOOOOOOOOOOOOOOOOOOOOOOOOOOOOOOOOOOOOOOOOOOOOOOOOOOOOOOOOOOOOOOOOOOOOOOOOOOOOOOOOOOOOOOOOOOOOOO",
"OOOOOOOOOOOOOOOOOOOOOOOOOOOOOOOOOOOOOOOOOOOOOOOOOOOOOOOOOOOOOOOOOOOOOOOOOOOOOOOOOOOOOOOOOOOOOOOOOOOOOOOOOOOOOOOOOOOOOOOOOOOOOOOOOOOOOOOOOOOOOOOOOOOOOOOOOOOOOOOOOOOOOOOOOOOOOOOOOOOOOOOOOOOOOOOOOOOOOOOOOOOOOOOOOOOOOOOOOOOOOOOOOOOOOOOOOOOOOOOOOOOOOOOOOOOOOOOOOOOOOOOOOOOOOOOOOOOOOOOOOOOOOOOO",
"OOOOOOOOOOOOOOOOOOOOOOOOOOOOOOOOOOOOOOOOOOOOOOOOOOOOOOOOOOOOOOOOOOOOOOOOOOOOOOOOOOOOOOOOOOOOOOOOOOOOOOOOOOOOOOOOOOOOOOOOOOOOOOOOOOOOOOOOOOOOOOOOOOOOOOOOOOOOOOOOOOOOOOOOOOOOOOOOOOOOOOOOOOOOOOOOOOOOOOOOOOOOOOOOOOOOOOOOOOOOOOOOOOOOOOOOOOOOOOOOOOOOOOOOOOOOOOOOOOOOOOOOOOOOOOOOOOOOOOOOOOOOOOOO",
"OOOOOOOOOOOOOOOOOOOOOOOOOOOOOOOOOOOOOOOOOOOOOOOOOOOOOOOOOOOOOOOOOOOOOOOOOOOOOOOOOOOOOOOOOOOOOOOOOOOOOOOOOOOOOOOOOOOOOOOOOOOOOOOOOOOOOOOOOOOOOOOOOOOOOOOOOOOOOOOOOOOOOOOOOOOOOOOOOOOOOOOOOOOOOOOOOOOOOOOOOOOOOOOOOOOOOOOOOOOOOOOOOOOOOOOOOOOOOOOOOOOOOOOOOOOOOOOOOOOOOOOOOOOOOOOOOOOOOOOOOOOOOOOO",
"OOOOOOOOOOOOOOOOOOOOOOOOOOOOOOOOOOOOOOOOOOOOOOOOOOOOOOOOOOOOOOOOOOOOOOOOOOOOOOOOOOOOOOOOOOOOOOOOOOOOOOOOOOOOOOOOOOOOOOOOOOOOOOOOOOOOOOOOOOOOOOOOOOOOOOOOOOOOOOOOOOO  OOOOOO  OOOOOOOOOOOOOOOOOOOOOOOOOOOOOOOOOOOOOOOOOOOOOOOOOOOOOOOOOOOOOOOOOOOOOOOOOOOOOOOOOOOOOOOOOOOOOOOOOOOOOOOOOOOOOOOOOOO",
"OOOOOOOOOOOOOOOOOOOOOOOOOOOOOOOOOOOOOOOOOOOOOOOOOOOOOOOOOOOOOOOOOOOOOOOOOOOOOOOOOOOOOOOOOOOOOOOOOOOOOOOOOOOOOOOOOOO  OOOOOO  OOOOOOOOOOOOOOOOOOOOOOOOOOOOOOOOOOOOOO o OOOO o OOOOOOOOOOOOOOOOOOOOOOOOOOOOOOOOOOOOOO  OOOOOO  OOOOOOOOOOOOOOOOOOOOOOOOOOOOOOOOOOOOOOOOOOOOOOOOOOOOOOOOOOOOOOOOOOO",
"OOOOOOOOOOOOOOOOOOO  OOOOOO  OOOOOOOOOOOOOOOOOOOOOOOOOOOOOOOOOOOOOO  OOOOOO  OOOOOOOOOOOOOOOOOOOOOOOOOOOOOOOOOOOOOO o OOOO o OOOOOOOOOOOOOOOOOOOOOOOOOOOOOOOOOOOOOO oo    oo OOOOOOOOOOOOOOOOOOOOOOOOOOOOOOOOOOOOOO o OOOO o OOOOOOOOOOOOOOOOOOOOOOOOOOOOOOOOOOOOOO  OOOOOO  OOOOOOOOOOOOOOOOOOO",
"OOOOOOOOOOOOOOOOOOO o OOOO o OOOOOOOOOOOOOOOOOOOOOOOOOOOOOOOOOOOOOO o OOOO o OOOOOOOOOOOOOOOOOOOOOOOOOOOOOOOOOOOOOO oo    oo OOOOOOOOOOOOOOOOOOOOOOOOOOOOOOOOOOOOOO oXooooXo OOOOOOOOOOOOOOOOOOOOOOOOOOOOOOOOOOOOOO oo    oo OOOOOOOOOOOOOOOOOOOOOOOOOOOOOOOOOOOOOO o OOOO o OOOOOOOOOOOOOOOOOOO",
"OOOOOOOOOOOOOOOOOOO oo    oo OOOOOOOOOOOOOOOOOOOOOOOOOOOOOOOOOOOOOO oo    oo OOOOOOOOOOOOOOOOOOOOOOOOOOOOOOOOOOOOOO oXooooXo OOOOOOOOOOOOOOOOOOOOOOOOOOOOOOOOOOOOOO XooooooX OOOOOOOOOOOOOOOOOOOOOOOOOOOOOOOOOOOOOO oXooooXo OOOOOOOOOOOOOOOOOOOOOOOOOOOOOOOOOOOOOO oo    oo OOOOOOOOOOOOOOOOOOO",
"OOOOOOOOOOOOOOOOOOO oXooooXo OOOOOOOOOOOOOOOOOOOOOOOOOOOOOOOOOOOOOO oXooooXo OOOOOOOOOOOOOOOOOOOOOOOOOOOOOOOOOOOOOO XooooooX OOOOOOOOOOOOOOOOOOOOOOOOOOOOOOOOOOOOOO XooooooX OOOOOOOOOOOOOOOOOOOOOOOOOOOOOOOOOOOOOO XooooooX OOOOOOOOOOOOOOOOOOOOOOOOOOOOOOOOOOOOOO oXooooXo OOOOOOOOOOOOOOOOOOO",
"OOOOOOOOOOOOOOOOOOO XooooooX OOOOOOOOOOOOOOOOOOOOOOOOOOOOOOOOOOOOOO XooooooX OOOOOOOOOOOOOOOOOOOOOOOOOOOOOOOOOOOOOO XooooooX OOOOOOOOOOOOOOOOOOOOOOOOOOOOOOOOOOOOOO XXooooXX OOOOOOOOOOOOOOOOOOOOOOOOOOOOOOOOOOOOOO XooooooX OOOOOOOOOOOOOOOOOOOOOOOOOOOOOOOOOOOOOO XooooooX OOOOOOOOOOOOOOOOOOO",
"OOOOOOOOOOOOOOOOOOO XooooooX OOOOOOOOOOOOOOOOOOOOOOOOOOOOOOOOOOOOOO XooooooX OOOOOOOOOOOOOOOOOOOOOOOOOOOOOOOOOOOOOO XXooooXX OOOOOOOOOOOOOOOOOOOOOOOOOOOOOOOOOOOOOOO oooooo OOOOOOOOOOOOOOOOOOOOOOOOOOOOOOOOOOOOOOO XXooooXX OOOOOOOOOOOOOOOOOOOOOOOOOOOOOOOOOOOOOO XooooooX OOOOOOOOOOOOOOOOOOO",
"OOOOOOOOOOOOOOOOOOO XXooooXX OOOOOOOOOOOOOOOOOOOOOOOOOOOOOOOOOOOOOO XXooooXX OOOOOOOOOOOOOOOOOOOOOOOOOOOOOOOOOOOOOOO oooooo OOOOOOOOOOOOOOOOOOOOOOOOOOOOOOOOOOOOOOO XooooooX OOOOOOOOOOOOOOOOOOOOOOOOOOOOOOOOOOOOOOO oooooo OOOOOOOOOOOOOOOOOOOOOOOOOOOOOOOOOOOOOOO XXooooXX OOOOOOOOOOOOOOOOOOO",
"OOOOOOOOOOOOOOOOOOOO oooooo OOOOOOOOOOOOOOOOOOOOOOOOOOOOOOOOOOOOOOOO oooooo OOOOOOOOOOOOOOOOOOOOOOOOOOOOOOOOOOOOOOO XooooooX OOOOOOOOOOOOOOOOOOOOOOOOOOOOOOOOOOOOOO XooooooX OOOOOOOOOOOOOOOOOOOOOOOOOOOOOOOOOOOOOO XooooooX OOOOOOOOOOOOOOOOOOOOOOOOOOOOOOOOOOOOOOO oooooo OOOOOOOOOOOOOOOOOOOO",
"OOOOOOOOOOOOOOOOOOO XoXXXooX OOOOOOOOOOOOOOOOOOOOOOOOOOOOOOOOOOOOOO XooooooX OOOOOOOOOOOOOOOOOOOOOOOOOOOOOOOOOOOOO  XooooooX  OOOOOOOOOOOOOOOOOOOOOOOOOOOOOOOOOOOO XooooooooX OOOOOOOOOOOOOOOOOOOOOOOOOOOOOOOOOOOOO XooooooX OOOOOOOOOOOOOOOOOOOOOOOOOOOOOOOOOOOOOO XooooooX OOOOOOOOOOOOOOOOOOO",
"OOOOOOOOOOOOOOOOOO Xo.oooXooX OOOOOOOOOOOOOOOOOOOOOOOOOOOOOOOOOOOOO XoXXXXXX OOOOOOOOOOOOOOOOOOOOOOOOOOOOOOOOOOOO .XooXXXoooX. OOOOOOOOOOOOOOOOOOOOOOOOOOOOOOOOOOO XooXXXoooX OOOOOOOOOOOOOOOOOOOOOOOOOOOOOOOOOOOO XooXXXoooX OOOOOOOOOOOOOOOOOOOOOOOOOOOOOOOOOOOOO XoXXXooX OOOOOOOOOOOOOOOOOOO",
"OOOOOOOOOOOOOOOOOO X.oooooXoX OOOOOOOOOOOOOOOOOOOOOOOOOOOOOOOOOOOO Xo.ooooXoX OOOOOOOOOOOOOOOOOOOOOOOOOOOOOOOOOOO .Xo.oooXXoX. OOOOOOOOOOOOOOOOOOOOOOOOOOOOOOOOOO .Xo.oooXooX. OOOOOOOOOOOOOOOOOOOOOOOOOOOOOOOOOOO Xo.oooXooX OOOOOOOOOOOOOOOOOOOOOOOOOOOOOOOOOOOO Xo.oooXooX OOOOOOOOOOOOOOOOOO",
"OOOOOOOOOOOOOOOOOO X.ooXXXXoX OOOOOOOOOOOOOOOOOOOOOOOOOOOOOOOOOOOO X.ooooXooX OOOOOOOOOOOOOOOOOOOOOOOOOOOOOOOOOOO .X.oooooXoX. OOOOOOOOOOOOOOOOOOOOOOOOOOOOOOOOOO .X.oooooXoX. OOOOOOOOOOOOOOOOOOOOOOOOOOOOOOOOOOO X.oooooXoX OOOOOOOOOOOOOOOOOOOOOOOOOOOOOOOOOOOO X.oooooXoX OOOOOOOOOOOOOOOOOO",
"OOOOOOOOOOOOOOOOOO X.ooo.oooX OOOOOOOOOOOOOOOOOOOOOOOOOOOOOOOOOOOO X.ooXXoooX OOOOOOOOOOOOOOOOOOOOOOOOOOOOOOOOOOOO X.ooXXXooX OOOOOOOOOOOOOOOOOOOOOOOOOOOOOOOOOOO .X.ooXXXXoX. OOOOOOOOOOOOOOOOOOOOOOOOOOOOOOOOOO .X.ooXXXXoX. OOOOOOOOOOOOOOOOOOOOOOOOOOOOOOOOOOO X.ooXXXXoX OOOOOOOOOOOOOOOOOO",
"OOOOOOOOOOOOOOOOOO X.Xooo.oXX OOOOOOOOOOOOOOOOOOOOOOOOOOOOOOOOOOOO X.ooo.oooX OOOOOOOOOOOOOOOOOOOOOOOOOOOOOOOOOOOO X.ooo.oooX OOOOOOOOOOOOOOOOOOOOOOOOOOOOOOOOOOOO X.ooo.oooX OOOOOOOOOOOOOOOOOOOOOOOOOOOOOOOOOOO .X.ooo.oooX. OOOOOOOOOOOOOOOOOOOOOOOOOOOOOOOOOOO X.ooo.oooX OOOOOOOOOOOOOOOOOO",
"OOOOOOOOOOOOOOOOOO XX.XooXXXX OOOOOOOOOOOOOOOOOOOOOOOOOOOOOOOOOOOO X.Xooo.oXX OOOOOOOOOOOOOOOOOOOOOOOOOOOOOOOOOOOO X.Xooo.oXX OOOOOOOOOOOOOOOOOOOOOOOOOOOOOOOOOOOO X.Xooo.oXX OOOOOOOOOOOOOOOOOOOOOOOOOOOOOOOOOOO  X.Xooo.oXX  OOOOOOOOOOOOOOOOOOOOOOOOOOOOOOOOOOO X.Xooo.oXX OOOOOOOOOOOOOOOOOO",
"OOOOOOOOOOOOOOOOOO XXXXXXXXXX OOOOOOOOOOOOOOOOOOOOOOOOOOOOOOOOOOOO XX.XooXXXX OOOOOOOOOOOOOOOOOOOOOOOOOOOOOOOOOOOO XX.XooXXXX OOOOOOOOOOOOOOOOOOOOOOOOOOOOOOOOOOOO XX.XooXXXX OOOOOOOOOOOOOOOOOOOOOOOOOOOOOOOOOOOO XX.XooXXXX OOOOOOOOOOOOOOOOOOOOOOOOOOOOOOOOOOOO XX.XooXXXX OOOOOOOOOOOOOOOOOO",
"OOOOOOOOOOOOOOOOOO XXXXXXXXXX OOOOOOOOOOOOOOOOOOOOOOOOOOOOOOOOOOOO XXXXXXXXXX OOOOOOOOOOOOOOOOOOOOOOOOOOOOOOOOOOOO XXXXXXXXXX OOOOOOOOOOOOOOOOOOOOOOOOOOOOOOOOOOOO XXXXXXXXXX OOOOOOOOOOOOOOOOOOOOOOOOOOOOOOOOOOOO XXXXXXXXXX OOOOOOOOOOOOOOOOOOOOOOOOOOOOOOOOOOOO XXXXXXXXXX OOOOOOOOOOOOOOOOOO",
"OOOOOOOOOOOOOOOOOO .XXX  XXX. OOOOOOOOOOOOOOOOOOOOOOOOOOOOOOOOOOOO XXXXXXXXXX OOOOOOOOOOOOOOOOOOOOOOOOOOOOOOOOOOOO XXXXXXXXXX OOOOOOOOOOOOOOOOOOOOOOOOOOOOOOOOOOOO ooXXXXXXoo OOOOOOOOOOOOOOOOOOOOOOOOOOOOOOOOOOOO XXXXXXXXXX OOOOOOOOOOOOOOOOOOOOOOOOOOOOOOOOOOOO XXXXXXXXXX OOOOOOOOOOOOOOOOOO",
"OOOOOOOOOOOOOOOOOOO ...  ... OOOOOOOOOOOOOOOOOOOOOOOOOOOOOOOOOOOOO XXXX  XXXX OOOOOOOOOOOOOOOOOOOOOOOOOOOOOOOOOOOO XXXX  XXXX OOOOOOOOOOOOOOOOOOOOOOOOOOOOOOOOOOOO oooX  Xooo OOOOOOOOOOOOOOOOOOOOOOOOOOOOOOOOOOOO X...  ...X OOOOOOOOOOOOOOOOOOOOOOOOOOOOOOOOOOOO ....  .... OOOOOOOOOOOOOOOOOO",
"OOOOOOOOOOOOOOOOOOO .. OO .. OOOOOOOOOOOOOOOOOOOOOOOOOOOOOOOOOOOOO XXX OO XXX OOOOOOOOOOOOOOOOOOOOOOOOOOOOOOOOOOO XXXX OO XXXX OOOOOOOOOOOOOOOOOOOOOOOOOOOOOOOOOOO ooo OO ooo OOOOOOOOOOOOOOOOOOOOOOOOOOOOOOOOOOOO X.. OO ..X OOOOOOOOOOOOOOOOOOOOOOOOOOOOOOOOOOOOO ...  ... OOOOOOOOOOOOOOOOOOO",
"OOOOOOOOOOOOOOOOOOOO  OOOO  OOOOOOOOOOOOOOOOOOOOOOOOOOOOOOOOOOOOOO XXX OO XXX OOOOOOOOOOOOOOOOOOOOOOOOOOOOOOOOOOO oooo OO oooo OOOOOOOOOOOOOOOOOOOOOOOOOOOOOOOOOOO ooo OO ooo OOOOOOOOOOOOOOOOOOOOOOOOOOOOOOOOOOOO XXX OO XXX OOOOOOOOOOOOOOOOOOOOOOOOOOOOOOOOOOOOO .. OO .. OOOOOOOOOOOOOOOOOOO",
"OOOOOOOOOOOOOOOOOOOOOOOOOOOOOOOOOOOOOOOOOOOOOOOOOOOOOOOOOOOOOOOOOO XXX OO XXX OOOOOOOOOOOOOOOOOOOOOOOOOOOOOOOOOOO ooo OOOO ooo OOOOOOOOOOOOOOOOOOOOOOOOOOOOOOOOOOO ooo OO ooo OOOOOOOOOOOOOOOOOOOOOOOOOOOOOOOOOOOO XX OOOO XX OOOOOOOOOOOOOOOOOOOOOOOOOOOOOOOOOOOOOO  OOOO  OOOOOOOOOOOOOOOOOOOO",
"OOOOOOOOOOOOOOOOOOOOOOOOOOOOOOOOOOOOOOOOOOOOOOOOOOOOOOOOOOOOOOOOOO XXX OO XXX OOOOOOOOOOOOOOOOOOOOOOOOOOOOOOOOOOO ooo OOOO ooo OOOOOOOOOOOOOOOOOOOOOOOOOOOOOOOOOOO ooo OO ooo OOOOOOOOOOOOOOOOOOOOOOOOOOOOOOOOOOOOO  OOOOOO  OOOOOOOOOOOOOOOOOOOOOOOOOOOOOOOOOOOOOOOOOOOOOOOOOOOOOOOOOOOOOOOOOOO",
"OOOOOOOOOOOOOOOOOOOOOOOOOOOOOOOOOOOOOOOOOOOOOOOOOOOOOOOOOOOOOOOOOOOXXOOOOOOXXOOOOOOOOOOOOOOOOOOOOOOOOOOOOOOOOOOOOOooOOOOOOOOooOOOOOOOOOOOOOOOOOOOOOOOOOOOOOOOOOOOOOooOOOOOOooOOOOOOOOOOOOOOOOOOOOOOOOOOOOOOOOOOOOOOOOOOOOOOOOOOOOOOOOOOOOOOOOOOOOOOOOOOOOOOOOOOOOOOOOOOOOOOOOOOOOOOOOOOOOOOOOOOO",
"OOOOOOOOOOOOOOOOOOOOOOOOOOOOOOOOOOOOOOOOOOOOOOOOOOOOOOOOOOOOOOOOOOOOOOOOOOOOOOOOOOOOOOOOOOOOOOOOOOOOOOOOOOOOOOOOOOOOOOOOOOOOOOOOOOOOOOOOOOOOOOOOOOOOOOOOOOOOOOOOOOOOOOOOOOOOOOOOOOOOOOOOOOOOOOOOOOOOOOOOOOOOOOOOOOOOOOOOOOOOOOOOOOOOOOOOOOOOOOOOOOOOOOOOOOOOOOOOOOOOOOOOOOOOOOOOOOOOOOOOOOOOOOOO",
"OOOOOOOOOOOOOOOOOOOOOOOOOOOOOOOOOOOOOOOOOOOOOOOOOOOOOOOOOOOOOOOOOOOOOOOOOOOOOOOOOOOOOOOOOOOOOOOOOOOOOOOOOOOOOOOOOOOOOOOOOOOOOOOOOOOOOOOOOOOOOOOOOOOOOOOOOOOOOOOOOOOOOOOOOOOOOOOOOOOOOOOOOOOOOOOOOOOOOOOOOOOOOOOOOOOOOOOOOOOOOOOOOOOOOOOOOOOOOOOOOOOOOOOOOOOOOOOOOOOOOOOOOOOOOOOOOOOOOOOOOOOOOOOO",
"OOOOOOOOOOOOOOOOOOOOOOOOOOOOOOOOOOOOOOOOOOOOOOOOOOOOOOOOOOOOOOOOOOOOOOOOOOOOOOOOOOOOOOOOOOOOOOOOOOOOOOOOOOOOOOOOOOOOOOOOOOOOOOOOOOOOOOOOOOOOOOOOOOOOOOOOOOOOOOOOOOOOOOOOOOOOOOOOOOOOOOOOOOOOOOOOOOOOOOOOOOOOOOOOOOOOOOOOOOOOOOOOOOOOOOOOOOOOOOOOOOOOOOOOOOOOOOOOOOOOOOOOOOOOOOOOOOOOOOOOOOOOOOOO",
"OOOOOOOOOOOOOOOOOOOOOOOOOOOOOOOOOOOOOOOOOOOOOOOOOOOOOOOOOOOOOOOOOOOOOOOOOOOOOOOOOOOOOOOOOOOOOOOOOOOOOOOOOOOOOOOOOOOOOOOOOOOOOOOOOOOOOOOOOOOOOOOOOOOOOOOOOOOOOOOOOOOOOOOOOOOOOOOOOOOOOOOOOOOOOOOOOOOOOOOOOOOOOOOOOOOOOOOOOOOOOOOOOOOOOOOOOOOOOOOOOOOOOOOOOOOOOOOOOOOOOOOOOOOOOOOOOOOOOOOOOOOOOOOO",
"OOOOOOOOOOOOOOOOOOOOOOOOOOOOOOOOOOOOOOOOOOOOOOOOOOOOOOOOOOOOOOOOOOOOOOOOOOOOOOOOOOOOOOOOOOOOOOOOOOOOOOOOOOOOOOOOOOOOOOOOOOOOOOOOOOOOOOOOOOOOOOOOOOOOOOOOOOOOOOOOOOOOOOOOOOOOOOOOOOOOOOOOOOOOOOOOOOOOOOOOOOOOOOOOOOOOOOOOOOOOOOOOOOOOOOOOOOOOOOOOOOOOOOOOOOOOOOOOOOOOOOOOOOOOOOOOOOOOOOOOOOOOOOOO",
"OOOOOOOOOOOOOOOOOOOOOOOOOOOOOOOOOOOOOOOOOOOOOOOOOOOOOOOOOOOOOOOOOOOOOOOOOOOOOOOOOOOOOOOOOOOOOOOOOOOOOOOOOOOOOOOOOOOOOOOOOOOOOOOOOOOOOOOOOOOOOOOOOOOOOOOOOOOOOOOOOOOOOOOOOOOOOOOOOOOOOOOOOOOOOOOOOOOOOOOOOOOOOOOOOOOOOOOOOOOOOOOOOOOOOOOOOOOOOOOOOOOOOOOOOOOOOOOOOOOOOOOOOOOOOOOOOOOOOOOOOOOOOOOO",
"OOOOOOOOOOOOOOOOOOOOOOOOOOOOOOOOOOOOOOOOOOOOOOOOOOOOOOOOOOOOOOOOOOOOOOOOOOOOOOOOOOOOOOOOOOOOOOOOOOOOOOOOOOOOOOOOOOOOOOOOOOOOOOOOOOOOOOOOOOOOOOOOOOOOOOOOOOOOOOOOOOOOOOOOOOOOOOOOOOOOOOOOOOOOOOOOOOOOOOOOOOOOOOOOOOOOOOOOOOOOOOOOOOOOOOOOOOOOOOOOOOOOOOOOOOOOOOOOOOOOOOOOOOOOOOOOOOOOOOOOOOOOOOOO",
"OOOOOOOOOOOOOOOOOOOOOOOOOOOOOOOOOOOOOOOOOOOOOOOOOOOOOOOOOOOOOOOOOOOOOOOOOOOOOOOOOOOOOOOOOOOOOOOOOOOOOOOOOOOOOOOOOOOOOOOOOOOOOOOOOOOOOOOOOOOOOOOOOOOOOOOOOOOOOOOOOOOOOOOOOOOOOOOOOOOOOOOOOOOOOOOOOOOOOOOOOOOOOOOOOOOOOOOOOOOOOOOOOOOOOOOOOOOOOOOOOOOOOOOOOOOOOOOOOOOOOOOOOOOOOOOOOOOOOOOOOOOOOOOO",
"OOOOOOOOOOOOOOOOOOOOOOOOOOOOOOOOOOOOOOOOOOOOOOOOOOOOOOOOOOOOOOOOOOOOOOOOOOOOOOOOOOOOOOOOOOOOOOOOOOOOOOOOOOOOOOOOOOOOOOOOOOOOOOOOOOOOOOOOOOOOOOOOOOOOOOOOOOOOOOOOOOOOOOOOOOOOOOOOOOOOOOOOOOOOOOOOOOOOOOOOOOOOOOOOOOOOOOOOOOOOOOOOOOOOOOOOOOOOOOOOOOOOOOOOOOOOOOOOOOOOOOOOOOOOOOOOOOOOOOOOOOOOOOOO"
};
