/* XPM */
static char *exit1723360530[] = {
/* columns rows colors chars-per-pixel */
"64 64 198 2 ",
"   c #3F1D19",
".  c #34261D",
"X  c #3C211C",
"o  c #242723",
"O  c #262925",
"+  c #282B27",
"@  c #2A2E29",
"#  c #3E2424",
"$  c #362A24",
"%  c #3B2A25",
"&  c #3C2C2B",
"*  c #2D312B",
"=  c #373126",
"-  c #3C3326",
";  c #31342E",
":  c #3E322B",
">  c #3C3A2E",
",  c #333631",
"<  c #353933",
"1  c #393D37",
"2  c #3A3E38",
"3  c #471517",
"4  c #491617",
"5  c #461719",
"6  c #4B1718",
"7  c #441C1C",
"8  c #4C1B1B",
"9  c #46201F",
"0  c #401F20",
"q  c #442323",
"w  c #4B2423",
"e  c #432927",
"r  c #4C2826",
"t  c #452C2B",
"y  c #4B2C2A",
"u  c #41322F",
"i  c #4A312E",
"p  c #453928",
"a  c #4C3C29",
"s  c #523D29",
"d  c #443432",
"f  c #483533",
"g  c #433A31",
"h  c #483836",
"j  c #4B3D3A",
"k  c #3E413B",
"l  c #57452B",
"z  c #5E462B",
"x  c #4D4534",
"c  c #41443E",
"v  c #4D413E",
"b  c #56493A",
"n  c #61442B",
"m  c #614A2C",
"M  c #734D2B",
"N  c #74522D",
"B  c #79512D",
"V  c #7C592E",
"C  c #675539",
"Z  c #795635",
"A  c #7E6431",
"S  c #434741",
"D  c #4F4340",
"F  c #464943",
"G  c #494D46",
"H  c #4C4F49",
"J  c #524642",
"K  c #534945",
"L  c #574E4A",
"P  c #584F4A",
"I  c #4E524A",
"U  c #52544D",
"Y  c #5A524D",
"T  c #545750",
"R  c #565A52",
"E  c #5C5853",
"W  c #5C5B54",
"Q  c #665B4E",
"!  c #605D56",
"~  c #625F59",
"^  c #5C6157",
"/  c #5E625A",
"(  c #66665A",
")  c #63655D",
"_  c #746A5C",
"`  c #666A61",
"'  c #6A6C64",
"]  c #6D7166",
"[  c #6F736A",
"{  c #71756B",
"}  c #75796E",
"|  c #777B70",
" . c #797D71",
".. c #865F2D",
"X. c #8C5B2D",
"o. c #915D2E",
"O. c #865631",
"+. c #8B5A30",
"@. c #8B692B",
"#. c #97662E",
"$. c #9B622D",
"%. c #836433",
"&. c #8B6634",
"*. c #976632",
"=. c #AE6C2F",
"-. c #A7742E",
";. c #BA7E2B",
":. c #A36632",
">. c #A96733",
",. c #A26D35",
"<. c #AD6A32",
"1. c #B36D35",
"2. c #AD7434",
"3. c #B57633",
"4. c #BA7637",
"5. c #BC7C34",
"6. c #C6752D",
"7. c #C5792C",
"8. c #C97A2E",
"9. c #C57534",
"0. c #C97636",
"q. c #C57A32",
"w. c #CA7A35",
"e. c #C57539",
"r. c #CA7739",
"t. c #C67839",
"y. c #CC7A39",
"u. c #D27636",
"i. c #857C6D",
"p. c #7E8376",
"a. c #BF8032",
"s. c #CE812E",
"d. c #D68D2F",
"f. c #D88D2F",
"g. c #DC952D",
"h. c #C48135",
"j. c #CC8236",
"k. c #C08933",
"l. c #CC8B33",
"z. c #CC813A",
"x. c #D38535",
"c. c #D68B35",
"v. c #D98D36",
"b. c #D3833B",
"n. c #D9863A",
"m. c #D68A3A",
"M. c #DA8C3A",
"N. c #CD9138",
"B. c #DB9234",
"V. c #DD9835",
"C. c #D79438",
"Z. c #DB9139",
"A. c #E29C2F",
"S. c #E09636",
"D. c #E39B35",
"F. c #E99F36",
"G. c #E1953B",
"H. c #E49B3A",
"J. c #DFA033",
"K. c #EDA82E",
"L. c #F2B52E",
"P. c #E5A134",
"I. c #EBA435",
"U. c #EEA934",
"Y. c #ECA43B",
"T. c #EEA93A",
"R. c #F1A636",
"E. c #F1AA34",
"W. c #F0A63A",
"Q. c #F2AC3B",
"!. c #F5B339",
"~. c #808577",
"^. c #818678",
"/. c #84897A",
"(. c #928A7B",
"). c #DA8840",
"_. c #DB8C41",
"`. c #E59A41",
"'. c #EDA342",
"]. c #F1A941",
"[. c #9B9383",
"{. c #A69D8C",
"}. c #ADA696",
"|. c #B2AA98",
" X c #B7B09D",
".X c #B9B29F",
"XX c #BBB5A2",
"oX c #BFB9A6",
"OX c #C2BDAA",
"+X c #CCC7B5",
"@X c #D1CDBB",
"#X c #D4D0BE",
"$X c #DBD7C6",
"%X c #E0DDCC",
"&X c #E5E3D2",
"*X c #EDEBDB",
"=X c #F7F6E8",
"-X c #FEFDF1",
/* pixels */
"!.T.T.E.U.U.R.E.R.W.W.W.R.W.W.'.'.'._.c.M.v.Z.v.M.n.v.v.M.M.M.M.Z.M.b.w.w.9.r.r.r.r.r.r.r.r.r.r.r.r.r.r.r.r.r.r.r.r.e.r.r.r.r.r.",
"L.I.E.E.R.E.R.K.K.E.E.R.I.F.F.F.F.Y.Z.c.c.v.M.c.v.M.B.x.m.x.x.x.b.n.y.0.9.r.r.r.r.r.r.r.r.r.e.u.r.r.r.r.r.r.r.r.r.r.e.u.r.r.r.r.",
"L.E.E.E.T.U.W.Y.Q.R.R.A.f.B.f.f.v.v.c.v.M.Z.c.C.Z.c.M.M.m.b.q.q.0.9.9.r.e.0.r.r.0.0.0.0.r.r.u.e.r.r.r.r.0.0.0.0.r.r.u.0.r.r.r.r.",
"!.T.`.G.G.H.H.H.H.D.H.G.M.M.M.n.M.B.c.v.v.c.c.M.c.M.x.j.w.w.9.q.9.9.9.9.9.9.0.0.9.0.0.0.e.e.e.0.e.0.r.e.0.0.0.0.e.e.e.e.0.e.e.e.",
"Y.P.C.M.c.v.c.M.M.M.B.n.n.n.G.M.M.M.v.M.c.c.v.v.C.j.7.7.w.w.<.@ + a q.w.w.w.w.u.y.u.z.w.y.w.w.y.u.r.w.w.y.u.w.w.w.u.w.w.r.y.w.y.",
"B.C.c.c.c.c.v.v.Z._.n.Z.M.M.M.M.v.M.v.v.C.c.C.c.j.; * z._.a.1 /./.[ x k.x.x.j.j.c.x.v.M.M.M.n.M.n.u.n.n.m.M.v.n.M.b.v.n.n.x.M.n.",
"M.M.c.v.B.c.c.v.M.M.B.n.B.n.n.n.M.v.v.M.M.M.h.q.> p./.; 5.* p.[ ] } ' l N.*.* N l.l.v.D.D.D.P.H.H.D.D.D.D.D.S.D.D.D.D.D.H.D.S.B.",
"M.C.C.c.v.v.C.B.B.n.n.B.n.B.n.B.v.v.v.v.M.q.x , p.[ [ p.@ G [ [ { ] ^ k , I p.) ; , A D.U.R.U.E.E.R.R.U.U.U.R.T.E.E.R.R.W.'.H.B.",
"C.v.v.v.v.v.v.v.v.n.B.n.B.v.n.B.v.v.v.M.q.x  .^.[ [ [ ` G ~.[ [ [ / S T | [ [ | ^.^.^ %.J.U.U.U.E.E.E.E.E.E.E.E.T.U.I.D.g.S.`.M.",
"M.v.c.c.v.c.B.M.v.B.n.n.n.B.B.n.v.v.5.3.x } { [ [ [ } c ~.[ [ [ ' W } { I ` [ [ [ {  .^ %.k.k.V.I.P.Y.P.I.P.Y.P.F.I.Y.D.v.c.M.n.",
"c.c.d.g.c.c.M.v.n.B.M.v.B.n.v.n.B.5.b k ] [ [ [ [ [ ^.H [ { [ [ [ { [ ] ^ T ' [ [ [ [ p.U * 2 A 2.l.B.B.B.v.B.B.v.v.Z.v.v.v.M.M.",
"D.J.J.g.d.c.c.M.B.n.n.B.M.M.M.B.5.b { p.F ` [ [ [ [ [ W [ [ ` K j K W [ ` { ^ [ [ [ [ | U ^ p.R c %.j.c.v.v.v.M.v.v.v.M.v.Z.v.Z.",
"!.Q.T.P.f.B.M.v.v.v.v.v.M.v.4.<.a ] ^.} U ) [ [ [ [ h h K j 6 5 6 8 f h h h j [ [ [ ] ` T ) [ p.~.T &.z.M._.m.M._.M._.M.n._.M.Z.",
"U.!.Q.T.Y.'.H.v.M.v.M.v.M.4.C c < ^ [ [ [ Y W ! Y h i 0 7 7 & t h # 7 5 9 7 9 t ) W E G ^ ] [ [ ] { 2 :.y.y.y.y.y.y.y.y.y.y.b.u.",
"U.P.P.Y.I.Y.D.v.v.v.M.M.3.C ] p.) R W ) W XX*X-XY 3 t d f t E E [ E d h E f & # i =X*X+XY [ [ ' W H * *.0.0.e.w.t.t.9.r.9.r.r.0.",
"g.g.v.C.d.v.c.v.n.v.C.c.N W } [ {  .I U ( XX$X+Xi.& ' [ ` ` [ [ { [ { [ [ [ ` h Q @X#XOXi.` ) ) W F G Z 4.e.0.0.t.w.e.r.r.r.0.0.",
"C.d.c.M.c.C.c.M.v.v.M.2.C ) [ [ [ ` ) ] Q  X XQ $X& d h h ' [ [ [ { [ [ [ { L & @XP [.XXi.h W { } ` [ R Z 4.r.r.r.0.y.r.r.r.r.0.",
"c.c.c.Z.M.c.c.M.M.M.M.N R } [ [ [ ` | ' t [.|.(.+Xf q 6 q h { { [ { E ' [ W t X +X[.|.{.5 e f { [ [ [ ^.2 >.0.r.r.r.0.r.0.r.r.y.",
"c.c.c.c.Z.c.c.M.v.M.3.b I ' [ [ [  .{ f 4 #   % J [ [ P # 9 K h ' K & d w 6 t f u u % 7 : 0 9 v [ [ [ p.2 >.0.r.r.u.r.r.y.0.r.0.",
"c.c.Z.c.c.c.M.M.v.v.V 1 F I W ' [ Y & 8 f ) h 8 h [ [ [ h & 3 6 f & q 6 h & E [ { h & 5 ~ u 5 j [ ` R ^ ; >.y.r.r.0.r.r.r.r.r.r.",
"c.c.M.M.M.M.M.M.M.M.V < I H R ' { K 4 & Y [ d 4 Y [ [ [ [ K E & 6 6 q h [ E [ [ [ P 4 & J h 9 # L ` ` / , >.r.r.r.r.0.0.r.0.r.r.",
"j.w.j.w.j.w.j.w.w.w.N ; W ` ' [ K q r E [ ~ h 7 y P [ [ j r q w e f 7 t h [ [ [ h 7 t h { ) j 6 & ` |  .< >.0.w.0.0.0.0.0.0.0.0.",
"9.q.4.6.9.9.9.9.e.9.M ; R [ / ` d r ) { [ [ ` E 6 h D y 6 # & h { ~ d 6 8 f & v ) 6 ! ] [ [ [ # q j ) W 2 z 4.w.r.u.0.u.u.u.w.w.",
"e.e.e.e.e.9.e.e.e.e.M ; I R / g # q h [ [ [ [ { h 6 6 t j h h [ [ { E L & % 8 6 8 7 ! { [ [ [ f q E I S k + 4.b.n.v.v.M.v.f.x.x.",
"t.e.t.9.9.t.t.9.w.y.B ; F W ' p.h q f [ { j h Y e 6 d K { { [ [ [ [ [ [ P j P h 7 7 h { [ [ [ h 8 d ` F S c z h.d.B.D.S.D.D.D.D.",
"q.q.9.q.q.7.q.q.b.M.V ; F ] p.' t t W [ E d 8 9 t & 8 d ~ { [ [ [ [ [ [ [ [ { j 6 f 4 h [ [ { ' r t [ F k H * ;.d.F.T.U.U.U.U.I.",
"x.x.x.x.x.x.m.b.m.Z.V 1 k G I j u $ f j y t h K P j 3 f ~ { [ { [ [ [ [ [ [ h & v W & 5 8 d ' $ X t [ F 1 F @ N.I.T.T.U.T.U.T.K.",
"S.S.B.V.V.B.B.C.Z.#.g c ) ] / b %X=X*X. t v [ [ [ j 0 r [ [ [ ` [ [ [ ` ` [ t 6 h { Y K j X $X=X&X_ [ ` S k @ N.Y.Y.T.T.E.T.T.U.",
"I.T.I.I.I.I.I.U.U.@.* ^ } { [ XX$X=X[.+Xv j Y h J [ d 8 f h ' h h Y J d & h 8 0 h h ` Y L XX(.=X%XOX[ [ F 1 + a.B.c.B.I.T.E.E.E.",
"K.U.Q.W.T.T.E.K.K.@.* ^ { { [ .X+X$X}.oX$ 5 5 8 8 8 8 5 8 & h 8 8 8 8 8 6 5 5 6 5 3 7 8 7 XX{.$X@XXX[ [ F 2 O a.v.c.B.V.D.D.A.D.",
"T.W.E.E.E.U.E.U.-.k < R [ [ [ - |. X: % W h h j d & & & 5 & h h & 5 5 h j d # j d j P h & $ .  XXXb [ [ F 2 @ h.B.x.c.B.v.M.v.v.",
"'.W.W.E.E.E.E.E.@.* k c ) [ [ [ x % & E [ [ [ [ ~ j f P t j { { Y d h E h r t { [ [ [ [ P P j X $ { } [ ` S O 5.B.B.c.c.c.M.M.M.",
"G.'.I.Y.I.I.I.Y.@.* 1 S ] | [ [ ` h w D [ [ [ [ [ [ [ [ ) 6 R [ [ [ [ j w e h [ [ [ [ [ [ ! r 5 v U S ` R k O 5.Z.M.m.m.C.M.M.c.",
"c.M.M.B.B.C.v.v.%.* 1 1 F [ /.| P h 5 8 h h [ [ [ [ [ { K & t E [ [ [ J 3 K [ [ [ [ [ [ ) : 5 & p.} T c k @ 2.)._._.M.M.M.c.c.M.",
"z.z.w.j.z.z.y.w.V * k , < k k k 1 F h 7 7 d ` [ [ [ [ [ Y & 8 d ' { ' f & h [ [ [ ) ' h r 6 % h { [  .W k O 3.w.w.w.b.m.M.v.c.v.",
"q.e.9.6.4.e.e.e.e.M * , , F [ | [ p./.E D w h Y Y [ [ [ { E q y [ ' K 0 & v [ [ P d j h 8 h E [ [ { p.W k + =.w.8.8.w.b.m.d.B.G.",
"9.0.r.9.r.r.r.e.e.B * , k ` [ [ [ [ [ ^.J d 6 : j [ { [ { { h X - % # f ` [ [ [ f 8 e 5 : [ [ [ [ [ R H k + 3.m.n.M.n.v.v.f.D.I.",
"0.r.r.y.r.r.r.0.r.B @ @ U [ ] [ [ [ [ [ [ [ [ f 6 d & d ' ` f - *Xu d h [ f f f 8 0 j f U [ [ [ W I H H k + 5.M.M.M.M.v.B.F.K.K.",
"y.r.r.r.r.r.r.r.r.B @ @ * k ` [ [ [ [ [ [ [ [ ` D h 3 8 u & (.&X-X*X}.& h d 9 6 q D ' / [ [ / / [ [ R H < O 4.C.v.v.v.g.S.W.E.U.",
"0.0.r.r.r.r.r.r.r.B O @ * k ) [ T ` [ [ { U ' [ [ [ h q 4 8 oX$X=X$XoX5 7 3 0 d ) ` / [ [ W [ | [ [ [ F * + 5.m.B.v.v.v.v.G.G.G.",
"r.r.r.0.r.r.0.y.r.B O @ * , )  .T ` [ [  .R U ' [ [ [ h h [ K XXXX.X_ & h K h h | ' ` | W ]  .[ [ [ R < * o 5.M.Z.n.M.M.M.M.M.v.",
"r.r.y.0.r.r.0.r.r.B O O @ * k ' H S [ [ G ` [ T ] [ [ ` | [ [ g < g ~ J [ [ [ [ ` W / H G ` | [ ] ' U < + o 1.u._._._.n.Z._._.M.",
"0.0.r.r.r.r.r.r.y.M O O @ @ < S k 2 k 2 ' [ [ [ [ [ [ T  .` [ [ [ [ { { [ [ [ [ [ [ [ [ T T ] ` R G k ; + o <.u.n.u.n.b.b.b.n.n.",
"y.r.r.r.r.w.r.r.0.O.= O O @ , 1 2 F H H { } { [ [ } [ [ H T [ [ [ [ { ] [ ] ' [ [ [ [  .R F / R G k < ; + o <.0.w.0.0.6.0.0.0.0.",
"0.r.0.r.0.r.r.0.r.r.O.- o O @ < 1 S H H I [ { } `  .} { G [ [ [ [ ' ' | [ ` W | { |  ./ S F H F k < * * + o <.0.0.e.9.0.0.0.0.0.",
"r.y.r.r.r.r.r.y.r.r.y.O.s = @ , 1 1 S H H H ) } I H } [ I [ [ [ { ' ^ } { W R { ] | / c k F k 1 < , @ @ O o <.r.e.r.r.9.0.0.0.0.",
"r.r.0.r.r.r.0.r.r.y.r.r.r.O.= @ , , , S F H I H F F I 1 ` ` } [ { { ' R ` F c H H H F 1 < 1 1 ; * * + O + s 1.r.u.e.r.r.0.r.r.0.",
"r.y.y.r.y.r.y.r.r.r.r.r.r.r.z O * * * < 1 S F G 1 1 F 1 H I [ ` | | ' H I F k H H H c < , < * * @ O O O i 1.r.r.r.e.r.0.r.r.r.r.",
"y.y.r.r.r.r.r.0.r.r.r.r.y.y.n + * O * , , 1 1 F 1 1 1 1 F F I I [ ` H F F c 1 F F c < < * * * @ + O O s 1.r.r.r.0.r.r.r.0.r.0.y.",
"0.r.r.y.r.r.r.r.y.y.r.y.r.r.n O + + @ * * 1 , , , k 1 , 1 1 F H I H c 1 1 < * 1 1 < ; * @ @ * + O a n <.0.w.0.9.0.0.r.0.y.r.r.r.",
"r.r.y.r.r.0.r.r.r.y.r.r.0.0.n o O O * * * , * * * , , * , k 1 F F k 1 1 1 ; @ * < ; * * @ @ @ + o $.w.w.w.y.w.0.0.w.0.r.0.r.r.y.",
"r.r.y.y.r.0.0.r.r.r.r.y.0.0.o.& O O + * * * * * * * * O * , 1 1 1 1 1 1 ; @ @ * * * * @ + + + + o ,.M.M.M.b.w.6.0.0.0.0.0.r.r.r.",
"u.r.0.0.0.0.0.r.r.r.r.r.0.6.r.n o O O + * * + + * * @ O @ * , , , , , , * @ O @ * @ @ + + O O o z ;.v.Z.M._.b.x.x.8.w.0.0.r.y.9.",
"u.u.0.r.0.0.w.0.r.r.r.y.0.6.y.n o O O O + * O O @ + O O O @ * * * * * * @ O O O @ + O O o + o z 5.v.x.M.M._._._.n.u.w.0.w.0.r.0.",
"n.).).n.x.7.6.w.e.r.r.r.0.0.w.$.p o O O o o O O O O O O O + * * @ * * * @ O O O O O O O + o z t.M.M.m.w.w.w.w.y.w.y.0.0.0.0.r.0.",
"M.n.n.M.n.x.8.y.r.r.w.0.0.0.6.8.$.p O O + o O o O O O O O O + + O + @ + O O O O O O O O + z 3.y.b.b.b.r.0.0.9.e.y.e.r.r.r.r.r.r.",
"B.C.c.c.x.m.c._.y.w.9.9.0.0.0.0.w.$.- o o B $ o O O *.o O O O O O O O O O O O x *.m o o l =.6.9.0.8.0.0.r.r.r.y.e.e.r.r.r.0.r.y.",
"V.c.x.x.s.M.M.M.m.b.b.b.b.b.y.w.0.0.$.X.X.9.o.&.*.+.y...O O O O O O O + O O a :.w.3.o.*.<.0.0.0.0.0.0.0.w.0.r.r.r.w.w.e.t.w.9.w.",
"d.d.x.s.s.v.M.x.x.M._._.M.M.n.u.t.q.t.t.0.w.w.8.q.9.q.q.X.O O O O - B O o p :.w.0.9.9.9.6.0.0.0.w.0.w.0.0.0.0.0.0.0.w.w.w.9.y.9.",
"d.c.c.c.x.M.C.v.Z.B.M.v.B.v.B.c.x.x.m.m.x.x.c.c.x.m.)._.).,.,.,.*.2.z.,.$.:.9.9.9.9.0.0.0.0.0.0.0.0.0.r.0.0.0.r.0.0.y.9.e.w.t.w.",
"M.v.v.M.Z.M.c.v.V.H.H.V.A.g.V.D.C.H.J.J.V.H.D.H.B.v.C.m.m.x.Z.M.M.B.c.M.x.j.b.b.b.b.y.0.r.r.r.r.0.0.0.0.0.0.0.w.0.0.w.9.w.9.w.t.",
"M.v.c.v.c.c.c.v.H.].].!.T.U.T.T.T.T.T.T.T.T.I.Y.F.c.M.M.g.c.B.B.c.c.c.B.M.c.v.M.Z.x.x.0.0.r.r.r.0.y.r.w.w.0.0.0.0.w.e.w.9.y.9.w.",
"v.v.c.c.B.F.D.F.T.Q.T.U.U.U.U.U.U.U.U.U.U.U.U.T.Y.Y.P.P.H.P.F.Y.P.V.f.B.Z.M.x.v.v.v.x.w.0.r.r.r.r.r.r.0.0.0.r.r.r.r.w.t.t.w.w.e.",
").M.M.c.B.I.W.U.Y.T.P.U.U.U.U.U.K.U.K.K.U.K.Q.'.Y.Y.Y.'.Y.Y.Y.Y.Y.Z.d.v.Z.B.v.c.n.M.n.u.0.y.y.r.r.r.r.r.r.r.r.r.r.r.e.0.0.e.w.9."
};
