/* XPM */
static char *floor1723360530[] = {
/* columns rows colors chars-per-pixel */
"64 64 169 2 ",
"   c #242723",
".  c #262925",
"X  c #282B27",
"o  c #2A2E29",
"O  c #312E25",
"+  c #2D312B",
"@  c #373126",
"#  c #3D3426",
"$  c #31342E",
"%  c #3C3A2E",
"&  c #333631",
"*  c #353933",
"=  c #393D37",
"-  c #3A3E38",
";  c #413727",
":  c #473827",
">  c #4B3B27",
",  c #433D2C",
"<  c #4C3C29",
"1  c #523D29",
"2  c #433E30",
"3  c #3E413B",
"4  c #52432C",
"5  c #5E462B",
"6  c #5D482B",
"7  c #4D4534",
"8  c #41443E",
"9  c #574B37",
"0  c #594932",
"q  c #5B4E39",
"w  c #61442B",
"e  c #614A2C",
"r  c #734D2B",
"t  c #74522D",
"y  c #79512D",
"u  c #7C592E",
"i  c #6C5530",
"p  c #66553C",
"a  c #795635",
"s  c #7E6431",
"d  c #434741",
"f  c #464943",
"g  c #494D46",
"h  c #4C4F49",
"j  c #4E514A",
"k  c #51544D",
"l  c #54584F",
"z  c #545750",
"x  c #565A52",
"c  c #5A5D55",
"v  c #5C5F58",
"b  c #5C6157",
"n  c #5E6159",
"m  c #62665D",
"M  c #65695E",
"N  c #666A61",
"B  c #696D64",
"V  c #6D7166",
"C  c #6F736A",
"Z  c #71756B",
"A  c #75796E",
"S  c #777B70",
"D  c #797D72",
"F  c #8C5B2D",
"G  c #915D2E",
"H  c #845531",
"J  c #885730",
"K  c #8B5A30",
"L  c #915F32",
"P  c #8C6A2B",
"I  c #96602F",
"U  c #9B622D",
"Y  c #986B2D",
"T  c #836433",
"R  c #8F6930",
"E  c #876238",
"W  c #926332",
"Q  c #9B6231",
"!  c #926E30",
"~  c #9B6C34",
"^  c #AE6C2F",
"/  c #A1772C",
"(  c #AC712F",
")  c #BA7E2B",
"_  c #A36632",
"`  c #A96733",
"'  c #A26D35",
"]  c #AD6A32",
"[  c #B36D35",
"{  c #AD7434",
"}  c #B57633",
"|  c #BB7135",
" . c #B77935",
".. c #BC7C34",
"X. c #B57438",
"o. c #BC7A3A",
"O. c #C5742C",
"+. c #C8762F",
"@. c #C5792C",
"#. c #C97A2E",
"$. c #C57534",
"%. c #C97636",
"&. c #C57A32",
"*. c #CA7A35",
"=. c #C57539",
"-. c #CA7739",
";. c #C67839",
":. c #CC7A39",
">. c #D27636",
",. c #7E8376",
"<. c #BF8032",
"1. c #CE812E",
"2. c #D68D2F",
"3. c #D88D2F",
"4. c #D7912B",
"5. c #DD952E",
"6. c #DF9A2F",
"7. c #C48135",
"8. c #CC8236",
"9. c #C08933",
"0. c #CC8B33",
"q. c #CC813A",
"w. c #D38535",
"e. c #D68B35",
"r. c #D98D36",
"t. c #D3833B",
"y. c #D9863A",
"u. c #D68A3A",
"i. c #DA8C3A",
"p. c #CD9138",
"a. c #D69233",
"s. c #DB9234",
"d. c #DD9835",
"f. c #D0923C",
"g. c #DB9139",
"h. c #DF9938",
"j. c #E29C2F",
"k. c #E09636",
"l. c #E39B35",
"z. c #E99F36",
"x. c #E1953B",
"c. c #E49B3A",
"v. c #E89F3A",
"b. c #DFA033",
"n. c #EEA52F",
"m. c #EDA92E",
"M. c #EEB02F",
"N. c #F6B92D",
"B. c #E5A134",
"V. c #EBA435",
"C. c #EEA934",
"Z. c #ECA43B",
"A. c #EEA93A",
"S. c #F1A636",
"D. c #F1AA34",
"F. c #F0A63A",
"G. c #F2AC3B",
"H. c #F5B339",
"J. c #808577",
"K. c #818678",
"L. c #84897A",
"P. c #DD8440",
"I. c #D68B40",
"U. c #DB8C41",
"Y. c #E19441",
"T. c #E99F40",
"R. c #EDA342",
"E. c #F2A740",
"W. c #F1A941",
/* pixels */
"H.A.D.D.C.S.V.D.S.F.G.F.F.F.F.F.E.R.Y.w.i.i.g.r.r.r.e.r.i.i.i.i.i.i.t.*.*.$.-.-.-.-.-.-.-.-.-.-.-.-.-.-.-.-.-.-.-.-.-.-.-.-.-.-.",
"M.C.D.D.S.S.D.n.n.D.D.n.z.z.l.z.z.v.i.e.r.r.r.r.u.i.r.r.r.r.t.w.t.y.:.%.=.*.-.-.-.-.-.-.-.-.-.-.-.-.-.-.-.-.-.-.-.-.-.-.-.-.-.-.",
"N.C.F.D.A.C.A.Z.G.S.F.l.3.s.r.3.r.a.e.r.r.e.f.r.i.e.i.i.i.:.&.@.*.=.$.%.=.%.-.-.%.%.%.*.-.-.-.%.=.>.-.-.%.%.%.%.-.-.-.%.-.-.-.=.",
"H.R.T.c.h.x.c.c.v.l.l.x.i.i.i.i.i.r.r.r.r.r.r.i.g.e.e.*.*.*.&.$.$.$.$.$.$.$.%.%.%.$.%.%.=.=.-.%.%.=.-.=.$.%.%.%.=.=.-.%.%.-.=.=.",
"V.h.g.r.r.e.r.r.y.y.i.y.i.i.i.i.i.i.r.r.r.r.r.f.i.8.@.@.*.*.] o X > =.*.%.*.*.>.*.:.:.>.:.*.:.:.>.-.*.*.*.:.:.:.>.*.:.*.%.:.:.:.",
"s.a.e.r.a.e.g.e.x.x.y.k.y.i.i.i.i.r.r.i.r.i.r.e.8.+ + 0.i.o.= L.K.Z 4 0.w.w.8.8.w.e.r.y.i.y.r.u.i.>.y.y.r.i.r.y.r.y.r.y.y.w.y.i.",
"g.g.e.a.r.a.r.r.y.y.r.y.r.i.i.r.i.r.r.r.r.e.7.&.* J.L.& ..+ ,.C C A V 4 0.Y + i 0.0.a.l.l.l.v.l.c.l.l.l.k.k.l.l.c.l.l.l.l.k.k.r.",
"i.f.i.r.r.e.r.r.y.s.r.r.r.r.i.r.r.r.r.i.i.7.7 & ,.Z C ,.o g C C C C b = & h J.M & & s l.D.S.C.A.S.S.V.D.S.D.S.D.C.C.V.S.F.E.c.s.",
"r.r.e.r.a.e.r.i.s.y.y.s.r.y.s.r.r.r.r.r.&.7 S K.C C C N h K.C C C n d z A C C S K.K.n T b.M.C.C.D.C.D.D.C.C.D.C.D.C.C.l.5.k.Y.i.",
"e.r.a.r.r.e.g.r.y.s.s.y.y.s.s.y.r.r...} 7 S A C C C A 8 ,.C C C B c Z A j N C C C C ,.b T <.9.d.V.V.V.V.V.V.V.V.B.V.Z.k.r.r.i.i.",
"e.r.4.a.r.e.r.r.s.y.s.s.s.y.i.y.i...9 - B C C C C C K.h C C C C C C C V n z B C C C V ,.j & - s { 0.a.r.r.a.a.g.i.r.g.r.r.y.i.i.",
"l.B.B.4.2.e.i.i.y.s.y.y.i.i.i.s. .q A ,.f N C C C C C v C C C C C C C V N Z n C C C V A z c ,.x 2 T 8.r.r.r.r.i.r.r.i.r.s.i.s.i.",
"H.A.A.l.2.i.e.r.r.r.r.i.y.i...' > V ,.S k n C C C C C ,.C C C C C C S ,.V C C C C C V B z n C ,.,.x E q.i.i.U.i.U.U.i.i.i.U.i.i.",
"C.H.H.A.Z.E.c.r.r.i.r.r.s.| p 8 * n C C C N B C C C C C C C C C C C C C C C C C C C B x n C C C Z Z - _ :.:.:.:.:.q.:.:.:.>.:.t.",
"V.V.V.Z.Z.Z.l.r.i.r.r.r.} p B J.N z c N B D A C C C C C C C C C C C C C C C C C C C N N C C C B n h $ Q =.=.:.$.=.*.=.%.%.%.*.%.",
"6.4.a.f.3.3.r.r.y.r.r.r.t c A Z C D h z C C C C C C C C C C C C C C C C C C C C C C C C C B n m x f f a | *.=.%.%.=.=.-.%.-.-.-.",
"a.e.e.e.e.r.r.r.i.i.i.} p m C C C N m C C C C C C C C C C C C C C C C C C C C C C C C C C N c Z S n A c a | -.:.%.-.-.-.%.-.%.:.",
"e.u.e.r.f.i.r.i.i.i.g.r x Z C C C N S Z C C C C C C C C C C C C C C C C C C C C C C C C C C C C C C C ,.- ` -.-.-.-.:.%.-.-.-.-.",
"e.r.r.r.e.r.u.i.r.r.{ 0 j B Z C C S Z C C C C C C C C C C C C C C C C C C C C C C C C C C C C C C C C ,.- ` %.-.%.-.%.-.-.:.%.-.",
"e.e.r.r.e.r.r.r.r.i.u - f j c B C C Z C C C C C C C C C C C C C C C C C C C C C C C C C C C C C C N x n $ ` -.-.-.:.-.-.-.%.-.-.",
"e.r.g.i.i.e.g.U.i.i.u * j h z B C C C C C C C C C C C C C C C C C C C Z C C C C C C C C C C C C C N n m & ` -.-.%.%.-.-.%.-.-.%.",
"8.8.*.&.8.*.8.:.*.*.y $ x N B C C C C C C C Z C C C C C C C C C C C C C C C C C C C C C C C C C C V S D = ` %.-.%.%.%.%.%.%.%.%.",
"$.$.$.$.O.| $.$.$.$.r $ c C N N C C C C C C C C C C C C C C C C C C C C C C C C C C C C C C C C C C m c = 5 | *.>.*.>.*.#.>.*.*.",
"=.=.=.=.=.=.=.=.=.$.r $ h c b V C C C C C C C C C Z C C C C C C C C C C C C C C C C C C C C C C C n k f - X o.u.y.y.i.r.r.y.w.w.",
"=.;.$.;.=.$.=.=.*.:.u + d c B D m B Z C C C C C C C C C C C C C C C C C C C C C C C C C C C C C m B N f d 3 6 7.3.d.c.k.k.l.l.l.",
"&.&.O.&.&.O.&.&.w.i.u & d V ,.B m V C C C C C C C C C C C C C C C C C C C C C C C C C C C C C C Z A Z f 3 h + ) 4.l.C.C.C.C.C.C.",
"w.w.8.u.w.w.u.t.t.i.u * 8 g k b B C C C C C C C C C C C C C C C C C C C C C C C C C C C C C C C A C C f - f o p.V.Z.D.C.C.A.A.V.",
"k.k.s.d.d.d.s.s.g.Y , d m B m j C A C C C C C C C C C C C C C C C C C C C C C C C C C C C C C C C C C N d 3 o p.Z.R.A.D.A.D.C.D.",
"V.C.V.V.V.V.A.V.V.P $ b S Z C B v B C C C C C C C C C C C C C C C C C C C C C C C C C Z C C C C C C C C f = X <.a.r.5.V.A.D.D.D.",
"C.C.A.G.A.A.D.m.m.P + c Z C C C x N C C C C C C C C Z C C C C C C C C C C C C C C C C C C C C b N C C C f = X <.r.e.a.d.c.l.j.l.",
"A.F.S.D.D.D.C.V./ % = x C C C C B V C C C C C C C C C C C C C C C C C C C Z C C C C C C C C C c C A C C f = . 7.r.r.e.e.g.i.r.r.",
"R.F.D.D.D.D.D.D.! + - f m C C C Z C C C Z C C C C C C C C C C C C C C C C C C C C C C C C C C V c A A C B 8 X 7.r.r.e.e.r.i.i.i.",
"Y.Z.V.V.Z.C.V.Z.R + = d V S C C C ,.n N C C C C C C C C C C C C C C C C C C C C C C C C C C v z g j f N x 8 . $.g.i.e.u.i.i.i.i.",
"i.i.r.g.r.s.f.a.T + = 3 f C L.S c k N C C C C C C C C C C C C C C C C C C C C C C C C C C v V K.K.A z 3 - o { i.U.U.i.i.u.f.r.i.",
"q.8.8.8.:.q.:.:.H + - & * 3 3 - = f j B C C C C C C C C C C C C C C C C C C C C C C C C C C C Z Z C D c 3 . ( :.:.*.w.u.i.r.2.r.",
"$.$.| $.$.$.$.=.| r + $ * d C S C ,.L.c B C C C C C C C C C C C C C C C C C C C C C C C C C C C C C K.v 8 o ^ *.#.@.*.t.u.3.s.k.",
"=.*.=.%.-.-.-.=.-.y + & 3 m C C C C C ,.x B C C C C C C C C C C C C C C C C Z C C C C Z C C C C C C x h - o } r.y.r.y.i.r.5.k.V.",
"%.%.-.-.-.%.%.-.-.y o o k C C C C C C C C C C C C C C C C C C C C C C C C C C C C C C V C C C C c h h h 3 X o.r.i.i.i.r.r.z.n.m.",
"-.%.:.%.-.-.-.-.-.y X + + 3 m C C C C C C V C C C C C C C C C C C C C C C C C C Z S B b C C v m C C c h & . o.r.r.r.r.5.k.F.D.V.",
"-.-.-.-.-.-.-.-.-.y . o + 3 N Z x N C C C z B C C C C C C C C C C C C C C C C C Z m b Z V v Z S C C V f $ . ..u.x.r.r.r.r.x.x.l.",
":.%.:.-.%.-.-.%.-.y . X + & M S x N Z C D x k B C C C C C C C C C C C C C C C C S B N Z c V D C C Z x * o . o.i.i.i.r.i.r.i.r.r.",
"-.-.%.-.-.-.-.:.-.y . . o + 3 V h d C B h N C z V C C B Z C C C C C C C C C C C N v m h f B S C B B l $ X . ^ >.U.i.U.i.U.U.U.i.",
"-.:.%.-.:.%.%.-.-.y . . o + * d - 3 - 3 B C C C C C C l D B C C C C C C C C C C C C C Z z z V V z h 8 $ X . ] >.t.>.y.y.y.>.t.t.",
"%.-.-.-.-.-.-.-.-.K O . . X & * - f h h Z S C C C A C C j x C C C C C C C V B C C C Z S x d v c g - * $ X   ` %.*.%.%.+.%.%.%.*.",
"%.-.%.-.%.-.-.%.-.%.J @ . . o * = d h h j C C A N S A A j C C C C C B A C N c A Z A A b d f f f 8 = $ o . . ` -.%.$.%.$.%.%.%.%.",
"-.:.-.-.-.-.-.:.-.-.:.J 1 @ o & = = d h h h m A j j A C g C C C C B n S Z c x C B S m d 8 f 8 * * $ o X .   ] >.-.-.-.-.%.-.-.-.",
"-.-.%.-.-.-.%.-.-.-.-.-.-.H @ o & & & d f h h h f f h = N N A C C C B x N f d h h h g = & - = & + o X . . < [ -.-.=.-.%.=.-.%.*.",
"-.:.:.-.:.-.:.-.-.:.-.-.-.-.5 . + + + * = d f h - - d = j j C N D S B h h f 3 h h g d & & & $ o o . . . 1 [ -.-.-.=.-.-.*.-.-.-.",
":.:.-.-.-.-.-.-.-.-.-.-.-.-.w . + X + & * = = d 3 = = = d f j j V B g f f 3 = f f 3 * * + + + + o .   1 [ :.:.%.-.%.-.*.%.-.-.%.",
"%.-.-.:.-.-.-.:.:.-.:.:.-.-.w . X X o + + * * & & = = & = 3 d j j j 8 = = * $ * = = $ + X X + X . 1 w ] $.*.=.$.-.-.-.-.-.-.%.-.",
"-.-.:.-.-.%.%.:.-.:.-.:.%.%.w   . . + + + & + + + & & + & = 3 d d 8 = = = $ + + * $ + + o o o X   I *.*.:.>.%.%.*.%.-.-.%.-.-.:.",
"-.-.:.:.-.%.%.-.-.-.:.:.%.%.K ; .   X + + + o + + + + . + & = = = = = = $ o X + + + + + X X X . . ' i.i.i.t.*.O.+.%.*.-.%.-.-.-.",
">.-.%.%.%.%.%.-.-.-.-.-.%.%.-.w   X . X + + X X + + o . o + & & * & & & + X . + + o X X . . . . e ) r.i.i.i.t.w.w.#.+.*.%.-.:.%.",
">.>.-.:.%.%.%.%.-.-.-.-.%.O.:.w   . . . X o . . + X . . . o + + + + + + + . . . X X . . . . . 6 ..r.r.u.i.U.U.U.u.>.%.-.*.%.-.%.",
"y.P.y.t.w.#.O.*.-.-.:.:.%.+.+.U ; X . . . . . .   . . . . X + + X + + + o . . . . . . . . . 6 ;.i.r.t.*.*.*.:.*.*.:.%.-.%.%.%.%.",
"i.y.i.U.w.w.#.:.-.=.-.%.%.*.+.+.U ; . . .   . . . . . . . . X X X X X X . . . . . . . . . 6 X.:.y.t.t.-.%.%.=.=.-.=.-.-.-.-.-.-.",
"d.e.i.i.r.t.r.I.:.*.=.$.%.*.*.%.%.I # . . y @       W . X . . .   . . . . . . 4 Y e X   5 ^ O.%.%.+.%.+.=.-.-.-.=.:.%.:.%.-.%.:.",
"a.2.e.1.#.r.i.r.t.t.t.t.w.>.t.:.%.%.G G F O.G F W W q.F   . . . . X . . . . > ` *.( G L ] %.%.%.%.%.%.-.-.%.%.%.-.%.=.*.*.=.*.:.",
"3.2.w.1.#.i.i.e.r.i.U.U.i.i.y.:.=.&.*.$.*.-.*.#.&.$.$.O.F   . .   # t .   : _ =.%.$.$.%.$.%.%.+.%.*.%.%.%.-.*.%.%.%.*.=.:.$.=.*.",
"3.r.i.e.e.r.r.r.r.g.r.r.r.3.e.e.w.e.u.f.w.w.r.e.w.u.U.U.I.' ' ' ' { q.~ I _ $.=.=.=.%.%.%.%.%.%.-.%.%.*.*.-.-.%.*.%.=.*.$.*.$.%.",
"r.i.e.e.i.i.e.r.h.c.h.l.j.l.d.h.d.h.b.h.c.h.l.c.a.r.i.i.r.r.i.i.i.r.i.i.e.8.t.q.y.:.:.%.-.>.-.-.*.%.*.%.*.%.-.*.%.%.$.:.*.$.:.$.",
"i.r.e.i.r.i.g.a.c.W.W.H.C.C.A.A.W.A.A.A.A.A.C.Z.z.a.i.i.2.e.a.a.a.3.a.s.i.r.i.r.i.r.w.*.-.-.-.-.-.*.%.%.-.%.-.*.*.:.*.$.;.*.:.$.",
"r.r.i.e.s.l.l.z.A.G.A.C.V.M.C.C.M.V.m.V.C.m.Z.A.F.B.B.z.v.v.v.z.l.s.r.r.g.s.r.r.r.r.w.+.%.-.-.-.-.-.-.%.%.%.-.-.-.-.$.:.:.$.$.$.",
"f.i.i.e.k.B.D.A.V.Z.B.A.C.m.C.C.C.C.V.m.m.C.G.W.Z.Z.Z.R.Z.Z.Z.E.B.l.3.a.i.r.r.w.y.i.y.-.%.:.-.-.-.-.-.%.%.-.=.-.-.-.;.*.;.*.;.*."
};
