/* XPM */
static char *item1723360531[] = {
/* columns rows colors chars-per-pixel */
"64 64 186 2 ",
"   c #0F1417",
".  c #13181B",
"X  c #14191D",
"o  c #191E21",
"O  c #1C2224",
"+  c #242724",
"@  c #262925",
"#  c #282B27",
"$  c #202528",
"%  c #24292A",
"&  c #2A2E29",
"*  c #2D312B",
"=  c #373126",
"-  c #31342E",
";  c #3C3629",
":  c #2B3133",
">  c #323632",
",  c #353933",
"<  c #393D37",
"1  c #303739",
"2  c #343B3C",
"3  c #3A3E39",
"4  c #453928",
"5  c #4C3C29",
"6  c #523D29",
"7  c #433E30",
"8  c #3D413B",
"9  c #57452B",
"0  c #5E462B",
"q  c #4D4534",
"w  c #41443E",
"e  c #594B36",
"r  c #61442B",
"t  c #614A2C",
"y  c #734D2B",
"u  c #74522D",
"i  c #79512D",
"p  c #7C592E",
"a  c #675539",
"s  c #795635",
"d  c #7E6431",
"f  c #363D40",
"g  c #3D4343",
"h  c #3F4648",
"j  c #434741",
"k  c #454943",
"l  c #494D46",
"z  c #444B4B",
"x  c #4B4F49",
"c  c #4E514B",
"v  c #51544D",
"b  c #54584F",
"n  c #4B5255",
"m  c #4E5458",
"M  c #525651",
"N  c #565A52",
"B  c #595D55",
"V  c #575D5A",
"C  c #5C6157",
"Z  c #5E615A",
"A  c #62665D",
"S  c #65695E",
"D  c #565E60",
"F  c #5C6466",
"G  c #5F6769",
"H  c #636760",
"J  c #666A61",
"K  c #6A6D64",
"L  c #62696C",
"P  c #6D7166",
"I  c #6F736A",
"U  c #71756B",
"Y  c #75796E",
"T  c #6B7475",
"R  c #6D7678",
"E  c #777B70",
"W  c #797D72",
"Q  c #8C5B2D",
"!  c #915D2E",
"~  c #865631",
"^  c #8B5A30",
"/  c #915F32",
"(  c #8B692B",
")  c #97662E",
"_  c #9B622D",
"`  c #836433",
"'  c #8B6634",
"]  c #976632",
"[  c #AE6C2F",
"{  c #A7742E",
"}  c #BA7E2B",
"|  c #A36632",
" . c #A96733",
".. c #A26D35",
"X. c #AD6A32",
"o. c #B36D35",
"O. c #AD7434",
"+. c #B57633",
"@. c #BA7637",
"#. c #BC7C34",
"$. c #C6752D",
"%. c #C5792C",
"&. c #C97A2E",
"*. c #C57534",
"=. c #C97636",
"-. c #C57A32",
";. c #CA7A35",
":. c #C57539",
">. c #CA7739",
",. c #C67839",
"<. c #CC7A39",
"1. c #D27636",
"2. c #7E8376",
"3. c #BF8032",
"4. c #CE812E",
"5. c #D68D2F",
"6. c #D88D2F",
"7. c #DC952D",
"8. c #C48135",
"9. c #CC8236",
"0. c #C08933",
"q. c #CC8B33",
"w. c #CC813A",
"e. c #D38535",
"r. c #D68B35",
"t. c #D98D36",
"y. c #D3833B",
"u. c #D9863A",
"i. c #D68A3A",
"p. c #DA8C3A",
"a. c #CD9138",
"s. c #DB9234",
"d. c #DD9835",
"f. c #D79438",
"g. c #DB9139",
"h. c #E29C2F",
"j. c #E09636",
"k. c #E39B35",
"l. c #E99F36",
"z. c #E1953B",
"x. c #E49B3A",
"c. c #E89F3A",
"v. c #DFA033",
"b. c #EDA82E",
"n. c #F2B52E",
"m. c #E5A134",
"M. c #EBA435",
"N. c #EEA934",
"B. c #ECA43B",
"V. c #EEA93A",
"C. c #F1A636",
"Z. c #F1AA34",
"A. c #F0A63A",
"S. c #F2AC3B",
"D. c #F5B339",
"F. c #808577",
"G. c #818678",
"H. c #84897A",
"J. c #DA8840",
"K. c #DB8C41",
"L. c #E59A41",
"P. c #EDA342",
"I. c #F1A941",
"U. c #757F80",
"Y. c #7B8486",
"T. c #838C8E",
"R. c #858E91",
"E. c #8C9597",
"W. c #929B9E",
"Q. c #969FA2",
"!. c #9AA4A6",
"~. c #9BA4A7",
"^. c #A5ACAE",
"/. c #A5AEB0",
"(. c #ACB6B8",
"). c #B1BBBD",
"_. c #B4BEC1",
"`. c #BAC4C7",
"'. c #BDC7C9",
"]. c #C7CBCD",
"[. c #C4CED0",
"{. c #CAD4D6",
"}. c #DAE5E8",
"|. c #E2EBEE",
" X c #E4EEF1",
".X c #EDF4F6",
/* pixels */
"D.V.V.Z.N.N.C.Z.C.A.A.A.C.A.A.P.P.P.L.e.p.t.g.t.t.u.t.t.t.p.p.p.p.p.e.;.=.*.>.>.>.>.>.>.>.>.>.:.>.>.>.>.>.>.>.>.>.>.>.>.:.>.>.>.",
"n.M.Z.Z.C.Z.C.b.b.Z.Z.C.M.l.l.l.M.L.p.r.r.t.p.r.t.p.p.r.e.i.u.e.u.u.<.=.>.>.>.>.>.>.>.>.>.>.>.1.>.>.>.>.>.>.>.>.>.>.>.1.:.>.>.>.",
"n.Z.Z.Z.V.N.A.B.S.C.C.h.6.s.6.6.t.s.r.t.p.r.r.p.t.p.p.p.p.y.%.&.-.=.=.:.:.*.>.>.=.=.=.=.>.>.>.=.1.>.>.>.=.=.=.=.>.>.>.=.>.>.>.>.",
"D.V.L.z.z.x.x.x.x.k.x.z.p.p.p.u.p.r.s.r.r.s.p.f.f.r.e.9.;.;.*.,.*.@.*.*.*.*.=.=.=.=.=.=.>.>.:.:.*.:.>.:.=.=.=.=.>.>.:.:.*.>.:.:.",
"B.m.f.p.r.t.r.p.p.p.s.u.u.u.z.p.t.p.t.t.r.f.r.t.r.9.%.&.;.;.X.# & 5 -.;.=.;.;.1.;.<.<.;.;.<.<.<.1.>.<.;.<.1.<.;.1.;.;.1.>.;.<.<.",
"s.f.r.r.r.r.t.t.g.K.u.g.p.p.p.p.p.p.t.p.r.r.t.t.q.- & w.K.#., H.H.I q 8.r.e.9.9.r.r.t.u.p.i.t.r.u.1.t.u.u.t.u.t.t.u.i.r.e.u.t.u.",
"p.p.r.t.s.r.r.t.p.p.s.u.s.u.u.u.t.t.t.t.p.p.8.-., F.G.- #.* G.I I U P 9 a.] * u q.q.r.k.x.k.k.k.x.k.k.k.k.k.k.k.x.k.k.k.k.k.j.t.",
"p.f.f.r.t.t.f.s.s.u.u.s.u.s.u.s.p.t.t.p.t.8.q > 2.U U F.# l I I U P C < - x 2.S > - d m.C.C.D.N.Z.M.C.N.M.V.N.M.Z.M.M.C.S.P.L.s.",
"f.t.t.t.t.t.t.t.t.u.s.u.s.t.u.s.t.t.t.p.-.q 2.2.U I U J l F.I I P A j b U U U E G.G.Z ` m.N.N.N.N.V.N.N.Z.Z.Z.N.V.Z.M.h.j.z.z.p.",
"p.t.r.r.t.r.s.t.t.s.u.u.u.s.s.u.t.t.@.+.q Y U I I U U w F.I I I P B U U v J U H A Z P Z ` 0.3.d.M.M.M.M.M.m.M.B.M.M.B.j.6.t.p.K.",
"r.r.5.7.r.r.p.p.u.s.p.t.s.u.t.u.t.#.e < P I I I I I G.x I I I I I I I P A M J 3 O $ 2 Y v - 3 ` O.q.s.t.t.s.s.s.t.t.g.p.r.t.p.t.",
"m.v.v.7.5.r.r.p.s.u.u.s.p.p.p.s.#.e Y G.k J I I I I U V I I I I I I U P H U % E. X.X^.% v B 2.B w ` 9.t.r.t.t.p.r.t.t.t.t.z.t.p.",
"S.S.V.v.6.s.p.t.t.t.p.t.p.t.@.X.5 K G.U c A I I I I I 2.I I I I I I Y W I I : R.}.|.|./.O Z I Y F.b ' w.p.K.p.p.K.p.K.p.u.K.p.p.",
"Z.D.S.V.B.P.x.t.p.t.t.t.p.@.a w , Z U U I A P I I I I I U I I I I I I I I > E.(.T.!.{.!.m $ I I P U 3 | <.<.,.<.<.<.<.<.<.<.<.y.",
"b.b.M.B.M.B.k.t.t.t.p.t.+.a P 2.H M B A P W U I I I I I I I I I I I I I I % ^.'.T.R Y.Y.L . P J Z x * _ =.=.>.=.,.;.=.:.>.=.=.=.",
"d.5.f.t.5.t.r.t.p.t.p.r.u B Y I I W v M P U I I I I I I I I I I I U I I 2 Y.).!.R x : 1 2 l A A N k l s @.,.*.:.;.,.:.=.>.>.=.;.",
"5.5.r.p.r.r.r.p.p.t.g.[ a A I I I J S I I I I I I I I I I I I I I I U f Y.{.^.F 2 2 j j l H B U U A U B s @.>.>.>.=.=.>.>.>.>.>.",
"i.i.r.g.f.i.p.p.p.p.u.i N E I I I J E U I I I I I I I I I I I I I K k R {._.G g 3 n I I I I I I U U I F.<  .>.>.>.>.>.>.>.=.>.=.",
"a.r.r.r.p.r.r.p.p.t.O.e c K I I I W U I I I I I I I I I I I I I I H X }.`.L 2 N I I I I I I I I I U I G.< X.=.<.>.>.>.>.>.>.>.>.",
"r.t.s.r.r.t.t.p.t.t.p 3 k c B K I I I I I I I I I I U I I I I I K M m '.L 1 B I I I I I I I I I I A N C > X.>.>.=.>.>.=.=.>.=.>.",
"r.r.p.p.g.r.p.p.p.p.p , c l N K I I I I I I I I I I I I I I U K M n }.U.o V U I I I I I I I I I I H A A >  .=.>.>.>.=.=.1.>.>.>.",
"9.;.9.;.;.9.9.<.;.;.i - N J K I I I I I I I I I I I I I I I P n m  X[.T $ V I I I I I I I I I I I I E W ,  .=.=.=.=.=.=.=.=.=.=.",
"*.*.@.$.*.*.*.*.*.*.y - B I A K I I I I I I I I I I I I I I l m  X[.R . A I I I I I I I I I I I I I Z B 3 0 @.;.1.;.1.;.;.1.;.;.",
",.,.:.:.:.:.:.*.*.*.y - x B Z K I I I I I I I I I I I I I I l n '.T o H I I I I I I I I I I I I I A v j 3 # @.u.u.t.u.r.t.u.6.e.",
",.*.:.,.:.:.*.*.;.w.u > k B P W J K I I I I I I I I I I I z F '.!.m   K I I I I I I I I I I I I Z K J k j 8 0 8.5.s.k.k.j.k.k.k.",
"-.-.*.%.-.*.%.-.y.p.p * w P 2.K A P I I I I I I I I I I I j F '.T % N I I I I I I I I I I I I I U Y U l 8 l * } 7.k.V.N.N.N.V.N.",
"e.e.e.e.e.e.i.y.p.p.p , w l v Z P I I I I I I I I I I I c L /.!.n o I I I I I I I I I I I I I I Y U I k 3 l * a.B.B.A.b.Z.M.V.b.",
"j.s.d.d.7.d.d.g.g.) 7 j S S S v I Y I I I I I I I I I x L /./.G 1 z I I I I I I I I I I I I I U I I I H j 8 # a.B.B.V.V.Z.V.V.N.",
"M.M.M.M.M.M.M.N.M.( * C Y U I S B K I I I I I I I I I : R.).G 2 z I I I I I I I I I I I I I I I I I I I k < @ 3.s.t.d.M.V.Z.Z.Z.",
"N.V.S.A.V.V.Z.b.b.( * C U I I I N J I I I I I I I I M m !.E.f & U I I I I I I I I I I I I I I Z J I I I k < # 3.r.5.s.d.k.k.k.k.",
"Z.A.Z.Z.Z.N.Z.N.{ 8 , B I I I I K I I I I I I I I I % W.).T 2 g I I I I I I I I I I I I I I I B P Y I I k < # 8.t.r.t.r.p.r.t.s.",
"P.A.A.Z.Z.Z.Z.Z.( * 8 w S I I I I I I I I I I I I Z h !.W.g : I I I I I U I I I I I U I I I I P C Y Y I K j # #.s.t.r.r.r.p.p.p.",
"z.P.B.B.M.M.M.B.( * < k P Y I U I 2.Z J I I U U G 1 /.(.T 1 8 I I I I I I I I I I I I I I I V v c c k A N w # #.g.p.r.r.p.i.g.r.",
"r.p.t.s.f.t.f.t.` * < < l I H.Y B v J I I I I K O '._.R : 8 I I I I I I I I I I I I I I U V P F.F.Y b w 3 # X.p.K.K.K.r.p.i.p.p.",
"9.w.;.9.w.w.<.<.~ * 8 > , 8 8 3 < k x K I I S . {.}._.T : 8 I I I I I I U I I I I I I I U P U U U I 2.B 8 # +.;.;.;.u.i.p.r.t.t.",
"*.:.$.@.*.*.*.:.:.y * - , w U Y I F.H.B N X : }. X}.E.G % g I I I I I I I I I I I I I I I I I I I I F.B 8 # [ ;.&.&.,.y.i.5.s.j.",
"*.:.=.;.>.=.>.>.:.i - > 8 A I I I I I Z n [.]..X}.`.T 1 g F I I I I I I I I I I I I I I U P I U I I b x 7 & #.i.u.t.u.p.t.6.k.M.",
";.>.>.>.>.>.>.>.>.y # & v I I I I I U l m .X.X}.(.2.Y.f k I I I I I I I I I I I I I I I I U P U B c x x 7 % #.p.u.p.p.s.s.l.b.b.",
">.>.>.>.>.=.>.>.>.i # * * w A U P I I l h '.}.`.'._.W.g k I I I I I I I I I I I I E K Z I P B A I I N x 2 + @.t.g.p.t.6.h.A.Z.N.",
",.>.=.>.>.>.>.>.>.i + & * 8 A U N J I Z h G Q.'. X{.Y.: l I I I I I I I I I I I U A Z U U V U Y I I I k > + #.t.s.t.t.t.t.z.z.z.",
"=.>.>.=.>.=.>.>.>.i + # * > S E N H U U J : z (.`.R.G O z I I I I I I U I I I I U J J U B K W U I I N , * @ ,.u.p.g.g.p.p.u.t.p.",
"=.<.>.>.<.>.=.>.>.i + @ # * 8 P x k P K l Z > D Z h g 1 N I I I I I I I U P I I H A A x l J Y U P K b > # @ [ ;.K.K.K.u.u.L.K.p.",
">.=.>.=.>.>.<.>.>.i + @ # * , j 3 3 3 w K I J % % % + w 2.J I I I I I I U U P U I U U U b b K K N l 8 - # + X.1.1.y.y.y.u.1.u.u.",
">.>.<.>.=.>.=.>.>.Q = @ # # > < 3 l x x U E U I I Y I I z N I I I I I I U P K U I U U Y N j A N l 8 < * @ + X.=.;.;.=.$.*.=.=.=.",
"<.=.>.=.<.=.>.>.<.>.^ = @ # # , < j x x l U U U J Y Y Y l I I I I I K Y U A B Y U U U A j j l k 8 < * * @ + X.>.:.*.=.=.*.=.=.=.",
">.>.>.>.>.>.=.>.=.>.>.~ 6 = # - < < j x x x A Y c c Y I x I I I I K Z Y U V N P P Y A j w l w , , - * # + $ X.1.:.>.>.>.=.>.>.,.",
">.=.>.>.>.=.<.>.>.>.>.>.<.~ = & > , , j k x x c k k x 8 S S Y U I I K N K k w x x x l < > < , - * # @ @ $ 6 o.>.=.1.>.=.=.>.>.;.",
">.<.<.>.<.>.<.>.>.>.>.>.>.>.r & * & & , < j k x < < k < c c U S E E K x x k w x c l 7 2 - , - - * # @ @ 6 o.>.>.>.>.>.,.=.>.>.>.",
"<.>.<.>.>.>.>.>.>.=.>.>.>.>.r % & & & - , < , w w , 8 , w w v b U S x k k w 8 k k w , , - * * # # @ + 6 o.>.>.>.>.>.>.>.>.>.>.>.",
">.>.>.<.>.>.>.<.>.<.<.<.>.>.r + & @ & * - , > > > 8 8 , , 8 w v c x w , < , * , < , - * # # * & + 6 r X.=.;.*.*.=.=.=.>.=.<.>.,.",
">.>.>.<.>.=.>.>.>.<.<.>.=.=.r @ @ @ & * * > - * * - - * - 8 8 w w w , 8 , - & * , - * * # & # & + ) ;.;.;.<.=.=.=.=.=.>.=.>.>.<.",
">.>.<.1.>.=.=.>.<.>.>.<.=.:.! 4 @ @ & & * * & * * * * @ * , , 8 8 8 8 , > & # * * * * * & # # @ + ..t.p.p.u.;.$.=.=.=.;.;.=.>.>.",
">.>.=.=.=.=.=.>.>.>.>.>.=.$.1.6 @ @ @ & & * # # * * & @ & - > > - > > - * & @ * * * & @ + # + @ t } t.p.p.K.u.e.e.&.=.=.>.>.<.=.",
"1.1.=.>.=.=.;.=.>.>.>.>.=.$.1.r + @ @ @ & & + # # # @ @ @ # * * * * * * # @ @ # & @ @ @ # + @ r #.t.t.i.p.K.K.K.u.;.=.=.=.=.=.:.",
"u.J.u.p.e.$.$.;.>.>.<.<.=.$.;._ 4 + @ @ @ @ @ @ # @ @ @ @ # * * & * * * & @ @ @ @ @ @ @ # + t @.p.p.u.;.;.;.;.,.;.<.=.=.=.>.=.=.",
"p.u.u.K.u.e.&.;.>.:.>.<.=.=.$.;._ 4 @ @ @ @ @ @ @ @ @ @ @ @ # # # # # # @ @ @ @ @ @ @ @ + 0 +.y.y.y.y.=.*.=.*.:.;.,.>.>.>.>.>.1.",
"f.i.i.r.u.t.p.p.<.;.*.=.=.=.=.=.=._ ; @ @ i & + + @ ' + @ @ @ @ @ @ @ @ @ @ @ 9 ) t + @ 0 [ =.*.=.&.=.=.>.>.>.>.>.,.>.>.>.>.>.<.",
"7.5.r.e.4.i.t.p.i.y.w.J.y.y.<.=.*.=.! ! Q $.) Q ] ] <.Q @ @ @ @ @ @ @ # @ @ 5 | ;.+.! / X.*.=.$.=.=.=.=.;.=.>.<.=.>.*.;.;.=.;.,.",
"5.5.e.4.&.r.r.i.t.p.K.p.p.p.p.;.*.-.;.,.=.=.;.&.*.%.-.%.Q + @ + @ ; u @ @ 4 | =.:.=.*.*.*.=.=.=.;.=.;.=.=.=.=.=.;.=.;.:.;.,.;.*.",
"6.r.r.r.i.p.g.r.t.p.t.t.t.6.t.t.e.u.i.a.e.e.t.t.9.i.J.K.K.........O.9.] _ | *.*.*.*.;.=.=.=.=.=.=.=.=.>.=.=.=.>.>.=.=.;.*.;.:.;.",
"t.g.r.p.g.r.p.t.d.x.k.d.h.h.d.k.f.v.v.d.x.d.k.k.s.r.p.p.r.i.p.p.p.s.p.r.e.9.y.w.y.y.<.=.>.>.>.>.=.=.=.=.=.=.=.=.=.=.:.;.;.*.,.;.",
"u.t.r.r.t.t.r.s.c.I.I.S.Z.V.V.V.V.V.I.V.V.V.V.B.c.s.p.r.5.5.s.s.r.r.r.s.t.r.p.p.p.t.e.=.=.>.>.>.;.>.<.=.;.=.=.;.,.=.;.*.:.;.;.=.",
"t.i.p.r.s.k.k.m.V.S.N.S.N.N.M.V.N.N.N.N.N.N.M.V.B.B.B.c.c.c.c.l.m.d.t.s.s.p.t.t.p.t.e.;.=.>.>.>.>.>.>.=.=.=.=.>.>.>.,.;.;.*.*.:.",
"i.p.g.r.s.M.S.V.B.M.m.V.N.b.N.b.b.N.b.b.N.b.V.P.B.B.B.B.B.B.B.B.B.d.6.t.g.s.t.e.t.u.u.=.=.1.<.>.>.>.>.>.>.>.>.>.>.>.>.=.:.;.,.;."
};
