/* XPM */
static char *_14749c95d294294c1eb664ae3630effz0sUmbaucoPjqT5D[] = {
/* columns rows colors chars-per-pixel */
"64 64 22 1 ",
"  c None",
". c #4F3538",
"X c #4D5964",
"o c #5C6E79",
"O c #7C6366",
"+ c #8D5463",
"@ c #9D5F6C",
"# c #957F79",
"$ c #AF6B77",
"% c #615F85",
"& c #A8958B",
"* c #BAAB9B",
"= c #CC8388",
"- c #E39A95",
"; c #D5CDB2",
": c #F5C1B6",
"> c #AAB4CD",
", c #B7C5DA",
"< c #F0F1C1",
"1 c #C8DAEA",
"2 c #E1F8FC",
"3 c white",
/* pixels */
"                                                                ",
"                                                                ",
"                                                                ",
"                                                                ",
"                                                                ",
"                                                                ",
"                                                                ",
"                                                                ",
"                                                                ",
"                                                                ",
"                                                                ",
"                                                                ",
"                                                                ",
"                                 .....                          ",
"                              ...<<<<<..                        ",
"                            ..<<<<OOO;<<..                      ",
"                          ..<<<<;O&&&O;;<<.                     ",
"                         .<<<OOOO*****OOO;<.                    ",
"                        .<<;O&&*****###&&O;;.                   ",
"                       .<<;O&****###***&&&OO;.                  ",
"                      .<;;;O***##*******&&&&O.                  ",
"                     .<;;;O**##*******&#####O.                  ",
"                    .<<;OO**#******&###******.                  ",
"                   .<<;O&**#*****&##********&.                  ",
"                  .;<;O&**#****&##******&&&&&.                  ",
"                  .;<;O&*#***&&#******&&&####.                  ",
"                 .*;;;O**#**&&#*****&&###*&&.                   ",
"                 .*;OO**#**&&#****&&##***&&.                    ",
"                .**O&**#&*&&#***&&##***&&&&.                    ",
"                .*O&***#&&&#&*&&&#***&&&&..                     ",
"                .*O&**#&&&#&&&&&#&&&&&&..                       ",
"                .&O&&*#&&&#&&&&#%%%&&O.                         ",
"                .&O&&&#&+++++++%,11%+*;.                        ",
"                 .&&&+++@@$$$$%,1121%++;.                       ",
"                 .&++@@@@$$$=%>,12321%=+;..                     ",
"                 o.@@@@$$$$$$%>,11211%==+;;.                    ",
"                 o.@@@$$$$$$$%>,,111,%=-=+*;.                   ",
"                oo.O@@$$$$==$$%>,,,,%$=:-$+*.                   ",
"                oX.*OO@$$==-=$$%>>>%$$=--=$O;.                  ",
"                oXX.*;O$$==-:=$$%%%$$==:-=$O*.                  ",
"                 oXX.*;O$$==--=$$$$$==--==$@.o                  ",
"                 ooXX.*O@$$$=--======--==$$$.oo                 ",
"                  ooXX.;OOOO$==-==---===$$$O.Xo                 ",
"                   ooXX.*;;<O$$======$$$OOO;.Xo                 ",
"                    ooXX.*;;<OO$$$OOO$$O<<;.XXo                 ",
"                     ooXX..*;;<OOO<<<OO;;..XXo                  ",
"                      ooXXX....*;;;<;;;..XXXo                   ",
"                        oooXXXX........XXXoo                    ",
"                          oooooXXXXXXooooo                      ",
"                              ooooooo                           ",
"                                                                ",
"                                                                ",
"                                                                ",
"                                                                ",
"                                                                ",
"                                                                ",
"                                                                ",
"                                                                ",
"                                                                ",
"                                                                ",
"                                                                ",
"                                                                ",
"                                                                ",
"                                                                "
};
