/* XPM */
static char *player1723360531[] = {
/* columns rows colors chars-per-pixel */
"64 64 217 2 ",
"   c #050203",
".  c #0C0204",
"X  c #05060A",
"o  c #0C080A",
"O  c #120206",
"+  c #160408",
"@  c #1C040B",
"#  c #120D0D",
"$  c #1C0A0D",
"%  c #0B0C14",
"&  c #0F0E19",
"*  c #1A0D12",
"=  c #0F1013",
"-  c #0F101A",
";  c #151414",
":  c #12121E",
">  c #1D1B1B",
",  c #26040B",
"<  c #23040E",
"1  c #23090D",
"2  c #310103",
"3  c #250610",
"4  c #2C0612",
"5  c #250A11",
"6  c #2C0B14",
"7  c #330C16",
"8  c #360D1A",
"9  c #3A0F1B",
"0  c #26181A",
"q  c #351016",
"w  c #3B121A",
"e  c #311C1D",
"r  c #3C1A1D",
"t  c #25231F",
"y  c #33201E",
"u  c #131422",
"i  c #171A23",
"p  c #1A1D2C",
"a  c #2C1F21",
"s  c #1F2021",
"d  c #1E2331",
"f  c #242523",
"g  c #2A2523",
"h  c #262925",
"j  c #282B27",
"k  c #262828",
"l  c #2B2E29",
"z  c #392A26",
"x  c #312B2A",
"c  c #2D312B",
"v  c #373126",
"b  c #31342E",
"n  c #3C3429",
"m  c #232A37",
"M  c #2F3130",
"N  c #333631",
"B  c #363934",
"V  c #393C37",
"C  c #3B3E39",
"Z  c #5E030F",
"A  c #4C1306",
"S  c #43151C",
"D  c #4B191F",
"F  c #561F18",
"G  c #6B1E08",
"H  c #651E1A",
"J  c #761A12",
"K  c #5D231F",
"L  c #6C2B0E",
"P  c #7A250F",
"I  c #7A2714",
"U  c #793317",
"Y  c #421920",
"T  c #4D1B20",
"R  c #511B20",
"E  c #5D1C23",
"W  c #412B27",
"Q  c #453829",
"!  c #4C3C29",
"~  c #523D29",
"^  c #463C34",
"/  c #3E413B",
"(  c #57452B",
")  c #5E462B",
"_  c #4D4534",
"`  c #42433E",
"'  c #564938",
"]  c #61442B",
"[  c #614A2C",
"{  c #734D2B",
"}  c #74522D",
"|  c #79512D",
" . c #7C592E",
".. c #675539",
"X. c #795635",
"o. c #7E6431",
"O. c #2C3543",
"+. c #434741",
"@. c #464943",
"#. c #494C46",
"$. c #4C4F49",
"%. c #574E42",
"&. c #4E514A",
"*. c #51544E",
"=. c #545750",
"-. c #565952",
";. c #5A5D55",
":. c #5C5F58",
">. c #6B5D52",
",. c #5C6157",
"<. c #5E615A",
"1. c #62655D",
"2. c #68655A",
"3. c #666961",
"4. c #6A6D64",
"5. c #6C7066",
"6. c #6F736A",
"7. c #7B7160",
"8. c #71756B",
"9. c #75796E",
"0. c #777B70",
"q. c #797D71",
"w. c #831B0F",
"e. c #B3040C",
"r. c #8C340C",
"t. c #A2310C",
"y. c #8E4019",
"u. c #974816",
"i. c #A94B10",
"p. c #BC6417",
"a. c #8B5B2D",
"s. c #915D2E",
"d. c #865631",
"f. c #915F32",
"g. c #8B692B",
"h. c #97662E",
"j. c #9B622D",
"k. c #836433",
"l. c #8B6634",
"z. c #976632",
"x. c #AE6C2F",
"c. c #A7742E",
"v. c #BA7E2B",
"b. c #A36632",
"n. c #A96733",
"m. c #A26D35",
"M. c #AD6A32",
"N. c #B36D35",
"B. c #AD7434",
"V. c #B57633",
"C. c #BA7637",
"Z. c #BC7C34",
"A. c #C45C0D",
"S. c #C6772D",
"D. c #C97A2E",
"F. c #C57534",
"G. c #C97636",
"H. c #C57A32",
"J. c #CA7A35",
"K. c #C57539",
"L. c #CA7739",
"P. c #C67839",
"I. c #CC7A39",
"U. c #D27636",
"Y. c #7E8376",
"T. c #BF8032",
"R. c #CE812E",
"E. c #D68D2F",
"W. c #D88D2F",
"Q. c #DC952D",
"!. c #C48135",
"~. c #CC8236",
"^. c #C88A33",
"/. c #CC813A",
"(. c #D38535",
"). c #D68B35",
"_. c #D98D36",
"`. c #D3833B",
"'. c #D9863A",
"]. c #D68A3A",
"[. c #DA8C3A",
"{. c #CD9138",
"}. c #DB9234",
"|. c #DA9637",
" X c #DB9139",
".X c #E29C2F",
"XX c #E09636",
"oX c #E39B35",
"OX c #E99F36",
"+X c #E1953B",
"@X c #E49B3A",
"#X c #E89F3A",
"$X c #DFA033",
"%X c #EDA82E",
"&X c #E5A134",
"*X c #EBA435",
"=X c #EEA934",
"-X c #ECA43B",
";X c #EEA93A",
":X c #F1AA34",
">X c #F0A638",
",X c #F2AC3B",
"<X c #F3B433",
"1X c #808577",
"2X c #8F8772",
"3X c #8F8A74",
"4X c #818678",
"5X c #84897A",
"6X c #928573",
"7X c #DA8840",
"8X c #DB8C41",
"9X c #E59A41",
"0X c #EDA342",
"qX c #F1A941",
"wX c #B9AE95",
"eX c #DBD7B5",
"rX c #E2DEBB",
/* pixels */
"<X,X=X:X>X=X*X:X>X>X>X>X>X>X>X-X0X0X X(.[.[. X_.].'.W._.]._.[.[. X_.(.J.J.F.L.L.L.L.L.L.L.L.L.L.L.L.L.L.L.L.L.L.L.L.L.L.L.L.L.L.",
":X=X;X:X=X>X=X%X%X:X,X%X>XOXOXOX#X-X X)._.[._._.[.[.[._.].'.(.(.`.7XI.G.K.L.L.L.L.L.L.L.L.L.L.L.L.L.L.L.L.L.L.L.L.L.L.L.L.L.L.L.",
"<X;X:X:X;X:X;X-X,X>X>XXXW.}.'.W.}._.)._._._.)._._.[. X[.].`.S.D.G.K.G.K.K.G.L.L.G.L.L.L.L.L.G.G.U.L.L.L.G.G.G.J.L.L.L.K.G.L.L.L.",
"<X;X9X@X@X|.@X@XOXXXOX+X[.[._.'._._._._.[._.[.{.]._.).J.J.J.H.K.F.F.F.F.F.F.G.G.F.F.G.L.L.L.G.G.F.K.L.K.G.G.G.G.K.L.K.G.G.K.K.K.",
"*X&X{. X_._.)._._.[.'.+X[.[.[.[._.[._.[._.]._._.[.^.H.D.J.J.M.l j ! H.J.G.D.U.J.J.I.U.J.U.J.I.J.L.U.U.J.J.I.U.J.J.J.J.J.L.J.J.I.",
"}. XE.)._._._.[.[.[.[.'.[.[.'.[.[.[._._._._.).).^.c l ~.[.Z.B 5X5X8._ !.(.(.!.(.'._.).].].].].].'.U.].'._.].].'.'.'._.'.'.'.].'.",
"[.{.[._._._._._.[.'._._.+X'._._.]._.[._._.[.!.!.B 1X4Xb Z.c 4X6.6.8.5.( {.z.b } ^.^.Q.oXoX@X&X@X@XoXoXXXoXXXoXXXoXoXoXoXOXXXXX_.",
"[.[.}._.E._.|._._._._._.'._._._._._._.[.}.T._ b 1X8.8.1Xl @.8.6.6.5.<.V b #.5X1.b b o.oX;X:X;X:X:X>X=X=X>X:X=X:X:X:X>X*X>X0X#X}.",
"[.}._._.E.).}.[.'.+X'._._.'.'._._._._.[.H._ Y.Y.8.6.6.3.#.1X6.6.6.<.@.=.9.6.6.9.4X4X,.k.$X,X=X:X=X=X:X;X=X=X:X=X:X;X*X.XXX+X+X[.",
"[.{._._.}._._._._._._._._.+X_._.[._.Z.V._ 9.8.6.6.6.9.` 1X6.6.6.5.;.8.8.&.4.6.6.8.6.Y.,.o.T.T.$X*X*X*X&X*X*X*X&XOX*X-XoXW._.'.8X",
"_.).|.E._._._._._._._._._.XX_._._.Z.' C 5.8.6.6.6.6.1X$.#.0 V 6.6.6.6.6.,.=.4.5.6.6./ t v N C k.B.^.}.}. X}.}.}._._. X_._._._._.",
"$X.XQ.Q.E.).[.[.'._._._.'.'.'._.Z.' 9.Y.@.3.6.6.6.6.8.:.C $ r V 6.6.4.h 1.8.x 1.6./ r 1 g ;.1X-./ l.~.)._.[._.[._._._.]._.[._. X",
",X,X;X&XE.}.[._._._._._.'._.C.x.! 4.4X9.*.1.5.6.6.6.6.Y.^ 3 w e C 1.x @ l x o -.` e S 1 g 1.6.q.1X=.l./.[.[.7X[.8X[.8X[.8X8X[.[.",
"<X;X,X;X-X0X@X)._.[._._.+XC...` B <.6.6.6.1.5.6.6.6.6.6.-.x 6 9 0 v , 8 P 7 1 v 0 q 6 0 #.6.6.8.5.8.C b.I.I.I.I.I.I.I.J.I.I.I.`.",
"%X=X*X-X-X-XOX'._._._.[.V...4.Y.3.=.;.3.5.q.8.6.6.6.6.8.5.+.@ 8 7 3 9 J G u.F 5 7 q @ B 6.6.6.3.<.$.c z.G.G.J.K.I.P.K.K.G.G.L.G.",
"Q.E.{.|.E.).)._._._.[.[.} ;.9.6.6.q.$.=.5.8.6.6.6.6.6.6.8.=.g 3 4 8 9 w.L i.K r 4 , a *.6.3.1.1.=.@.#.X.C.K.G.G.K.J.L.G.G.L.J.L.",
"}.).{._._._.)._._._._.B...1.6.6.6.3.1.6.6.6.6.6.6.6.;.:.:.#.b + @ 7 8 S p.K T 9 3 0 =.8.6.1.;.8.9.1.8.;. .C.L.L.L.L.L.L.G.L.G.L.",
").[.)._.[._._.[.[.].8X| -.9.6.6.6.3.0.8.6.6.6.6.6.6.` C x . . O @ Z 8 S R D 9 Z , #.5.5.6.6.8.8.8.6.6.1XV n.L.G.L.G.L.L.L.L.L.L.",
")._.).[.[.).].[.[._.V.' &.4.6.6.6.q.8.6.6.6.6.6.6.6.3.x + @ + O 2 e.4 S R R 7 e.2 #.5.8.6.6.8.4.6.6.6.1XC n.L.L.L.L.L.L.L.L.L.G.",
").)._.).)._._._._._. .C @.&.;.4.6.6.6.6.6.6.6.1.3.3.g + 6 5 + + @ 9 S S T R Y 9 @ ^ 4.3.3.6.6.6.6.3.-.:.b M.L.L.L.L.L.L.L.J.L.L.",
"]._.[.].[.[.[.[.[.[. .N &.$.=.5.6.8.6.6.6.6.6.f $.g + 5 e e + + 8 8 S D R E T 9 w @ +.C B 4.5.6.6.3.1.1.N n.L.L.L.L.L.J.L.G.L.L.",
"~.~.J.J.!.~.~.J.~.H.| b ,.<.5.8.6.6.6.6.6.6.4.4.0 @ 3 y a 5 $ @ 9 S S D E E R S 9 @ ^ 5.C l 8.8.6.6.0.q.B n.L.L.G.L.F.G.G.G.G.G.",
"F.F.C.S.S.F.F.F.K.F.{ b -.6.<.5.6.6.6.6.8.5.; . + < 3 a n n W D S S D : : : : Y S r * X   l 6.6.6.6.1.;.C ) C.J.U.U.U.J.U.D.U.D.",
"K.K.K.K.K.K.K.K.P.F.{ c $.;.,.4.6.6.8.4.# # + @ , , 4 y 2XrX3XW n z S T : : Y W n z 2XeX1Xl 6.6.6.<.&.+.C j C.].)._._.'._.'.(.(.",
"P.P.P.K.K.F.K.F.J./.| N @.,.4.Y.1.4.6.6.<.o @ < 4 , 6 w Q ' 7.wX6X2.z 4 4 , z >.6XwX>.t ` 3.6.6.<.5.3.@.` ` ' !.E.}.@XoXXXoXoXoX",
"S.H.H.S.Z.F.S.J.(.]. .c ` 5.Y.*.; k 8.4.> + @ , < 4 S J t.L z %.' ^ r w 9 9 S ^ ' B +.;.1.6.6.6.8.9.8.@.` #.l v.E.OX=X=X;X=X=X=X",
"(.).(.(.].).].`.].[. .B ` #.*.` X i i t + @ @ 4 $ 6 I G r.r.$ $ 5 * + O + + + $ $ C 2.5.6.6.6.6.9.8.6.#.V #.l {.*X;X;X=X=X=X;X=X",
"XX}.}.}.Q.}.}.}. Xh.^ +.1.5.<.#.C % : - @ @ @ 3 o 6 t.A.u.F + + + + @ + + @ @ @ . #.8.8.6.6.6.6.6.6.8.1.` / l {.-X-X-X:X-X=X;X=X",
";X=X*X*X*X*X*X=X=Xg.c ,.9.8.8.3.=.V % * @ @ @ , . 6 H y.U D 1 O @ @ @ 3 5 6 5 3 5 g -.8.6.6.6.6.6.8.6.6.+.C j T.}.).Q.*X;X:X:X:X",
"=X=X:X;X;X;X,X%X%Xg.c ,.8.8.6.6.-.<.B O @ @ @ < @ $ q S D K w.A O @ 3 5 6 6 $ 6 S $ ` 5.6.6.6.<.1.8.6.6.+.V j T._._.}.|.oXOX.XoX",
"-X>X>X:X>X:X;X%Xc./ B -.6.6.6.6.5.6.3.  @ < @ @ @ + @ 7 K P w.i.  < 3 6 8 @ 4 w D 1 ` 6.6.6.6.;.6.9.6.6.@.V l T. X).).E._.[._._.",
"0X,X:X:X:X:X:X:Xg.c / ` 1.6.6.6.6.6.3.  @ , 3 @ @ + O $ P i.y.P . @ @ 3 , < 9 Y E 1 ` 6.6.6.6.5.,.9.9.6.4.+.j Z.}._.).).[.[.[.[.",
"@X0X*X=X=X;X*X*Xg.c / / 5.9.6.6.6.Y.=.  3 8 4 a $ O O O A i.u.S < + @ j + 3 w D S y *.8.6.6.:.*.$.*.@.1.-./ j Z.[. X[.[.].[.[._.",
"[.[. X}._.{.[._.k.c / / #.6.5X9.;.&.+.. 7 9 . -.B f * . # 6 S R S . j 5.t $ 7 D $ #.8.5.6.:.5.1X4X8.-.` / l B.].8X8X[.[.[.]._.[.",
"/.I.J.U././.I.J. .c / b B / / / C C   3 8 8 0 :.6.6.C # $ r S S q h 5.6.8.# $ S @ #.6.6.6.6.6.6.8.6.Y.;./ j x.~.U.~.`.].[.).E._.",
"S.C.C.F.F.F.K.K.C.{ c B B / 8.9.6.4.  4 9   <.6.6.6.3.M % 0 e 0 > 6.6.6.6.# @ w @ ` 3.6.6.8.6.6.6.6.Y.;./ j x.J.D.S.J./.].E.}.XX",
"K.G.G.L.I.L.L.P.L.{ x N / <.8.6.6.<.  : 9   <.8.6.6.l : d i u - > 6.6.6.6.# < 5 w $ ` 6.6.6.6.6.6.6.-.$./ k V.[.'.'.'.'._.).oX=X",
"G.I.L.L.L.G.G.L.L.| l c =.6.6.6.6.:.X p : X <.8.6.6.c - d d O.d > 6.6.6.6.# $ 5 u X ` 6.6.6.6.6.;.&.$.$./ j Z.[._.[. X}.}.OX&X%X",
"L.L.G.I.L.L.I.L.L.| j c c ` 1.6.-.o p m m X :.6.6.6.M   % d m s 5.6.6.6.8.4.; - O.- / <.6.6.<.1.6.6.;.$.N j Z._._. X_.W.XX;X:X%X",
"L.G.L.L.L.G.L.L.L.{ k l c / 1.8.+.X m o O.X ;.6.6.6.4.3./ X h 3.6.6.6.6.8.8.; u d O.i / 5.<.6.0.6.6.5.@.c j Z.).[. X_._.}.+X+XoX",
"J.L.L.L.L.L.L.G.L.| k j c N 1.9.=.@.= ,.% @.*.2.6.6.6.6.3.,.3.6.6.6.6.6.6.6.; u & i ; C ;.5.q.6.6.6.;.B c h Z. X[.[.[.[._._.'. X",
"L.L.G.L.G.I.L.L.L.| k f j c / 5.$.+.;.4.V 1.6.;.5.6.6.4.Y.6.6.6.6.6.6.6.6.6.:.i V i M +.+.4.0.6.5.5.*.N j j M.U.8X[.8X'.8X8X8X_.",
"L.L.L.L.G.L.L.J.L.{ f j c c B @.O.C ` ` 4.6.6.6.5.6.6.*.Y.3.6.6.6.6.6.6.6.6.8.-.3.;.3.6.-.=.5.5.=.#./ c j f M.U.'.U.'.'.`.`.'.'.",
"G.L.G.I.L.L.L.L.L.a.v j h j b V ` #.#.#.8.9.6.6.4.Y.6.3.@.*.6.6.6.6.6.6.6.5.4.6.8.6.6.0.-.+.,.;.#./ V c j f M.G.G.G.G.S.F.F.G.G.",
"L.L.I.L.L.I.L.L.L.L.d.v h h c B / / #.&.&.6.6.9.3.Y.Y.Y.@.4.5.5.6.5.4.9.6.3.;.9.8.9.0.<.+.+.$.+./ C c c k k M.L.F.K.G.G.G.G.G.L.",
"G.L.G.L.L.G.L.G.G.L.J.d.! v j N V V @.&.$.$.1.8.&.$.5.5.@.4.Y.4.6.5.:.9.8.;.-.6.5.0.1.` / #./ B B c c j f f M.L.K.L.L.G.G.L.L.G.",
"L.I.L.G.L.L.L.L.I.L.L.L.I.d.v j N N B ` @.&.&.$./ @.@./ 3.3.Y.3.6.8.5.-.4.@.` $.$.$.#.C N C B b c c j h a ! N.L.L.L.G.G.G.L.L.G.",
"I.L.L.I.L.I.I.G.L.L.L.L.L.P.) j c c c B V ` @.$./ / @./ &.*.Y.3.0.9.4.$.$.@./ $.$.#.` N N B b c c j j s ~ N.L.L.L.L.L.L.L.L.L.L.",
"L.I.L.I.L.L.L.L.L.L.L.L.L.I.] k c h c N B / / / / N / / / / / *.6.4.@./ / / / ` @./ B B c c c c j s j _ N.I.L.L.L.G.I.L.G.L.L.I.",
"L.L.I.L.L.L.L.J.J.U.L.I.L.L.] k l h l c c N / N b / / b / / #.&.$.$./ / / / b B / B N c j j c j s ( ] x.G.J.G.G.G.G.G.L.L.L.L.L.",
"L.L.L.L.L.G.L.L.L.I.L.L.G.G.] k h h l c c b b c l / b h / / / / / / N / / l l b N b c l l l l j f h.J.J.J.I.G.F.G.G.J.L.G.L.G.I.",
"L.L.I.I.L.G.G.L.L.L.L.I.L.F.s.n h h j c c c j c l l b s l c / / / / / / b l j c c c c c j j h h f m._._.'.`.J.S.G.G.G.G.G.L.L.P.",
"U.L.G.G.G.G.L.L.L.L.L.L.G.S.U.) h h h l l c j j l c l h l c / c / / l b c h h c c l l j h h h h ) v._._.[.8X'.(.(.D.D.G.G.L.L.G.",
"U.U.L.G.G.G.J.G.L.L.L.L.G.S.I.] f h h h j j j h l l h h h l c l j l c l c h h j j j h h h j h ) Z._.].].[.8X8X8X[.U.G.G.J.L.G.G.",
"'.7X7X7X(.D.S.G.L.L.I.L.G.G.S.j.Q h f j j j h h h h h h h h c c l c c c j j h h h h h h h f [ P.[.[.].J.J.J.J.J.J.I.G.L.L.L.L.G.",
"_.'.'.[.'.~.D.J.L.L.G.L.G.G.F.D.j.n h f j f h j h h h h h h l l h l j j h h h h h h h h k [ V.I.`.`.`.G.G.G.K.K.K.P.L.L.L.G.L.L.",
"|.).[.[.].).[.].I.J.F.J.G.J.J.G.G.j.n g f | l f h f z.h h h h h h h j f j h h ! h.[ f j ( M.F.G.F.D.G.G.G.L.L.J.L.P.G.L.I.G.J.I.",
"}.E.).R.R.[.[.[.].(.`.`.`.U.I.J.G.F.s.s.a.S.h.a.f.l.J.a.h h h j h h j j h h ! n.(.x.s.f.M.S.F.G.G.G.G.L.J.L.G.G.G.G.K.J.G.P.G.I.",
"E.E.~.R.D._.[._._.].8X8X[._.[.I.K.J.J.J.G.J.J.D.S.H.H.F.a.h k h h b } l h Q b.H.K.G.G.G.F.F.G.G.J.G.L.J.L.G.L.G.G.L.G.P.K.J.P.J.",
").E.].).)._._._._.[._._.}.)._.).(.{.].].(.(._.).(.[.8X8X8Xz.m.m.c.c.^.z.j.b.K.K.F.G.J.G.G.G.G.G.L.G.G.G.G.G.G.G.G.J.J.G.J.F.J.K.",
"[.}.[.[.[.[.[._.@X&X|.oXoX.X|.oX|.$X$X|.|.@XoX@X}._.[.[.).].[. X[._.[.[.(.~.`./.`.I.I.L.L.L.L.L.G.J.L.G.L.L.L.J.G.G.K.J.K.J.P.J.",
"_._.[._._.[.).E.#XqXqX,X=X=X;X;X;X;XqX;X;X;X*X;X#X). X_.E.E.}.E.E.E.}.}._.).[.[. X].(.J.L.L.L.L.L.G.L.G.G.J.G.G.G.G.J.P.J.F.J.F.",
"_.).[.).}.OXOX&X-X,X;X=X%X%X=X=X=X=X%X=X=X=X*X-X-X&X&X#X#X#X#X-XOX}.).}. X_._._.'._.(.D.F.L.I.L.L.L.L.G.G.G.L.L.G.L.P.J.J.K.K.G.",
"{.[.].). X&X,X;X*X*X&X;X;X=X=X=X=X%X=X=X%X=X,XqX-X0X-X-X-X-X-X-X-X|.W.). X}._.(._._.'.G.G.I.L.L.L.U.L.G.G.L.L.L.L.L.G.G.K.J.G.H."
};
