/* XPM */
static char *wall1723360531[] = {
/* columns rows colors chars-per-pixel */
"64 64 123 2 ",
"   c #0D0E14",
".  c #120F11",
"X  c #0F1016",
"o  c #121216",
"O  c #181516",
"+  c #12151B",
"@  c #181618",
"#  c #15181F",
"$  c #1C1B1D",
"%  c #20120C",
"&  c #331A0F",
"*  c #231512",
"=  c #231C17",
"-  c #211E1E",
";  c #25211E",
":  c #332219",
">  c #161A21",
",  c #191E25",
"<  c #211E21",
"1  c #1B2027",
"2  c #1C222A",
"3  c #232324",
"4  c #292624",
"5  c #262925",
"6  c #2C2A26",
"7  c #21262E",
"8  c #2A272A",
"9  c #262A2C",
"0  c #2B2C2B",
"q  c #322C25",
"w  c #322E2A",
"e  c #2D312C",
"r  c #35322D",
"t  c #3A352F",
"y  c #212730",
"u  c #242B34",
"i  c #2A2E33",
"p  c #272F38",
"a  c #332F32",
"s  c #2E3433",
"d  c #2B333C",
"f  c #2F383F",
"g  c #333235",
"h  c #3B3732",
"j  c #353A34",
"k  c #3B3B35",
"l  c #37363B",
"z  c #39363A",
"x  c #333B3B",
"c  c #3B3B3B",
"v  c #4B210E",
"b  c #5E2413",
"n  c #7E230F",
"m  c #752C0C",
"M  c #662611",
"N  c #62321D",
"B  c #442C27",
"V  c #492D27",
"C  c #44362D",
"Z  c #4C382D",
"A  c #5F3627",
"S  c #54372C",
"D  c #5C3528",
"F  c #423D36",
"G  c #433E3A",
"H  c #6E3B32",
"J  c #3E423C",
"K  c #464039",
"L  c #49443D",
"P  c #2E3740",
"I  c #2F3841",
"U  c #313B44",
"Y  c #3D3C41",
"T  c #343F48",
"R  c #374041",
"E  c #394346",
"W  c #36424B",
"Q  c #39454D",
"!  c #3E494C",
"~  c #3A4750",
"^  c #3D4A53",
"/  c #444343",
"(  c #494542",
")  c #464A43",
"_  c #4B4847",
"`  c #46464A",
"'  c #49474B",
"]  c #4C4B4B",
"[  c #51464C",
"{  c #514D4A",
"}  c #4E4D52",
"|  c #404F58",
" . c #514F51",
".. c #43525A",
"X. c #545154",
"o. c #595652",
"O. c #56555B",
"+. c #59575A",
"@. c #5B595C",
"#. c #785A55",
"$. c #4C5E66",
"%. c #5C5C62",
"&. c #615F61",
"*. c #4E6069",
"=. c #50636C",
"-. c #626166",
";. c #64646A",
":. c #6A676B",
">. c #69686E",
",. c #636670",
"<. c #6F7176",
"1. c #77777B",
"2. c #77797E",
"3. c #8B270B",
"4. c #952C0C",
"5. c #BB3C0D",
"6. c #B54C17",
"7. c #C8450B",
"8. c #C84D0D",
"9. c #DE4F0E",
"0. c #FD6306",
"q. c #FF620A",
"w. c #787781",
/* pixels */
"] { ] J J s J J e 5 e e s R Q ^ W p 2 5 5 + > 2 u p J y 2 p d W I ~ ^ Q I e e s W Q ^ ..^ J J j j J ) { { ) J J J J J 5 5 e e e ",
") ) ) J j J e j e e e e s J ^ ^ W p u 2 , + 1 2 p f p 2 y p p I W ~ ^ W d 9 e s I ~ ....! j j J J J ! L J J J J J e J e e e 5 e ",
"J j J J j e e e e e e e s W ^ ^ W d u , # + > 2 P p 2 2 y y p p I ^ ^ P 9 5 e e I ~ ....E e j j J s s J j J J e 5 5 e e e e e e ",
"j J J e x R J e e e e 5 9 d ^ ^ W d u > # > 1 9 R p , 2 2 p u P ^ ^ Q P p 5 5 s R W ^ ^ E e j J e s u j J J s x J J e e e e e 5 ",
"j j J e x ^ R e e e e 5 9 u W ^ W d y , > , 2 y P p 2 , y u p I =.^ W p 9 5 e e I W W ^ E e s j e s u x J s e J ^ J e e e e 5 5 ",
"e e e e J ^ R e e e 5 5 9 u f W W d u > > 2 y p P p 2 , y u u P ^ ~ I d 9 9 5 e u f W ~ E e e e e 9 u s e e e J ^ J e e 5 5 5 5 ",
"e e e s J ^ Q s 5 5 2 5 5 p p d W d u 2 > 2 u d d y , , y p u P ^ *.^ d u 9 9 e u f W Q J 5 e e e s u s e e s R ^ Q u 9 5 5 5 5 ",
"u e e f W ^ ~ I e 5 2 2 9 u u p I d u 2 , 2 p I p 2 # , 2 y p p ^ *.=.R u u 9 9 u d I E d 5 e e e 9 u u e e f W ..~ J 9 5 1 5 5 ",
"f p e d Q ^ W p 2 9 p 2 , 2 y p I P u 2 2 2 d I p 2 # , 2 2 y u u Q ^ W p u y 2 p d I W I f s e 9 9 p d d e f W ..W p 2 u p 2 > ",
"W J e x W ~ P u 2 p R y 2 2 y p P p y 2 2 2 d I p 2 > > , , y u 2 d ~ d u u 2 2 u P W I I I s 5 5 y p W J e d R ^ I u 2 p R u 2 ",
"^ ! e u p I d u 2 u R R p 2 y u u y , 2 2 u d I p y , > > 2 y u 2 p R p y p y 2 u P I I I W e 5 5 9 d ^ E e p s W d y 2 u W R I ",
"^ ! 9 u d I d u 2 u d d p 2 y p u y 2 2 y u p p u 2 , # # 2 y u 2 u p P p y 2 2 u p P I I d 9 5 1 u d ^ E 5 p p I d y 2 y d d d ",
"^ W e u p I d u 2 2 u u y 2 y u y y , , y u u y 2 2 , > # 2 y y , y u P p , 2 2 y u p P P u 9 5 1 y d ^ W 9 u d I d u 2 2 u u u ",
"*.~ J p p W d u 2 2 2 y y 2 y u y , # , 2 u u y 2 , , > > 2 y y # , 2 p y 2 , 2 2 y p P P u 5 2 1 9 d ^ ^ I p p U d u 2 2 2 u u ",
"$.^ Q p u d p u 2 2 2 2 2 2 2 u 2 , > 2 y u y y 2 2 , > > , 2 2 + > 2 y y 2 , , 1 y p P d p W I 2 y d ^ ^ ~ p u d p u 2 2 2 2 y ",
"^ ..^ p 2 u u u 2 2 , 2 2 2 y u 2 , 2 u u p y 2 , , , > # 2 2 , X # 2 y y 2 # # , y p P d u ^ $.y y d ^ ..^ p y u u y 2 , 1 1 2 ",
"Q ^ ..d y u y 2 2 , + , 2 , 2 2 > > 2 y u p 2 2 2 , , # # # , > X + 2 2 2 2 > # 1 y p p y , W ~ 7 y p W ~ | p 2 p y 2 2 > > 2 2 ",
"W Q | p 2 p y , , , , u u 2 2 > + > 2 y u y 2 1 , , 2 # + + > , + # > 2 1 > # # , 2 u u 2 > I W 2 y p f ~ | p 2 u y 1 , > > u p ",
"I Q | p 2 u y , + > 2 W W y > + + > 2 u y 2 2 1 # > , # # + > , # + + , > # + # 2 2 p p 2 # p d 2 y p f ~ | p y u 2 , # > 2 Q | ",
"p R Q p 2 u y , > u W W I 2 > + , > > y y 2 2 > # , y > + X > 2 > # + # # + p d 2 2 2 2 2 p u y , 2 u d U W u 2 u y 1 > u T Q Q ",
"p p I y y y 2 , 1 P ^ W p 2 , > 2 , > y y 2 1 > + 2 u , + X # , 2 # X X > y Q ^ 2 2 , > 2 R y , # 1 u u d U y 2 u 2 , 2 I | T I ",
"p p W u , 2 , > , P ^ W u 2 1 2 y y 1 y y 2 > + + 2 u 2 > X X > 1 > + X u ^ *...2 , , # , p 2 > # , 2 u d f u 2 2 > > , I | I p ",
"u p I p 2 2 , , u U ^ d 2 > 2 y p u 2 2 2 2 > + + , y y , X + > 2 > # + u ^ =.$., > , # > y 1 > > , 2 u d f u 2 2 > > u T | d y ",
"u P W p u 2 2 2 P ~ ^ p 1 # 2 d W p 2 2 2 2 > + + > 2 u 2 # + + , > + + p ^ *.^ 1 > 2 # > 2 # > 1 1 2 y d W d y 2 2 y I Q ^ u , ",
"u P I p y 2 2 2 P I P y , + y U ~ W y 2 2 2 + X + > 2 y 2 # + + # > , # 2 W ^ ^ , > 1 # > , # X , 2 2 u d U d y 2 , y P I d y 2 ",
"u p P p y 2 2 y P P u 2 1 # d ~ ^ W 2 2 , , + X # , , 2 2 + X X + # > + 2 W ^ W > # > # > > # X , 2 2 y p P p y 2 2 u I d u 2 2 ",
"p u p u u 2 y p P P u 2 2 2 W ..^ P + , , + X + , # # , , + X X + + + X > W ^ W > X X + # # X X 2 2 2 u u u p y 2 y p I d u 2 2 ",
"u u p u y 2 2 p p p 2 1 2 p W ^ ^ p + , 1 + + + , , # , , , # + + + + # 2 p W R 2 # + X + > # # , , 2 u u p u y 2 y u d p 2 > > ",
"u p u p y 2 2 u u y 1 # 2 W ~ ~ W y + 1 > + + + , , # > , 2 > + # + X , 2 p P d 2 y 2 # + 2 # > 1 1 2 u p u u y 1 y u u y 2 > # ",
"u u u p y 2 2 2 u y 2 # y ^ ~ U d 2 + 1 > X + # , > + # > , > + + X X > 2 p P P 2 I W 2 # 2 > # 1 1 2 u u u u u 1 2 2 u y > # + ",
"y y p u y 2 , , y 2 , 1 u Q U d y 1 + > # X + > , , + + > 2 , > # X + , 2 u d P 2 I ~ y 2 2 # # > 1 1 2 y u p y 2 > , u 2 > , 2 ",
"2 2 u u y 2 , # y 2 # y d I P y 2 > + + + X > 2 , > + + > , , , # # # , y u d d 2 I ~ p 2 > # + # > 1 2 y u u y 2 > # y 2 # u p ",
", y u y 2 2 > > , > > u I I P u , > + + + + > , > + X + + > , > X X # > 2 p p u 2 p W P y # + X # > 2 1 2 u y 2 2 > # , 2 # p P ",
"2 y u 2 2 , > > > > > p I P u y , > + + + > > > + + X X + > > > X X # , y p p 2 1 u W d 2 # X X + > 1 2 y u 2 2 2 > # > # # p W ",
", y u y , 2 > + > + > p I p y , > X   + + + + + + +   . X + > > X X # , 2 u p 2 # y W p 2 # X X # > 2 1 y u y 2 2 # + + + > p W ",
", 2 2 2 2 , > +   > , u p u y , > +   + + + + + X   X X X + > > X + # , 2 p p 2 # y P p 2 # + X X > 2 , 2 2 , , 2 # + + + , u u ",
"2 2 , 2 2 2 > + X > , y u u 2 , + +   X +   X + + X     X + > X X X # , u p u 2 # 2 R p 2 + X X # > 2 , 2 , 2 2 , > + X > 2 y u ",
"2 , , 2 , 2 > + + > 2 y u 2 , , >             X + X   X X + + + X X + , 2 p 2 , + 2 u u 2 X X # # , , 2 2 2 , , 2 > # + > 2 y p ",
", 2 2 , , > + + > , y y 2 2 > > > X + X   + X + + X X   X + + + X X # # 2 u 2 2 # 2 p 2 , X + # + , , 2 , 2 2 , > + + > 2 y 2 y ",
"2 2 , 2 , + X + , y u 2 , , > + + > + + + + + +   X   X X   X + X + + + 1 p 2 > # 2 u 2 # X X + + > 2 , 2 , , 2 > X + , 2 u 2 2 ",
", 2 2 , , # X X , 2 p 2 2 , > + + + > > > X X X X   X X   . X X X X # + > 2 > # # 2 u 2 > X X # + > 2 2 2 , , , + X X , y u 2 2 ",
"> , 2 , , # + + , 2 y , , , > + + > , , >   X     X X X     X     X + # # 2 > + + 2 u 2 > X X + # # # , , 2 2 , # + + , 2 y 2 2 ",
"# > , 2 > # # # , , , 2 , > + > + > , , > X   X   X + X X     X X + + + > 2 # + + 2 y 2 > X X X + + + # # 2 2 > + + > , , 2 2 2 ",
"+ > 2 > # + X + > , 2 , , > + + X > , > + X         + + >         X X + > 2 # # + 1 2 > > 2 # X + + + + # 2 > + X + + > , , 2 , ",
"+ # > # + X + # + > , , > + + +   > > + +     X . o X > > + + + X X X + # 1 > + # # > # , u # X + # + + # 2 # + X + # + > , 2 , ",
"# + # # + + + + + > , > + > X       > > +     > g ,     + , , > X   X + > 1 # + # X X + 1 u > X + + # + + # + + # + + + > 2 # + ",
"+ + + + # > # # + > > > + > +   X + + X X     < <.<     + > > > # + X + # > # # + + X 2 2 2 > X X + + + + + + + > > # + > , # + ",
"# + # + # , > + > > > > > X X X + + > X X   + < O.>       + + > , # X X + + + + + + # 2 2 1 + X X + + # # + + > , > + + # 2 # + ",
"+ + + X X 1 , + + + + # +   + + + + X X     @ $ < 8 8       o + + + X X X + + + + 1 y 2 , + o   X X # # + + X + 1 # # + # # + + ",
"+ + X + + 1 , > > + > + + + + + + X         < i u Y a X     X + + + X X + # + + + 1 2 , # +     X X X # + + + + 1 1 # + + + + + ",
"# X X + # 1 1 , # + + X X + X + X         . i z a z h $       X + + + X X + + + X + , + +   .   X X # + X X + # 1 1 1 # + + X X ",
"+ X X + > 1 > # + + + X X + + + X       X 8 h G F [ 8 O O       X + + X X X + + X + # X     $ O   X X + + X + # 1 # + + + + X   ",
"X X X X # , > # + + X X X + X         > g ] ] [ [ ] + 3 0 < o       X X     X X   o + X     O ; + X   X X . + + 1 # + + + +     ",
"  X   X # + X # + o X   X   X         l 2.2.-.1./ @ > Y / G $       X         X X           - 6 5 +   .   X + + + + + + + X   X ",
"1 $     X # X # + X               . O Y &.%.' l > > g  .' G g 8 6 $           X         o - q r e q ; ; @     X + + + X X       ",
"g 3     X + # X X X   X X o o X o $ + i Y ` @.&.} <  .%.;.+.1.] F 0 + o o @ X         o - q r t J t t t 3       + + + X     X X ",
"t 3     X + o   X   . $ 4 t t t g 8 o 3 8 i z ' a <  .:.X.g O.X.' _ h r w w @         - 6 t r t F F F t 3     o + + X X     $ ; ",
"F w - o X o X     X O 4 t t F L  .c O < 3 $ , < 4 - < < o . . 8 c c w h F h 4 - - - - 6 r t F F K L F F w $ o   X + X   X O 6 r ",
"F F h -           @ 6 t k L ] >.+.8 o 8 g c c z F w . O * * * = h 6 < h F h h t F t h h t C F L K K L G F r $ .       X $ q t t ",
"` ( F w 3     . ; r t k L @.' g 3 + $ 9 i g G C ( / . q F Z Z V : < z G h F F F F F F F F F G F L L  .] ( F r -       3 q t t K ",
"a / / G w - @ - r F F t C a w i g < 8 Y z h h V #.l . B S D A N v 8 g z c G G L G F F F G / G h G _ ;.w.-.L F r $ $ ; t J C L o.",
"c %.:.L F F t F F G F i 0 F c /  .8 a X.G G h H H 4 o & m 4.5.7.m z Y ` >.;.L G G h &.O.8  .' , 3 3 a ] R # r F t t t F K K :.2.",
"l a i w r F F F F F 9 < $ a _ { { t G o./ c z [ X.i @ % M 3.9.q.6.[ ,.>.>.%.G F 8 a &.` Y ` ` @ O o @ . o $ 4 r F F F K ( +.} x ",
"' Y Y Y F G G F F 6 . . . O G G F L G F G z Y  .&.8 o O b n 7.0.8.B O.` 3 , a F , > Y %.` X./ o O O o @ O O O ; F K K K ( 9 X o "
};
