/* XPM */
static char *D_Death[] = {
/* columns rows colors chars-per-pixel */
"288 48 8 1 ",
"  c #0C0F2A",
". c #303843",
"X c #593E47",
"o c #7A5859",
"O c #A57855",
"+ c #DE9F47",
"@ c #F1F6F0",
"# c None",
/* pixels */
"################################################################################################################################################################################################################################################################################################",
"################################################################################################################################################################################################################################################################################################",
"################################################################################################################################################################################################################################################################################################",
"################################################################################################################################################################################################################################################################################################",
"################################################################################################################################################################################################################################################################################################",
"################################################################################################################################################################################################################################################################################################",
"################################################################################################################################################################################################################################################################################################",
"################################################################################################################################################################################################################################################################################################",
"################################################################################################################################################################################################################################################################################################",
"################################################################################################################################################################################################################################################################################################",
"################################################################################################################################################################################################################################################################################################",
"################################################################################################################################################################################################################################################################################################",
"###############################################################################################################################################################################################################################################################################@@###############",
"###############################################################################################################################################################################################################################################################################@@@##############",
"############################################################################################################################################################################################################################@@@#################################################@@##############",
"###############################################################################################################################################################################################################@@###########@@@@@############################@##################################",
"#################################################################################################################################################################@@#########@@################################@@@#############@@@############################@##################################",
"###############################################################################################################################################################@@@@@########@@@###############################@@###oo###########################################################################",
"#################################################################################################################@@@########@@@################################@@@@@##oo###@@@@##############################################@@#################################################################",
"###############################################################@@@@##########@@@@###############################@@@@#      #@@@@################################@@##oooo###@@@@##############################################@@#################################################################",
"##############@@@##############@@@#############################@@@@##      ##@@@@###############################@@@@ oooooo @@@@####################################oo#####@@@#####################################################################################o############################",
"##############@@@@###      ###@@@@#############################@@@@@ XooooX @@@@@################################@@@@oooooo@@@@####################################@@#####++@@#######################################oo#########################################################################",
"##############@@@@@# XXooXX #@@@@@##############################@@@@XooooooX@@@@#################################@@@@o++++o@@@@####################################@@#####++#########################################oo#########################################################################",
"##############@@@@@@XXooooXX@@@@@@###############################@@@@oooooo@@@@###################################@@@++++++@@@########################################ooo#######################################################################################################################",
"################@@@@@O++++O@@@@@##################################@@@++++++@@@#################################### @@@++++@@@ ########################################ooo#######################################################################################################################",
"##################@@@@++++@@@@#####################################@@@++++@@@##################################### @@@oooo@@@ ########################################ooo####ooo################################################################################################################",
"################## O@@oooo@@O #################################### O@@oooo@@O ################################### OX@@oooo@@XO ##############################################oooo###############################################################################################################",
"################## OXXooooXXO #################################### XooooooooX ################################## OXXooooooooX O ##############################################ooo################################################oo#############################################################",
"##################  XX++++XX  #################################### Xo++++++oX ##################################  XXo++++++oX   ################################ooo##############################################################oo#############################################################",
"################### X++++++X ###################################### O++++++O ##################################### O++++++++O #################################oooo###++###########################################################################################################o############",
"################## + ..++.. + #################################### +...++...+ ################################### +O...++...O+ ################################ooo####++######################################oo################################################################################",
"################## + ..++.. + #################################### +...++...+ ################################## +  ...++...  + ##########################################++++################################oo################################################################################",
"##################  # @++@ #  ####################################  ...++...  ##################################  # ...++... #  ###################################..####++++++########################################+#######++###############################################################",
"##################### @  @ #########################################  @++@  ########################################  @++@  ######################################+..###++++..+################################################++###############################################################",
"#####################  ##  ##########################################      ##########################################      #######################################++++##++++..+#################################################################################################################",
"###################################################################################################################################################################+++##++++++###################################++#########.+++################################################################",
"#########################################################################################################################################################################++++#####################################++#######+++++################################################################",
"###########################################################################################################################################################################################################################+++##################################################################",
"################################################################################################################################################################################################################################################################+############++#################",
"#############################################################################################################################################################################################################################################################################++#################",
"################################################################################################################################################################################################################################################################################################",
"################################################################################################################################################################################################################################################################################################",
"################################################################################################################################################################################################################################################################################################",
"################################################################################################################################################################################################################################################################################################",
"################################################################################################################################################################################################################################################################################################",
"################################################################################################################################################################################################################################################################################################",
"################################################################################################################################################################################################################################################################################################",
"################################################################################################################################################################################################################################################################################################"
};
