/* XPM */
static char *D_Walk[] = {
/* columns rows colors chars-per-pixel */
"288 48 8 1 ",
"  c #0C0F2A",
". c #303843",
"X c #593E47",
"o c #7A5859",
"O c #A57855",
"+ c #DE9F47",
"@ c #F1F6F0",
"# c None",
/* pixels */
"################################################################################################################################################################################################################################################################################################",
"################################################################################################################################################################################################################################################################################################",
"################################################################################################################################################################################################################################################################################################",
"################################################################################################################################################################################################################################################################################################",
"################################################################################################################################################################################################################################################################################################",
"################################################################################################################################################################################################################################################################################################",
"################################################################################################################################################################################################################################################################################################",
"################################################################################################################################################################################################################################################################################################",
"################################################################################################################################################################################################################################################################################################",
"################################################################################################################################################################################################################################################################################################",
"################################################################################################################################################################################################################################################################################################",
"################################################################################################################################################################################################################################################################################################",
"################################################################################################################################################################################################################################################################################################",
"################################################################################################################################################################################################################################################################################################",
"################################################################################################################################################################################################################################################################################################",
"################################################################################################################################################################################################################################################################################################",
"################################################################################################################################################################################################################################################################################################",
"###################################################################################################################################################################@@@####@@@###################################################################################################################",
"#################################################################################################################################################################@@@@@####@@@@@#################################################################################################################",
"###############################################################@@@############@@@################################################################################@@@@@####@@@@@#################################################################################################################",
"###############################################################@@@@###    ###@@@@####################################      #######################################@@@@    @@@@########################################    ######################################################################",
"###############@@####      ####@@##############################@@@@@# XXXX #@@@@@############################@@@#### XXooXX ####@@@###############################@@@@XooX@@@@#################################@@#### XXXX ####@@####################################      #####################",
"#################@@# XXooXX #@@#################################@@@@ XooooX @@@@#############################@@@@@@ XXooooXX @@@@@@#############################@##@@@oooo@@@##@#################################@@# XooooX #@@##################################### XXooXX ####################",
"###################@@XooooX@@#####################################@@@O++++O@@@###############################@@@@@@@@@++++@@@@@@@@@############################@@##@@@++++@@@##@@##################################@@oooooo@@###################################### XXooooXX ###################",
"################### XO++++OX ###################################@##@@@++++@@@##@#############################@@@@@@@@@++++@@@@@@@@@############################@### @@++++@@ ###@################################## X++++++X ################################@@@@@@ XO++++OX @@@@@@#############",
"################### @@++++@@ ###################################@# O@@oooo@@O #@##############################@@@@@@@@oooo@@@@@@@@#############################@## O@@oooo@@O ##@################################## @@++++@@ ################################@@@@@@@@@++++@@@@@@@@@#############",
"##################@@@@oooo@@@@##################################@@ OXXooooXXO @@##############################@@@@ OXXooooXXO @@@@################################ OXXooooXXO ####################################@@@@oooo@@@@###############################@@@@@@@@@oooo@@@@@@@@@#############",
"################@@@@@XooooX@@@@@################################@@  XX++++XX  @@##################################  XX++++XX  ####################################  XX++++XX  ##################################@@@@@XooooX@@@@@#############################@@@@@ OXXooooXXO @@@@@#############",
"##############@@@@@@XX++++XX@@@@@@###############################@# X++++++X #@###################################@@X++++++X@@##################################### X++++++X #################################@@@@@@XX++++XX@@@@@@################################  XX++++XX  ##################",
"##############@@@@@ X++++++X @@@@@################################ + ..++.. + ###################################@@+ ..++.. +@@################################### + ..++.. + ################################@@@@@ X++++++X @@@@@################################# X++++++X ###################",
"##############@@@@ + ..++.. + @@@@################################ + ..++.. + #################################### + ..++.. + #################################### + ..++.. + ################################@@@@ + ..++.. + @@@@################################ + ..++.. + ##################",
"##############@@@# + ..++.. + #@@@################################  # @++@ #  ####################################  # @++@ #  ####################################  # @++@ #  ################################@@@# + ..++.. + #@@@################################ + ..++.. + ##################",
"##################  # @++@ #  ####################################### @  @ ########################################## @  @ ########################################## @  @ #######################################  # @++@ #  ####################################  # @++@ #  ##################",
"##################### @  @ ##########################################  ##  ##########################################  ##  ##########################################  ##  ########################################## @  @ ########################################## @  @ #####################",
"#####################  ##  ##########################################################################################################################################################################################  ##  ##########################################  ##  #####################",
"################################################################################################################################################################################################################################################################################################",
"################################################################################################################################################################################################################################################################################################",
"################################################################################################################################################################################################################################################################################################",
"################################################################################################################################################################################################################################################################################################",
"################################################################################################################################################################################################################################################################################################",
"################################################################################################################################################################################################################################################################################################",
"################################################################################################################################################################################################################################################################################################",
"################################################################################################################################################################################################################################################################################################",
"################################################################################################################################################################################################################################################################################################",
"################################################################################################################################################################################################################################################################################################",
"################################################################################################################################################################################################################################################################################################",
"################################################################################################################################################################################################################################################################################################",
"################################################################################################################################################################################################################################################################################################"
};
