/* XPM */
static char *S_Walk[] = {
/* columns rows colors chars-per-pixel */
"288 48 9 1 ",
"  c #0C0F2A",
". c #303843",
"X c #593E47",
"o c #7A5859",
"O c #A57855",
"+ c #DE9F47",
"@ c #BBC3D0",
"# c #F1F6F0",
"$ c None",
/* pixels */
"$$$$$$$$$$$$$$$$$$$$$$$$$$$$$$$$$$$$$$$$$$$$$$$$$$$$$$$$$$$$$$$$$$$$$$$$$$$$$$$$$$$$$$$$$$$$$$$$$$$$$$$$$$$$$$$$$$$$$$$$$$$$$$$$$$$$$$$$$$$$$$$$$$$$$$$$$$$$$$$$$$$$$$$$$$$$$$$$$$$$$$$$$$$$$$$$$$$$$$$$$$$$$$$$$$$$$$$$$$$$$$$$$$$$$$$$$$$$$$$$$$$$$$$$$$$$$$$$$$$$$$$$$$$$$$$$$$$$$$$$$$$$$$$$",
"$$$$$$$$$$$$$$$$$$$$$$$$$$$$$$$$$$$$$$$$$$$$$$$$$$$$$$$$$$$$$$$$$$$$$$$$$$$$$$$$$$$$$$$$$$$$$$$$$$$$$$$$$$$$$$$$$$$$$$$$$$$$$$$$$$$$$$$$$$$$$$$$$$$$$$$$$$$$$$$$$$$$$$$$$$$$$$$$$$$$$$$$$$$$$$$$$$$$$$$$$$$$$$$$$$$$$$$$$$$$$$$$$$$$$$$$$$$$$$$$$$$$$$$$$$$$$$$$$$$$$$$$$$$$$$$$$$$$$$$$$$$$$$$$",
"$$$$$$$$$$$$$$$$$$$$$$$$$$$$$$$$$$$$$$$$$$$$$$$$$$$$$$$$$$$$$$$$$$$$$$$$$$$$$$$$$$$$$$$$$$$$$$$$$$$$$$$$$$$$$$$$$$$$$$$$$$$$$$$$$$$$$$$$$$$$$$$$$$$$$$$$$$$$$$$$$$$$$$$$$$$$$$$$$$$$$$$$$$$$$$$$$$$$$$$$$$$$$$$$$$$$$$$$$$$$$$$$$$$$$$$$$$$$$$$$$$$$$$$$$$$$$$$$$$$$$$$$$$$$$$$$$$$$$$$$$$$$$$$$",
"$$$$$$$$$$$$$$$$$$$$$$$$$$$$$$$$$$$$$$$$$$$$$$$$$$$$$$$$$$$$$$$$$$$$$$$$$$$$$$$$$$$$$$$$$$$$$$$$$$$$$$$$$$$$$$$$$$$$$$$$$$$$$$$$$$$$$$$$$$$$$$$$$$$$$$$$$$$$$$$$$$$$$$$$$$$$$$$$$$$$$$$$$$$$$$$$$$$$$$$$$$$$$$$$$$$$$$$$$$$$$$$$$$$$$$$$$$$$$$$$$$$$$$$$$$$$$$$$$$$$$$$$$$$$$$$$$$$$$$$$$$$$$$$$",
"$$$$$$$$$$$$$$$$$$$$$$$$$$$$$$$$$$$$$$$$$$$$$$$$$$$$$$$$$$$$$$$$$$$$$$$$$$$$$$$$$$$$$$$$$$$$$$$$$$$$$$$$$$$$$$$$$$$$$$$$$$$$$$$$$$$$$$$$$$$$$$$$$$$$$$$$$$$$$$$$$$$$$$$$$$$$$$$$$$$$$$$$$$$$$$$$$$$$$$$$$$$$$$$$$$$$$$$$$$$$$$$$$$$$$$$$$$$$$$$$$$$$$$$$$$$$$$$$$$$$$$$$$$$$$$$$$$$$$$$$$$$$$$$$",
"$$$$$$$$$$$$$$$$$$$$$$$$$$$$$$$$$$$$$$$$$$$$$$$$$$$$$$$$$$$$$$$$$$$$$$$$$$$$$$$$$$$$$$$$$$$$$$$$$$$$$$$$$$$$$$$$$$$$$$$$$$$$$$$$$$$$$$$$$$$$$$$$$$$$$$$$$$$$$$$$$$$$$$$$$$$$$$$$$$$$$$$$$$$$$$$$$$$$$$$$$$$$$$$$$$$$$$$$$$$$$$$$$$$$$$$$$$$$$$$$$$$$$$$$$$$$$$$$$$$$$$$$$$$$$$$$$$$$$$$$$$$$$$$$",
"$$$$$$$$$$$$$$$$$$$$$$$$$$$$$$$$$$$$$$$$$$$$$$$$$$$$$$$$$$$$$$$$$$$$$$$$$$$$$$$$$$$$$$$$$$$$$$$$$$$$$$$$$$$$$$$$$$$$$$$$$$$$$$$$$$$$$$$$$$$$$$$$$$$$$$$$$$$$$$$$$$$$$$$$$$$$$$$$$$$$$$$$$$$$$$$$$$$$$$$$$$$$$$$$$$$$$$$$$$$$$$$$$$$$$$$$$$$$$$$$$$$$$$$$$$$$$$$$$$$$$$$$$$$$$$$$$$$$$$$$$$$$$$$$",
"$$$$$$$$$$$$$$$$$$$$$$$$$$$$$$$$$$$$$$$$$$$$$$$$$$$$$$$$$$$$$$$$$$$$$$$$$$$$$$$$$$$$$$$$$$$$$$$$$$$$$$$$$$$$$$$$$$$$$$$$$$$$$$$$$$$$$$$$$$$$$$$$$$$$$$$$$$$$$$$$$$$$$$$$$$$$$$$$$$$$$$$$$$$$$$$$$$$$$$$$$$$$$$$$$$$$$$$$$$$$$$$$$$$$$$$$$$$$$$$$$$$$$$$$$$$$$$$$$$$$$$$$$$$$$$$$$$$$$$$$$$$$$$$$",
"$$$$$$$$$$$$$$$$$$$$$$$$$$$$$$$$$$$$$$$$$$$$$$$$$$$$$$$$$$$$$$$$$$$$$$$$$$$$$$$$$$$$$$$$$$$$$$$$$$$$$$$$$$$$$$$$$$$$$$$$$$$$$$$$$$$$$$$$$$$$$$$$$$$$$$$$$$$$$$$$$$$$$$$$$$$$$$$$$$$$$$$$$$$$$$$$$$$$$$$$$$$$$$$$$$$$$$$$$$$$$$$$$$$$$$$$$$$$$$$$$$$$$$$$$$$$$$$$$$$$$$$$$$$$$$$$$$$$$$$$$$$$$$$$",
"$$$$$$$$$$$$$$$$$$$$$$$$$$$$$$$$$$$$$$$$$$$$$$$$$$$$$$$$$$$$$$$$$$$$$$$$$$$$$$$$$$$$$$$$$$$$$$$$$$$$$$$$$$$$$$$$$$$$$$$$$$$$$$$$$$$$$$$$$$$$$$$$$$$$$$$$$$$$$$$$$$$$$$$$$$$$$$$$$$$$$$$$$$$$$$$$$$$$$$$$$$$$$$$$$$$$$$$$$$$$$$$$$$$$$$$$$$$$$$$$$$$$$$$$$$$$$$$$$$$$$$$$$$$$$$$$$$$$$$$$$$$$$$$$",
"$$$$$$$$$$$$$$$$$$$$$$$$$$$$$$$$$$$$$$$$$$$$$$$$$$$$$$$$$$$$$$$$$$$$$$$$$$$$$$$$$$$$$$$$$$$$$$$$$$$$$$$$$$$$$$$$$$$$$$$$$$$$$$$$$$$$$$$$$$$$$$$$$$$$$$$$$$$$$$$$$$$$$$$$$$$$$$$$$$$$$$$$$$$$$$$$$$$$$$$$$$$$$$$$$$$$$$$$$$$$$$$$$$$$$$$$$$$$$$$$$$$$$$$$$$$$$$$$$$$$$$$$$$$$$$$$$$$$$$$$$$$$$$$$",
"$$$$$$$$$$$$$$$$$$$$$$$$$$$$$$$$$$$$$$$$$$$$$$$$$$$$$$$$$$$$$$$$$$$$$$$$$$$$$$$$$$$$$$$$$$$$$$$$$$$$$$$$$$$$$$$$$$$$$$$$$$$$$$$$$$$$$$$$$$$$$$$$$$$$$$$$$$$$$$$$$$$$$$$$$$$$$$$$$$$$$$$$$$$$$$$$$$$$$$$$$$$$$$$$$$$$$$$$$$$$$$$$$$$$$$$$$$$$$$$$$$$$$$$$$$$$$$$$$$$$$$$$$$$$$$$$$$$$$$$$$$$$$$$$",
"$$$$$$$$$$$$$$$$$$$$$$$$$$$$$$$$$$$$$$$$$$$$$$$$$$$$$$$$$$$$$$$$$$$$$$$$$$$$$$$$$$$$$$$$$$$$$$$$$$$$$$$$$$$$$$$$$$$$$$$$$$$$$$$$$$$$$$$$$$$$$$$$$$$$$$$$$$$$$$$$$$$$$$$$$$$$$$$$$$$$$$$$$$$$$$$$$$$$$$$$$$$$$$$$$$$$$$$$$$$$$$$$$$$$$$$$$$$$$$$$$$$$$$$$$$$$$$$$$$$$$$$$$$$$$$$$$$$$$$$$$$$$$$$$",
"$$$$$$$$$$$$$$$$$$$$$$$$$$$$$$$$$$$$$$$$$$$$$$$$$$$$$$$$$$$$$$$$$$$$$$$$$$$$$$$$$$$$$$$$$$$$$$$$$$$$$$$$$$$$$$$$$$$$$$$$$$$$$$$$$$$$$$$$$$$$$$$$$$$$$$$$$$$$$$$$$$$$$$$$$$$$$$$$$$$$$$$$$$$$$$$$$$$$$$$$$$$$$$$$$$$$$$$$$$$$$$$$$$$$$$$$$$$$$$$$$$$$$$$$$$$$$$$$$$$$$$$$$$$$$$$$$$$$$$$$$$$$$$$$",
"$$$$$$$$$$$$$$$$$$$$$$$$$$$$$$$$$$$$$$$$$$$$$$$$$$$$$$$$$$$$$$$$$$$$$$$$$$$$$$$$$$$$$$$$$$$$$$$$$$$$$$$$$$$$$$$$$$$$@@@@$$$$$$$$$$$$$$$$$$$$$$$$$$$$$$$$$$$$$$$$$$$$$$$$$$$$$$$$$$$$$$$$$$$$$$$$$$$$$$$$$$$$$$$$$$$$$$$$$$$$$$$$$$$$$$$$$$$$$$$$$$$$$$$$$$$$$$$$$$$$$$$$$$$$$$$$$$$$$$$$$$$$$$$$",
"$$$$$$$$$$$$$$$$$$$$$$@@@$$$$$$$$$$$$$$$$$$$$$$$$$$$$$$$$$$$$$$$$$$$$$$$$$$$$$$$$$$$$$$$$$$$$$$$$$$$$$$$$$$$$$$$$$$$@@@@@@$$$$$$$$$$$$$$$$$$$$$$$$$$$$$$$$$$$$$$$$$$$$$$$$$$$$$$$$$$$$$$$$$$$$$$$$$$$$$$$$$$$$$$$$$$$$@@@$$$$$$$$$$$$$$$$$$$$$$$$$$$$$$$$$$$$$$$$$$$$$$$$$$$$$$$$$$$$$$$$$$$$$$$",
"$$$$$$$$$$$$$$$$$$$$$$@@@@@$$$$$$$$$$$$$$$$$$$$$$$$$$$$$$$$$$$$$$$$$$$$$$$$$$$$$$$$$$$$$$$$$$$$$$$$$$$$$$$$$$$$$$$$$@@@###$$$$$$$$$$$$$$$$$$$$$$$$$$$$$$$$$$$$$$$$$$$@$$$$$$$$$$$$$$$$$$$$$$$$$$$$$$$$$$$$$$$$$$$$$$$$@@@@@$$$$$$$$$$$$$$$$$$$$$$$$$$$$$$$$$$$$$$$$$$$$$$$$$$$$$$$$$$$$$$$$$$$$$",
"$$$$$$$$$$$$$$$$$$$$$$@@####$$$$$$$$$$$$$$$$$$$$$$$$$$$$$$$$$$$$$$$$$$$$$$$$$$$$$$$$$$$$$$$$$$$$$$$$$$$$$$$$$$$$$$$$@@@######$$$$$$$$$$$$$$$$$$$$$$$$$$$$$$$$$$$$$$$$@$$$$$$$$$$$$$$$$$$$$$$$$$$$$$$$$$$$$$$$$$$$$$$$$@@####$$$$$$$$$$$$$$$$$$$$$$$$$$$$$$$$$$$$$$$$$$$$$$$$$$$$$$$$$$$$$$$$$$$$",
"$$$$$$$$$$$$$$$$$$$$$$@@######$$$$$$$$$$$$$$$$$$$$$$$$$$$$$$$$$$$$$$$$$$@$$$$$$$$$$$$$$$$$$$$$$$$$$$$$$$$$$$$$$$$$$$@@@######$$$$$$$$$$$$$$$$$$$$$$$$$$$$$$$$$$$$$$$$@$$$$$$$$$$$$$$$$$$$$$$$$$$$$$$$$$$$$$$$$$$$$$$$$@@######$$$$$$$$$$$$$$$$$$$$$$$$$$$$$$$$$$$$$$$$$$$@@@@$$$$$$$$$$$$$$$$$$$",
"$$$$$$$$$$$$$$$$$$$$$$@@######$$$$$$$$$$$$$$$$$$$$$$$$$$$$$$$$$$$$$$$$$@$$$$$$$$$$$$$$$$$$$$$$$$$$$$$$$$$$$$$$$$$$$$@@@######$$$$$$$$$$$$$$$$$$$$$$$$$$$$$$$$$$$$$$$$$$#$$@@@$$$$$$$$$$$$$$$$$$$$$$$$$$$$$$$$$$$$$$$$$@@######$$$$$$$$$$$$$$$$$$$$$$$$$$$$$$$$$$$$$$$$$$@@@@@@$$$$$$$$$$$$$$$$$$",
"$$$$$$$$$$$$$$$$$$$$$$@@######$$$$$$$$$$$$$$$$$$$$$$$$$$$$$$$$$$$$$$$$@@$$$@@@@$$$$$$$$$$$$$$$$$$$$$$$$$$$$$$$$$$$$$$@@#####$$#$$$$$$$$$$$$$$$$$$$$$$$$$$$$$$$$$$$$$$@$##@@@@@$$$$$$$$$$$$$$$$$$$$$$$$$$$$$$$$$$$$$$$$@@######$$$$$$$$$$$$$$$$$$$$$$$$$$$$$$$$$$$$$$$$$$@@@@####$$$$$$$$$$$$$$$$",
"$$$$$$$$$$$$$$$$$$$$$@@@#####$$$$$$$$$$$$$$$$$$$$$$$$$$$$$$$$$$$$$$$$$@$$$@@@@@$$$$$$$$$$$$$$$$$$$$$$$$$$$$$$$$$$$$$$@@#####$$##$$$$$$$$$$$$$$$$$$$$$$$$$$$$$$$$$$$$$@$$#@@@@###$$$$$$$$$$$$$$$$$$$$$$$$$$$$$$$$$$$$$@@@#####$$$$$$$$$$$$$$$$$$$$$$$$$$$$$$$$$$$$$$$$$$@#@@#####$$$$$$$$$$$$$$$$",
"$$$$$$$$$$$$$$$$$$$$$@@######$$$#$$$$$$$$$$$$$$$$$$$$$$$$$$$$$$$$$$$$@$$@@@@@###$$$$$$$$$$$$$$$$$$$$$$$$$$$$$$$$$$$$$@@#####$$$#$$$$$$$$$$$$$$$$$$$$$$$$$$$$$$$$$$$$$$$@@@@######$$$$$$$$$$$$$$$$$$$$$$$$$$$$$$$$$$$$@@######$$$#$$$$$$$$$$$$$$$$$$$$$$$$$$$$$$$$$$$$$$@#@#######$$$$$$$$$$$$$$$",
"$$$$$$$$$$$$$$$$$$$$$@@#####$$$$##$$$$$$$$$$$$$$$$$$$$$$$$$$$$$$$$$$$$@@@@#######$$$$$$$$$$$$$$$$$$$$$$$$$$$$$$$$$$$$@@####$$$$#$$$$$$$$$$$$$$$$$$$$$$$$$$$$$$$$$$$$$$@@@########$$$$$$$$$$$$$$$$$$$$$$$$$$$$$$$$$$$$@@#####$$$$##$$$$$$$$$$$$$$$$$$$$$$$$$$$$$$$$$$$$@@@########$$$$$$$$$$$$$$$",
"$$$$$$$$$$$$$$$$$$$$$@@#####$#$$##$$$$$$$$$$$$$$$$$$$$$$$$$$$$$$$$$$$@@##########$$$$$$$$$$$$$$$$$$$$$$$$$$$$$$$$$$$$@@####  $$$$$$$$$$$$$$$$$$$$$$$$$$$$$$$$$$$$$$$$@@##########$$$$$$$$$$$$$$$$$$$$$$$$$$$$$$$$$$$$@@##### #$$##$$$$$$$$$$$$$$$$$$$$$$$$$$$$$$$$$$$$@@########$$$$$$$$$$$$$$$$",
"$$$$$$$$$$$$$$$$$$$$$@@####  #$$$#$$$$$$$$$$$$$$$$$$$$$$$$$$$$$$$$$$ oo##########$$$$$$$$$$$$$$$$$$$$$$$$$$$$$$$$$$$ oo####+o $$$$$$$$$$$$$$$$$$$$$$$$$$$$$$$$$$$$$$ oo#####o $$$$$$$$$$$$$$$$$$$$$$$$$$$$$$$$$$$$$$$@@####+o#$$$#$$$$$$$$$$$$$$$$$$$$$$$$$$$$$$$$$$$@@######$$$$$$$$$$$$$$$$$$$",
"$$$$$$$$$$$$$$$$$$$$ oo####+o $$$$$$$$$$$$$$$$$$$$$$$$$$$$$$$$$$$$$ ++oooo++o $$$$$$$$$$$$$$$$$$$$$$$$$$$$$$$$$$$$$ ++ooo#########$$$$$$$$$$$$$$$$$$$$$$$$$$$$$$$$$ ++oooo+++o $$$$$$$$$$$$$$$$$$$$$$$$$$$$$$$$$$$$$ oo####++o $$$$$$$$$$$$$$$$$$$$$$$$$$$$$$$$$$$$$ oo###++o $$$$$$$$$$$$$$$$$$",
"$$$$$$$$$$$$$$$$$$$ ++ooo######$$$$$$$$$$$$$$$$$$$$$$$$$$$$$$$$$$$ ++++oo####o $$$$$$$$$$$$$$$$$$$$$$$$$$$$$$$$$$$ ++++ooo++######$$$$$$$$$$$$$$$$$$$$$$$$$$$$$$$$ ++++ooo+++oo $$$$$$$$$$$$$$$$$$$$$$$$$$$$$$$$$$$ ++ooo###### $$$$$$$$$$$$$$$$$$$$$$$$$$$$$$$$$$$ ++oooo+++o $$$$$$$$$$$$$$$$$",
"$$$$$$$$$$$$$$$$$$ ++++ooo+#######$$$$$$$$$$$$$$$$$$$$$$$$$$$$$$$ ++..+ooo++####$$$$$$$$$$$$$$$$$$$$$$$$$$$$$$$$$ ++..+ooo+++oo###$$$$$$$$$$$$$$$$$$$$$$$$$$$$$$$ ++..+ooo+++oo $$$$$$$$$$$$$$$$$$$$$$$$$$$$$$$$$$ ++++ooo+#######$$$$$$$$$$$$$$$$$$$$$$$$$$$$$$$$ ++++ooo+++oo $$$$$$$$$$$$$$$$",
"$$$$$$$$$$$$$$$$$ ++..+ooo+++#####$$$$$$$$$$$$$$$$$$$$$$$$$$$$$$ @++..OXoo+++oo $$$$$$$$$$$$$$$$$$$$$$$$$$$$$$$$ @++..OXoo+++oX $$$$$$$$$$$$$$$$$$$$$$$$$$$$$$$$ @++..OXoo+++oX $$$$$$$$$$$$$$$$$$$$$$$$$$$$$$$$$ ++..+ooo+++#####$$$$$$$$$$$$$$$$$$$$$$$$$$$$$$$ ++..+ooo+++oo $$$$$$$$$$$$$$$$",
"$$$$$$$$$$$$$$$$ @++..OXoo+++oX###$$$$$$$$$$$$$$$$$$$$$$$$$$$$$$ @ ##OOXXOO++oX $$$$$$$$$$$$$$$$$$$$$$$$$$$$$$$$ @ ##OOXXOOOOXX $$$$$$$$$$$$$$$$$$$$$$$$$$$$$$$$ @ ##OOXXOOOOXX $$$$$$$$$$$$$$$$$$$$$$$$$$$$$$$$ @++..OXoOOOOXX###$$$$$$$$$$$$$$$$$$$$$$$$$$$$$$ @++..OXoo+++oX $$$$$$$$$$$$$$$$",
"$$$$$$$$$$$$$$$$ @ ##OOXXOOOOXX $$$$$$$$$$$$$$$$$$$$$$$$$$$$$$$$$  ##  +OOOOOXX $$$$$$$$$$$$$$$$$$$$$$$$$$$$$$$$$  ##  +OOOOXXX $$$$$$$$$$$$$$$$$$$$$$$$$$$$$$$$$  ##  +OOOOXXX $$$$$$$$$$$$$$$$$$$$$$$$$$$$$$$$ @ ##OOXXOOOXXX $$$$$$$$$$$$$$$$$$$$$$$$$$$$$$$$ @ ##OOXXOOOOXX $$$$$$$$$$$$$$$$",
"$$$$$$$$$$$$$$$$$  ##  +OOOOXXX $$$$$$$$$$$$$$$$$$$$$$$$$$$$$$$$$$   $ + O+OXXX $$$$$$$$$$$$$$$$$$$$$$$$$$$$$$$$$$   $ + O+XXX@ $$$$$$$$$$$$$$$$$$$$$$$$$$$$$$$$$$   $ + O+XXX@ $$$$$$$$$$$$$$$$$$$$$$$$$$$$$$$$$  ##  +OO+XXX@@ $$$$$$$$$$$$$$$$$$$$$$$$$$$$$$$$  ##  +OOOOXXX $$$$$$$$$$$$$$$$",
"$$$$$$$$$$$$$$$$$$   $ + O+XXX@ $$$$$$$$$$$$$$$$$$$$$$$$$$$$$$$$$$$$$$  $ + XX@ $$$$$$$$$$$$$$$$$$$$$$$$$$$$$$$$$$$$$$  $ +  @@ $$$$$$$$$$$$$$$$$$$$$$$$$$$$$$$$$$$$$$  $ +  @@ $$$$$$$$$$$$$$$$$$$$$$$$$$$$$$$$$$   $ +  +   @@ $$$$$$$$$$$$$$$$$$$$$$$$$$$$$$$$$   $ + O+XXX@@ $$$$$$$$$$$$$$$",
"$$$$$$$$$$$$$$$$$$$$$$  $ +  @@ $$$$$$$$$$$$$$$$$$$$$$$$$$$$$$$$$$$$$$$$$  $ @@ $$$$$$$$$$$$$$$$$$$$$$$$$$$$$$$$$$$$$$$$$  $$   $$$$$$$$$$$$$$$$$$$$$$$$$$$$$$$$$$$$$$$$$  $$   $$$$$$$$$$$$$$$$$$$$$$$$$$$$$$$$$$$$$$  $  $$$   $$$$$$$$$$$$$$$$$$$$$$$$$$$$$$$$$$$$$  $ +   @@ $$$$$$$$$$$$$$$",
"$$$$$$$$$$$$$$$$$$$$$$$$$  $$   $$$$$$$$$$$$$$$$$$$$$$$$$$$$$$$$$$$$$$$$$$$$$   $$$$$$$$$$$$$$$$$$$$$$$$$$$$$$$$$$$$$$$$$$$$$$$$$$$$$$$$$$$$$$$$$$$$$$$$$$$$$$$$$$$$$$$$$$$$$$$$$$$$$$$$$$$$$$$$$$$$$$$$$$$$$$$$$$$$$$$$$$$$$$$$$$$$$$$$$$$$$$$$$$$$$$$$$$$$$$$$$$$$$$$$$  $$$   $$$$$$$$$$$$$$$",
"$$$$$$$$$$$$$$$$$$$$$$$$$$$$$$$$$$$$$$$$$$$$$$$$$$$$$$$$$$$$$$$$$$$$$$$$$$$$$$$$$$$$$$$$$$$$$$$$$$$$$$$$$$$$$$$$$$$$$$$$$$$$$$$$$$$$$$$$$$$$$$$$$$$$$$$$$$$$$$$$$$$$$$$$$$$$$$$$$$$$$$$$$$$$$$$$$$$$$$$$$$$$$$$$$$$$$$$$$$$$$$$$$$$$$$$$$$$$$$$$$$$$$$$$$$$$$$$$$$$$$$$$$$$$$$$$$$$$$$$$$$$$$$$$",
"$$$$$$$$$$$$$$$$$$$$$$$$$$$$$$$$$$$$$$$$$$$$$$$$$$$$$$$$$$$$$$$$$$$$$$$$$$$$$$$$$$$$$$$$$$$$$$$$$$$$$$$$$$$$$$$$$$$$$$$$$$$$$$$$$$$$$$$$$$$$$$$$$$$$$$$$$$$$$$$$$$$$$$$$$$$$$$$$$$$$$$$$$$$$$$$$$$$$$$$$$$$$$$$$$$$$$$$$$$$$$$$$$$$$$$$$$$$$$$$$$$$$$$$$$$$$$$$$$$$$$$$$$$$$$$$$$$$$$$$$$$$$$$$$",
"$$$$$$$$$$$$$$$$$$$$$$$$$$$$$$$$$$$$$$$$$$$$$$$$$$$$$$$$$$$$$$$$$$$$$$$$$$$$$$$$$$$$$$$$$$$$$$$$$$$$$$$$$$$$$$$$$$$$$$$$$$$$$$$$$$$$$$$$$$$$$$$$$$$$$$$$$$$$$$$$$$$$$$$$$$$$$$$$$$$$$$$$$$$$$$$$$$$$$$$$$$$$$$$$$$$$$$$$$$$$$$$$$$$$$$$$$$$$$$$$$$$$$$$$$$$$$$$$$$$$$$$$$$$$$$$$$$$$$$$$$$$$$$$$",
"$$$$$$$$$$$$$$$$$$$$$$$$$$$$$$$$$$$$$$$$$$$$$$$$$$$$$$$$$$$$$$$$$$$$$$$$$$$$$$$$$$$$$$$$$$$$$$$$$$$$$$$$$$$$$$$$$$$$$$$$$$$$$$$$$$$$$$$$$$$$$$$$$$$$$$$$$$$$$$$$$$$$$$$$$$$$$$$$$$$$$$$$$$$$$$$$$$$$$$$$$$$$$$$$$$$$$$$$$$$$$$$$$$$$$$$$$$$$$$$$$$$$$$$$$$$$$$$$$$$$$$$$$$$$$$$$$$$$$$$$$$$$$$$$",
"$$$$$$$$$$$$$$$$$$$$$$$$$$$$$$$$$$$$$$$$$$$$$$$$$$$$$$$$$$$$$$$$$$$$$$$$$$$$$$$$$$$$$$$$$$$$$$$$$$$$$$$$$$$$$$$$$$$$$$$$$$$$$$$$$$$$$$$$$$$$$$$$$$$$$$$$$$$$$$$$$$$$$$$$$$$$$$$$$$$$$$$$$$$$$$$$$$$$$$$$$$$$$$$$$$$$$$$$$$$$$$$$$$$$$$$$$$$$$$$$$$$$$$$$$$$$$$$$$$$$$$$$$$$$$$$$$$$$$$$$$$$$$$$$",
"$$$$$$$$$$$$$$$$$$$$$$$$$$$$$$$$$$$$$$$$$$$$$$$$$$$$$$$$$$$$$$$$$$$$$$$$$$$$$$$$$$$$$$$$$$$$$$$$$$$$$$$$$$$$$$$$$$$$$$$$$$$$$$$$$$$$$$$$$$$$$$$$$$$$$$$$$$$$$$$$$$$$$$$$$$$$$$$$$$$$$$$$$$$$$$$$$$$$$$$$$$$$$$$$$$$$$$$$$$$$$$$$$$$$$$$$$$$$$$$$$$$$$$$$$$$$$$$$$$$$$$$$$$$$$$$$$$$$$$$$$$$$$$$$",
"$$$$$$$$$$$$$$$$$$$$$$$$$$$$$$$$$$$$$$$$$$$$$$$$$$$$$$$$$$$$$$$$$$$$$$$$$$$$$$$$$$$$$$$$$$$$$$$$$$$$$$$$$$$$$$$$$$$$$$$$$$$$$$$$$$$$$$$$$$$$$$$$$$$$$$$$$$$$$$$$$$$$$$$$$$$$$$$$$$$$$$$$$$$$$$$$$$$$$$$$$$$$$$$$$$$$$$$$$$$$$$$$$$$$$$$$$$$$$$$$$$$$$$$$$$$$$$$$$$$$$$$$$$$$$$$$$$$$$$$$$$$$$$$$",
"$$$$$$$$$$$$$$$$$$$$$$$$$$$$$$$$$$$$$$$$$$$$$$$$$$$$$$$$$$$$$$$$$$$$$$$$$$$$$$$$$$$$$$$$$$$$$$$$$$$$$$$$$$$$$$$$$$$$$$$$$$$$$$$$$$$$$$$$$$$$$$$$$$$$$$$$$$$$$$$$$$$$$$$$$$$$$$$$$$$$$$$$$$$$$$$$$$$$$$$$$$$$$$$$$$$$$$$$$$$$$$$$$$$$$$$$$$$$$$$$$$$$$$$$$$$$$$$$$$$$$$$$$$$$$$$$$$$$$$$$$$$$$$$$",
"$$$$$$$$$$$$$$$$$$$$$$$$$$$$$$$$$$$$$$$$$$$$$$$$$$$$$$$$$$$$$$$$$$$$$$$$$$$$$$$$$$$$$$$$$$$$$$$$$$$$$$$$$$$$$$$$$$$$$$$$$$$$$$$$$$$$$$$$$$$$$$$$$$$$$$$$$$$$$$$$$$$$$$$$$$$$$$$$$$$$$$$$$$$$$$$$$$$$$$$$$$$$$$$$$$$$$$$$$$$$$$$$$$$$$$$$$$$$$$$$$$$$$$$$$$$$$$$$$$$$$$$$$$$$$$$$$$$$$$$$$$$$$$$$",
"$$$$$$$$$$$$$$$$$$$$$$$$$$$$$$$$$$$$$$$$$$$$$$$$$$$$$$$$$$$$$$$$$$$$$$$$$$$$$$$$$$$$$$$$$$$$$$$$$$$$$$$$$$$$$$$$$$$$$$$$$$$$$$$$$$$$$$$$$$$$$$$$$$$$$$$$$$$$$$$$$$$$$$$$$$$$$$$$$$$$$$$$$$$$$$$$$$$$$$$$$$$$$$$$$$$$$$$$$$$$$$$$$$$$$$$$$$$$$$$$$$$$$$$$$$$$$$$$$$$$$$$$$$$$$$$$$$$$$$$$$$$$$$$$",
"$$$$$$$$$$$$$$$$$$$$$$$$$$$$$$$$$$$$$$$$$$$$$$$$$$$$$$$$$$$$$$$$$$$$$$$$$$$$$$$$$$$$$$$$$$$$$$$$$$$$$$$$$$$$$$$$$$$$$$$$$$$$$$$$$$$$$$$$$$$$$$$$$$$$$$$$$$$$$$$$$$$$$$$$$$$$$$$$$$$$$$$$$$$$$$$$$$$$$$$$$$$$$$$$$$$$$$$$$$$$$$$$$$$$$$$$$$$$$$$$$$$$$$$$$$$$$$$$$$$$$$$$$$$$$$$$$$$$$$$$$$$$$$$$",
"$$$$$$$$$$$$$$$$$$$$$$$$$$$$$$$$$$$$$$$$$$$$$$$$$$$$$$$$$$$$$$$$$$$$$$$$$$$$$$$$$$$$$$$$$$$$$$$$$$$$$$$$$$$$$$$$$$$$$$$$$$$$$$$$$$$$$$$$$$$$$$$$$$$$$$$$$$$$$$$$$$$$$$$$$$$$$$$$$$$$$$$$$$$$$$$$$$$$$$$$$$$$$$$$$$$$$$$$$$$$$$$$$$$$$$$$$$$$$$$$$$$$$$$$$$$$$$$$$$$$$$$$$$$$$$$$$$$$$$$$$$$$$$$$"
};
