/* XPM */
static char *D_Attack[] = {
/* columns rows colors chars-per-pixel */
"288 48 8 1 ",
"  c #0C0F2A",
". c #44702D",
"X c #734C44",
"o c #B55945",
"O c #819447",
"+ c #A6B04F",
"@ c #FEE1B8",
"# c None",
/* pixels */
"################################################################################################################################################################################################################################################################################################",
"################################################################################################################################################################################################################################################################################################",
"################################################################################################################################################################################################################################################################################################",
"################################################################################################################################################################################################################################################################################################",
"################################################################################################################################################################################################################################################################################################",
"################################################################################################################################################################################################################################################################################################",
"################################################################################################################################################################################################################################################################################################",
"################################################################################################################################################################################################################################################################################################",
"################################################################################################################################################################################################################################################################################################",
"################################################################################################################################################################################################################################################################################################",
"################################################################################################################################################################################################################################################################################################",
"###################################################################################################################   ##########################################################################################################################################################################",
"################################################################################################################## XXX ##############################################   ########################################################################################################################",
"################################################################################################################## XXXX ############################################ XXX #######################################################################################################################",
"################################################################################################################# XXXXX ########################################### XXXX #######################################################################################################################",
"##############################################################   #  ############################################# XXXX ########################################### XXXXX #######################################################################################################################",
"##################  ########  ############################### XXX  O #    ##  ################################## XXOX     ##  ################################### XOXXX   ##  ####################################################################################  ########  ##################",
"################## O #    # O ############################## XXXX  OO ++++  O ################################## XXOO ++++  O ################################## +XOOX++++  O ####################################X ########  #################################### O #    # O ##################",
"################## OO ++++ OO ############################## XXXX  O.++++++OO ################################# +XXO.++++++OO ################################# +XXO.++++++OO ###################################XXO #    # O #################################### OO ++++ OO ##################",
"################## O.++++++.O ############################## XXXX # .++++++.O ################################# +X+ .++++++.O ################################ XXX+ .++++++.O ###################################XXOO ++++ OO #################################### O.++++++.O ##################",
"################### .++++++. ############################### XXXX ## ++++++. ################################# XXX+  ++++++. ################################# XXO+  ++++++. ####################################XXO.++++++.O ##################################### .++++++. ###################",
"#################### ++++++ ################################# XXX ## O++++O ################################## XXOO  O++++O ###################################  OO  O++++O #####################################XX .++++++. ####################################### ++++++ ####################",
"#################### O++++O ################################# XXX # OOO++OO ################################## XXO++OOO++OO #################################### O++OOO++OO ####################################XXX# ++++++ ######################################## O++++O ####################",
"################### OOO++OOO ################################ XXX  ++O@oo@OO ##################################  O+++O@oo@OO ################################### O+++O@oo@OO ###################################XXX# O++++O ####################################### OOO++OOO ###################",
"#############   ## ++OOOOOO++ ###############################  X+O+++O@oo@O++ ################################## OO++O@oo@O++ ################################## OO++O@oo@O++ ##################################XXX OOO++OOO  #################################### ++OOOOOO++ ##################",
"############ XXX  ++++@oo@++++ ############################## +X+O+++++OO+++++ ################################## OO+++OO+++++ ################################## OO+++OO+++++ #################################XXXOOO@oo@OO++ ################################## O+++@oo@++++ #################",
"############ XXX O+++++OO+++++O ############################# +XXOOO++++++++++O ################################## O+++++++O++ ################################### O+++++++O++ #################################XXXXOO@oo@OO+++ ################################# O++++OO+++++O ################",
"############ XXXXOOO++++++++OOO ############################## XX  O++++++++OOO ################################## O+++++++OOO ################################### O+++++++OOO #################################XXXX+++OO+++O++O ############################### OOO++++++++OOO ################",
"############# XXXOOO++++++++OOOO #############################   # XO+++++++OOO ################################## XO++++.OOOO ################################### XO++++.OOOO #################################XXXX++++++++OOOO ############################### OOO++++++++OOOO ###############",
"############## XXX+XO++++++OX+OO ################################# XXOOO+++.++ ################################### XXOOO.+++O #################################### XXOOO.+++O ##################################XXXXX+++++++X +OO ############################## OOXO++++++OX+OO ###############",
"############### XX+XXOOOOOOXX+O+ ################################# XXoooOO.+++ ################################### XXooo.+++X #################################### XXooo.+++X ##################################XXXXX++++++XX +O+ ############################## O+XXOOOOOOXX+O+ ###############",
"############### +X XXoooXooXX O+ ################################# OXoooXoo++ ################################### +++oooXooXX ################################### +++oooXooXX ##################################XXXXXXooXooXX  O+ ############################# XX+XXoooXooXX O+ ###############",
"###############    OXooooooXO    ################################# ++ooooooXO ################################### +++ooooooXO ################################### +++ooooooXO ################################## XXXXXoooooXO #   ############################ XXXXOXooooooXO    ###############",
"################## OOoooXooOO #################################### +++ooXooOO ################################### +++oooXooOO ################################### +++oooXooOO ################################## XXXXXXoXooOO ############################### XXXXXOOoooXooOO ##################",
"################## OOoooXooOO #################################### +++   ooOO ###################################        ooOO ###################################        ooOO ################################## XXXXXXoXooOO ############################### XXXX OOoooXooOO ##################",
"################## OOO    OOO ####################################    ### OOO ########################################### OOO ########################################### OOO ################################### XXXXX   OOO ############################### XXX  OOO    OOO ##################",
"################## OOO ## OOO ########################################### OOO ########################################### OOO ########################################### OOO #################################### XXX ## OOO ################################   # OOO ## OOO ##################",
"###################OO######OO##############################################OO##############################################OO##############################################OO######################################OO######OO######################################OO######OO###################",
"################################################################################################################################################################################################################################################################################################",
"################################################################################################################################################################################################################################################################################################",
"################################################################################################################################################################################################################################################################################################",
"################################################################################################################################################################################################################################################################################################",
"################################################################################################################################################################################################################################################################################################",
"################################################################################################################################################################################################################################################################################################",
"################################################################################################################################################################################################################################################################################################",
"################################################################################################################################################################################################################################################################################################",
"################################################################################################################################################################################################################################################################################################",
"################################################################################################################################################################################################################################################################################################"
};
