/* XPM */
static char *D_Death[] = {
/* columns rows colors chars-per-pixel */
"288 48 8 1 ",
"  c #0C0F2A",
". c #44702D",
"X c #734C44",
"o c #B55945",
"O c #819447",
"+ c #A6B04F",
"@ c #FEE1B8",
"# c None",
/* pixels */
"################################################################################################################################################################################################################################################################################################",
"################################################################################################################################################################################################################################################################################################",
"################################################################################################################################################################################################################################################################################################",
"################################################################################################################################################################################################################################################################################################",
"################################################################################################################################################################################################################################################################################################",
"################################################################################################################################################################################################################################################################################################",
"################################################################################################################################################################################################################################################################################################",
"################################################################################################################################################################################################################################################################################################",
"################################################################################################################################################################################################################################################################################################",
"################################################################################################################################################################################################################################################################################################",
"################################################################################################################################################################################################################################################################################################",
"################################################################################################################################################################################################################################################################################################",
"################################################################################################################################################################################################################################################################################################",
"################################################################################################################################################################################################################################################################################################",
"################################################################################################################################################################################################################################################################################################",
"##################################################################################################################  ########  ####################################  ##    ##  ##################################################################################################################",
"##################  ########  #################################################################################### O #    # O #################################### O  ++++  O ##################################################################################################################",
"################## O #    # O #################################################################################### OO ++++ OO #################################### OO++++++OO ##################################################################################################################",
"################## OO ++++ OO ####################################  ##    ##  #################################### O.++++++.O #####################################O.++++++.O#########################################++++######################################################################",
"################## O.++++++.O #################################### O  ++++  O ##################################### .++++++. #######################################.++++++.#########################################++++++#####################################################################",
"################### .++++++. ##################################### OO++++++OO ###################################### ++++++ ######################################## O++++O #########################################++++++############################################OO#######################",
"#################### ++++++ ###################################### O.++++++.O ###################################### O++++O #################################        O@oo@O        ##################################++oo++###OO++#####################################OO#######OO##############",
"#################### O++++O ####################################### .++++++. #####################################   OO++OO   ############################### ++OOO+++@oo@+++OOO++ ###########################OOO#####+oo+####OO++##############################O###############OO##############",
"################### OOO++OOO ##############################   ##### OO++++OO ###################################  +++O@oo@O+++  ##############################++OOO++++OO++++OOO++############################OOOOO###OOOO#####################################OOO##############################",
"#############   ## ++OOOOOO++ ############################ XXX ### OOO@oo@O++ ################################  OO++++@oo@++++OO  ##############################OOOO++++++++OOOO################################OOO##O++++O#####################################O###############################",
"############ XXX  ++++@oo@++++ ########################### XXXX # OOO+@oo@++++ ############################## ++OOO++++OO++++OOO++ ############################### O++++++++O #######################################++++++############################################++#######################",
"############ XXX O+++++OO+++++O ########################## XXXXX OOOO+++++++++O ############################# ++OOO++++++++++OOO++ ############################### OO++++++OO #######################################++++++###########################################++++######################",
"############ XXXXOOO++++++++OOO ###########################  XXXX++OO+++++++OOOO ############################      O++++++++O      ############################### XOOOOOOOOX #######################################oooXoo###########################################++++######################",
"############# XXXOOO++++++++OOOO ############################  X+++XO+++++++O+O+ ################################# XO++++++OX #################################### XXoooXooXX #######################################oooooo############################################++#######################",
"############## XXX+XO++++++OX+OO ############################## +XXXXOO++++OX O+ ################################# XXoOOOOoXX #################################### XXooooooXX ########################################ooXoo#####################################################################",
"############### XX+XXOOOOOOXX+O+ ###############################   XXoooOOOXX    ########################     #### XXoooXooXX #################################### OXoooXooXO #####################################OO####oo#####################################################################",
"############### +X XXoooXooXX O+ ################################# .XoooXooXX ########################## XXXXX     .XooooooXO #################################### OOoooXooOO #####################################OO#####OO####################################################################",
"###############    OXooooooXO    ################################# ..ooooooXO ######################### XXXXXXXXXX ..oooXooOO ###########################   ###### OOoooXooOO ######################################OO####OOO#######################################O######OO###################",
"################## OOoooXooOO #################################### ..oooXooOO ######################### XXXXXXXXXX ...    OOO ########################## XXX   ### OOO ## OOO #####################################OOO####OOO######################################OOO#####OO###################",
"################## OOoooXooOO ####################################       ooOO ########################## XXX          ### OOO ######################### XXXXXXX    OOO ## OOO ###########################XXX#######OO######OO#######################################O###########################",
"################## OOO    OOO ########################################### OOO ###########################   ############# OOO ######################### XXXXXXXXXX OO######OO############################XXXX#XXX#########################################XX####################################",
"################## OOO ## OOO ########################################### OOO #############################################OO###########################XXXXXXXXXX########################################XXX#XXX#########################################XX###XX###############################",
"###################OO######OO##############################################OO###################################################################################################################################################################################################################",
"################################################################################################################################################################################################################################################################################################",
"################################################################################################################################################################################################################################################################################################",
"################################################################################################################################################################################################################################################################################################",
"################################################################################################################################################################################################################################################################################################",
"################################################################################################################################################################################################################################################################################################",
"################################################################################################################################################################################################################################################################################################",
"################################################################################################################################################################################################################################################################################################",
"################################################################################################################################################################################################################################################################################################",
"################################################################################################################################################################################################################################################################################################",
"################################################################################################################################################################################################################################################################################################"
};
