/* XPM */
static char *D_Walk[] = {
/* columns rows colors chars-per-pixel */
"288 48 8 1 ",
"  c #0C0F2A",
". c #44702D",
"X c #734C44",
"o c #B55945",
"O c #819447",
"+ c #A6B04F",
"@ c #FEE1B8",
"# c None",
/* pixels */
"################################################################################################################################################################################################################################################################################################",
"################################################################################################################################################################################################################################################################################################",
"################################################################################################################################################################################################################################################################################################",
"################################################################################################################################################################################################################################################################################################",
"################################################################################################################################################################################################################################################################################################",
"################################################################################################################################################################################################################################################################################################",
"################################################################################################################################################################################################################################################################################################",
"################################################################################################################################################################################################################################################################################################",
"################################################################################################################################################################################################################################################################################################",
"################################################################################################################################################################################################################################################################################################",
"################################################################################################################################################################################################################################################################################################",
"################################################################################################################################################################################################################################################################################################",
"################################################################################################################################################################################################################################################################################################",
"################################################################################################################################################################################################################################################################################################",
"################################################################################################################################################################################################################################################################################################",
"##################################################################  ########  ####################################################################################################################################  ########  ##################################################################",
"##################  ########  #################################### O #    # O ####################################  ########  ####################################  ########  #################################### O #    # O ####################################  ########  ##################",
"################## O #    # O #################################### OO ++++ OO #################################### O #    # O #################################### O #    # O #################################### OO ++++ OO #################################### O #    # O ##################",
"################## OO ++++ OO #################################### O.++++++.O #################################### OO ++++ OO #################################### OO ++++ OO #################################### O.++++++.O #################################### OO ++++ OO ##################",
"################## O.++++++.O ##################################### .++++++. ##################################### O.++++++.O #################################### O.++++++.O ##################################### .++++++. ##################################### O.++++++.O ##################",
"################### .++++++. #################################   ### ++++++ ####################################### .++++++. ###################################### .++++++. ####################################### ++++++ ####################################### .++++++. ###################",
"#################### ++++++ ################################# XXX ## O++++O ######################################## ++++++ ######################################## ++++++ ######################################## O++++O ######################################## ++++++ ####################",
"#################### O++++O ################################# XXX # OOO++OOO ####################################### O++++O ######################################## O++++O ####################################### OOO++OOO ####################################### O++++O ####################",
"################### OOO++OOO ################################ XXX  ++OOOOOO++ ##################################### OOO++OOO ###################################### OOO++OOO ##################################### ++OOOOOO++ ##################################### OOO++OOO ###################",
"##############   # ++OOOOOO++ ############################### XXX ++++@oo@+++O ###############################   # ++OOOOOO++ #################################### ++OOOOOO++ ################################### O+++@oo@++++ ################################### ++OOOOOO++ ##################",
"############# XXX ++++@oo@+++O ############################## XXXO+++++OO+++OO ############################## XXX ++++@oo@+++O ###############################    O+++@oo@++++ ################################  .OO+++OO+++++O ##############################    O+++@oo@++++ #################",
"############# XXXO+++++OO+++OO ############################## XXXOOO++++++++OO. ############################# XXXO+++++OO+++OO ############################## XXX.OO+++OO+++++O ############################## XXX.O++++++++OOO ############################# XXX.OO+++OO+++++O ################",
"############# XXXOOO++++++++OOO ############################## XX+OO++++++++O.. ############################# XXXOOO++++++++OOO ############################# XXX..O++++++++OOO ############################## XXX.O++++++++O+OO ############################ XXX..O++++++++OOO ################",
"############## XXXOO++++++++OOO ############################## +X+ XO++++++OX.. ############################## XXXOO++++++++OOO ############################# XXX..O++++++++OOOO ############################# XXX.XO++++++OX+++ ############################ XXX..O++++++++OOOO ###############",
"############## XXX+XO++++++OXO. ############################## +X  XXOOOOOOXX.. ############################## XXX+XO++++++OXO. ############################## XXXOXO++++++OX+OO ############################## XX.XXOOOOOOXXO++ ############################# XXXOXO++++++OX+OO ###############",
"############### XX+XXOOOOOOXX.. ##############################   # XXoooXooXX   ############################### XX+XXOOOOOOXX.. ############################### XXOXXOOOOOOXX+O+ ###############################   XXoooXooXX    ############################## XXOXXOOOOOOXX+O+ ###############",
"############### +X XXoooXooXX.. ################################## .XooooooOO ################################# +X XXoooXooXX.. ############################### OX XXoooXooXX O+ ################################# OOooooooX. ################################# OX XXoooXooXX O+ ###############",
"###############    OXooooooXO   ################################## ..oooXoO+++ ################################    OXooooooXO   ###############################    OXooooooXO    ################################ +++OooXoo.. #################################    OXooooooXO    ###############",
"################## OOoooXooOO ##################################### .oooXoO+++ ################################### OOoooXooOO #################################### OOoooXooOO ################################### +++OooXoo. ##################################### OOoooXooOO ##################",
"################## OOoooXooOO ##################################### ...    +++ ################################### ..oooXoo++ #################################### OOoooXooOO ################################### +++    ... ##################################### ++oooXoo.. ##################",
"################## OOO    OOO ######################################..#### +++ #################################### ..    +++ #################################### OOO    OOO ################################### +++ ####..###################################### +++    .. ###################",
"################## OOO ###   ##############################################    #####################################  ### +++ #####################################   ### OOO ###################################    ############################################# +++ ###  ####################",
"###################OO#################################################################################################### +++ #############################################OO##################################################################################### +++ #########################",
"###########################################################################################################################++######################################################################################################################################++###########################",
"################################################################################################################################################################################################################################################################################################",
"################################################################################################################################################################################################################################################################################################",
"################################################################################################################################################################################################################################################################################################",
"################################################################################################################################################################################################################################################################################################",
"################################################################################################################################################################################################################################################################################################",
"################################################################################################################################################################################################################################################################################################",
"################################################################################################################################################################################################################################################################################################",
"################################################################################################################################################################################################################################################################################################",
"################################################################################################################################################################################################################################################################################################"
};
