/* XPM */
static char *S_Attack[] = {
/* columns rows colors chars-per-pixel */
"288 48 8 1 ",
"  c #0C0F2A",
". c #44702D",
"X c #734C44",
"o c #B55945",
"O c #819447",
"+ c #A6B04F",
"@ c #FEE1B8",
"# c None",
/* pixels */
"################################################################################################################################################################################################################################################################################################",
"################################################################################################################################################################################################################################################################################################",
"################################################################################################################################################################################################################################################################################################",
"################################################################################################################################################################################################################################################################################################",
"################################################################################################################################################################################################################################################################################################",
"################################################################################################################################################################################################################################################################################################",
"################################################################################################################################################################################################################################################################################################",
"################################################################################################################################################################################################################################################################################################",
"################################################################################################################################################################################################################################################################################################",
"################################################################################################################################################################################################################################################################################################",
"################################################################################################################################################################################################################################################################################################",
"################################################################################################################################################################################################################################################################################################",
"###############################################################   ####################################################   #######################################################################################################################################################################",
"############################################################## XXX #  ##############################################  XXX ##########################################  ###   ####################################################################################################################",
"####################  ####################################### XXXX # . ############################################# .XXX ########################################## .   XXX #######################################################################################  ##########################",
"#################### . ###################################### XXXX # .    ##  ##################################### X.XXX ##  ###################################### . XXXXX  ###################################X##  ############################################## . #########################",
"#################### .    ##  ############################### XXXX # .++++  O #################################### XX.++++  O #####################################  .++++  O #################################XX### . ############################################# .    ##  ##################",
"#################### .++++  O ############################### XXXX # ++++++OO ################################### XXX++++++OO ###################################  XX++++++OO ################################XX#### .    ##  ###################################### .++++  O ##################",
"#################### ++++++OO ################################ XXX # ++++++.O ################################## OXXX++++++.O #################################  OOXX++++++.O ###############################XXX#### .++++  O ###################################### ++++++OO ##################",
"#################### ++++++.O ################################ XXX # O++++O. ################################## OXXX O++++O. ################################## XXXXXO++++O. ###############################XXX##### ++++++OO ###################################### ++++++.O ##################",
"###########    ##### O++++O. ################################# OXX  O@++OOO ################################### XOO O@++OOO ################################### XOO O@++OOO ###############################XXXX##### ++++++.O ###################################### O++++O. ###################",
"########## XXXX ### OO++OOO ################################## OXOOOO@o@OOO ################################### XOOOO@o@OOO #################################### OOOO@o@OOO ###############################XXX###### O++++O. ###################################### OO++OOO ####################",
"########## XXXXX # OO@oOOOOO ################################## XOOOOOo@OOOO ################################### ..OOOo@OOOO #################################### .OOOo@OOOO #############################XXXX##### O@++OOO ###################################### OO@oOOOOO ###################",
"########## XXXXXX  OOOo@OOO++ ################################# XX.OO++OOOO++ ################################### .OO++OOOO++ ################################### .OO++OOOO++ ############################XXXX#### OO@o@OOOO ##################################### OOOo@OOO++ ##################",
"###########  XXXXX.OO++OOO++++ #################################   O++++++++++ ################################### O+++++++++ #################################### O+++++++++ ############################XXXX#### OOOo@OOO++ #############################    ### OO++OOO++++ #################",
"#############  XXXXO++++++++++ ################################### O+++++++O++ ################################### O++++++O++ #################################### O++++++O++ ###########################XXXXX#### OO++OOO++++ ########################### XXXX  # O++++++++++ #################",
"###############  ..O++++++++OO ################################### OO+++++OOOO ################################### OO++O..OOO #################################### OO++O..OOO ###########################XXXXX#### O++++++++++O ########################## XXXXXX  O++++++++OO #################",
"#################  OO+++++++OO ################################### XOO+++.++OO ################################### XOO.+++OOO #################################### XOO.+++OOO ###########################XXXXXX### O++++++++OOO ########################## XXXXXXX.OO+++++++OO #################",
"################## XOO+++++OOO ################################### XoooO.+++O ################################### ++ooo+++OOX ################################### ++ooo+++OOX ###########################XXXXXXXXXXOO+++++++OOOO ##########################   XXXXXXOO+++++OOO #################",
"################## XoooOOOOO++ ################################## ++oooXo++XX ################################## ++++ooXooXXX ################################## ++++ooXooXXX ###########################XXXXXXXXXXXooo++++OXO++ #############################   ..XoooOOOOO++ #################",
"################## XoooXooXX++ ################################## +++oooooXXX ################################## ++++oooooXXX ################################## ++++oooooXXX ###########################XXXXXXXXXXXoooXooXXX ++ ################################  XoooXooXX++ #################",
"################## OooooooXXX  ################################## O++ooXooXXO ################################## +++ ooXooOOO ################################## +++ ooXooOOO ###########################XXXXXXXX  OooooooXXX    ################################# OooooooXXX  #################",
"################## OoooXooOOO ################################### OOO   ooOOO ##################################        ooOOO ##################################        ooOOO ########################### XXXX   # OoooXooOOO #################################### OoooXooOOO ##################",
"################## OOO  ooOOO ###################################    ###  OOO ##########################################  OOO ##########################################  OOO ############################    #### OOO  ooOOO #################################### OOO  ooOOO ##################",
"################## OOO #  OOO ########################################### OOO ########################################### OOO ########################################### OOO #################################### OOO #  OOO #################################### OOO #  OOO ##################",
"###################OO#### OOO ########################################### OOO ########################################### OOO ########################################### OOO #####################################OO#### OOO #####################################OO#### OOO ##################",
"######################### OOO############################################ OOO############################################ OOO############################################ OOO############################################ OOO############################################ OOO###################",
"##########################OO##############################################OO##############################################OO##############################################OO##############################################OO##############################################OO####################",
"################################################################################################################################################################################################################################################################################################",
"################################################################################################################################################################################################################################################################################################",
"################################################################################################################################################################################################################################################################################################",
"################################################################################################################################################################################################################################################################################################",
"################################################################################################################################################################################################################################################################################################",
"################################################################################################################################################################################################################################################################################################",
"################################################################################################################################################################################################################################################################################################",
"################################################################################################################################################################################################################################################################################################",
"################################################################################################################################################################################################################################################################################################",
"################################################################################################################################################################################################################################################################################################"
};
