/* XPM */
static char *S_Death[] = {
/* columns rows colors chars-per-pixel */
"288 48 8 1 ",
"  c #0C0F2A",
". c #44702D",
"X c #734C44",
"o c #B55945",
"O c #819447",
"+ c #A6B04F",
"@ c #FEE1B8",
"# c None",
/* pixels */
"################################################################################################################################################################################################################################################################################################",
"################################################################################################################################################################################################################################################################################################",
"################################################################################################################################################################################################################################################################################################",
"################################################################################################################################################################################################################################################################################################",
"################################################################################################################################################################################################################################################################################################",
"################################################################################################################################################################################################################################################################################################",
"################################################################################################################################################################################################################################################################################################",
"################################################################################################################################################################################################################################################################################################",
"################################################################################################################################################################################################################################################################################################",
"################################################################################################################################################################################################################################################################################################",
"################################################################################################################################################################################################################################################################################################",
"################################################################################################################################################################################################################################################################################################",
"################################################################################################################################################################################################################################################################################################",
"################################################################################################################################################################################################################################################################################################",
"####################  ###############################################  #########################################################################################################################################################################################################################",
"#################### . ############################################## . ########################################################################################################################################################################################################################",
"#################### .    ##  ####################################### .    ##  #################################################################################################################################################################################################################",
"#################### .++++  O ###############################   ##### .++++  O ###############################################  ################################################################################################################################################################",
"#################### ++++++OO ############################## XXX #### ++++++OO ############################################## O ################################################################################################################################################################",
"#################### ++++++.O ############################## XXX #### ++++++.O ############################################# O.  ##  ###############################################  ##########################################################################################################",
"###########    ##### O++++O. ############################### XXX #### O++++O. ############################################## .+++  O ############################################## O ##########################################################################################################",
"########## XXXX ### OO++OOO ################################ XXX ### O@++OOO ############################################### O++++.O ############################################# O  ##########################################################################################################",
"########## XXXXX # OO@oOOOOO ################################ XXX   OO@oo@OOO ###########################################   O+++++. #####################################    #### O+++ #########################################################################################################",
"########## XXXXXX  OOOo@OOO++ ############################### XXXOO.OOOoo@O+++ #############################   ######    ..O@o+++O ######################   ############# OOO  ## O++++  ##########################################++###########################################################",
"###########  XXXXX.OO++OOO++++ ############################### OXOO.OO++OO+++++ ########################### XXX #### OO...OO@oo@O  ##################### XXX #############OOOOO  O@++++ O################XX###############OO######++++#####################################O#######++###########",
"#############  XXXXO++++++++++ ############################### OXX..O++++++++++O ########################## XXX #### OO..O++++o@OO ##################### XXXX ##############OOOOO@oo+++O#################XXX##############OOOO###O++++####################X################OO#####O++###########",
"###############  ..O++++++++OO ################################ XX  O++++++++OOO ########################## XXX ####    OO++++++++ ######################XXXX ############## O+++Ooo@OO##################XXX################OO###oo++####################XXX################O######OO###########",
"#################  OO+++++++OO #################################  # XO+++++++OOOO ########################## XX ####### XO+++++++++ ######################XXXX ############ O+++++O@O ####################XX##################O++ooO######################X#####################################",
"################## XOO+++++OOO #################################### XXooo+++OOO++ ########################## XXX ##### XXooo+++O+++ #######################XXXX ########## XO++++++++ #######################################O++++O############################################OO###############",
"################## XoooOOOOO++ #################################### XXoooooXXX ++ ########################### XX #### OOXoooooOOOOO ########################XXX ######### OXoO+++++++O ######################XX#############XO+++++#OO########################################O+++##############",
"################## XoooXooXX++ #################################### OoooXooXXX    ########################### XX ### OOOoooXooXX OOO ########################XXX######## OOoooO+++OOOOO #####################XX#############oo+++++#OOO######################################X++++####O#########",
"################## OooooooXXX  ################################### OOooooo OOO ###############################XX### OOOOoooooXXX  ++ #########################XX####### OOooooXOOOO##O++ ###################################ooX+++###O++#####################################Xoo+####OO#########",
"################## OoooXooOOO #################################### OOO  oo OOO #################################### OOO    ooOO # ++ ##################################OOOoooXooXX####++ ################################O##ooooX#####++######################################oo################",
"################## OOO  ooOOO #################################### OOO #  OOOO ####################################    ### OOOO ##   ##################################OOO##XoooX#######################################OO###Xoo#########################################O######################",
"################## OOO #  OOO ####################################    ### OOO ############################################ OOO ############################################ OoOO########################################O####OOO#############################################OO#################",
"###################OO#### OOO ########################################### OOO ########################################### OOOO ########################################### OOOO#############################################OOO##############################################O##################",
"######################### OOO############################################ OOO############################################ OOO ############################################OOOO##################################################################################################################",
"##########################OO##############################################OO##############################################OOO#############################################OOO###################################################################################################################",
"################################################################################################################################################################################################################################################################################################",
"################################################################################################################################################################################################################################################################################################",
"################################################################################################################################################################################################################################################################################################",
"################################################################################################################################################################################################################################################################################################",
"################################################################################################################################################################################################################################################################################################",
"################################################################################################################################################################################################################################################################################################",
"################################################################################################################################################################################################################################################################################################",
"################################################################################################################################################################################################################################################################################################",
"################################################################################################################################################################################################################################################################################################",
"################################################################################################################################################################################################################################################################################################"
};
