/* XPM */
static char *S_Walk[] = {
/* columns rows colors chars-per-pixel */
"288 48 8 1 ",
"  c #0C0F2A",
". c #44702D",
"X c #734C44",
"o c #B55945",
"O c #819447",
"+ c #A6B04F",
"@ c #FEE1B8",
"# c None",
/* pixels */
"################################################################################################################################################################################################################################################################################################",
"################################################################################################################################################################################################################################################################################################",
"################################################################################################################################################################################################################################################################################################",
"################################################################################################################################################################################################################################################################################################",
"################################################################################################################################################################################################################################################################################################",
"################################################################################################################################################################################################################################################################################################",
"################################################################################################################################################################################################################################################################################################",
"################################################################################################################################################################################################################################################################################################",
"################################################################################################################################################################################################################################################################################################",
"################################################################################################################################################################################################################################################################################################",
"################################################################################################################################################################################################################################################################################################",
"################################################################################################################################################################################################################################################################################################",
"################################################################################################################################################################################################################################################################################################",
"####################################################################  ##############################################################################################################################################  ##########################################################################",
"####################  ############################################## . #############################################  ##############################################  ############################################## . #############################################  ##########################",
"#################### . #######################################  #### .    ##  ###################################### . ############################################# . ############################################# .    ##  ###################################### . #########################",
"#################### .    ##  ############################### XX ### .++++  O ###################################### .    ##  ###################################### .    ##  ###################################### .++++  O ###################################### .    ##  ##################",
"#################### .++++  O ############################## XXXX ## ++++++OO ###################################### .++++  O ###################################### .++++  O ###################################### ++++++OO ###################################### .++++  O ##################",
"##############  #### ++++++OO ############################## XXXX ## ++++++.O ################################  #### ++++++OO ###################################### ++++++OO ###################################### ++++++.O ###################################### ++++++OO ##################",
"############# XX ### ++++++.O ############################## XXXX ## O++++O. ################################ XX ### ++++++.O ###################################### ++++++.O ###################################### O++++O. ####################################### ++++++.O ##################",
"############ XXXX ## O++++O. ############################### XXXX # OO++OOO ################################ XXXX ## O++++O. ####################################### O++++O. ###################################### OO++OOO ######################################## O++++O. ###################",
"############ XXXX # OO++OOO ################################# XXX  OO@oOOOOO ############################### XXXX # OO++OOO ####################################### OO++OOO ###################################### OO@oOOOOO ###################################### OO++OOO ####################",
"############ XXXX  OO@oOOOOO ################################ XXX .OOOo@OOO++  ############################# XXXX  OO@oOOOOO ##################################### OO@oOOOOO ##################################### OOOo@OOO++ #################################### OO@oOOOOO ###################",
"############# XXX  OOOo@OOO++ ############################### XXOO.OO++OOO++++O ############################# XXX  OOOo@OOO++ ################################   # OOOo@OOO++ #################################### OO++OOO+++ ################################   # OOOo@OOO++ ##################",
"############# XXXX OO++OOO++++ ############################## OXOO.O++++++++++OO ############################ XXXX OO++OOO++++ ############################## XXX  OO++OOO++++ #################################   O+++++++++ ############################### XXX  OO++OOO++++ #################",
"############## XXOOO++++++++++O ############################# OXX..O++++++++OOO++ ############################ XXOOO++++++++++ ############################# XXXXXXO++++++++++ ################################ XXXO++OO..O++ ############################## XXXXXXO++++++++++ #################",
"############## OXOOO++++++++OOO ############################## XX  OO+++++++OOO+++ ########################### OXOOO++++++++OOO ############################ XXXXXXO+++++++OOO ############################### XXXXOO+.+++OOO ############################## XXXXXXO++++++++OO #################",
"############## OXX.OO+++++++OO++ ##############################    XOO+++++OO  O++ ########################### OXX.OO+++++++O++ ############################# XXXXXOO+++++.++O ############################### XXXXXOO.+++OOO ############################### XXXXXOO++++++OOO #################",
"############### XX XOO+++++OOO++ ################################# XoooOOOOOX #    ############################ XX XOO+++++OO++ ##############################     XOO+++.+++ ################################# XXXXoooOOOOOX ################################     XOO++++.++ ##################",
"################   XoooOOOOOX ++ ################################# XoooXooXXX ##################################   XoooOOOOOX++ ################################## XoooOO.++X ##################################   XoooXooXXX #################################### XoooOO.+++ ##################",
"################## XoooXooXXX    ################################## ooooooXOO #################################### XoooXooXXX   ################################## XoooXooXXX ################################### OOooooooXXOO ################################### XoooXoo++X ##################",
"################## OooooooXOO ##################################### ooooo+++O #################################### .ooooooOOO #################################### OooooooXXO ################################### OOoooXooOOOO ################################## OOooooooXXO ##################",
"################## Oooooo+++O ###################################### ..o++++ ##################################### .ooooo+++ ##################################### OoooXooOOO ################################### OOO   oo OOO ################################## OOoooXooOOOO #################",
"################## OOO oo+++O ###################################### ...+++ ####################################### ...oo+++ ##################################### OOO oo OOO #################################### OO ##   OOOO ################################ OOOO   ooOOOOO ################",
"################## OOO   OOOO #######################################.. OOO ######################################## .. +++O ##################################### OOO    OOO #####################################  ###### OOO ################################ OOO ###   OOOO ################",
"###################OO####    ########################################## OOO #########################################   +++ #######################################    ## OOO ############################################# OOO #################################OOO####### OOO ################",
"########################################################################   ############################################ OOO ############################################# OOO ##############################################OO##############################################    ################",
"########################################################################################################################OO################################################OO####################################################################################################################",
"################################################################################################################################################################################################################################################################################################",
"################################################################################################################################################################################################################################################################################################",
"################################################################################################################################################################################################################################################################################################",
"################################################################################################################################################################################################################################################################################################",
"################################################################################################################################################################################################################################################################################################",
"################################################################################################################################################################################################################################################################################################",
"################################################################################################################################################################################################################################################################################################",
"################################################################################################################################################################################################################################################################################################",
"################################################################################################################################################################################################################################################################################################",
"################################################################################################################################################################################################################################################################################################"
};
