/* XPM */
static char *U_Attack[] = {
/* columns rows colors chars-per-pixel */
"288 48 7 1 ",
"  c #0C0F2A",
". c #44702D",
"X c #734C44",
"o c #B55945",
"O c #819447",
"+ c #A6B04F",
"@ c None",
/* pixels */
"@@@@@@@@@@@@@@@@@@@@@@@@@@@@@@@@@@@@@@@@@@@@@@@@@@@@@@@@@@@@@@@@@@@@@@@@@@@@@@@@@@@@@@@@@@@@@@@@@@@@@@@@@@@@@@@@@@@@@@@@@@@@@@@@@@@@@@@@@@@@@@@@@@@@@@@@@@@@@@@@@@@@@@@@@@@@@@@@@@@@@@@@@@@@@@@@@@@@@@@@@@@@@@@@@@@@@@@@@@@@@@@@@@@@@@@@@@@@@@@@@@@@@@@@@@@@@@@@@@@@@@@@@@@@@@@@@@@@@@@@@@@@@@@@",
"@@@@@@@@@@@@@@@@@@@@@@@@@@@@@@@@@@@@@@@@@@@@@@@@@@@@@@@@@@@@@@@@@@@@@@@@@@@@@@@@@@@@@@@@@@@@@@@@@@@@@@@@@@@@@@@@@@@@@@@@@@@@@@@@@@@@@@@@@@@@@@@@@@@@@@@@@@@@@@@@@@@@@@@@@@@@@@@@@@@@@@@@@@@@@@@@@@@@@@@@@@@@@@@@@@@@@@@@@@@@@@@@@@@@@@@@@@@@@@@@@@@@@@@@@@@@@@@@@@@@@@@@@@@@@@@@@@@@@@@@@@@@@@@@",
"@@@@@@@@@@@@@@@@@@@@@@@@@@@@@@@@@@@@@@@@@@@@@@@@@@@@@@@@@@@@@@@@@@@@@@@@@@@@@@@@@@@@@@@@@@@@@@@@@@@@@@@@@@@@@@@@@@@@@@@@@@@@@@@@@@@@@@@@@@@@@@@@@@@@@@@@@@@@@@@@@@@@@@@@@@@@@@@@@@@@@@@@@@@@@@@@@@@@@@@@@@@@@@@@@@@@@@@@@@@@@@@@@@@@@@@@@@@@@@@@@@@@@@@@@@@@@@@@@@@@@@@@@@@@@@@@@@@@@@@@@@@@@@@@",
"@@@@@@@@@@@@@@@@@@@@@@@@@@@@@@@@@@@@@@@@@@@@@@@@@@@@@@@@@@@@@@@@@@@@@@@@@@@@@@@@@@@@@@@@@@@@@@@@@@@@@@@@@@@@@@@@@@@@@@@@@@@@@@@@@@@@@@@@@@@@@@@@@@@@@@@@@@@@@@@@@@@@@@@@@@@@@@@@@@@@@@@@@@@@@@@@@@@@@@@@@@@@@@@@@@@@@@@@@@@@@@@@@@@@@@@@@@@@@@@@@@@@@@@@@@@@@@@@@@@@@@@@@@@@@@@@@@@@@@@@@@@@@@@@",
"@@@@@@@@@@@@@@@@@@@@@@@@@@@@@@@@@@@@@@@@@@@@@@@@@@@@@@@@@@@@@@@@@@@@@@@@@@@@@@@@@@@@@@@@@@@@@@@@@@@@@@@@@@@@@@@@@@@@@@@@@@@@@@@@@@@@@@@@@@@@@@@@@@@@@@@@@@@@@@@@@@@@@@@@@@@@@@@@@@@@@@@@@@@@@@@@@@@@@@@@@@@@@@@@@@@@@@@@@@@@@@@@@@@@@@@@@@@@@@@@@@@@@@@@@@@@@@@@@@@@@@@@@@@@@@@@@@@@@@@@@@@@@@@@",
"@@@@@@@@@@@@@@@@@@@@@@@@@@@@@@@@@@@@@@@@@@@@@@@@@@@@@@@@@@@@@@@@@@@@@@@@@@@@@@@@@@@@@@@@@@@@@@@@@@@@@@@@@@@@@@@@@@@@@@@@@@@@@@@@@@@@@@@@@@@@@@@@@@@@@@@@@@@@@@@@@@@@@@@@@@@@@@@@@@@@@@@@@@@@@@@@@@@@@@@@@@@@@@@@@@@@@@@@@@@@@@@@@@@@@@@@@@@@@@@@@@@@@@@@@@@@@@@@@@@@@@@@@@@@@@@@@@@@@@@@@@@@@@@@",
"@@@@@@@@@@@@@@@@@@@@@@@@@@@@@@@@@@@@@@@@@@@@@@@@@@@@@@@@@@@@@@@@@@@@@@@@@@@@@@@@@@@@@@@@@@@@@@@@@@@@@@@@@@@@@@@@@@@@@@@@@@@@@@@@@@@@@@@@@@@@@@@@@@@@@@@@@@@@@@@@@@@@@@@@@@@@@@@@@@@@@@@@@@@@@@@@@@@@@@@@@@@@@@@@@@@@@@@@@@@@@@@@@@@@@@@@@@@@@@@@@@@@@@@@@@@@@@@@@@@@@@@@@@@@@@@@@@@@@@@@@@@@@@@@",
"@@@@@@@@@@@@@@@@@@@@@@@@@@@@@@@@@@@@@@@@@@@@@@@@@@@@@@@@@@@@@@@@@@@@@@@@@@@@@@@@@@@@@@@@@@@@@@@@@@@@@@@@@@@@@@@@@@@@@@@@@@@@@@@@@@@@@@@@@@@@@@@@@@@@@@@@@@@@@@@@@@@@@@@@@@@@@@@@@@@@@@@@@@@@@@@@@@@@@@@@@@@@@@@@@@@@@@@@@@@@@@@@@@@@@@@@@@@@@@@@@@@@@@@@@@@@@@@@@@@@@@@@@@@@@@@@@@@@@@@@@@@@@@@@",
"@@@@@@@@@@@@@@@@@@@@@@@@@@@@@@@@@@@@@@@@@@@@@@@@@@@@@@@@@@@@@@@@@@@@@@@@@@@@@@@@@@@@@@@@@@@@@@@@@@@@@@@@@@@@@@@@@@@@@@@@@@@@@@@@@@@@@@@@@@@@@@@@@@@@@@@@@@@@@@@@@@@@@@@@@@@@@@@@@@@@@@@@@@@@@@@@@@@@@@@@@@@@@@@@@@@@@@@@@@@@@@@@@@@@@@@@@@@@@@@@@@@@@@@@@@@@@@@@@@@@@@@@@@@@@@@@@@@@@@@@@@@@@@@@",
"@@@@@@@@@@@@@@@@@@@@@@@@@@@@@@@@@@@@@@@@@@@@@@@@@@@@@@@@@@@@@@@@@@@@@@@@@@@@@@@@@@@@@@@@@@@@@@@@@@@@@@@@@@@@@@@@@@@@@@@@@@@@@@@@@@@@@@@@@@@@@@@@@@@@@@@@@@@@@@@@@@@@@@@@@@@@@@@@@@@@@@@@@@@@@@@@@@@@@@@@@@@@@@@@@@@@@@@@@@@@@@@@@@@@@@@@@@@@@@@@@@@@@@@@@@@@@@@@@@@@@@@@@@@@@@@@@@@@@@@@@@@@@@@@",
"@@@@@@@@@@@@@@@@@@@@@@@@@@@@@@@@@@@@@@@@@@@@@@@@@@@@@@@@@@@@@@@@@@@@@@@@@@@@@@@@@@@@@@@@@@@@@@@@@@@@@@@@@@@@@@@@@@@@@@@@@@@@@@@@@@@@@@@@@@@@@@@@@@@@@@@@@@@@@@@@@@@@@@@@@@@@@@@@@@@@@@@@@@@@@@@@@@@@@@@@@@@@@@@@@@@@@@@@@@@@@@@@@@@@@@@@@@@@@@@@@@@@@@@@@@@@@@@@@@@@@@@@@@@@@@@@@@@@@@@@@@@@@@@@",
"@@@@@@@@@@@@@@@@@@@@@@@@@@@@@@@@@@@@@@@@@@@@@@@@@@@@@@@@@@@@@@@@@@@@@@@@@@@@@@@@@@@@@@@@@@@@@@@@@@@@@@@@@@@@@@@@@@@@@@@@@@   @@@@@@@@@@@@@@@@@@@@@@@@@@@@@@@@@@@@@@@@@@@@@@@@@@@@@@@@@@@@@@@@@@@@@@@@@@@@@@@@@@@@@@@@@@@@@@@@@@@@@@@@@@@@@@@@@@@@@@@@@@@@@@@@@@@@@@@@@@@@@@@@@@@@@@@@@@@@@@@@@@@",
"@@@@@@@@@@@@@@@@@@@@@@@@@@@@@@@@@@@@@@@@@@@@@@@@@@@@@@@@@@@@@@@@@@@@@@@@@@@@@@@@@@@@@@@@@@@@@@@@@@@@@@@@@@@@@@@@@@@@@@@@@ XXX @@@@@@@@@@@@@@@@@@@@@@@@@@@@@@@@@@@@@@@@@@   @@@@@@@@@@@@@@@@@@@@@@@@@@@@@@@@@@@@@@@@@@@@@@@@@@@@@@@@@@@@@@@@@@@@@@@@@@@@@@@@@@@@@@@@@@@@@@@@@@@@@@@@@@@@@@@@@@@@@",
"@@@@@@@@@@@@@@@@@@@@@@@@@@@@@@@@@@@@@@@@@@@@@@@@@@@@@@@@@@@@@@@@@@@@@@@@@@@@@@@@@@@@@@@@@@@@@@@@@@@@@@@@@@@@@@@@@@@@@@@@ XXXX @@@@@@@@@@@@@@@@@@@@@@@@@@@@@@@@@@@@@@@@@ XXX @@@@@@@@@@@@@@@@@@@@@@@@@@@@@@@@@@@@@@@@@@@@@@@@@@@@@@@@@@@@@@@@@@@@@@@@@@@@@@@@@@@@@@@@@@@@@@@@@@@@@@@@@@@@@@@@@@@@",
"@@@@@@@@@@@@@@@@@@@@@@@@@@@@@@@@@@@@@@@@@@@@@@@@@@@@@@@@@@@@@@@@@@@@@@@@@@@@@@@@@@@@@@@@@@@@@@@@@@@@@@@@@@@@@@@@@@@@@@@@ XXXXX @@@@@@@@@@@@@@@@@@@@@@@@@@@@@@@@@@@@@@@@ XXXX @@@@@@@@@@@@@@@@@@@@@@@@@@@@@@@@@@@@@@@@@@@@@@@@@@@@@@@@@@@@@@@@@@@@@@@@@@@@@@@@@@@@@@@@@@@@@@@@@@@@@@@@@@@@@@@@@@@",
"@@@@@@@@@@@@@@@@@@@@@@@@@@@@@@@@@@@@@@@@@@@@@@@@@@@@@@@@@@@@@@@@@@@@@@@@@@@@  @   @@@@@@@@@@@@@@@@@@@@@@@@@@@@@@@@@@@@@@@ XXXX @@@@@@@@@@@@@@@@@@@@@@@@@@@@@@@@@@@@@@@@ XXXXX @@@@@@@@@@@@@@@@@@@@@@@@@@@@@@@@@@@@@@@@@@@@@@@@@@@@@@@@@@@@@@@@@@@@@@@@@@@@@@@@@@@@@@@@@@@@@@@@@@@@@@@@@@@@@@@@@@",
"@@@@@@@@@@@@@@@@@@  @@@@@@@@  @@@@@@@@@@@@@@@@@@@@@@@@@@@@@@@@@@@@  @@    @ O  XXX @@@@@@@@@@@@@@@@@@@@@@@@@@@@@@@  @@     XXXX @@@@@@@@@@@@@@@@@@@@@@@@@@@@@@@@@@  @@   XXXXX  @@@@@@@@@@@@@@@@@@@@@@@@@@@@@@@@@@@@@@@@@@@@@@@@@@@@@@@@@@@@@@@@@@@@@@@@@@@@@@@@@@  @@@@@@@@  @@@@@@@@@@@@@@@@@@",
"@@@@@@@@@@@@@@@@@@ O @    @ O @@@@@@@@@@@@@@@@@@@@@@@@@@@@@@@@@@@@ O  ++++ OO  XXXX @@@@@@@@@@@@@@@@@@@@@@@@@@@@@@ O  ++++ OXXX @@@@@@@@@@@@@@@@@@@@@@@@@@@@@@@@@@ O  ++++XXXX++ @@@@@@@@@@@@@@@@@@@@@@@@@@@@@@@@@  @@@@@@@@ X@@@@@@@@@@@@@@@@@@@@@@@@@@@@@@@@@@@@ O @    @ O @@@@@@@@@@@@@@@@@@",
"@@@@@@@@@@@@@@@@@@ OO ++++ OO @@@@@@@@@@@@@@@@@@@@@@@@@@@@@@@@@@@@ OO++++++.O  XXXX @@@@@@@@@@@@@@@@@@@@@@@@@@@@@@ OO++++++.XX++ @@@@@@@@@@@@@@@@@@@@@@@@@@@@@@@@@ OO++++++.XX++ @@@@@@@@@@@@@@@@@@@@@@@@@@@@@@@@@ O @    @ OXX@@@@@@@@@@@@@@@@@@@@@@@@@@@@@@@@@@@ OO ++++ OO @@@@@@@@@@@@@@@@@@",
"@@@@@@@@@@@@@@@@@@ O.++++++.O @@@@@@@@@@@@@@@@@@@@@@@@@@@@@@@@@@@@ O.++++++. @ XXXX @@@@@@@@@@@@@@@@@@@@@@@@@@@@@@ O.++++++. X++ @@@@@@@@@@@@@@@@@@@@@@@@@@@@@@@@@ O.++++++. O++X @@@@@@@@@@@@@@@@@@@@@@@@@@@@@@@@ OO ++++ OOXX@@@@@@@@@@@@@@@@@@@@@@@@@@@@@@@@@@@ O.++++++.O @@@@@@@@@@@@@@@@@@",
"@@@@@@@@@@@@@@@@@@@ .++++++. @@@@@@@@@@@@@@@@@@@@@@@@@@@@@@@@@@@@@@ .++++++ @@ XXXX @@@@@@@@@@@@@@@@@@@@@@@@@@@@@@@ .++++++  O++X @@@@@@@@@@@@@@@@@@@@@@@@@@@@@@@@@ .++++++  OOOX @@@@@@@@@@@@@@@@@@@@@@@@@@@@@@@@ O.++++++.OXX@@@@@@@@@@@@@@@@@@@@@@@@@@@@@@@@@@@@ .++++++. @@@@@@@@@@@@@@@@@@@",
"@@@@@@@@@@@@@@@@@@@@ ++++++ @@@@@@@@@@@@@@@@@@@@@@@@@@@@@@@@@@@@@@@@ O++++O @@ XXX @@@@@@@@@@@@@@@@@@@@@@@@@@@@@@@@@ O++++O  OOOX @@@@@@@@@@@@@@@@@@@@@@@@@@@@@@@@@@ O++++O  OO  @@@@@@@@@@@@@@@@@@@@@@@@@@@@@@@@@@ .++++++. XX@@@@@@@@@@@@@@@@@@@@@@@@@@@@@@@@@@@@@ ++++++ @@@@@@@@@@@@@@@@@@@@",
"@@@@@@@@@@@@@@@@@@@@ O++++O @@@@@@@@@@@@@@@@@@@@@@@@@@@@@@@@@@@@@@@@ OOOOOOO @ XXX @@@@@@@@@@@@@@@@@@@@@@@@@@@@@@@@@ OOOOOOO++OXX @@@@@@@@@@@@@@@@@@@@@@@@@@@@@@@@@@ OOOOOOO++O @@@@@@@@@@@@@@@@@@@@@@@@@@@@@@@@@@@@ ++++++ @XXX@@@@@@@@@@@@@@@@@@@@@@@@@@@@@@@@@@@@ O++++O @@@@@@@@@@@@@@@@@@@@",
"@@@@@@@@@@@@@@@@@@@ OOOOOOOO @@@@@@@@@@@@@@@@@@@@@@@@@@@@@@@@@@@@@@ OOOOOOO++  XXX @@@@@@@@@@@@@@@@@@@@@@@@@@@@@@@@ OOOOOOO+++O  @@@@@@@@@@@@@@@@@@@@@@@@@@@@@@@@@@ OOOOOOO+++O @@@@@@@@@@@@@@@@@@@@@@@@@@@@@@@@@@@@ O++++O @XXX@@@@@@@@@@@@@@@@@@@@@@@@@@@@@@@@@@@ OOOOOOOO @@@@@@@@@@@@@@@@@@@",
"@@@@@@@@@@@@@@@@@@ ++OOOOOO++ @@   @@@@@@@@@@@@@@@@@@@@@@@@@@@@@@@ ++OOOO+++++OOX  @@@@@@@@@@@@@@@@@@@@@@@@@@@@@@@ ++OOOO++++OO @@@@@@@@@@@@@@@@@@@@@@@@@@@@@@@@@@ ++OOOO++++O @@@@@@@@@@@@@@@@@@@@@@@@@@@@@@@@@@@  OOOOOOOO XXX@@@@@@@@@@@@@@@@@@@@@@@@@@@@@@@@@@ ++OOOOOO++ @@@@@@@@@@@@@@@@@@",
"@@@@@@@@@@@@@@@@@ +++++OO+++++  XXX @@@@@@@@@@@@@@@@@@@@@@@@@@@@@ O++++OO+++++O+++ @@@@@@@@@@@@@@@@@@@@@@@@@@@@@@ O++++OO+++OO @@@@@@@@@@@@@@@@@@@@@@@@@@@@@@@@@@ O++++OO+++OO @@@@@@@@@@@@@@@@@@@@@@@@@@@@@@@@@@ O++OOOOOO++OOX@@@@@@@@@@@@@@@@@@@@@@@@@@@@@@@@@ +++++OO+++++ @@@@@@@@@@@@@@@@@",
"@@@@@@@@@@@@@@@@ O+++++OO+++++O XXX @@@@@@@@@@@@@@@@@@@@@@@@@@@@ .OO+++O++++OOO+++ @@@@@@@@@@@@@@@@@@@@@@@@@@@@@@ OO+++O++++O @@@@@@@@@@@@@@@@@@@@@@@@@@@@@@@@@@@ OO+++O++++O @@@@@@@@@@@@@@@@@@@@@@@@@@@@@@@@@@ ++++++OO+++++OX@@@@@@@@@@@@@@@@@@@@@@@@@@@@@@@@ O+++++OO+++++ @@@@@@@@@@@@@@@@@",
"@@@@@@@@@@@@@@@@ OOO++++++++OOOXXXX @@@@@@@@@@@@@@@@@@@@@@@@@@@@ ..O++++++++O  XX @@@@@@@@@@@@@@@@@@@@@@@@@@@@@@@ .O++++++++O @@@@@@@@@@@@@@@@@@@@@@@@@@@@@@@@@@@ .O++++++++O @@@@@@@@@@@@@@@@@@@@@@@@@@@@@@@@@ O++O+++OO+++++OX@@@@@@@@@@@@@@@@@@@@@@@@@@@@@@@@ OOO++++++++OOO @@@@@@@@@@@@@@@@",
"@@@@@@@@@@@@@@@ OOOO++++++++OOOXXX @@@@@@@@@@@@@@@@@@@@@@@@@@@@@ ..O++++O++OX @   @@@@@@@@@@@@@@@@@@@@@@@@@@@@@@@ .O++++O++OX @@@@@@@@@@@@@@@@@@@@@@@@@@@@@@@@@@@ .O++++O++OX @@@@@@@@@@@@@@@@@@@@@@@@@@@@@@@@@ OOOO++++++++OOXX@@@@@@@@@@@@@@@@@@@@@@@@@@@@@@@ OOOO++++++++OOO @@@@@@@@@@@@@@@@",
"@@@@@@@@@@@@@@@ OOOXO++OO++OXOOOX @@@@@@@@@@@@@@@@@@@@@@@@@@@@@@@ .XO++OOOOXX @@@@@@@@@@@@@@@@@@@@@@@@@@@@@@@@@@@@ XO++OOOOXX @@@@@@@@@@@@@@@@@@@@@@@@@@@@@@@@@@@@ XO++OOOOXX @@@@@@@@@@@@@@@@@@@@@@@@@@@@@@@@ OOO X+++++++OXXXX@@@@@@@@@@@@@@@@@@@@@@@@@@@@@@@ OOOXO++OO++OXOO @@@@@@@@@@@@@@@@",
"@@@@@@@@@@@@@@@ ++OXXOOOOOOXXO++ @@@@@@@@@@@@@@@@@@@@@@@@@@@@@@@@ .XXOOOoooXX @@@@@@@@@@@@@@@@@@@@@@@@@@@@@@@@@@@@ XXOOOoooXX @@@@@@@@@@@@@@@@@@@@@@@@@@@@@@@@@@@@ XXOOOoooXX @@@@@@@@@@@@@@@@@@@@@@@@@@@@@@@@ ++O XX++OO++XXXXX@@@@@@@@@@@@@@@@@@@@@@@@@@@@@@@ ++OXXOOOOOOXX++ @@@@@@@@@@@@@@@@",
"@@@@@@@@@@@@@@@ ++ XXooXoooXX ++ @@@@@@@@@@@@@@@@@@@@@@@@@@@@@@@@@ XXooXoooX. @@@@@@@@@@@@@@@@@@@@@@@@@@@@@@@@@@@@ XXooXoooX.. @@@@@@@@@@@@@@@@@@@@@@@@@@@@@@@@@@@ XXooXooo... @@@@@@@@@@@@@@@@@@@@@@@@@@@@@@@ ++  XXooXoooXXXXX@@@@@@@@@@@@@@@@@@@@@@@@@@@@@@@ ++ XXooXoooXX++X @@@@@@@@@@@@@@@",
"@@@@@@@@@@@@@@@    OXooooooXO    @@@@@@@@@@@@@@@@@@@@@@@@@@@@@@@@@ OXoooooo.. @@@@@@@@@@@@@@@@@@@@@@@@@@@@@@@@@@@@ OXoooooo... @@@@@@@@@@@@@@@@@@@@@@@@@@@@@@@@@@@ OXoooooo... @@@@@@@@@@@@@@@@@@@@@@@@@@@@@@@   @ OXooooooXOXX @@@@@@@@@@@@@@@@@@@@@@@@@@@@@@@    OXooooooXOXXXX @@@@@@@@@@@@@@",
"@@@@@@@@@@@@@@@@@@ OOooXoooOO @@@@@@@@@@@@@@@@@@@@@@@@@@@@@@@@@@@@ OOooXooo.. @@@@@@@@@@@@@@@@@@@@@@@@@@@@@@@@@@@@ OOooXooo... @@@@@@@@@@@@@@@@@@@@@@@@@@@@@@@@@@@ OOooXooo... @@@@@@@@@@@@@@@@@@@@@@@@@@@@@@@@@@@ OOooXoooOOXX @@@@@@@@@@@@@@@@@@@@@@@@@@@@@@@@@@ OOooXoooOOXXXXX @@@@@@@@@@@@@",
"@@@@@@@@@@@@@@@@@@ OOooXoooOO @@@@@@@@@@@@@@@@@@@@@@@@@@@@@@@@@@@@ OOoo   ... @@@@@@@@@@@@@@@@@@@@@@@@@@@@@@@@@@@@ OOoo        @@@@@@@@@@@@@@@@@@@@@@@@@@@@@@@@@@@ OOoo        @@@@@@@@@@@@@@@@@@@@@@@@@@@@@@@@@@@ OOooXoooOOXX @@@@@@@@@@@@@@@@@@@@@@@@@@@@@@@@@@ OOooXoooOO XXXX @@@@@@@@@@@@@",
"@@@@@@@@@@@@@@@@@@ OOO    OOO @@@@@@@@@@@@@@@@@@@@@@@@@@@@@@@@@@@@ OOO @@@    @@@@@@@@@@@@@@@@@@@@@@@@@@@@@@@@@@@@ OOO @@@@@@@@@@@@@@@@@@@@@@@@@@@@@@@@@@@@@@@@@@@ OOO @@@@@@@@@@@@@@@@@@@@@@@@@@@@@@@@@@@@@@@@@@@ OOO    OOOX @@@@@@@@@@@@@@@@@@@@@@@@@@@@@@@@@@@ OOO    OOO  XXX @@@@@@@@@@@@@",
"@@@@@@@@@@@@@@@@@@ OOO @@ OOO @@@@@@@@@@@@@@@@@@@@@@@@@@@@@@@@@@@@ OOO @@@@@@@@@@@@@@@@@@@@@@@@@@@@@@@@@@@@@@@@@@@ OOO @@@@@@@@@@@@@@@@@@@@@@@@@@@@@@@@@@@@@@@@@@@ OOO @@@@@@@@@@@@@@@@@@@@@@@@@@@@@@@@@@@@@@@@@@@ OOO @@ OOO @@@@@@@@@@@@@@@@@@@@@@@@@@@@@@@@@@@@ OOO @@ OOO @   @@@@@@@@@@@@@@",
"@@@@@@@@@@@@@@@@@@@OO@@@@@@OO@@@@@@@@@@@@@@@@@@@@@@@@@@@@@@@@@@@@@@OO@@@@@@@@@@@@@@@@@@@@@@@@@@@@@@@@@@@@@@@@@@@@@@OO@@@@@@@@@@@@@@@@@@@@@@@@@@@@@@@@@@@@@@@@@@@@@@OO@@@@@@@@@@@@@@@@@@@@@@@@@@@@@@@@@@@@@@@@@@@@@@OO@@@@@@OO@@@@@@@@@@@@@@@@@@@@@@@@@@@@@@@@@@@@@@OO@@@@@@OO@@@@@@@@@@@@@@@@@@@",
"@@@@@@@@@@@@@@@@@@@@@@@@@@@@@@@@@@@@@@@@@@@@@@@@@@@@@@@@@@@@@@@@@@@@@@@@@@@@@@@@@@@@@@@@@@@@@@@@@@@@@@@@@@@@@@@@@@@@@@@@@@@@@@@@@@@@@@@@@@@@@@@@@@@@@@@@@@@@@@@@@@@@@@@@@@@@@@@@@@@@@@@@@@@@@@@@@@@@@@@@@@@@@@@@@@@@@@@@@@@@@@@@@@@@@@@@@@@@@@@@@@@@@@@@@@@@@@@@@@@@@@@@@@@@@@@@@@@@@@@@@@@@@@@@",
"@@@@@@@@@@@@@@@@@@@@@@@@@@@@@@@@@@@@@@@@@@@@@@@@@@@@@@@@@@@@@@@@@@@@@@@@@@@@@@@@@@@@@@@@@@@@@@@@@@@@@@@@@@@@@@@@@@@@@@@@@@@@@@@@@@@@@@@@@@@@@@@@@@@@@@@@@@@@@@@@@@@@@@@@@@@@@@@@@@@@@@@@@@@@@@@@@@@@@@@@@@@@@@@@@@@@@@@@@@@@@@@@@@@@@@@@@@@@@@@@@@@@@@@@@@@@@@@@@@@@@@@@@@@@@@@@@@@@@@@@@@@@@@@@",
"@@@@@@@@@@@@@@@@@@@@@@@@@@@@@@@@@@@@@@@@@@@@@@@@@@@@@@@@@@@@@@@@@@@@@@@@@@@@@@@@@@@@@@@@@@@@@@@@@@@@@@@@@@@@@@@@@@@@@@@@@@@@@@@@@@@@@@@@@@@@@@@@@@@@@@@@@@@@@@@@@@@@@@@@@@@@@@@@@@@@@@@@@@@@@@@@@@@@@@@@@@@@@@@@@@@@@@@@@@@@@@@@@@@@@@@@@@@@@@@@@@@@@@@@@@@@@@@@@@@@@@@@@@@@@@@@@@@@@@@@@@@@@@@@",
"@@@@@@@@@@@@@@@@@@@@@@@@@@@@@@@@@@@@@@@@@@@@@@@@@@@@@@@@@@@@@@@@@@@@@@@@@@@@@@@@@@@@@@@@@@@@@@@@@@@@@@@@@@@@@@@@@@@@@@@@@@@@@@@@@@@@@@@@@@@@@@@@@@@@@@@@@@@@@@@@@@@@@@@@@@@@@@@@@@@@@@@@@@@@@@@@@@@@@@@@@@@@@@@@@@@@@@@@@@@@@@@@@@@@@@@@@@@@@@@@@@@@@@@@@@@@@@@@@@@@@@@@@@@@@@@@@@@@@@@@@@@@@@@@",
"@@@@@@@@@@@@@@@@@@@@@@@@@@@@@@@@@@@@@@@@@@@@@@@@@@@@@@@@@@@@@@@@@@@@@@@@@@@@@@@@@@@@@@@@@@@@@@@@@@@@@@@@@@@@@@@@@@@@@@@@@@@@@@@@@@@@@@@@@@@@@@@@@@@@@@@@@@@@@@@@@@@@@@@@@@@@@@@@@@@@@@@@@@@@@@@@@@@@@@@@@@@@@@@@@@@@@@@@@@@@@@@@@@@@@@@@@@@@@@@@@@@@@@@@@@@@@@@@@@@@@@@@@@@@@@@@@@@@@@@@@@@@@@@@",
"@@@@@@@@@@@@@@@@@@@@@@@@@@@@@@@@@@@@@@@@@@@@@@@@@@@@@@@@@@@@@@@@@@@@@@@@@@@@@@@@@@@@@@@@@@@@@@@@@@@@@@@@@@@@@@@@@@@@@@@@@@@@@@@@@@@@@@@@@@@@@@@@@@@@@@@@@@@@@@@@@@@@@@@@@@@@@@@@@@@@@@@@@@@@@@@@@@@@@@@@@@@@@@@@@@@@@@@@@@@@@@@@@@@@@@@@@@@@@@@@@@@@@@@@@@@@@@@@@@@@@@@@@@@@@@@@@@@@@@@@@@@@@@@@",
"@@@@@@@@@@@@@@@@@@@@@@@@@@@@@@@@@@@@@@@@@@@@@@@@@@@@@@@@@@@@@@@@@@@@@@@@@@@@@@@@@@@@@@@@@@@@@@@@@@@@@@@@@@@@@@@@@@@@@@@@@@@@@@@@@@@@@@@@@@@@@@@@@@@@@@@@@@@@@@@@@@@@@@@@@@@@@@@@@@@@@@@@@@@@@@@@@@@@@@@@@@@@@@@@@@@@@@@@@@@@@@@@@@@@@@@@@@@@@@@@@@@@@@@@@@@@@@@@@@@@@@@@@@@@@@@@@@@@@@@@@@@@@@@@",
"@@@@@@@@@@@@@@@@@@@@@@@@@@@@@@@@@@@@@@@@@@@@@@@@@@@@@@@@@@@@@@@@@@@@@@@@@@@@@@@@@@@@@@@@@@@@@@@@@@@@@@@@@@@@@@@@@@@@@@@@@@@@@@@@@@@@@@@@@@@@@@@@@@@@@@@@@@@@@@@@@@@@@@@@@@@@@@@@@@@@@@@@@@@@@@@@@@@@@@@@@@@@@@@@@@@@@@@@@@@@@@@@@@@@@@@@@@@@@@@@@@@@@@@@@@@@@@@@@@@@@@@@@@@@@@@@@@@@@@@@@@@@@@@@",
"@@@@@@@@@@@@@@@@@@@@@@@@@@@@@@@@@@@@@@@@@@@@@@@@@@@@@@@@@@@@@@@@@@@@@@@@@@@@@@@@@@@@@@@@@@@@@@@@@@@@@@@@@@@@@@@@@@@@@@@@@@@@@@@@@@@@@@@@@@@@@@@@@@@@@@@@@@@@@@@@@@@@@@@@@@@@@@@@@@@@@@@@@@@@@@@@@@@@@@@@@@@@@@@@@@@@@@@@@@@@@@@@@@@@@@@@@@@@@@@@@@@@@@@@@@@@@@@@@@@@@@@@@@@@@@@@@@@@@@@@@@@@@@@@",
"@@@@@@@@@@@@@@@@@@@@@@@@@@@@@@@@@@@@@@@@@@@@@@@@@@@@@@@@@@@@@@@@@@@@@@@@@@@@@@@@@@@@@@@@@@@@@@@@@@@@@@@@@@@@@@@@@@@@@@@@@@@@@@@@@@@@@@@@@@@@@@@@@@@@@@@@@@@@@@@@@@@@@@@@@@@@@@@@@@@@@@@@@@@@@@@@@@@@@@@@@@@@@@@@@@@@@@@@@@@@@@@@@@@@@@@@@@@@@@@@@@@@@@@@@@@@@@@@@@@@@@@@@@@@@@@@@@@@@@@@@@@@@@@@"
};
