/* XPM */
static char *U_Death[] = {
/* columns rows colors chars-per-pixel */
"288 48 8 1 ",
"  c #0C0F2A",
". c #44702D",
"X c #734C44",
"o c #B55945",
"O c #819447",
"+ c #A6B04F",
"@ c #FEE1B8",
"# c None",
/* pixels */
"################################################################################################################################################################################################################################################################################################",
"################################################################################################################################################################################################################################################################################################",
"################################################################################################################################################################################################################################################################################################",
"################################################################################################################################################################################################################################################################################################",
"################################################################################################################################################################################################################################################################################################",
"################################################################################################################################################################################################################################################################################################",
"################################################################################################################################################################################################################################################################################################",
"################################################################################################################################################################################################################################################################################################",
"################################################################################################################################################################################################################################################################################################",
"################################################################################################################################################################################################################################################################################################",
"################################################################################################################################################################################################################################################################################################",
"################################################################################################################################################################################################################################################################################################",
"################################################################################################################################################################################################################################################################################################",
"################################################################################################################################################################################################################################################################################################",
"################################################################################################################################################################################################################################################################################################",
"################################################################################################################################################################################################################################################################################################",
"##################  ########  ##################################################################################################################################################################################################################################################################",
"################## O #    # O ##################################################################################################################################################################################################################################################################",
"################## OO ++++ OO ##################################################################################################################################################################################################################################################################",
"################## O.++++++.O ##################################################################################################################################################################################################################################################################",
"################### .++++++. ###################################################################################################################################################################################################################################################################",
"#################### ++++++ ####################################################################################################################################################################################################################################################################",
"#################### O++++O ######################################################   ###########################################################################################################################################################################################################",
"################### OOOOOOOO #################################################### XXX ##########################################################################################################################################################################################################",
"################## ++OOOOOO++ ##   ############################################# XXXXX #############################################   #########################################################################################################################################################",
"################# +++++OO+++++  XXX ########################################### XXXXXX ############################OO############   XXX ############################################   #########################################################################################################",
"################ O+++++OO+++++O XXX ########################################## XXXXXX ############################ OOO #######   XXXXXXX ########################################   XXX ########################################################################################################",
"################ OOO++++++++OOOXXXX ######################################### XXXXX  ############################# OOO ###    XXXXXXXXXX ##########################  ######  #   XXXXXXX ###########################################XXX#########################################################",
"############### OOOO++++++++OOOXXX #################################... #### XXXX  ############################### OOO    ... XXXXXXXXX ########################## OO #### OO XXXXXXXXXX ######################################XXX#XXXX#############################################XX##########",
"############### OOOXO++OO++OXOOOX ################################# ...      XX  ################################# OOooXooo..          ########################### OOO ## OOO XXXXXXXXXX###########################OO######OO##XXX#XXX#########################################XX###XX##########",
"############### ++OXXOOOOOOXXO++ #############################      XO@++@OX      ################################ OXooooooX. #################################### OOO    OOO #####################################OOO####OOO###################################################################",
"############### ++ XXooXoooXX ++ ############################# ++OO++O++++O++OO++ ################################ XXooXoooXX #################################### OOooXoooOO #####################################OOO####OO###############################################O####################",
"###############    OXooooooXO    ############################# ++O++++++++++++O++ ################################ XXoOOOOoXX #################################### OOooXoooOO ######################################OO#####OO######################################OO#####OOO###################",
"################## OOooXoooOO #################################  O++O++++++O++O  ################################# XO++++++OX #################################### OXooXoooXO #######################################oo####OO######################################OO######O####################",
"################## OOooXoooOO ###################################  OO++++++OO  ##############################      O++++++++O      ############################### XXooooooXX #######################################ooXoo######################################################################",
"################## OOO    OOO #################################### OO++++++OO ############################### ++OOO++++++++++OOO++ ############################### XXooXoooXX #######################################oooooo#####################################################################",
"################## OOO ## OOO #################################### XXO++++OXX ############################### ++OOO++++OO++++OOO++ ############################### XOOOOOOOOX #######################################ooXooo#####################################################################",
"###################OO######OO###################################### XXOOOOXX.#################################  OO++++@oo@++++OO  ################################ OO++++++OO #######################################++++++############################################++#######################",
"####################################################################      ...###################################  +++O@oo@O+++  ################################   O++++++++O   #####################################++++++###########################################++++######################",
"##################################################################################################################   OO++OO   ###############################   OOOO++++++++OOOO   ##################################O++++O##OOO######################################++++######################",
"#################################################################################################################### O++++O ################################# ++OOO++++OO++++OOO++ ###################################OOOO###OOOOO#####################################++#######################",
"#################################################################################################################### ++++++ ##################################++OOO+++@oo@+++OOO++############################++OO####+oo+#####OOO#############################################O################",
"################################################################################################################### .++++++. ####################################### O@oo@O ##################################++OO###++oo++###################################################OOO###############",
"################################################################################################################## O.++++++.O ###################################### O++++O #########################################++++++###################################OO###############O################",
"################################################################################################################## OO ++++ OO ##################################### .++++++. ########################################++++++###################################OO#######OO#######################",
"################################################################################################################## O #    # O #####################################O.++++++.O#########################################++++#############################################OO#######################",
"##################################################################################################################  ########  #####################################OO++++++OO###################################################################################################################",
"###################################################################################################################################################################O##++++##O###################################################################################################################"
};
