/* XPM */
static char *U_Walk[] = {
/* columns rows colors chars-per-pixel */
"288 48 7 1 ",
"  c #0C0F2A",
". c #44702D",
"X c #734C44",
"o c #B55945",
"O c #819447",
"+ c #A6B04F",
"@ c None",
/* pixels */
"@@@@@@@@@@@@@@@@@@@@@@@@@@@@@@@@@@@@@@@@@@@@@@@@@@@@@@@@@@@@@@@@@@@@@@@@@@@@@@@@@@@@@@@@@@@@@@@@@@@@@@@@@@@@@@@@@@@@@@@@@@@@@@@@@@@@@@@@@@@@@@@@@@@@@@@@@@@@@@@@@@@@@@@@@@@@@@@@@@@@@@@@@@@@@@@@@@@@@@@@@@@@@@@@@@@@@@@@@@@@@@@@@@@@@@@@@@@@@@@@@@@@@@@@@@@@@@@@@@@@@@@@@@@@@@@@@@@@@@@@@@@@@@@@",
"@@@@@@@@@@@@@@@@@@@@@@@@@@@@@@@@@@@@@@@@@@@@@@@@@@@@@@@@@@@@@@@@@@@@@@@@@@@@@@@@@@@@@@@@@@@@@@@@@@@@@@@@@@@@@@@@@@@@@@@@@@@@@@@@@@@@@@@@@@@@@@@@@@@@@@@@@@@@@@@@@@@@@@@@@@@@@@@@@@@@@@@@@@@@@@@@@@@@@@@@@@@@@@@@@@@@@@@@@@@@@@@@@@@@@@@@@@@@@@@@@@@@@@@@@@@@@@@@@@@@@@@@@@@@@@@@@@@@@@@@@@@@@@@@",
"@@@@@@@@@@@@@@@@@@@@@@@@@@@@@@@@@@@@@@@@@@@@@@@@@@@@@@@@@@@@@@@@@@@@@@@@@@@@@@@@@@@@@@@@@@@@@@@@@@@@@@@@@@@@@@@@@@@@@@@@@@@@@@@@@@@@@@@@@@@@@@@@@@@@@@@@@@@@@@@@@@@@@@@@@@@@@@@@@@@@@@@@@@@@@@@@@@@@@@@@@@@@@@@@@@@@@@@@@@@@@@@@@@@@@@@@@@@@@@@@@@@@@@@@@@@@@@@@@@@@@@@@@@@@@@@@@@@@@@@@@@@@@@@@",
"@@@@@@@@@@@@@@@@@@@@@@@@@@@@@@@@@@@@@@@@@@@@@@@@@@@@@@@@@@@@@@@@@@@@@@@@@@@@@@@@@@@@@@@@@@@@@@@@@@@@@@@@@@@@@@@@@@@@@@@@@@@@@@@@@@@@@@@@@@@@@@@@@@@@@@@@@@@@@@@@@@@@@@@@@@@@@@@@@@@@@@@@@@@@@@@@@@@@@@@@@@@@@@@@@@@@@@@@@@@@@@@@@@@@@@@@@@@@@@@@@@@@@@@@@@@@@@@@@@@@@@@@@@@@@@@@@@@@@@@@@@@@@@@@",
"@@@@@@@@@@@@@@@@@@@@@@@@@@@@@@@@@@@@@@@@@@@@@@@@@@@@@@@@@@@@@@@@@@@@@@@@@@@@@@@@@@@@@@@@@@@@@@@@@@@@@@@@@@@@@@@@@@@@@@@@@@@@@@@@@@@@@@@@@@@@@@@@@@@@@@@@@@@@@@@@@@@@@@@@@@@@@@@@@@@@@@@@@@@@@@@@@@@@@@@@@@@@@@@@@@@@@@@@@@@@@@@@@@@@@@@@@@@@@@@@@@@@@@@@@@@@@@@@@@@@@@@@@@@@@@@@@@@@@@@@@@@@@@@@",
"@@@@@@@@@@@@@@@@@@@@@@@@@@@@@@@@@@@@@@@@@@@@@@@@@@@@@@@@@@@@@@@@@@@@@@@@@@@@@@@@@@@@@@@@@@@@@@@@@@@@@@@@@@@@@@@@@@@@@@@@@@@@@@@@@@@@@@@@@@@@@@@@@@@@@@@@@@@@@@@@@@@@@@@@@@@@@@@@@@@@@@@@@@@@@@@@@@@@@@@@@@@@@@@@@@@@@@@@@@@@@@@@@@@@@@@@@@@@@@@@@@@@@@@@@@@@@@@@@@@@@@@@@@@@@@@@@@@@@@@@@@@@@@@@",
"@@@@@@@@@@@@@@@@@@@@@@@@@@@@@@@@@@@@@@@@@@@@@@@@@@@@@@@@@@@@@@@@@@@@@@@@@@@@@@@@@@@@@@@@@@@@@@@@@@@@@@@@@@@@@@@@@@@@@@@@@@@@@@@@@@@@@@@@@@@@@@@@@@@@@@@@@@@@@@@@@@@@@@@@@@@@@@@@@@@@@@@@@@@@@@@@@@@@@@@@@@@@@@@@@@@@@@@@@@@@@@@@@@@@@@@@@@@@@@@@@@@@@@@@@@@@@@@@@@@@@@@@@@@@@@@@@@@@@@@@@@@@@@@@",
"@@@@@@@@@@@@@@@@@@@@@@@@@@@@@@@@@@@@@@@@@@@@@@@@@@@@@@@@@@@@@@@@@@@@@@@@@@@@@@@@@@@@@@@@@@@@@@@@@@@@@@@@@@@@@@@@@@@@@@@@@@@@@@@@@@@@@@@@@@@@@@@@@@@@@@@@@@@@@@@@@@@@@@@@@@@@@@@@@@@@@@@@@@@@@@@@@@@@@@@@@@@@@@@@@@@@@@@@@@@@@@@@@@@@@@@@@@@@@@@@@@@@@@@@@@@@@@@@@@@@@@@@@@@@@@@@@@@@@@@@@@@@@@@@",
"@@@@@@@@@@@@@@@@@@@@@@@@@@@@@@@@@@@@@@@@@@@@@@@@@@@@@@@@@@@@@@@@@@@@@@@@@@@@@@@@@@@@@@@@@@@@@@@@@@@@@@@@@@@@@@@@@@@@@@@@@@@@@@@@@@@@@@@@@@@@@@@@@@@@@@@@@@@@@@@@@@@@@@@@@@@@@@@@@@@@@@@@@@@@@@@@@@@@@@@@@@@@@@@@@@@@@@@@@@@@@@@@@@@@@@@@@@@@@@@@@@@@@@@@@@@@@@@@@@@@@@@@@@@@@@@@@@@@@@@@@@@@@@@@",
"@@@@@@@@@@@@@@@@@@@@@@@@@@@@@@@@@@@@@@@@@@@@@@@@@@@@@@@@@@@@@@@@@@@@@@@@@@@@@@@@@@@@@@@@@@@@@@@@@@@@@@@@@@@@@@@@@@@@@@@@@@@@@@@@@@@@@@@@@@@@@@@@@@@@@@@@@@@@@@@@@@@@@@@@@@@@@@@@@@@@@@@@@@@@@@@@@@@@@@@@@@@@@@@@@@@@@@@@@@@@@@@@@@@@@@@@@@@@@@@@@@@@@@@@@@@@@@@@@@@@@@@@@@@@@@@@@@@@@@@@@@@@@@@@",
"@@@@@@@@@@@@@@@@@@@@@@@@@@@@@@@@@@@@@@@@@@@@@@@@@@@@@@@@@@@@@@@@@@@@@@@@@@@@@@@@@@@@@@@@@@@@@@@@@@@@@@@@@@@@@@@@@@@@@@@@@@@@@@@@@@@@@@@@@@@@@@@@@@@@@@@@@@@@@@@@@@@@@@@@@@@@@@@@@@@@@@@@@@@@@@@@@@@@@@@@@@@@@@@@@@@@@@@@@@@@@@@@@@@@@@@@@@@@@@@@@@@@@@@@@@@@@@@@@@@@@@@@@@@@@@@@@@@@@@@@@@@@@@@@",
"@@@@@@@@@@@@@@@@@@@@@@@@@@@@@@@@@@@@@@@@@@@@@@@@@@@@@@@@@@@@@@@@@@@@@@@@@@@@@@@@@@@@@@@@@@@@@@@@@@@@@@@@@@@@@@@@@@@@@@@@@@@@@@@@@@@@@@@@@@@@@@@@@@@@@@@@@@@@@@@@@@@@@@@@@@@@@@@@@@@@@@@@@@@@@@@@@@@@@@@@@@@@@@@@@@@@@@@@@@@@@@@@@@@@@@@@@@@@@@@@@@@@@@@@@@@@@@@@@@@@@@@@@@@@@@@@@@@@@@@@@@@@@@@@",
"@@@@@@@@@@@@@@@@@@@@@@@@@@@@@@@@@@@@@@@@@@@@@@@@@@@@@@@@@@@@@@@@@@@@@@@@@@@@@@@@@@@@@@@@@@@@@@@@@@@@@@@@@@@@@@@@@@@@@@@@@@@@@@@@@@@@@@@@@@@@@@@@@@@@@@@@@@@@@@@@@@@@@@@@@@@@@@@@@@@@@@@@@@@@@@@@@@@@@@@@@@@@@@@@@@@@@@@@@@@@@@@@@@@@@@@@@@@@@@@@@@@@@@@@@@@@@@@@@@@@@@@@@@@@@@@@@@@@@@@@@@@@@@@@",
"@@@@@@@@@@@@@@@@@@@@@@@@@@@@@@@@@@@@@@@@@@@@@@@@@@@@@@@@@@@@@@@@@@@@@@@@@@@@@@@@@@@@@@@@@@@@@@@@@@@@@@@@@@@@@@@@@@@@@@@@@@@@@@@@@@@@@@@@@@@@@@@@@@@@@@@@@@@@@@@@@@@@@@@@@@@@@@@@@@@@@@@@@@@@@@@@@@@@@@@@@@@@@@@@@@@@@@@@@@@@@@@@@@@@@@@@@@@@@@@@@@@@@@@@@@@@@@@@@@@@@@@@@@@@@@@@@@@@@@@@@@@@@@@@",
"@@@@@@@@@@@@@@@@@@@@@@@@@@@@@@@@@@@@@@@@@@@@@@@@@@@@@@@@@@@@@@@@@@  @@@@@@@@  @@@@@@@@@@@@@@@@@@@@@@@@@@@@@@@@@@@@@@@@@@@@@@@@@@@@@@@@@@@@@@@@@@@@@@@@@@@@@@@@@@@@@@@@@@@@@@@@@@@@@@@@@@@@@@@@@@@@@@@@@@@@@@@@@@@@  @@@@@@@@  @@@@@@@@@@@@@@@@@@@@@@@@@@@@@@@@@@@@@@@@@@@@@@@@@@@@@@@@@@@@@@@@@@",
"@@@@@@@@@@@@@@@@@@  @@@@@@@@  @@@@@@@@@@@@@@@@@@@@@@@@@@@@@@@@@@@@ O @    @ O @@@@@@@@@@@@@@@@@@@@@@@@@@@@@@@@@@@@  @@@@@@@@  @@@@@@@@@@@@@@@@@@@@@@@@@@@@@@@@@@@@  @@@@@@@@  @@@@@@@@@@@@@@@@@@@@@@@@@@@@@@@@@@@@ O @    @ O @@@@@@@@@@@@@@@@@@@@@@@@@@@@@@@@@@@@  @@@@@@@@  @@@@@@@@@@@@@@@@@@",
"@@@@@@@@@@@@@@@@@@ O @    @ O @@@@@@@@@@@@@@@@@@@@@@@@@@@@@@@@@@@@ OO ++++ OO @@@@@@@@@@@@@@@@@@@@@@@@@@@@@@@@@@@@ O @    @ O @@@@@@@@@@@@@@@@@@@@@@@@@@@@@@@@@@@@ O @    @ O @@@@@@@@@@@@@@@@@@@@@@@@@@@@@@@@@@@@ OO ++++ OO @@@@@@@@@@@@@@@@@@@@@@@@@@@@@@@@@@@@ O @    @ O @@@@@@@@@@@@@@@@@@",
"@@@@@@@@@@@@@@@@@@ OO ++++ OO @@@@@@@@@@@@@@@@@@@@@@@@@@@@@@@@@@@@ O.++++++.O @@@@@@@@@@@@@@@@@@@@@@@@@@@@@@@@@@@@ OO ++++ OO @@@@@@@@@@@@@@@@@@@@@@@@@@@@@@@@@@@@ OO ++++ OO @@@@@@@@@@@@@@@@@@@@@@@@@@@@@@@@@@@@ O.++++++.O @@@@@@@@@@@@@@@@@@@@@@@@@@@@@@@@@@@@ OO ++++ OO @@@@@@@@@@@@@@@@@@",
"@@@@@@@@@@@@@@@@@@ O.++++++.O @@@@@@@@@@@@@@@@@@@@@@@@@@@@@@@@@@@@@ .++++++. @@@@@@@@@@@@@@@@@@@@@@@@@@@@@@@@@@@@@ O.++++++.O @@@@@@@@@@@@@@@@@@@@@@@@@@@@@@@@@@@@ O.++++++.O @@@@@@@@@@@@@@@@@@@@@@@@@@@@@@@@@@@@@ .++++++. @@@@@@@@@@@@@@@@@@@@@@@@@@@@@@@@@@@@@ O.++++++.O @@@@@@@@@@@@@@@@@@",
"@@@@@@@@@@@@@@@@@@@ .++++++. @@@@@@@@@@@@@@@@@@@@@@@@@@@@@@@@@@@@@@@ ++++++ @   @@@@@@@@@@@@@@@@@@@@@@@@@@@@@@@@@@@ .++++++. @@@@@@@@@@@@@@@@@@@@@@@@@@@@@@@@@@@@@@ .++++++. @@@@@@@@@@@@@@@@@@@@@@@@@@@@@@@@@@@@@@@ ++++++ @@@@@@@@@@@@@@@@@@@@@@@@@@@@@@@@@@@@@@@ .++++++. @@@@@@@@@@@@@@@@@@@",
"@@@@@@@@@@@@@@@@@@@@ ++++++ @@@@@@@@@@@@@@@@@@@@@@@@@@@@@@@@@@@@@@@@ O++++O  XXX @@@@@@@@@@@@@@@@@@@@@@@@@@@@@@@@@@@ ++++++ @@@@@@@@@@@@@@@@@@@@@@@@@@@@@@@@@@@@@@@@ ++++++ @@@@@@@@@@@@@@@@@@@@@@@@@@@@@@@@@@@@@@@@ O++++O @@@@@@@@@@@@@@@@@@@@@@@@@@@@@@@@@@@@@@@@ ++++++ @@@@@@@@@@@@@@@@@@@@",
"@@@@@@@@@@@@@@@@@@@@ O++++O @@   @@@@@@@@@@@@@@@@@@@@@@@@@@@@@@@@@@ OOOOOOOO XXX @@@@@@@@@@@@@@@@@@@@@@@@@@@@@@@@@@@ O++++O @@   @@@@@@@@@@@@@@@@@@@@@@@@@@@@@@@@@@@ O++++O @@@@@@@@@@@@@@@@@@@@@@@@@@@@@@@@@@@@@@@ OOOOOOOO @@@@@@@@@@@@@@@@@@@@@@@@@@@@@@@@@@@@@@@ O++++O @@@@@@@@@@@@@@@@@@@@",
"@@@@@@@@@@@@@@@@@@@ OOOOOOOO  XXX @@@@@@@@@@@@@@@@@@@@@@@@@@@@@@@@ ++OOOOOO++XXX @@@@@@@@@@@@@@@@@@@@@@@@@@@@@@@@@@ OOOOOOOO  XXX @@@@@@@@@@@@@@@@@@@@@@@@@@@@@@@@@ OOOOOOOO @@@@@@@@@@@@@@@@@@@@@@@@@@@@@@@@@@@@@ ++OOOOOO++ @@@@@@@@@@@@@@@@@@@@@@@@@@@@@@@@@@@@@ OOOOOOOO @@@@@@@@@@@@@@@@@@@",
"@@@@@@@@@@@@@@@@@@ ++OOOOOO++ XXX @@@@@@@@@@@@@@@@@@@@@@@@@@@@@@@ +++++OO++++OXX @@@@@@@@@@@@@@@@@@@@@@@@@@@@@@@@@ ++OOOOOO++ XXX @@@@@@@@@@@@@@@@@@@@@@@@@@@@@@@@ ++OOOOOO++    @@@@@@@@@@@@@@@@@@@@@@@@@@@@@@@@ O++++OO+++++ @@@@@@@@@@@@@@@@@@@@@@@@@@@@@@@@@@@ ++OOOOOO++    @@@@@@@@@@@@@@@",
"@@@@@@@@@@@@@@@@@ +++++OO++++OXXX @@@@@@@@@@@@@@@@@@@@@@@@@@@@@@ O+++++OO+++OO.X @@@@@@@@@@@@@@@@@@@@@@@@@@@@@@@@ +++++OO++++OXXX @@@@@@@@@@@@@@@@@@@@@@@@@@@@@@@ O++++OO+++++XXX @@@@@@@@@@@@@@@@@@@@@@@@@@@@@@@ OO+++OO+++++O  @@@@@@@@@@@@@@@@@@@@@@@@@@@@@@@@ O++++OO+++++XXX @@@@@@@@@@@@@@",
"@@@@@@@@@@@@@@@@ O+++++OO+++OOOXX @@@@@@@@@@@@@@@@@@@@@@@@@@@@@@ OOO++++++++O..X @@@@@@@@@@@@@@@@@@@@@@@@@@@@@@@ O+++++OO+++OOOXX @@@@@@@@@@@@@@@@@@@@@@@@@@@@@@@ OO+++OO+++++OXX @@@@@@@@@@@@@@@@@@@@@@@@@@@@@@ .OO++++++++OOOOX @@@@@@@@@@@@@@@@@@@@@@@@@@@@@@@ OO+++OO+++++OXX @@@@@@@@@@@@@@",
"@@@@@@@@@@@@@@@@ OOO++++++++OOOXX @@@@@@@@@@@@@@@@@@@@@@@@@@@@@ OOOO++++++++O.. @@@@@@@@@@@@@@@@@@@@@@@@@@@@@@@@ OOO++++++++OOOXX @@@@@@@@@@@@@@@@@@@@@@@@@@@@@@ OOO++++++++OOOXX @@@@@@@@@@@@@@@@@@@@@@@@@@@@@@ ..O++++++++OOO++ @@@@@@@@@@@@@@@@@@@@@@@@@@@@@@ OOO++++++++OOOXX @@@@@@@@@@@@@@",
"@@@@@@@@@@@@@@@ OOOO++++++++OO.. @@@@@@@@@@@@@@@@@@@@@@@@@@@@@@ ++OXO++OO++OX.. @@@@@@@@@@@@@@@@@@@@@@@@@@@@@@@ OOOO++++++++OO.. @@@@@@@@@@@@@@@@@@@@@@@@@@@@@@@ OOO++++++++OOOOX @@@@@@@@@@@@@@@@@@@@@@@@@@@@@@ ..XO++OO++OX +X+ @@@@@@@@@@@@@@@@@@@@@@@@@@@@@@ OOO++++++++OOOOX @@@@@@@@@@@@@@",
"@@@@@@@@@@@@@@@ OOOXO++OO++OX... @@@@@@@@@@@@@@@@@@@@@@@@@@@@@@ ++OXXOOOOOOXX.. @@@@@@@@@@@@@@@@@@@@@@@@@@@@@@@ OOOXO++OO++OX... @@@@@@@@@@@@@@@@@@@@@@@@@@@@@@@ .OXO++OO++OXOOO @@@@@@@@@@@@@@@@@@@@@@@@@@@@@@@ ..XXOOOOOOXX XX+ @@@@@@@@@@@@@@@@@@@@@@@@@@@@@@ .OXO++OO++OXOOO @@@@@@@@@@@@@@@",
"@@@@@@@@@@@@@@@ ++OXXOOOOOOXX..O @@@@@@@@@@@@@@@@@@@@@@@@@@@@@@    XXooXoooXX   @@@@@@@@@@@@@@@@@@@@@@@@@@@@@@@ ++OXXOOOOOOXX..O @@@@@@@@@@@@@@@@@@@@@@@@@@@@@@@ ..XXOOOOOOXXOX+ @@@@@@@@@@@@@@@@@@@@@@@@@@@@@@@   XXooXoooXX    @@@@@@@@@@@@@@@@@@@@@@@@@@@@@@@ ..XXOOOOOOXXOX+ @@@@@@@@@@@@@@@",
"@@@@@@@@@@@@@@@ ++ XXooXoooXX XO @@@@@@@@@@@@@@@@@@@@@@@@@@@@@@@@@ .XooooooOO @@@@@@@@@@@@@@@@@@@@@@@@@@@@@@@@@ ++ XXooXoooXX XO @@@@@@@@@@@@@@@@@@@@@@@@@@@@@@@ ..XXooXoooXX X+ @@@@@@@@@@@@@@@@@@@@@@@@@@@@@@@@@ OOooooooX. @@@@@@@@@@@@@@@@@@@@@@@@@@@@@@@@@@ ..XXooXoooXX X+ @@@@@@@@@@@@@@@",
"@@@@@@@@@@@@@@@    OXooooooXO    @@@@@@@@@@@@@@@@@@@@@@@@@@@@@@@@@ ..ooXooO+++ @@@@@@@@@@@@@@@@@@@@@@@@@@@@@@@@    OXooooooXO    @@@@@@@@@@@@@@@@@@@@@@@@@@@@@@@   OXooooooXO    @@@@@@@@@@@@@@@@@@@@@@@@@@@@@@@@ +++OoXooo.. @@@@@@@@@@@@@@@@@@@@@@@@@@@@@@@@@@   OXooooooXO    @@@@@@@@@@@@@@@",
"@@@@@@@@@@@@@@@@@@ OOooXoooOO @@@@@@@@@@@@@@@@@@@@@@@@@@@@@@@@@@@@@ .ooXooO+++ @@@@@@@@@@@@@@@@@@@@@@@@@@@@@@@@@@@ OOooXoooOO @@@@@@@@@@@@@@@@@@@@@@@@@@@@@@@@@@@@ OOooXoooOO @@@@@@@@@@@@@@@@@@@@@@@@@@@@@@@@@@@ +++OoXooo. @@@@@@@@@@@@@@@@@@@@@@@@@@@@@@@@@@@@@ OOooXoooOO @@@@@@@@@@@@@@@@@@",
"@@@@@@@@@@@@@@@@@@ ..ooXooo++ @@@@@@@@@@@@@@@@@@@@@@@@@@@@@@@@@@@@@ ...    +++ @@@@@@@@@@@@@@@@@@@@@@@@@@@@@@@@@@@ OOooXoooOO @@@@@@@@@@@@@@@@@@@@@@@@@@@@@@@@@@@@ ++ooXooo.. @@@@@@@@@@@@@@@@@@@@@@@@@@@@@@@@@@@ +++    ... @@@@@@@@@@@@@@@@@@@@@@@@@@@@@@@@@@@@@ OOooXoooOO @@@@@@@@@@@@@@@@@@",
"@@@@@@@@@@@@@@@@@@@ ..    +++ @@@@@@@@@@@@@@@@@@@@@@@@@@@@@@@@@@@@@@..@@@@ +++ @@@@@@@@@@@@@@@@@@@@@@@@@@@@@@@@@@@ OOO    OOO @@@@@@@@@@@@@@@@@@@@@@@@@@@@@@@@@@@@ +++    .. @@@@@@@@@@@@@@@@@@@@@@@@@@@@@@@@@@@@ +++ @@@@..@@@@@@@@@@@@@@@@@@@@@@@@@@@@@@@@@@@@@@ OOO    OOO @@@@@@@@@@@@@@@@@@",
"@@@@@@@@@@@@@@@@@@@@  @@@ +++ @@@@@@@@@@@@@@@@@@@@@@@@@@@@@@@@@@@@@@@@@@@@@    @@@@@@@@@@@@@@@@@@@@@@@@@@@@@@@@@@@ OOO @@@   @@@@@@@@@@@@@@@@@@@@@@@@@@@@@@@@@@@@@ +++ @@@  @@@@@@@@@@@@@@@@@@@@@@@@@@@@@@@@@@@@@    @@@@@@@@@@@@@@@@@@@@@@@@@@@@@@@@@@@@@@@@@@@@@@   @@@ OOO @@@@@@@@@@@@@@@@@@",
"@@@@@@@@@@@@@@@@@@@@@@@@@ +++ @@@@@@@@@@@@@@@@@@@@@@@@@@@@@@@@@@@@@@@@@@@@@@@@@@@@@@@@@@@@@@@@@@@@@@@@@@@@@@@@@@@@@OO@@@@@@@@@@@@@@@@@@@@@@@@@@@@@@@@@@@@@@@@@@@@@ +++ @@@@@@@@@@@@@@@@@@@@@@@@@@@@@@@@@@@@@@@@@@@@@@@@@@@@@@@@@@@@@@@@@@@@@@@@@@@@@@@@@@@@@@@@@@@@@@@@@@@@OO@@@@@@@@@@@@@@@@@@@",
"@@@@@@@@@@@@@@@@@@@@@@@@@@@++@@@@@@@@@@@@@@@@@@@@@@@@@@@@@@@@@@@@@@@@@@@@@@@@@@@@@@@@@@@@@@@@@@@@@@@@@@@@@@@@@@@@@@@@@@@@@@@@@@@@@@@@@@@@@@@@@@@@@@@@@@@@@@@@@@@@@@++@@@@@@@@@@@@@@@@@@@@@@@@@@@@@@@@@@@@@@@@@@@@@@@@@@@@@@@@@@@@@@@@@@@@@@@@@@@@@@@@@@@@@@@@@@@@@@@@@@@@@@@@@@@@@@@@@@@@@@@@@@@",
"@@@@@@@@@@@@@@@@@@@@@@@@@@@@@@@@@@@@@@@@@@@@@@@@@@@@@@@@@@@@@@@@@@@@@@@@@@@@@@@@@@@@@@@@@@@@@@@@@@@@@@@@@@@@@@@@@@@@@@@@@@@@@@@@@@@@@@@@@@@@@@@@@@@@@@@@@@@@@@@@@@@@@@@@@@@@@@@@@@@@@@@@@@@@@@@@@@@@@@@@@@@@@@@@@@@@@@@@@@@@@@@@@@@@@@@@@@@@@@@@@@@@@@@@@@@@@@@@@@@@@@@@@@@@@@@@@@@@@@@@@@@@@@@@",
"@@@@@@@@@@@@@@@@@@@@@@@@@@@@@@@@@@@@@@@@@@@@@@@@@@@@@@@@@@@@@@@@@@@@@@@@@@@@@@@@@@@@@@@@@@@@@@@@@@@@@@@@@@@@@@@@@@@@@@@@@@@@@@@@@@@@@@@@@@@@@@@@@@@@@@@@@@@@@@@@@@@@@@@@@@@@@@@@@@@@@@@@@@@@@@@@@@@@@@@@@@@@@@@@@@@@@@@@@@@@@@@@@@@@@@@@@@@@@@@@@@@@@@@@@@@@@@@@@@@@@@@@@@@@@@@@@@@@@@@@@@@@@@@@",
"@@@@@@@@@@@@@@@@@@@@@@@@@@@@@@@@@@@@@@@@@@@@@@@@@@@@@@@@@@@@@@@@@@@@@@@@@@@@@@@@@@@@@@@@@@@@@@@@@@@@@@@@@@@@@@@@@@@@@@@@@@@@@@@@@@@@@@@@@@@@@@@@@@@@@@@@@@@@@@@@@@@@@@@@@@@@@@@@@@@@@@@@@@@@@@@@@@@@@@@@@@@@@@@@@@@@@@@@@@@@@@@@@@@@@@@@@@@@@@@@@@@@@@@@@@@@@@@@@@@@@@@@@@@@@@@@@@@@@@@@@@@@@@@@",
"@@@@@@@@@@@@@@@@@@@@@@@@@@@@@@@@@@@@@@@@@@@@@@@@@@@@@@@@@@@@@@@@@@@@@@@@@@@@@@@@@@@@@@@@@@@@@@@@@@@@@@@@@@@@@@@@@@@@@@@@@@@@@@@@@@@@@@@@@@@@@@@@@@@@@@@@@@@@@@@@@@@@@@@@@@@@@@@@@@@@@@@@@@@@@@@@@@@@@@@@@@@@@@@@@@@@@@@@@@@@@@@@@@@@@@@@@@@@@@@@@@@@@@@@@@@@@@@@@@@@@@@@@@@@@@@@@@@@@@@@@@@@@@@@",
"@@@@@@@@@@@@@@@@@@@@@@@@@@@@@@@@@@@@@@@@@@@@@@@@@@@@@@@@@@@@@@@@@@@@@@@@@@@@@@@@@@@@@@@@@@@@@@@@@@@@@@@@@@@@@@@@@@@@@@@@@@@@@@@@@@@@@@@@@@@@@@@@@@@@@@@@@@@@@@@@@@@@@@@@@@@@@@@@@@@@@@@@@@@@@@@@@@@@@@@@@@@@@@@@@@@@@@@@@@@@@@@@@@@@@@@@@@@@@@@@@@@@@@@@@@@@@@@@@@@@@@@@@@@@@@@@@@@@@@@@@@@@@@@@",
"@@@@@@@@@@@@@@@@@@@@@@@@@@@@@@@@@@@@@@@@@@@@@@@@@@@@@@@@@@@@@@@@@@@@@@@@@@@@@@@@@@@@@@@@@@@@@@@@@@@@@@@@@@@@@@@@@@@@@@@@@@@@@@@@@@@@@@@@@@@@@@@@@@@@@@@@@@@@@@@@@@@@@@@@@@@@@@@@@@@@@@@@@@@@@@@@@@@@@@@@@@@@@@@@@@@@@@@@@@@@@@@@@@@@@@@@@@@@@@@@@@@@@@@@@@@@@@@@@@@@@@@@@@@@@@@@@@@@@@@@@@@@@@@@",
"@@@@@@@@@@@@@@@@@@@@@@@@@@@@@@@@@@@@@@@@@@@@@@@@@@@@@@@@@@@@@@@@@@@@@@@@@@@@@@@@@@@@@@@@@@@@@@@@@@@@@@@@@@@@@@@@@@@@@@@@@@@@@@@@@@@@@@@@@@@@@@@@@@@@@@@@@@@@@@@@@@@@@@@@@@@@@@@@@@@@@@@@@@@@@@@@@@@@@@@@@@@@@@@@@@@@@@@@@@@@@@@@@@@@@@@@@@@@@@@@@@@@@@@@@@@@@@@@@@@@@@@@@@@@@@@@@@@@@@@@@@@@@@@@",
"@@@@@@@@@@@@@@@@@@@@@@@@@@@@@@@@@@@@@@@@@@@@@@@@@@@@@@@@@@@@@@@@@@@@@@@@@@@@@@@@@@@@@@@@@@@@@@@@@@@@@@@@@@@@@@@@@@@@@@@@@@@@@@@@@@@@@@@@@@@@@@@@@@@@@@@@@@@@@@@@@@@@@@@@@@@@@@@@@@@@@@@@@@@@@@@@@@@@@@@@@@@@@@@@@@@@@@@@@@@@@@@@@@@@@@@@@@@@@@@@@@@@@@@@@@@@@@@@@@@@@@@@@@@@@@@@@@@@@@@@@@@@@@@@",
"@@@@@@@@@@@@@@@@@@@@@@@@@@@@@@@@@@@@@@@@@@@@@@@@@@@@@@@@@@@@@@@@@@@@@@@@@@@@@@@@@@@@@@@@@@@@@@@@@@@@@@@@@@@@@@@@@@@@@@@@@@@@@@@@@@@@@@@@@@@@@@@@@@@@@@@@@@@@@@@@@@@@@@@@@@@@@@@@@@@@@@@@@@@@@@@@@@@@@@@@@@@@@@@@@@@@@@@@@@@@@@@@@@@@@@@@@@@@@@@@@@@@@@@@@@@@@@@@@@@@@@@@@@@@@@@@@@@@@@@@@@@@@@@@",
"@@@@@@@@@@@@@@@@@@@@@@@@@@@@@@@@@@@@@@@@@@@@@@@@@@@@@@@@@@@@@@@@@@@@@@@@@@@@@@@@@@@@@@@@@@@@@@@@@@@@@@@@@@@@@@@@@@@@@@@@@@@@@@@@@@@@@@@@@@@@@@@@@@@@@@@@@@@@@@@@@@@@@@@@@@@@@@@@@@@@@@@@@@@@@@@@@@@@@@@@@@@@@@@@@@@@@@@@@@@@@@@@@@@@@@@@@@@@@@@@@@@@@@@@@@@@@@@@@@@@@@@@@@@@@@@@@@@@@@@@@@@@@@@@"
};
