/* XPM */
static char *hurt[] = {
/* columns rows colors chars-per-pixel */
"96 48 9 1 ",
"  c #25131A",
". c #3D253B",
"X c #523B40",
"o c #56587B",
"O c #D01946",
"+ c #895A45",
"@ c #5880CC",
"# c #62ABD4",
"$ c None",
/* pixels */
"$$$$$$$$$$$$$$$$$$$$$$$$$$$$$$$$$$$$$$$$$$$$$$$$$$$$$$$$$$$$$$$$$$$$$$$$$$$$$$$$$$$$$$$$$$$$$$$$",
"$$$$$$$$$$$$$$$$$$$$$$$$$$$$$$$$$$$$$$$$$$$$$$$$$$$$$$$$$$$$$$$$$$$$$$$$$$$$$$$$$$$$$$$$$$$$$$$$",
"$$$$$$$$$$$$$$$$$$$$$$$$$$$$$$$$$$$$$$$$$$$$$$$$$$$$$$$$$$$$$$$$$$$$$$$$$$$$$$$$$$$$$$$$$$$$$$$$",
"$$$$$$$$$$$$   $$$$$$$$$$$$$$$$$$$$$$$$$$$$$$$$$$$$$$$$$$$    $$$$$$$$$$$$$$$$$$$$$$$$$$$$$$$$$$",
"$$$$$$$$$$$ ++ $$$$$$$$$$$$$$$$$$$$$$$$$$$$$$$$$$$$$$$$$$ OOO $$$$$$$$$$$$$$$$$$$$$$$$$$$$$$$$$$",
"$$$$$$$$$$ ++ $$$$$$$$$$$$$$$$$$$$$$$$$$$$$$$$$$$$$$$$$$$ OO  $$$$$$$$$$$$$$$$$$$$$$$$$$$$$$$$$$",
"$$$$$$$$$$ ++  $$$$$$$$$$$$$$$$$$$$$$$$$$$$$$$$$$$$$$$$$$ OOOO $$$$$$$$$$$$$$$$$$$$$$$$$$$$$$$$$",
"$$$$$$$$$$ +++X $$$$$$$$$$$$$$$$$$$$$$$$$$$$$$$$$$$$$$$$$ OOOOO $$$$$$$$$$$$$$$$$$$$$$$$$$$$$$$$",
"$$$$$$$$$ X++++X $$$$$$$$$$$$$$$$$$$$$$$$$$$$$$$$$$$$$$$ OOOOOOO $$$$$$$$$$$$$$$$$$$$$$$$$$$$$$$",
"$$$$$$$$$ X+++++X $$$$$$$$$$$$$$$$$$$$$$$$$$$$$$$$$$$$$$ OOOOOOOO $$$$$$$$$$$$$$$$$$$$$$$$$$$$$$",
"$$$$$$$$$ +X++++X+ $$$$$$$$$$$$$$$$$$$$$$$$$$$$$$$$$$$$$ O OOOOOO $$$$$$$$$$$$$$$$$$$$$$$$$$$$$$",
"$$$$$$$$$ + X+++X+ $$$$$$$$$$$$$$$$$$$$$$$$$$$$$$$$$$$$$ O OOOOOO $$$$$$$$$$$$$$$$$$$$$$$$$$$$$$",
"$$$$$$$$$ +++o@@@X $$$$$$$$$$$$$$$$$$$$$$$$$$$$$$$$$$$$$ OOOOOOOO $$$$$$$$$$$$$$$$$$$$$$$$$$$$$$",
"$$$$$$$$$$ ++@@@@X $$$$$$$$$$$$$$$$$$$$$$$$$$$$$$$$$$$$$$  OOOOO $$$$$$$$$$$$$$$$$$$$$$$$$$$$$$$",
"$$$$$$$$$$$ X@@@@ $$$$$$$$$$$$$$$$$$$$$$$$$$$$$$$$$$$$$$$$$ OOOO $$$$$$$$$$$$$$$$$$$$$$$$$$$$$$$",
"$$$$$$$$$$$$ @@@@ $$$$$$$$$$$$$$$$$$$$$$$$$$$$$$$$$$$$$$$   OOOO  $$$$$$$$$$$$$$$$$$$$$$$$$$$$$$",
"$$$$$$$$$$   @@@@  $$$$$$$$$$$$$$$$$$$$$$$$$$$$$$$$$$$$$ OOOOOOOOO $$$$$$$$$$$$$$$$$$$$$$$$$$$$$",
"$$$$$$$$$ +++@@@@XX $$$$$$$$$$$$$$$$$$$$$$$$$$$$$$$$$$$$ OOOOOOOOOO $$$$$$$$$$$$$$$$$$$$$$$$$$$$",
"$$$$$$$$ ++++o@@oXXX $$$$$$$$$$$$$$$$$$$$$$$$$$$$$$$$$$ OOOOOOOOOOO $$$$$$$$$$$$$$$$$$$$$$$$$$$$",
"$$$$$$$$ ++++X+++++X $$$$$$$$$$$$$$$$$$$$$$$$$$$$$$$$$$ OOOOOOOOOOO $$$$$$$$$$$$$$$$$$$$$$$$$$$$",
"$$$$$$$ @@+++++++++X    $$$$$$$$$$$$$$$$$$$$$$$$$$$$$$ OOOOOOOOOOOO    $$$$$$$$$$$$$$$$$$$$$$$$$",
"$$$$$$$ @@o++++++++X XXX $$$$$$$$$$$$$$$$$$$$$$$$$$$$$ OO  OOOOOOO  OOO $$$$$$$$$$$$$$$$$$$$$$$$",
"$$$$$$ ++@  X++++++ X...X $$$$$$$$$$$$$$$$$$$$$$$$$$$ OOO  OOOOOOO OOOOO $$$$$$$$$$$$$$$$$$$$$$$",
"$$$$$$ ++ $ X+++++XX.....X $$$$$$$$$$$$$$$$$$$$$$$$$$ OO $ OOOOOOOOOOOOOO $$$$$$$$$$$$$$$$$$$$$$",
"$$$$$ @++ $ XX+++XX.....XXX $$$$$$$$$$$$$$$$$$$$$$$$ OOO  OOOOOOOOOOOOOOOO $$$$$$$$$$$$$$$$$$$$$",
"$$$$$ @@ $ XX+++++oo...XXXX $$$$$$$$$$$$$$$$$$$$$$   OO     OOOOOOOOOOOOOO $$$$$$$$$$$$$$$$$$$$$",
"$$$  @@@            o.XXXX. $$$$$$$$$$$$$$$$$$$$$$ OOOOOOOOO       OOOOOOO $$$$$$$$$$$$$$$$$$$$$",
"$$$ +@@+########### oXXXX. $$$$$$$$$$$$$$$$$$$$$$$ OOOOOOOOOOOOOOO OOOOOO $$$$$$$$$$$$$$$$$$$$$$",
"$$$ +@@+########### oXXX. $$$$$$$$$$$$$$$$$$$$$$$$$      OOOOOOOOO OOOOO $$$$$$$$$$$$$$$$$$$$$$$",
"$$$$       ####### oXXX. $$$$$$$$$$$$$$$$$$$$$$$$$$$$$$$$   OOOOO OOOOO $$$$$$$$$$$$$$$$$$$$$$$$",
"$$$$$$$$$$$       @@oX. $$$$$$$$$$$$$$$$$$$$$$$$$$$$$$$$$$$      OOOOO $$$$$$$$$$$$$$$$$$$$$$$$$",
"$$$$$$$$$$$$ o@@@@@@@  $$$$$$$$$$$$$$$$$$$$$$$$$$$$$$$$$$$$$ OOOOOOOO $$$$$$$$$$$$$$$$$$$$$$$$$$",
"$$$$$$$$$$$$$  @@@@@@o $$$$$$$$$$$$$$$$$$$$$$$$$$$$$$$$$$$$$$ OOOOOOO $$$$$$$$$$$$$$$$$$$$$$$$$$",
"$$$$$$$$$$$$$$$ @@@@@o $$$$$$$$$$$$$$$$$$$$$$$$$$$$$$$$$$$$$$$ OOOOOO $$$$$$$$$$$$$$$$$$$$$$$$$$",
"$$$$$$$$$$$$$$$$ @@@oo $$$$$$$$$$$$$$$$$$$$$$$$$$$$$$$$$$$$$$$$ OOOOO $$$$$$$$$$$$$$$$$$$$$$$$$$",
"$$$$$$$$$$$$$$$$ oo@@o $$$$$$$$$$$$$$$$$$$$$$$$$$$$$$$$$$$$$$$$ OOOOO $$$$$$$$$$$$$$$$$$$$$$$$$$",
"$$$$$$$$$$$$$$$$ o@@@o $$$$$$$$$$$$$$$$$$$$$$$$$$$$$$$$$$$$$$$$ OOOOO $$$$$$$$$$$$$$$$$$$$$$$$$$",
"$$$$$$$$$$$$$$$$ o@@@ $$$$$$$$$$$$$$$$$$$$$$$$$$$$$$$$$$$$$$$$$ OOOO $$$$$$$$$$$$$$$$$$$$$$$$$$$",
"$$$$$$  $$$$$$$$ o@@o $$$$$$$$$$$$$$$$$$$$$$$$$$$$$$$$$$$$$$$$$ OOOO $$$$$$$$$$$$$$$$$$$$$$$$$$$",
"$$$$$$ @     $$ ++oo $$$$$$$$$$$$$$$$$$$$$$$$$$$$$$$$$$$$$$$$$$ OOO $$$$$$$$$$$$$$$$$$$$$$$$$$$$",
"$$$$$$ @@@@@o  ++++ $$$$$$$$$$$$$$$$$$$$$$$$$$$$$$$$$$$$$$$$$$ OOOO $$$$$$$$$$$$$$$$$$$$$$$$$$$$",
"$$$$$   o@@@@@@+++ $$$$$$$$$$$$$$$$$$$$$$$$$$$$$$$$$$$$$$$$   OOOO $$$$$$$$$$$$$$$$$$$$$$$$$$$$$",
"$$$$$ @@@@@@@@@o  $$$$$$$$$$$$$$$$$$$$$$$$$$$$$$$$$$$$     OOOOOO $$$$$$$$$$$$$$$$$$$$$$$$$$$$$$",
"$$$$$$    @@@@  $$$$$$$$$$$$$$$$$$$$$$$$$$$$$$$$$$$$$$ OOOOOOOOO $$$$$$$$$$$$$$$$$$$$$$$$$$$$$$$",
"$$$$$$$$$$    $$$$$$$$$$$$$$$$$$$$$$$$$$$$$$$$$$$$$$$$$  OOOOOO $$$$$$$$$$$$$$$$$$$$$$$$$$$$$$$$",
"$$$$$$$$$$$$$$$$$$$$$$$$$$$$$$$$$$$$$$$$$$$$$$$$$$$$$$$ OOOOO  $$$$$$$$$$$$$$$$$$$$$$$$$$$$$$$$$",
"$$$$$$$$$$$$$$$$$$$$$$$$$$$$$$$$$$$$$$$$$$$$$$$$$$$$$$$      $$$$$$$$$$$$$$$$$$$$$$$$$$$$$$$$$$$",
"$$$$$$$$$$$$$$$$$$$$$$$$$$$$$$$$$$$$$$$$$$$$$$$$$$$$$$$$$$$$$$$$$$$$$$$$$$$$$$$$$$$$$$$$$$$$$$$$"
};
