/* XPM */
static char *D_Idle[] = {
/* columns rows colors chars-per-pixel */
"240 16 6 1 ",
"  c black",
". c #E64539",
"X c #AD2F45",
"o c #FF8933",
"O c #FFC2A1",
"+ c None",
/* pixels */
"++++++++++++++++++++++++++++++++++++++++++++++++++++++++++++++++++++++++++++++++++++++++++++++++++++++++++++++++++++++++++++++++++++++++++++++++++++++++++++++++++++++++++++++++++++++++++++++++++++++++++++++++++++++++++++++++++++++++++++++++",
"++++        +++++++++       +++++++++      +++++++++++     +++++++++++    ++++++++++++   +++++++++++++   +++++++++++++   +++++++++++++   +++++++++++++   +++++++++++++    ++++++++++++     ++++++++++      ++++++++++       +++++++++       ++++",
"+++ OOOOOOOO +++++++ OOOOOOO +++++++ ..OOOO +++++++++ ..OOO +++++++++ ...O ++++++++++ ..O +++++++++++ ..O +++++++++++ OOO +++++++++++ O.. +++++++++++ O.. +++++++++++ O... ++++++++++ OOO.. ++++++++ OOOO.. ++++++++ OOOOOO. +++++++ OOOOOOO +++",
"++ .ooooooooO +++++ .oooooooO +++++ ..oooooO +++++++ ..ooooO +++++++ ...ooO ++++++++ ...oO ++++++++++ ..o +++++++++++ ooo +++++++++++ o.. ++++++++++ OoO.. +++++++++ OoO... ++++++++ ooooO.. ++++++ oooooO.. ++++++ oooooooO. +++++ .oooooooO ++",
"+ .ooOOOOOOooO +++ .ooOOOOOooO +++ ..ooOOOooO +++++ ..ooOOooO +++++ ...ooOoo ++++++ ...oOoo ++++++++ ...oO ++++++++++ ... ++++++++++ Oo... ++++++++ OoOoO.. +++++++ OoOoO... ++++++ ooOOooO.. ++++ ooOOOooO.. ++++ ooOOOOOooO. +++ .ooOOOOOooO +",
"+ .oXooooooOoO +++ .oXoooooOoO +++ ..oXoooOoO +++++ ..oXooOoO +++++ ...oXoOo ++++++ ...oXOo ++++++++ ...oX ++++++++++ ooo ++++++++++ Xo... ++++++++ oXOoO.. +++++++ oXoOO... ++++++ oXooOoO.. ++++ oXoooOoO.. ++++ oXoooooOoO. +++ .oXoooooOoO +",
"+ .oXooooooOoO +++ .oXoooooOoO +++ ..oXoooOoO +++++ ..oXooOoO +++++ ...oXoOo ++++++ ...oXOo ++++++++ ...oX ++++++++++ ooo ++++++++++ Xo... ++++++++ oXOoO.. +++++++ oXoOO... ++++++ oXooOoO.. ++++ oXoooOoO.. ++++ oXoooooOoO. +++ .oXoooooOoO +",
"+ .oXooooooOoO +++ .oXoooooOoO +++ ..oXoooOoO +++++ ..oXooOoO +++++ ...oXoOo ++++++ ...oXOo ++++++++ ...oX ++++++++++ ... ++++++++++ Xo... ++++++++ oXOoO.. +++++++ oXoOO... ++++++ oXooOoO.. ++++ oXoooOoO.. ++++ oXoooooOoO. +++ .oXoooooOoO +",
"+ .oXooooooOoO +++ .oXoooooOoO +++ ..oXoooOoO +++++ ..oXooOoO +++++ ...oXoOo ++++++ ...oXOo ++++++++ ...oX ++++++++++ ... ++++++++++ Xo... ++++++++ oXOoO.. +++++++ oXoOO... ++++++ oXooOoO.. ++++ oXoooOoO.. ++++ oXoooooOoO. +++ .oXoooooOoO +",
"+ .oXooooooOoO +++ .oXoooooOoO +++ ..oXoooOoO +++++ ..oXooOoO +++++ ...oXoOo ++++++ ...oXOo ++++++++ ...oX ++++++++++ ... ++++++++++ Xo... ++++++++ oXOoO.. +++++++ oXoOO... ++++++ oXooOoO.. ++++ oXoooOoO.. ++++ oXoooooOoO. +++ .oXoooooOoO +",
"+ .oXooooooOoO +++ .oXoooooOoO +++ ..oXoooOoO +++++ ..oXooOoO +++++ ...oXoOo ++++++ ...oXOo ++++++++ ...oX ++++++++++ ... ++++++++++ Xo... ++++++++ oXOoO.. +++++++ oXoOO... ++++++ oXooOoO.. ++++ oXoooOoO.. ++++ oXoooooOoO. +++ .oXoooooOoO +",
"+ .ooXXXXXXooO +++ .ooXXXXXooO +++ ..ooXXXooO +++++ ..ooXXooO +++++ ...ooXoo ++++++ ...oXoo ++++++++ ...oX ++++++++++ ... ++++++++++ Xo... ++++++++ ooXoO.. +++++++ ooXoO... ++++++ ooXXooO.. ++++ ooXXXooO.. ++++ ooXXXXXooO. +++ .ooXXXXXooO +",
"++ .ooooooooO +++++ .oooooooO +++++ ..oooooO +++++++ ..ooooO +++++++ ...ooo ++++++++ ...oo ++++++++++ ... +++++++++++ ... +++++++++++ ... ++++++++++ ooo.. +++++++++ ooo... ++++++++ ooooO.. ++++++ oooooO.. ++++++ oooooooO. +++++ .oooooooO ++",
"+++ ........ +++++++ ....... +++++++ ...... +++++++++ ..... +++++++++ .... ++++++++++ ... +++++++++++ ... +++++++++++ ... +++++++++++ ... +++++++++++ ... +++++++++++ .... ++++++++++ ooo.. ++++++++ ...... ++++++++ ....... +++++++ ....... +++",
"++++        +++++++++       +++++++++      +++++++++++     +++++++++++    ++++++++++++   +++++++++++++   +++++++++++++   +++++++++++++   +++++++++++++   +++++++++++++    ++++++++++++     ++++++++++      ++++++++++       +++++++++       ++++",
"++++++++++++++++++++++++++++++++++++++++++++++++++++++++++++++++++++++++++++++++++++++++++++++++++++++++++++++++++++++++++++++++++++++++++++++++++++++++++++++++++++++++++++++++++++++++++++++++++++++++++++++++++++++++++++++++++++++++++++++++"
};
