/* XPM */
static char *exit[] = {
/* columns rows colors chars-per-pixel */
"128 64 28 1 ",
"  c #141319",
". c #250B1B",
"X c #23232A",
"o c #3A2B2A",
"O c #481A2C",
"+ c #5B2132",
"@ c #433331",
"# c #4B3830",
"$ c #483836",
"% c #7C303D",
"& c #5D483D",
"* c #34364A",
"= c #414760",
"- c #515E78",
"; c #9C312A",
": c #82573F",
"> c #B14332",
", c #AB693D",
"< c #CA5A3B",
"1 c #A54748",
"2 c #C07F40",
"3 c #D89D47",
"4 c #EDB84A",
"5 c #F6D954",
"6 c #607590",
"7 c #667F9A",
"8 c #74A0B8",
"9 c None",
/* pixels */
"99999999999999999999999999999999999999999999999999999999999999999999999999999999999999999999999999999999999999999999999999999999",
"99999999999999999999999999999999999999999999999999999999999999999999999999999999999999999999999999999999999999999999999999999999",
"99999999999999999999999999999999999999999999999999999999999999999999999999999999999999999999999999999999999999999999999999999999",
"99999999999999999999999999999999999999999999999999999999999999999999999999999999999999999999999999999999999999999999999999999999",
"999999999999999999999999999999    999999999999999999999999999999999999999999999999999999999999    999999999999999999999999999999",
"9999999999999999999999999999  ----  99999999999999999999999999999999999999999999999999999999  ----  9999999999999999999999999999",
"999999999999999999999999999 =-7777-= 999999999999999999999999999999999999999999999999999999 =-7777-= 999999999999999999999999999",
"99999999999999999999999999 =-778877-= 9999999999999999999999999999999999999999999999999999 =-778877-= 99999999999999999999999999",
"9999999999999999999999999 *=-788887-=* 99999999999999999999999999999999999999999999999999 *=-788887-=* 9999999999999999999999999",
"9999999999999999999999  9 ==-778877-== 9  99999999999999999999999999999999999999999999  9 ==-778877-== 9  9999999999999999999999",
"999999999999999999999 78 *==--7777--==* 87 999999999999999999999999999999999999999999 78 *==--7777--==* 87 999999999999999999999",
"999999999999999999999 -7 *  =--77--=  * 7- 999999999999999999999999999999999999999999 -7 *  =--77--=  * 7- 999999999999999999999",
"9999999999999   99999 =7 * ; =----= ; * 7= 99999   99999999999999999999999999   99999 =7 * ; =----= ; * 7= 99999   9999999999999",
"999999999999 788 9999 =7 * >; =--= ;> * 7= 9999 887 999999999999999999999999 788 9999 =7 * >; =--= ;> * 7= 9999 887 999999999999",
"999999999999 8877 999 =- ** >; == ;> ** -= 999 7788 999999999999999999999999 8877 999 =- ** >; == ;> ** -= 999 7788 999999999999",
"99999999999 7887X%..99 -7 * <> == >< * 7- 99..%X7887 9999999999999999999999 7887X%..99 -7 * <> == >< * 7- 99..%X7887 99999999999",
"99999999999 -78-X%%1.. =7 *=   --   =* 7= ..1%%X-87- 9999999999999999999999 -78-X%%1.. =7 *=   --   =* 7= ..1%%X-87- 99999999999",
"99999999999 -78XO++%%+ =- **==-77-==** -= +%%++OX87- 9999999999999999999999 -78XO++%%+ =- **==-77-==** -= +%%++OX87- 99999999999",
"99999999999 --7X..O++O =-7 **==--==** 7-= O++O..X7-- 9999999999999999999999 --7X..O++O =-7 **==--==** 7-= O++O..X7-- 99999999999",
"99999999999 =-7 99..OOO --    *==*    -- OOO..99 7-= 9999999999999999999999 =-7 99..OOO --    *==*    -- OOO..99 7-= 99999999999",
"99999999999 =-7 9999.   =- - - ** - - -=   .9999 7-= 9999999999999999999999 =-7 9999.   =- - - ** - - -=   .9999 7-= 99999999999",
"99999999999 =-7 9999 -7 =- = -    - = -= 7- 9999 7-= 9999999999999999999999 =-7 9999 -7 =- = -    - = -= 7- 9999 7-= 99999999999",
"99999999999 =-- 999 =--  =-  = ,, =  -=  --= 999 --= 9999999999999999999999 =-- 999 =--  =-  = ,, =  -=  --= 999 --= 99999999999",
"99999999999 ==- 999 ==-  *= ,  ,,  , =*  -== 999 -== 9999999999999999999999 ==- 999 ==-  *= ,  ,,  , =*  -== 999 -== 99999999999",
"9999999     *=- 999 *=- , = ,, ,, ,, = , -=* 999 -=*     99999999999999     *=- 999 *=- , = ,, ,, ,, = , -=* 999 -=*     9999999",
"999999 7887 *=-7 9 * ==-  * ,22222,, *  -== * 9 7-=* 7887 999999999999 7887 *=-7 9 * ==-  * ,22222,, *  -== * 9 7-=* 7887 999999",
"99999 -887X+ *=- 9 * *== , = 222222 = , ==* * 9 -=* +X788- 9999999999 -887X+ *=- 9 * *== , = 222222 = , ==* * 9 -=* +X788- 99999",
"9999 -787-X%+ =-7 =** *= , * 222222 * , =* **= 7-= +%X-787- 99999999 -787-X%+ =-7 =** *= , * 222222 * , =* **= 7-= +%X-787- 9999",
"9999 -786X1%+ *=-7 * , == , = 2332 = 2 == , * 7-=* +%1X687- 99999999 -786X1%+ *=-7 * , == , = 2332 = 2 == , * 7-=* +%1X687- 9999",
"999 =--86X1%+O *=-7  ,, = 22  3333  22 = ,,  7-=* O+%1X68--= 999999 =--86X1%+O *=-7  ,, = 22  3333  22 = ,,  7-=* O+%1X68--= 999",
"999 ==-78X%+O+O *=-7 ,,,  223 3333 222  ,,, 7-=* O+O+%X87-== 999999 ==-78X%+O+O *=-7 ,,,  223 3333 222  ,,, 7-=* O+O+%X87-== 999",
"999 *=-78X+..OOO *=-7 ,,22 333 44 332 22,, 7-=* OOO..+X87-=* 999999 *=-78X+..OOO *=-7 ,,22 333 44 332 22,, 7-=* OOO..+X87-=* 999",
"999 *=--7 .99.O -  ==-  2223334444433222  -==  - O.99. 7--=* 999999 *=--7 .99.O -  ==-  2223334444433222  -==  - O.99. 7--=* 999",
"9999 ==-7 9999. -7-  =-- 23334455443322 --=  -7- .9999 7-== 99999999 ==-7 9999. -7-  =-- 23334455443322 --=  -7- .9999 7-== 9999",
"9999 *==-7 9999 -78 ,   - 333455554433 -   , 87- 9999 7-==* 99999999 *==-7 9999 -78 ,   - 333455554433 -   , 87- 9999 7-==* 9999",
"99999 *==-7 999 =-7- ,22    44555544    22, -7-= 999 7-==* 9999999999 *==-7 999 =-7- ,22    44555544    22, -7-= 999 7-==* 99999",
"999999 *==-7 999 =-7 ,22233345555554333222, 7-= 999 7-==* 999999999999 *==-7 999 =-7 ,22233345555554333222, 7-= 999 7-==* 999999",
"9999999 *=--7 99 *=-- 22233345555554433222 --=* 99 7--=* 99999999999999 *=--7 99 *=-- 22233345555554433222 --=* 99 7--=* 9999999",
"99999999 *=--7 99 *=--  2334455555544333  --=* 99 7--=* 9999999999999999 *=--7 99 *=--  2334455555544333  --=* 99 7--=* 99999999",
"9999999   *=--- 99  ==--  344555555443  --==  99 ---=*   99999999999999   *=--- 99  ==--  344555555443  --==  99 ---=*   9999999",
"999999 *=- *==--  99        44555544        99  --==* -=* 999999999999 *=- *==--  99        44555544        99  --==* -=* 999999",
"99999 *=---  *==--    222333445555443332,2    --==*  ---=* 9999999999 *=---  *==--    222333445555443332,2    --==*  ---=* 99999",
"99999 =--77-=   ===---    333445544433    ---===   =-77--= 9999999999 =--77-=   ===---    333445544433    ---===   =-77--= 99999",
"9999 *=-77-XX1%+   ====---  34444443  ---====   +%1XX-77-=* 99999999 *=-77-XX1%+   ====---  34444443  ---====   +%1XX-77-=* 9999",
"9999 =--77X+%%+ **=       333344443333       =** +%%+X77--= 99999999 =--77X+%%+ **=       333344443333       =** +%%+X77--= 9999",
"999 *=-778 ..+O *= ,,,22223333333333332222,,, =* O+.. 877-=* 999999 *=-778 ..+O *= ,,,22223333333333332222,,, =* O+.. 877-=* 999",
"999 *=-778 oo.. *= ,,,,2222333333333322222,,, =* ..oo 877-=* 999999 *=-778 ##.. *= ,,,,2222333333333322222,,, =* ..## 877-=* 999",
"9999 ==-77 oooo *=- ,,,,22223333333322222,,, -=* oooo 77-== 99999999 ==-77 #### *=- ,,,,22223333333322222,,, -=* #### 77-== 9999",
"9999 *=--78 ooo *=-7 ,,,,222222222222222,,, 7-=* ooo 87--=* 99999999 *=--78 ### *=-7 ,,,,222222222222222,,, 7-=* ### 87--=* 9999",
"99999 *=--7 $$oo *=-7  ,,,222222222222,,,  7-=* oooo 7--=* 9999999999 *=--7 $$## *=-7  ,,,222222222222,,,  7-=* #### 7--=* 99999",
"999999 *=--7 @@o$ *=-78  ,,,,,,,,,,,,,,  87-=* oo@@ 7--=* @@9999999999 *=--7 &&#$ *=-78  ,,,,,,,,,,,,,,  87-=* ##&& 7--=* &&9999",
"99999@o *==-7  @o$  =-778   ,,,,,,,,   877-=  @@@  7-==* o@@999999999&# *==-7  &#$  =-778   ,,,,,,,,   877-=  &&&  7-==* #&&9999",
"999999@o  ==--- @@99   =-778  ::::  877-=   @@@@ ---==  o@@99999999999&#  ==--- &&99   =-778  ::::  877-=   &&&& ---==  #&&99999",
"9999999@oo  ==--   @999     ::::999:     @@@@   --==  o@@@9999999999999&##  ==--   &999     ::::999:     &&&&   --==  #&&&999999",
"99999999@@oo  ==---   99999999999::::9999@   ---==  oo@@@999999999999999&&##  ==---   99999999999::::9999&   ---==  ##&&&9999999",
"999999999@@ooo   =----   99999999999999   ----=   o@@@@999999999999999999&&###   =----   99999999999999   ----=   #&&&&999999999",
"99999999999@@@ooo   ==---   99999999   ---==   o@@@@@9999999999999999999999&&&###   ==---   99999999   ---==   #&&&&&99999999999",
"9999999999999@@@@ooo     @@9999999999@@     oo@@@@999999999999999999999999999&&&&###     &&9999999999&&     ##&&&&99999999999999",
"9999999999999999@@@@@@@@@9999999999999@@@@@@@@@999999999999999999999999999999999&&&&&&&&&9999999999999&&&&&&&&&99999999999999999",
"99999999999999999999999999999999999999999999999999999999999999999999999999999999999999999999999999999999999999999999999999999999",
"99999999999999999999999999999999999999999999999999999999999999999999999999999999999999999999999999999999999999999999999999999999",
"99999999999999999999999999999999999999999999999999999999999999999999999999999999999999999999999999999999999999999999999999999999",
"99999999999999999999999999999999999999999999999999999999999999999999999999999999999999999999999999999999999999999999999999999999",
"99999999999999999999999999999999999999999999999999999999999999999999999999999999999999999999999999999999999999999999999999999999"
};
