/* XPM */
static char *exit[] = {
/* columns rows colors chars-per-pixel */
"64 64 26 1 ",
"  c None",
". c #141319",
"X c #250B1B",
"o c #23232A",
"O c #481A2C",
"+ c #5B2132",
"@ c #4B3830",
"# c #483836",
"$ c #7C303D",
"% c #5D483D",
"& c #34364A",
"* c #414760",
"= c #515E78",
"- c #9C312A",
"; c #82573F",
": c #B14332",
"> c #AB693D",
", c #CA5A3B",
"< c #A54748",
"1 c #C07F40",
"2 c #D89D47",
"3 c #EDB84A",
"4 c #F6D954",
"5 c #607590",
"6 c #667F9A",
"7 c #74A0B8",
/* pixels */
"                                                                ",
"                                                                ",
"                                                                ",
"                                                                ",
"                              ....                              ",
"                            ..====..                            ",
"                           .*=6666=*.                           ",
"                          .*=667766=*.                          ",
"                         .&*=677776=*&.                         ",
"                      .. .**=667766=**. ..                      ",
"                     .67.&**==6666==**&.76.                     ",
"                     .=6.&..*==66==*..&.6=.                     ",
"             ...     .*6.&.-.*====*.-.&.6*.     ...             ",
"            .677.    .*6.&.:-.*==*.-:.&.6*.    .776.            ",
"            .7766.   .*=.&&.:-.**.-:.&&.=*.   .6677.            ",
"           .6776o$XX  .=6.&.,:.**.:,.&.6=.  XX$o6776.           ",
"           .=67=o$$<XX.*6.&*...==...*&.6*.XX<$$o=76=.           ",
"           .=67oO++$$+.*=.&&**=66=**&&.=*.+$$++Oo76=.           ",
"           .==6oXXO++O.*=6.&&**==**&&.6=*.O++OXXo6==.           ",
"           .*=6.  XXOOO.==....&**&....==.OOOXX  .6=*.           ",
"           .*=6.    X...*=.=.=.&&.=.=.=*...X    .6=*.           ",
"           .*=6.    .=6.*=.*.=....=.*.=*.6=.    .6=*.           ",
"           .*==.   .*==..*=..*.>>.*..=*..==*.   .==*.           ",
"           .**=.   .**=..&*.>..>>..>.*&..=**.   .=**.           ",
"       .....&*=.   .&*=.>.*.>>.>>.>>.*.>.=*&.   .=*&.....       ",
"      .6776.&*=6. .&.**=..&.>11111>>.&..=**.&. .6=*&.6776.      ",
"     .=776o+.&*=. .&.&**.>.*.111111.*.>.**&.&. .=*&.+o677=.     ",
"    .=676=o$+.*=6.*&&.&*.>.&.111111.&.>.*&.&&*.6=*.+$o=676=.    ",
"    .=675o<$+.&*=6.&.>.**.>.*.1221.*.1.**.>.&.6=*&.+$<o576=.    ",
"   .*==75o<$+O.&*=6..>>.*.11..2222..11.*.>>..6=*&.O+$<o57==*.   ",
"   .**=67o$+O+O.&*=6.>>>..112.2222.111..>>>.6=*&.O+O+$o76=**.   ",
"   .&*=67o+XXOOO.&*=6.>>11.222.33.221.11>>.6=*&.OOOXX+o76=*&.   ",
"   .&*==6.X  XO.=..**=..1112223333322111..=**..=.OX  X.6==*&.   ",
"    .**=6.    X.=6=..*==.12223344332211.==*..=6=.X    .6=**.    ",
"    .&**=6.    .=67.>...=.222344443322.=...>.76=.    .6=**&.    ",
"     .&**=6.   .*=6=.>11....33444433....11>.=6=*.   .6=**&.     ",
"      .&**=6.   .*=6.>11122234444443222111>.6=*.   .6=**&.      ",
"       .&*==6.  .&*==.11122234444443322111.==*&.  .6==*&.       ",
"        .&*==6.  .&*==..1223344444433222..==*&.  .6==*&.        ",
"       ...&*===.  ..**==..233444444332..==**..  .===*&...       ",
"      .&*=.&**==..  ........33444433........  ..==**&.=*&.      ",
"     .&*===..&**==....111222334444332221>1....==**&..===*&.     ",
"     .*==66=*...***===....222334433322....===***...*=66==*.     ",
"    .&*=66=oo<$+...****===..23333332..===****...+$<oo=66=*&.    ",
"    .*==66o+$$+.&&*.......222233332222.......*&&.+$$+o66==*.    ",
"   .&*=667.XX+O.&*.>>>11112222222222221111>>>.*&.O+XX.766=*&.   ",
"   .&*=667.@@XX.&*.>>>>1111222222222211111>>>.*&.XX@@.766=*&.   ",
"    .**=66.@@@@.&*=.>>>>11112222222211111>>>.=*&.@@@@.66=**.    ",
"    .&*==67.@@@.&*=6.>>>>111111111111111>>>.6=*&.@@@.76==*&.    ",
"     .&*==6.##@@.&*=6..>>>111111111111>>>..6=*&.@@@@.6==*&.     ",
"      .&*==6.%%@#.&*=67..>>>>>>>>>>>>>>..76=*&.@@%%.6==*&.%%    ",
"     %@.&**=6..%@#..*=667...>>>>>>>>...766=*..%%%..6=**&.@%%    ",
"      %@..**===.%%  ...*=667..;;;;..766=*...%%%%.===**..@%%     ",
"       %@@..**==...%   .....;;;;   ;.....%%%%...==**..@%%%      ",
"        %%@@..**===...           ;;;;    %...===**..@@%%%       ",
"         %%@@@...*====...              ...====*...@%%%%         ",
"           %%%@@@...**===...        ...===**...@%%%%%           ",
"             %%%%@@@.....%%          %%.....@@%%%%              ",
"                %%%%%%%%%             %%%%%%%%%                 ",
"                                                                ",
"                                                                ",
"                                                                ",
"                                                                ",
"                                                                "
};
